<svg xmlns="http://www.w3.org/2000/svg" xmlns:xlink="http://www.w3.org/1999/xlink" width="1000" zoomAndPan="magnify" viewBox="0 0 750 599.999999" height="800" preserveAspectRatio="xMidYMid meet" version="1.0"><defs><g/><clipPath id="b4d483494a"><path d="M 21.140625 249.160156 L 298.640625 249.160156 L 298.640625 477 L 21.140625 477 Z M 21.140625 249.160156 " clip-rule="nonzero"/></clipPath><clipPath id="682f8d2ba2"><path d="M 277 522 L 296 522 L 296 540.160156 L 277 540.160156 Z M 277 522 " clip-rule="nonzero"/></clipPath><clipPath id="48492f5f54"><path d="M 96 23 L 335 23 L 335 241 L 96 241 Z M 96 23 " clip-rule="nonzero"/></clipPath><clipPath id="2fe59e3b23"><path d="M 109.449219 6 L 357.546875 40.613281 L 329.359375 242.65625 L 81.261719 208.042969 Z M 109.449219 6 " clip-rule="nonzero"/></clipPath><clipPath id="6800e57426"><path d="M 109.449219 6 L 357.546875 40.613281 L 329.359375 242.65625 L 81.261719 208.042969 Z M 109.449219 6 " clip-rule="nonzero"/></clipPath><clipPath id="84dddd7f26"><path d="M 109.449219 6 L 357.546875 40.613281 L 329.359375 242.65625 L 81.261719 208.042969 Z M 109.449219 6 " clip-rule="nonzero"/></clipPath><clipPath id="48871ef9e0"><path d="M 94 21 L 337 21 L 337 243 L 94 243 Z M 94 21 " clip-rule="nonzero"/></clipPath><clipPath id="d042bd01f6"><path d="M 109.449219 6 L 357.546875 40.613281 L 329.359375 242.65625 L 81.261719 208.042969 Z M 109.449219 6 " clip-rule="nonzero"/></clipPath><clipPath id="4922d5b346"><path d="M 109.449219 6 L 357.546875 40.613281 L 329.359375 242.65625 L 81.261719 208.042969 Z M 109.449219 6 " clip-rule="nonzero"/></clipPath><clipPath id="4143b77952"><path d="M 109.449219 6 L 357.546875 40.613281 L 329.359375 242.65625 L 81.261719 208.042969 Z M 109.449219 6 " clip-rule="nonzero"/></clipPath><clipPath id="e0782ba385"><path d="M 375 29 L 727 29 L 727 314.761719 L 375 314.761719 Z M 375 29 " clip-rule="nonzero"/></clipPath><clipPath id="1d6ed5bf98"><path d="M 700 105 L 737.25 105 L 737.25 201 L 700 201 Z M 700 105 " clip-rule="nonzero"/></clipPath></defs><g fill="#f57c00" fill-opacity="1"><g transform="translate(311.625847, 567.963038)"><g><path d="M 14.121094 -4.519531 C 14.121094 -1.695312 15.816406 0 18.640625 0 L 48.011719 0 C 51.117188 0 52.53125 -1.695312 52.53125 -4.519531 L 52.53125 -75.6875 L 86.417969 -75.6875 C 112.964844 -75.6875 127.085938 -90.089844 127.085938 -116.355469 L 127.085938 -185.265625 C 127.085938 -211.8125 112.964844 -225.933594 86.417969 -225.933594 L 18.640625 -225.933594 C 15.816406 -225.933594 14.121094 -224.238281 14.121094 -221.414062 Z M 52.53125 -112.964844 L 52.53125 -188.652344 L 77.382812 -188.652344 C 85.007812 -188.652344 88.679688 -184.699219 88.679688 -177.355469 L 88.679688 -124.261719 C 88.679688 -117.203125 85.007812 -112.964844 77.382812 -112.964844 Z M 52.53125 -112.964844 "/></g></g></g><g fill="#f57c00" fill-opacity="1"><g transform="translate(452.833568, 567.963038)"><g><path d="M 130.195312 -185.265625 C 130.195312 -211.8125 116.074219 -225.933594 89.527344 -225.933594 L 18.640625 -225.933594 C 15.816406 -225.933594 14.121094 -224.238281 14.121094 -221.414062 L 14.121094 -4.519531 C 14.121094 -1.695312 15.816406 0 18.640625 0 L 48.011719 0 C 50.835938 0 52.53125 -1.695312 52.53125 -4.519531 L 52.53125 -75.6875 L 72.015625 -75.6875 L 90.9375 -3.953125 C 91.503906 -1.410156 92.914062 0 95.738281 0 L 125.109375 0 C 128.214844 0 129.910156 -1.695312 129.0625 -5.082031 L 109.578125 -79.078125 C 123.132812 -85.007812 130.195312 -97.433594 130.195312 -116.355469 Z M 52.53125 -112.964844 L 52.53125 -188.652344 L 80.488281 -188.652344 C 87.832031 -188.652344 91.785156 -184.699219 91.785156 -177.355469 L 91.785156 -124.261719 C 91.785156 -116.921875 87.832031 -112.964844 80.488281 -112.964844 Z M 52.53125 -112.964844 "/></g></g></g><g fill="#f57c00" fill-opacity="1"><g transform="translate(597.147865, 567.963038)"><g><path d="M 14.121094 -40.667969 C 14.121094 -14.121094 28.242188 0 54.789062 0 L 86.417969 0 C 112.964844 0 127.085938 -14.121094 127.085938 -40.667969 L 127.085938 -185.265625 C 127.085938 -211.8125 112.964844 -225.933594 86.417969 -225.933594 L 54.789062 -225.933594 C 28.242188 -225.933594 14.121094 -211.8125 14.121094 -185.265625 Z M 62.980469 -36.429688 C 55.636719 -36.429688 51.683594 -40.101562 51.683594 -47.726562 L 51.683594 -178.203125 C 51.683594 -185.546875 55.636719 -189.5 62.980469 -189.5 L 79.359375 -189.5 C 86.703125 -189.5 90.65625 -185.546875 90.65625 -178.203125 L 90.65625 -47.726562 C 90.65625 -40.101562 86.703125 -36.429688 79.359375 -36.429688 Z M 62.980469 -36.429688 "/></g></g></g><g fill="#000000" fill-opacity="1"><g transform="translate(426.71922, 154.703077)"><g><path d="M 9.359375 -11.023438 L 9.359375 -12.824219 C 9.359375 -15.75 10.125 -17.371094 12.328125 -17.371094 C 13.949219 -17.371094 14.941406 -16.46875 14.941406 -14.398438 L 22.726562 -14.398438 L 22.726562 -15.480469 C 22.726562 -21.148438 19.078125 -24.480469 12.148438 -24.480469 C 4.453125 -24.480469 1.125 -19.800781 1.125 -12.824219 L 1.125 -11.023438 C 1.125 -4.050781 4.453125 0.628906 12.148438 0.628906 C 19.078125 0.628906 22.726562 -2.699219 22.726562 -7.921875 L 22.726562 -9 L 14.941406 -9 C 14.941406 -7.425781 13.949219 -6.480469 12.328125 -6.480469 C 10.125 -6.480469 9.359375 -8.101562 9.359375 -11.023438 Z M 9.359375 -11.023438 "/></g></g></g><g fill="#000000" fill-opacity="1"><g transform="translate(450.479202, 154.703077)"><g><path d="M 12.601562 0.628906 C 20.476562 0.628906 24.074219 -4.050781 24.074219 -11.023438 L 24.074219 -12.824219 C 24.074219 -19.800781 20.476562 -24.480469 12.601562 -24.480469 C 4.726562 -24.480469 1.125 -19.800781 1.125 -12.824219 L 1.125 -11.023438 C 1.125 -4.050781 4.726562 0.628906 12.601562 0.628906 Z M 12.601562 -6.480469 C 10.351562 -6.480469 9.359375 -8.101562 9.359375 -11.023438 L 9.359375 -12.824219 C 9.359375 -15.75 10.351562 -17.371094 12.601562 -17.371094 C 14.851562 -17.371094 15.839844 -15.75 15.839844 -12.824219 L 15.839844 -11.023438 C 15.839844 -8.101562 14.851562 -6.480469 12.601562 -6.480469 Z M 12.601562 -6.480469 "/></g></g></g><g fill="#000000" fill-opacity="1"><g transform="translate(475.679183, 154.703077)"><g><path d="M 24.796875 0 L 24.796875 -15.976562 C 24.796875 -20.25 22.996094 -24.480469 17.371094 -24.480469 C 13.816406 -24.480469 11.386719 -22.996094 9.808594 -20.878906 L 9.269531 -23.851562 L 1.800781 -23.851562 L 2.25 -17.101562 L 2.25 0 L 10.53125 0 L 10.53125 -15.523438 C 10.980469 -16.199219 12.195312 -17.371094 13.996094 -17.371094 C 16.246094 -17.371094 16.515625 -15.75 16.515625 -14.625 L 16.515625 0 Z M 24.796875 0 "/></g></g></g><g fill="#000000" fill-opacity="1"><g transform="translate(502.454156, 154.703077)"><g><path d="M 10.304688 -24.480469 C 3.78125 -24.480469 1.53125 -19.800781 1.53125 -12.824219 L 1.53125 -11.023438 C 1.53125 -4.050781 3.78125 0.628906 10.304688 0.628906 C 13.546875 0.628906 15.613281 -0.765625 16.964844 -2.746094 L 17.503906 0 L 24.976562 0 L 24.523438 -6.75 L 24.523438 -36 L 16.246094 -36 L 16.246094 -22.050781 C 14.894531 -23.488281 12.960938 -24.480469 10.304688 -24.480469 Z M 16.246094 -8.324219 C 15.796875 -7.648438 14.578125 -6.480469 12.78125 -6.480469 C 10.53125 -6.480469 9.765625 -8.101562 9.765625 -11.023438 L 9.765625 -12.824219 C 9.765625 -15.75 10.53125 -17.371094 12.78125 -17.371094 C 14.578125 -17.371094 15.796875 -16.199219 16.246094 -15.523438 Z M 16.246094 -8.324219 "/></g></g></g><g fill="#000000" fill-opacity="1"><g transform="translate(529.22913, 154.703077)"><g><path d="M 2.160156 0 L 10.441406 0 L 10.441406 -23.851562 L 2.160156 -23.851562 Z M 10.574219 -35.101562 L 2.023438 -35.101562 L 2.023438 -26.550781 L 10.574219 -26.550781 Z M 10.574219 -35.101562 "/></g></g></g><g fill="#000000" fill-opacity="1"><g transform="translate(541.82912, 154.703077)"><g><path d="M 12.554688 -23.851562 L 12.554688 -30.601562 L 4.273438 -30.601562 L 4.273438 -23.851562 L 0.675781 -23.851562 L 0.675781 -16.648438 L 4.273438 -16.648438 L 4.273438 -8.773438 C 4.273438 -1.800781 8.101562 0.628906 13.816406 0.628906 C 16.066406 0.628906 17.414062 0.226562 17.820312 0 L 17.820312 -6.75 C 17.59375 -6.660156 16.46875 -6.480469 15.75 -6.480469 C 13.859375 -6.480469 12.554688 -6.976562 12.554688 -9.675781 L 12.554688 -16.648438 L 18.269531 -16.648438 L 18.269531 -23.851562 Z M 12.554688 -23.851562 "/></g></g></g><g fill="#000000" fill-opacity="1"><g transform="translate(561.629104, 154.703077)"><g><path d="M 2.160156 0 L 10.441406 0 L 10.441406 -23.851562 L 2.160156 -23.851562 Z M 10.574219 -35.101562 L 2.023438 -35.101562 L 2.023438 -26.550781 L 10.574219 -26.550781 Z M 10.574219 -35.101562 "/></g></g></g><g fill="#000000" fill-opacity="1"><g transform="translate(574.229094, 154.703077)"><g><path d="M 12.601562 0.628906 C 20.476562 0.628906 24.074219 -4.050781 24.074219 -11.023438 L 24.074219 -12.824219 C 24.074219 -19.800781 20.476562 -24.480469 12.601562 -24.480469 C 4.726562 -24.480469 1.125 -19.800781 1.125 -12.824219 L 1.125 -11.023438 C 1.125 -4.050781 4.726562 0.628906 12.601562 0.628906 Z M 12.601562 -6.480469 C 10.351562 -6.480469 9.359375 -8.101562 9.359375 -11.023438 L 9.359375 -12.824219 C 9.359375 -15.75 10.351562 -17.371094 12.601562 -17.371094 C 14.851562 -17.371094 15.839844 -15.75 15.839844 -12.824219 L 15.839844 -11.023438 C 15.839844 -8.101562 14.851562 -6.480469 12.601562 -6.480469 Z M 12.601562 -6.480469 "/></g></g></g><g fill="#000000" fill-opacity="1"><g transform="translate(599.429075, 154.703077)"><g><path d="M 24.796875 0 L 24.796875 -15.976562 C 24.796875 -20.25 22.996094 -24.480469 17.371094 -24.480469 C 13.816406 -24.480469 11.386719 -22.996094 9.808594 -20.878906 L 9.269531 -23.851562 L 1.800781 -23.851562 L 2.25 -17.101562 L 2.25 0 L 10.53125 0 L 10.53125 -15.523438 C 10.980469 -16.199219 12.195312 -17.371094 13.996094 -17.371094 C 16.246094 -17.371094 16.515625 -15.75 16.515625 -14.625 L 16.515625 0 Z M 24.796875 0 "/></g></g></g><g fill="#000000" fill-opacity="1"><g transform="translate(626.20406, 154.703077)"><g><path d="M 16.199219 0 L 23.671875 0 L 23.21875 -6.75 L 23.21875 -15.300781 C 23.21875 -21.195312 20.746094 -24.480469 12.601562 -24.480469 C 4.5 -24.480469 2.023438 -20.699219 2.023438 -16.378906 L 2.023438 -15.976562 L 9.808594 -15.976562 C 9.808594 -17.101562 10.351562 -18.269531 12.375 -18.269531 C 14.175781 -18.269531 14.851562 -17.460938 14.941406 -15.75 L 9.898438 -14.941406 C 4.589844 -14.128906 1.125 -12.375 1.125 -7.199219 L 1.125 -6.75 C 1.125 -2.925781 2.925781 0.628906 8.550781 0.628906 C 11.699219 0.628906 14.085938 -0.496094 15.75 -2.25 Z M 11.699219 -6.03125 C 9.988281 -6.03125 9.359375 -7.019531 9.359375 -7.964844 L 9.359375 -8.234375 C 9.359375 -9.316406 9.765625 -10.171875 11.699219 -10.484375 L 14.941406 -10.980469 L 14.941406 -7.335938 C 14.265625 -6.703125 13.09375 -6.03125 11.699219 -6.03125 Z M 11.699219 -6.03125 "/></g></g></g><g fill="#000000" fill-opacity="1"><g transform="translate(651.404041, 154.703077)"><g><path d="M 2.160156 0 L 10.441406 0 L 10.441406 -36 L 2.160156 -36 Z M 2.160156 0 "/></g></g></g><g fill="#000000" fill-opacity="1"><g transform="translate(495.121565, 217.703075)"><g><path d="M 2.160156 0 L 10.441406 0 L 10.441406 -36 L 2.160156 -36 Z M 2.160156 0 "/></g></g></g><g fill="#000000" fill-opacity="1"><g transform="translate(507.721556, 217.703075)"><g><path d="M 12.601562 0.628906 C 20.476562 0.628906 24.074219 -4.050781 24.074219 -11.023438 L 24.074219 -12.824219 C 24.074219 -19.800781 20.476562 -24.480469 12.601562 -24.480469 C 4.726562 -24.480469 1.125 -19.800781 1.125 -12.824219 L 1.125 -11.023438 C 1.125 -4.050781 4.726562 0.628906 12.601562 0.628906 Z M 12.601562 -6.480469 C 10.351562 -6.480469 9.359375 -8.101562 9.359375 -11.023438 L 9.359375 -12.824219 C 9.359375 -15.75 10.351562 -17.371094 12.601562 -17.371094 C 14.851562 -17.371094 15.839844 -15.75 15.839844 -12.824219 L 15.839844 -11.023438 C 15.839844 -8.101562 14.851562 -6.480469 12.601562 -6.480469 Z M 12.601562 -6.480469 "/></g></g></g><g fill="#000000" fill-opacity="1"><g transform="translate(532.921536, 217.703075)"><g><path d="M 15.839844 -0.675781 C 15.839844 2.25 14.625 2.96875 12.421875 2.96875 C 9.898438 2.96875 9.359375 1.574219 9.359375 0 L 1.574219 0 L 1.574219 1.078125 C 1.574219 5.851562 4.320312 9.628906 12.601562 9.628906 C 20.296875 9.628906 24.121094 6.300781 24.121094 -0.675781 L 24.121094 -17.101562 L 24.570312 -23.851562 L 17.101562 -23.851562 L 16.605469 -21.238281 C 15.253906 -23.128906 13.140625 -24.480469 9.898438 -24.480469 C 3.601562 -24.480469 1.125 -19.800781 1.125 -13.273438 L 1.125 -11.925781 C 1.125 -4.949219 3.601562 -0.71875 9.898438 -0.71875 C 12.554688 -0.71875 14.488281 -1.574219 15.839844 -2.96875 Z M 15.839844 -9.675781 C 15.390625 -9 14.175781 -7.828125 12.375 -7.828125 C 10.351562 -7.828125 9.359375 -9 9.359375 -11.925781 L 9.359375 -13.273438 C 9.359375 -15.75 10.351562 -17.371094 12.375 -17.371094 C 14.175781 -17.371094 15.390625 -16.199219 15.839844 -15.523438 Z M 15.839844 -9.675781 "/></g></g></g><g fill="#000000" fill-opacity="1"><g transform="translate(559.246505, 217.703075)"><g><path d="M 2.160156 0 L 10.441406 0 L 10.441406 -23.851562 L 2.160156 -23.851562 Z M 10.574219 -35.101562 L 2.023438 -35.101562 L 2.023438 -26.550781 L 10.574219 -26.550781 Z M 10.574219 -35.101562 "/></g></g></g><g fill="#000000" fill-opacity="1"><g transform="translate(571.846496, 217.703075)"><g><path d="M 9.359375 -11.023438 L 9.359375 -12.824219 C 9.359375 -15.75 10.125 -17.371094 12.328125 -17.371094 C 13.949219 -17.371094 14.941406 -16.46875 14.941406 -14.398438 L 22.726562 -14.398438 L 22.726562 -15.480469 C 22.726562 -21.148438 19.078125 -24.480469 12.148438 -24.480469 C 4.453125 -24.480469 1.125 -19.800781 1.125 -12.824219 L 1.125 -11.023438 C 1.125 -4.050781 4.453125 0.628906 12.148438 0.628906 C 19.078125 0.628906 22.726562 -2.699219 22.726562 -7.921875 L 22.726562 -9 L 14.941406 -9 C 14.941406 -7.425781 13.949219 -6.480469 12.328125 -6.480469 C 10.125 -6.480469 9.359375 -8.101562 9.359375 -11.023438 Z M 9.359375 -11.023438 "/></g></g></g><path fill="#ffffff" d="M 30.707031 412.515625 C 30.707031 427.90625 43.175781 440.390625 58.550781 440.390625 C 59.863281 440.390625 61.160156 440.304688 62.421875 440.121094 C 69.222656 459.742188 87.855469 473.832031 109.785156 473.832031 C 122.648438 473.832031 134.386719 468.976562 143.265625 460.992188 C 147.039062 463.027344 151.363281 464.167969 155.957031 464.167969 C 164.179688 464.167969 171.53125 460.488281 176.480469 454.675781 C 184.027344 460.625 193.542969 464.167969 203.898438 464.167969 C 213.710938 464.167969 222.773438 460.980469 230.125 455.570312 C 236.007812 463.507812 245.425781 468.632812 256.046875 468.632812 C 273.886719 468.632812 288.34375 454.148438 288.34375 436.292969 C 288.34375 426.289062 283.796875 417.335938 276.667969 411.414062 C 288.390625 401.050781 295.777344 385.90625 295.777344 369.042969 C 295.777344 345.402344 281.261719 325.15625 260.667969 316.742188 C 262.714844 311.410156 263.839844 305.609375 263.839844 299.550781 C 263.839844 273.074219 242.402344 251.613281 215.953125 251.613281 C 200.210938 251.613281 186.230469 259.21875 177.507812 270.964844 C 175.046875 269.984375 172.363281 269.445312 169.558594 269.445312 C 164.351562 269.445312 159.585938 271.296875 155.875 274.363281 C 150.59375 261.03125 137.59375 251.613281 122.402344 251.613281 C 102.839844 251.613281 86.925781 267.238281 86.421875 286.699219 C 72.703125 290.523438 61.640625 300.738281 56.628906 313.933594 C 54.09375 313.039062 51.375 312.5625 48.53125 312.5625 C 34.992188 312.5625 24.027344 323.535156 24.027344 337.085938 C 24.027344 346.113281 28.90625 353.996094 36.15625 358.253906 C 35.03125 361.515625 34.417969 365.023438 34.417969 368.664062 C 34.417969 376.769531 37.433594 384.175781 42.394531 389.832031 C 35.3125 394.871094 30.707031 403.160156 30.707031 412.515625 Z M 30.707031 412.515625 " fill-opacity="1" fill-rule="nonzero"/><g clip-path="url(#b4d483494a)"><path fill="#000000" d="M 109.785156 476.285156 C 88.050781 476.285156 68.609375 462.894531 60.78125 442.769531 C 60.046875 442.820312 59.3125 442.84375 58.550781 442.84375 C 41.84375 442.84375 28.253906 429.242188 28.253906 412.515625 C 28.253906 403.601562 32.199219 395.152344 38.914062 389.4375 C 34.417969 383.464844 31.96875 376.179688 31.96875 368.664062 C 31.96875 365.476562 32.398438 362.335938 33.253906 359.308594 C 26.015625 354.304688 21.578125 345.964844 21.578125 337.085938 C 21.578125 322.210938 33.671875 310.109375 48.53125 310.109375 C 50.808594 310.109375 53.039062 310.390625 55.207031 310.941406 C 60.621094 298.542969 71.195312 288.96875 84.058594 284.847656 C 85.480469 264.699219 101.992188 249.160156 122.402344 249.160156 C 137.226562 249.160156 150.445312 257.488281 156.890625 270.621094 C 160.675781 268.265625 165.0625 266.992188 169.558594 266.992188 C 171.984375 266.992188 174.359375 267.347656 176.652344 268.058594 C 186.15625 256.199219 200.710938 249.160156 215.953125 249.160156 C 243.710938 249.160156 266.289062 271.761719 266.289062 299.550781 C 266.289062 304.984375 265.433594 310.304688 263.742188 315.40625 C 284.765625 324.972656 298.226562 345.769531 298.226562 369.042969 C 298.226562 385.023438 291.722656 400.304688 280.304688 411.386719 C 287.007812 417.914062 290.792969 426.851562 290.792969 436.292969 C 290.792969 455.472656 275.207031 471.085938 256.046875 471.085938 C 245.90625 471.085938 236.203125 466.570312 229.648438 458.894531 C 222.003906 463.960938 213.144531 466.621094 203.898438 466.621094 C 194.046875 466.621094 184.722656 463.640625 176.785156 457.964844 C 171.285156 463.492188 163.8125 466.621094 155.957031 466.621094 C 151.683594 466.621094 147.457031 465.6875 143.632812 463.921875 C 134.164062 471.90625 122.207031 476.285156 109.785156 476.285156 Z M 62.421875 437.667969 C 63.453125 437.667969 64.394531 438.316406 64.738281 439.3125 C 71.378906 458.492188 89.484375 471.378906 109.785156 471.378906 C 121.558594 471.378906 132.867188 467.039062 141.625 459.164062 C 142.398438 458.476562 143.511719 458.34375 144.429688 458.832031 C 147.921875 460.722656 151.917969 461.714844 155.957031 461.714844 C 163.148438 461.714844 169.949219 458.5625 174.617188 453.082031 C 175.472656 452.078125 176.96875 451.929688 178 452.75 C 185.445312 458.613281 194.402344 461.714844 203.898438 461.714844 C 212.886719 461.714844 221.453125 458.90625 228.679688 453.597656 C 229.769531 452.789062 231.289062 453.035156 232.097656 454.113281 C 237.78125 461.777344 246.515625 466.179688 256.046875 466.179688 C 272.5 466.179688 285.890625 452.777344 285.890625 436.292969 C 285.890625 427.378906 281.960938 418.992188 275.097656 413.300781 C 274.546875 412.847656 274.230469 412.171875 274.214844 411.449219 C 274.203125 410.738281 274.511719 410.050781 275.050781 409.574219 C 286.664062 399.296875 293.328125 384.53125 293.328125 369.042969 C 293.328125 346.984375 280.144531 327.351562 259.734375 319.011719 C 258.5 318.507812 257.898438 317.109375 258.375 315.859375 C 260.371094 310.648438 261.390625 305.167969 261.390625 299.550781 C 261.390625 274.472656 241.003906 254.066406 215.953125 254.066406 C 201.640625 254.066406 188.007812 260.933594 179.480469 272.425781 C 178.820312 273.320312 177.644531 273.652344 176.601562 273.246094 C 174.359375 272.351562 171.984375 271.898438 169.558594 271.898438 C 165.148438 271.898438 160.835938 273.441406 157.429688 276.25 C 156.828125 276.753906 156.019531 276.925781 155.261719 276.730469 C 154.5 276.53125 153.875 275.980469 153.59375 275.257812 C 148.5 262.394531 136.246094 254.066406 122.402344 254.066406 C 104.078125 254.066406 89.351562 268.425781 88.875 286.761719 C 88.847656 287.839844 88.113281 288.769531 87.085938 289.066406 C 74.207031 292.660156 63.683594 302.285156 58.917969 314.804688 C 58.441406 316.054688 57.070312 316.695312 55.820312 316.253906 C 53.503906 315.429688 51.054688 315.015625 48.53125 315.015625 C 36.367188 315.015625 26.480469 324.910156 26.480469 337.085938 C 26.480469 344.886719 30.65625 352.183594 37.394531 356.132812 C 38.398438 356.71875 38.851562 357.945312 38.472656 359.050781 C 37.40625 362.128906 36.867188 365.367188 36.867188 368.664062 C 36.867188 375.863281 39.488281 382.804688 44.230469 388.210938 C 44.683594 388.738281 44.90625 389.425781 44.820312 390.113281 C 44.734375 390.800781 44.367188 391.425781 43.800781 391.828125 C 37.125 396.574219 33.144531 404.3125 33.144531 412.515625 C 33.144531 426.535156 44.539062 437.9375 58.539062 437.9375 C 59.765625 437.9375 60.953125 437.851562 62.054688 437.691406 C 62.191406 437.679688 62.3125 437.667969 62.421875 437.667969 Z M 62.421875 437.667969 " fill-opacity="1" fill-rule="nonzero"/></g><path fill="#ffffff" d="M 246.492188 489.808594 C 246.492188 490.484375 246.460938 491.15625 246.394531 491.828125 C 246.328125 492.5 246.230469 493.164062 246.097656 493.828125 C 245.964844 494.488281 245.800781 495.140625 245.605469 495.785156 C 245.410156 496.433594 245.183594 497.066406 244.925781 497.6875 C 244.667969 498.3125 244.382812 498.921875 244.0625 499.515625 C 243.746094 500.109375 243.402344 500.6875 243.027344 501.25 C 242.652344 501.808594 242.25 502.351562 241.824219 502.871094 C 241.394531 503.394531 240.945312 503.890625 240.46875 504.367188 C 239.992188 504.847656 239.492188 505.296875 238.972656 505.726562 C 238.453125 506.152344 237.910156 506.554688 237.351562 506.929688 C 236.792969 507.304688 236.214844 507.652344 235.621094 507.96875 C 235.027344 508.285156 234.417969 508.574219 233.796875 508.832031 C 233.171875 509.089844 232.539062 509.316406 231.894531 509.511719 C 231.25 509.707031 230.597656 509.871094 229.9375 510.003906 C 229.277344 510.136719 228.609375 510.234375 227.941406 510.300781 C 227.269531 510.367188 226.597656 510.398438 225.921875 510.398438 C 225.25 510.398438 224.578125 510.367188 223.90625 510.300781 C 223.238281 510.234375 222.570312 510.136719 221.910156 510.003906 C 221.25 509.871094 220.597656 509.707031 219.953125 509.511719 C 219.308594 509.316406 218.675781 509.089844 218.050781 508.832031 C 217.429688 508.574219 216.820312 508.285156 216.226562 507.96875 C 215.632812 507.652344 215.054688 507.304688 214.496094 506.929688 C 213.9375 506.554688 213.394531 506.152344 212.875 505.726562 C 212.355469 505.296875 211.855469 504.847656 211.378906 504.367188 C 210.902344 503.890625 210.449219 503.394531 210.023438 502.871094 C 209.597656 502.351562 209.195312 501.808594 208.820312 501.25 C 208.445312 500.6875 208.101562 500.109375 207.78125 499.515625 C 207.464844 498.921875 207.179688 498.3125 206.921875 497.6875 C 206.664062 497.066406 206.4375 496.433594 206.238281 495.785156 C 206.042969 495.140625 205.882812 494.488281 205.75 493.828125 C 205.617188 493.164062 205.519531 492.5 205.453125 491.828125 C 205.386719 491.15625 205.355469 490.484375 205.355469 489.808594 C 205.355469 489.136719 205.386719 488.464844 205.453125 487.792969 C 205.519531 487.121094 205.617188 486.453125 205.75 485.792969 C 205.882812 485.132812 206.042969 484.480469 206.238281 483.832031 C 206.4375 483.1875 206.664062 482.554688 206.921875 481.929688 C 207.179688 481.308594 207.464844 480.699219 207.78125 480.105469 C 208.101562 479.507812 208.445312 478.933594 208.820312 478.371094 C 209.195312 477.808594 209.597656 477.269531 210.023438 476.75 C 210.449219 476.226562 210.902344 475.726562 211.378906 475.25 C 211.855469 474.773438 212.355469 474.320312 212.875 473.894531 C 213.394531 473.464844 213.9375 473.066406 214.496094 472.691406 C 215.054688 472.316406 215.632812 471.96875 216.226562 471.652344 C 216.820312 471.332031 217.429688 471.046875 218.050781 470.789062 C 218.675781 470.53125 219.308594 470.304688 219.953125 470.105469 C 220.597656 469.910156 221.25 469.746094 221.910156 469.617188 C 222.570312 469.484375 223.238281 469.386719 223.90625 469.320312 C 224.578125 469.253906 225.25 469.21875 225.921875 469.21875 C 226.597656 469.21875 227.269531 469.253906 227.941406 469.320312 C 228.609375 469.386719 229.277344 469.484375 229.9375 469.617188 C 230.597656 469.746094 231.25 469.910156 231.894531 470.105469 C 232.539062 470.304688 233.171875 470.53125 233.796875 470.789062 C 234.417969 471.046875 235.027344 471.332031 235.621094 471.652344 C 236.214844 471.96875 236.792969 472.316406 237.351562 472.691406 C 237.910156 473.066406 238.453125 473.464844 238.972656 473.894531 C 239.492188 474.320312 239.992188 474.773438 240.46875 475.25 C 240.945312 475.726562 241.394531 476.226562 241.824219 476.75 C 242.25 477.269531 242.652344 477.808594 243.027344 478.371094 C 243.402344 478.933594 243.746094 479.507812 244.0625 480.105469 C 244.382812 480.699219 244.667969 481.308594 244.925781 481.929688 C 245.183594 482.554688 245.410156 483.1875 245.605469 483.832031 C 245.800781 484.480469 245.964844 485.132812 246.097656 485.792969 C 246.230469 486.453125 246.328125 487.121094 246.394531 487.792969 C 246.460938 488.464844 246.492188 489.136719 246.492188 489.808594 Z M 246.492188 489.808594 " fill-opacity="1" fill-rule="nonzero"/><path fill="#000000" d="M 225.921875 512.851562 C 213.230469 512.851562 202.902344 502.515625 202.902344 489.808594 C 202.902344 477.105469 213.230469 466.769531 225.921875 466.769531 C 238.617188 466.769531 248.941406 477.105469 248.941406 489.808594 C 248.941406 502.515625 238.617188 512.851562 225.921875 512.851562 Z M 225.921875 471.671875 C 215.9375 471.671875 207.804688 479.804688 207.804688 489.808594 C 207.804688 499.816406 215.925781 507.945312 225.921875 507.945312 C 235.921875 507.945312 244.042969 499.816406 244.042969 489.808594 C 244.042969 479.804688 235.90625 471.671875 225.921875 471.671875 Z M 225.921875 471.671875 " fill-opacity="1" fill-rule="nonzero"/><path fill="#ffffff" d="M 273.222656 518.738281 C 273.222656 519.617188 273.136719 520.488281 272.96875 521.347656 C 272.796875 522.210938 272.542969 523.046875 272.207031 523.859375 C 271.871094 524.667969 271.460938 525.441406 270.972656 526.171875 C 270.484375 526.902344 269.929688 527.578125 269.308594 528.199219 C 268.6875 528.820312 268.015625 529.375 267.285156 529.863281 C 266.554688 530.351562 265.785156 530.761719 264.972656 531.097656 C 264.164062 531.433594 263.328125 531.6875 262.464844 531.859375 C 261.605469 532.03125 260.734375 532.117188 259.859375 532.117188 C 258.980469 532.117188 258.113281 532.03125 257.25 531.859375 C 256.390625 531.6875 255.554688 531.433594 254.742188 531.097656 C 253.933594 530.761719 253.164062 530.351562 252.433594 529.863281 C 251.703125 529.375 251.027344 528.820312 250.40625 528.199219 C 249.785156 527.578125 249.234375 526.902344 248.746094 526.171875 C 248.257812 525.441406 247.847656 524.667969 247.511719 523.859375 C 247.175781 523.046875 246.921875 522.210938 246.75 521.347656 C 246.578125 520.488281 246.492188 519.617188 246.492188 518.738281 C 246.492188 517.859375 246.578125 516.988281 246.75 516.128906 C 246.921875 515.265625 247.175781 514.429688 247.511719 513.617188 C 247.847656 512.808594 248.257812 512.035156 248.746094 511.304688 C 249.234375 510.574219 249.785156 509.898438 250.40625 509.277344 C 251.027344 508.65625 251.703125 508.101562 252.433594 507.613281 C 253.164062 507.125 253.933594 506.714844 254.742188 506.378906 C 255.554688 506.042969 256.390625 505.789062 257.25 505.617188 C 258.113281 505.445312 258.980469 505.359375 259.859375 505.359375 C 260.734375 505.359375 261.605469 505.445312 262.464844 505.617188 C 263.328125 505.789062 264.164062 506.042969 264.972656 506.378906 C 265.785156 506.714844 266.554688 507.125 267.285156 507.613281 C 268.015625 508.101562 268.6875 508.65625 269.308594 509.277344 C 269.929688 509.898438 270.484375 510.574219 270.972656 511.304688 C 271.460938 512.035156 271.871094 512.808594 272.207031 513.617188 C 272.542969 514.429688 272.796875 515.265625 272.96875 516.128906 C 273.136719 516.988281 273.222656 517.859375 273.222656 518.738281 Z M 273.222656 518.738281 " fill-opacity="1" fill-rule="nonzero"/><path fill="#000000" d="M 259.859375 534.582031 C 251.136719 534.582031 244.042969 527.480469 244.042969 518.75 C 244.042969 510.019531 251.136719 502.917969 259.859375 502.917969 C 268.582031 502.917969 275.675781 510.019531 275.675781 518.75 C 275.675781 527.480469 268.582031 534.582031 259.859375 534.582031 Z M 259.859375 507.8125 C 253.832031 507.8125 248.941406 512.71875 248.941406 518.738281 C 248.941406 524.757812 253.84375 529.664062 259.859375 529.664062 C 265.875 529.664062 270.773438 524.757812 270.773438 518.738281 C 270.773438 512.71875 265.886719 507.8125 259.859375 507.8125 Z M 259.859375 507.8125 " fill-opacity="1" fill-rule="nonzero"/><path fill="#ffffff" d="M 292.800781 531.480469 C 292.800781 531.886719 292.761719 532.289062 292.683594 532.6875 C 292.601562 533.085938 292.484375 533.472656 292.332031 533.847656 C 292.175781 534.226562 291.984375 534.582031 291.757812 534.921875 C 291.53125 535.257812 291.277344 535.570312 290.988281 535.859375 C 290.703125 536.144531 290.390625 536.402344 290.050781 536.628906 C 289.714844 536.855469 289.355469 537.046875 288.980469 537.199219 C 288.605469 537.355469 288.21875 537.472656 287.820312 537.554688 C 287.421875 537.632812 287.019531 537.671875 286.613281 537.671875 C 286.207031 537.671875 285.804688 537.632812 285.40625 537.554688 C 285.007812 537.472656 284.621094 537.355469 284.246094 537.199219 C 283.871094 537.046875 283.515625 536.855469 283.175781 536.628906 C 282.839844 536.402344 282.527344 536.144531 282.238281 535.859375 C 281.953125 535.570312 281.695312 535.257812 281.46875 534.921875 C 281.246094 534.582031 281.054688 534.226562 280.898438 533.847656 C 280.742188 533.472656 280.625 533.085938 280.546875 532.6875 C 280.46875 532.289062 280.425781 531.886719 280.425781 531.480469 C 280.425781 531.074219 280.46875 530.671875 280.546875 530.269531 C 280.625 529.871094 280.742188 529.484375 280.898438 529.109375 C 281.054688 528.734375 281.246094 528.378906 281.46875 528.039062 C 281.695312 527.699219 281.953125 527.386719 282.238281 527.101562 C 282.527344 526.8125 282.839844 526.554688 283.175781 526.332031 C 283.515625 526.105469 283.871094 525.914062 284.246094 525.757812 C 284.621094 525.601562 285.007812 525.484375 285.40625 525.40625 C 285.804688 525.328125 286.207031 525.285156 286.613281 525.285156 C 287.019531 525.285156 287.421875 525.328125 287.820312 525.40625 C 288.21875 525.484375 288.605469 525.601562 288.980469 525.757812 C 289.355469 525.914062 289.714844 526.105469 290.050781 526.332031 C 290.390625 526.554688 290.703125 526.8125 290.988281 527.101562 C 291.277344 527.386719 291.53125 527.699219 291.757812 528.039062 C 291.984375 528.378906 292.175781 528.734375 292.332031 529.109375 C 292.484375 529.484375 292.601562 529.871094 292.683594 530.269531 C 292.761719 530.671875 292.800781 531.074219 292.800781 531.480469 Z M 292.800781 531.480469 " fill-opacity="1" fill-rule="nonzero"/><g clip-path="url(#682f8d2ba2)"><path fill="#000000" d="M 286.613281 540.125 C 281.847656 540.125 277.976562 536.25 277.976562 531.480469 C 277.976562 526.710938 281.847656 522.835938 286.613281 522.835938 C 291.378906 522.835938 295.25 526.710938 295.25 531.480469 C 295.25 536.25 291.367188 540.125 286.613281 540.125 Z M 286.613281 527.75 C 284.554688 527.75 282.878906 529.433594 282.878906 531.492188 C 282.878906 533.550781 284.554688 535.230469 286.613281 535.230469 C 288.671875 535.230469 290.351562 533.550781 290.351562 531.492188 C 290.339844 529.417969 288.671875 527.75 286.613281 527.75 Z M 286.613281 527.75 " fill-opacity="1" fill-rule="nonzero"/></g><g fill="#000000" fill-opacity="1"><g transform="translate(68.061512, 349.580278)"><g><path d="M 11.03125 -5.160156 C 9.449219 -5.160156 8.78125 -5.867188 8.78125 -7.078125 L 1.164062 -7.078125 L 1.164062 -6.867188 C 1.164062 -2.289062 4.539062 0.582031 11.03125 0.582031 C 17.648438 0.582031 20.894531 -2.289062 20.894531 -7.117188 L 20.894531 -7.535156 C 20.894531 -12.363281 16.898438 -13.363281 11.363281 -13.820312 C 9.492188 -13.984375 8.949219 -14.359375 8.949219 -15.402344 C 8.949219 -16.273438 9.65625 -16.898438 11.03125 -16.898438 C 12.402344 -16.898438 13.113281 -16.109375 13.113281 -14.777344 L 20.605469 -14.777344 L 20.605469 -14.984375 C 20.605469 -19.855469 17.648438 -22.644531 11.03125 -22.644531 C 5.785156 -22.644531 1.457031 -20.605469 1.457031 -15.152344 L 1.457031 -14.734375 C 1.457031 -10.324219 4.414062 -8.949219 10.738281 -8.449219 C 12.820312 -8.285156 13.238281 -7.699219 13.238281 -6.785156 C 13.238281 -5.910156 12.695312 -5.160156 11.03125 -5.160156 Z M 11.03125 -5.160156 "/></g></g></g><g fill="#000000" fill-opacity="1"><g transform="translate(90.122779, 349.580278)"><g><path d="M 1.832031 -22.0625 L 1.832031 -7.285156 C 1.832031 -3.328125 3.496094 0.582031 8.699219 0.582031 C 11.988281 0.582031 14.234375 -0.75 15.652344 -2.707031 L 16.191406 0 L 23.101562 0 L 22.6875 -6.242188 L 22.6875 -22.0625 L 15.027344 -22.0625 L 15.027344 -7.699219 C 14.609375 -7.078125 13.488281 -5.992188 11.820312 -5.992188 C 9.742188 -5.992188 9.492188 -7.492188 9.492188 -8.53125 L 9.492188 -22.0625 Z M 1.832031 -22.0625 "/></g></g></g><g fill="#000000" fill-opacity="1"><g transform="translate(114.889669, 349.580278)"><g><path d="M 34.796875 0 L 34.796875 -14.984375 C 34.796875 -19.148438 32.925781 -22.644531 28.136719 -22.644531 C 24.933594 -22.644531 22.726562 -21.269531 21.394531 -19.273438 C 20.394531 -21.269531 18.566406 -22.644531 15.609375 -22.644531 C 12.527344 -22.644531 10.40625 -21.394531 9.03125 -19.523438 L 8.574219 -22.0625 L 1.664062 -22.0625 L 2.082031 -15.816406 L 2.082031 0 L 9.742188 0 L 9.742188 -14.570312 C 10.15625 -15.191406 11.03125 -16.066406 12.488281 -16.066406 C 14.152344 -16.066406 14.609375 -14.984375 14.609375 -13.734375 L 14.609375 0 L 22.269531 0 L 22.269531 -14.570312 C 22.6875 -15.191406 23.558594 -16.066406 25.015625 -16.066406 C 26.679688 -16.066406 27.140625 -14.984375 27.140625 -13.734375 L 27.140625 0 Z M 34.796875 0 "/></g></g></g><g fill="#000000" fill-opacity="1"><g transform="translate(151.519688, 349.580278)"><g><path d="M 34.796875 0 L 34.796875 -14.984375 C 34.796875 -19.148438 32.925781 -22.644531 28.136719 -22.644531 C 24.933594 -22.644531 22.726562 -21.269531 21.394531 -19.273438 C 20.394531 -21.269531 18.566406 -22.644531 15.609375 -22.644531 C 12.527344 -22.644531 10.40625 -21.394531 9.03125 -19.523438 L 8.574219 -22.0625 L 1.664062 -22.0625 L 2.082031 -15.816406 L 2.082031 0 L 9.742188 0 L 9.742188 -14.570312 C 10.15625 -15.191406 11.03125 -16.066406 12.488281 -16.066406 C 14.152344 -16.066406 14.609375 -14.984375 14.609375 -13.734375 L 14.609375 0 L 22.269531 0 L 22.269531 -14.570312 C 22.6875 -15.191406 23.558594 -16.066406 25.015625 -16.066406 C 26.679688 -16.066406 27.140625 -14.984375 27.140625 -13.734375 L 27.140625 0 Z M 34.796875 0 "/></g></g></g><g fill="#000000" fill-opacity="1"><g transform="translate(188.149707, 349.580278)"><g><path d="M 14.984375 0 L 21.894531 0 L 21.476562 -6.242188 L 21.476562 -14.152344 C 21.476562 -19.605469 19.1875 -22.644531 11.65625 -22.644531 C 4.164062 -22.644531 1.875 -19.148438 1.875 -15.152344 L 1.875 -14.777344 L 9.074219 -14.777344 C 9.074219 -15.816406 9.574219 -16.898438 11.445312 -16.898438 C 13.113281 -16.898438 13.734375 -16.152344 13.820312 -14.570312 L 9.15625 -13.820312 C 4.246094 -13.070312 1.039062 -11.445312 1.039062 -6.660156 L 1.039062 -6.242188 C 1.039062 -2.707031 2.707031 0.582031 7.910156 0.582031 C 10.824219 0.582031 13.027344 -0.457031 14.570312 -2.082031 Z M 10.824219 -5.578125 C 9.242188 -5.578125 8.65625 -6.492188 8.65625 -7.367188 L 8.65625 -7.617188 C 8.65625 -8.617188 9.03125 -9.40625 10.824219 -9.699219 L 13.820312 -10.15625 L 13.820312 -6.785156 C 13.195312 -6.203125 12.113281 -5.578125 10.824219 -5.578125 Z M 10.824219 -5.578125 "/></g></g></g><g fill="#000000" fill-opacity="1"><g transform="translate(211.459718, 349.580278)"><g><path d="M 14.820312 -22.644531 C 12.320312 -22.644531 10.363281 -21.4375 9.03125 -19.605469 L 8.574219 -22.0625 L 1.664062 -22.0625 L 2.082031 -15.816406 L 2.082031 0 L 9.742188 0 L 9.742188 -13.320312 C 10.238281 -13.945312 11.695312 -14.777344 14.195312 -14.777344 L 15.441406 -14.777344 L 15.441406 -22.601562 C 15.234375 -22.644531 15.027344 -22.644531 14.820312 -22.644531 Z M 14.820312 -22.644531 "/></g></g></g><g fill="#000000" fill-opacity="1"><g transform="translate(228.109727, 349.580278)"><g><path d="M 11.863281 -9.15625 L 8.324219 -22.0625 L 0 -22.0625 L 7.699219 -1.25 L 4.121094 8.324219 L 13.277344 8.324219 L 16.027344 -1.25 L 23.726562 -22.0625 L 15.402344 -22.0625 Z M 11.863281 -9.15625 "/></g></g></g><g fill="#000000" fill-opacity="1"><g transform="translate(60.924789, 407.330275)"><g><path d="M 11.03125 -5.160156 C 9.449219 -5.160156 8.78125 -5.867188 8.78125 -7.078125 L 1.164062 -7.078125 L 1.164062 -6.867188 C 1.164062 -2.289062 4.539062 0.582031 11.03125 0.582031 C 17.648438 0.582031 20.894531 -2.289062 20.894531 -7.117188 L 20.894531 -7.535156 C 20.894531 -12.363281 16.898438 -13.363281 11.363281 -13.820312 C 9.492188 -13.984375 8.949219 -14.359375 8.949219 -15.402344 C 8.949219 -16.273438 9.65625 -16.898438 11.03125 -16.898438 C 12.402344 -16.898438 13.113281 -16.109375 13.113281 -14.777344 L 20.605469 -14.777344 L 20.605469 -14.984375 C 20.605469 -19.855469 17.648438 -22.644531 11.03125 -22.644531 C 5.785156 -22.644531 1.457031 -20.605469 1.457031 -15.152344 L 1.457031 -14.734375 C 1.457031 -10.324219 4.414062 -8.949219 10.738281 -8.449219 C 12.820312 -8.285156 13.238281 -7.699219 13.238281 -6.785156 C 13.238281 -5.910156 12.695312 -5.160156 11.03125 -5.160156 Z M 11.03125 -5.160156 "/></g></g></g><g fill="#000000" fill-opacity="1"><g transform="translate(82.986057, 407.330275)"><g><path d="M 11.613281 -22.0625 L 11.613281 -28.304688 L 3.953125 -28.304688 L 3.953125 -22.0625 L 0.625 -22.0625 L 0.625 -15.402344 L 3.953125 -15.402344 L 3.953125 -8.117188 C 3.953125 -1.664062 7.492188 0.582031 12.777344 0.582031 C 14.859375 0.582031 16.109375 0.207031 16.484375 0 L 16.484375 -6.242188 C 16.273438 -6.160156 15.234375 -5.992188 14.570312 -5.992188 C 12.820312 -5.992188 11.613281 -6.453125 11.613281 -8.949219 L 11.613281 -15.402344 L 16.898438 -15.402344 L 16.898438 -22.0625 Z M 11.613281 -22.0625 "/></g></g></g><g fill="#000000" fill-opacity="1"><g transform="translate(101.301066, 407.330275)"><g><path d="M 14.984375 0 L 21.894531 0 L 21.476562 -6.242188 L 21.476562 -14.152344 C 21.476562 -19.605469 19.1875 -22.644531 11.65625 -22.644531 C 4.164062 -22.644531 1.875 -19.148438 1.875 -15.152344 L 1.875 -14.777344 L 9.074219 -14.777344 C 9.074219 -15.816406 9.574219 -16.898438 11.445312 -16.898438 C 13.113281 -16.898438 13.734375 -16.152344 13.820312 -14.570312 L 9.15625 -13.820312 C 4.246094 -13.070312 1.039062 -11.445312 1.039062 -6.660156 L 1.039062 -6.242188 C 1.039062 -2.707031 2.707031 0.582031 7.910156 0.582031 C 10.824219 0.582031 13.027344 -0.457031 14.570312 -2.082031 Z M 10.824219 -5.578125 C 9.242188 -5.578125 8.65625 -6.492188 8.65625 -7.367188 L 8.65625 -7.617188 C 8.65625 -8.617188 9.03125 -9.40625 10.824219 -9.699219 L 13.820312 -10.15625 L 13.820312 -6.785156 C 13.195312 -6.203125 12.113281 -5.578125 10.824219 -5.578125 Z M 10.824219 -5.578125 "/></g></g></g><g fill="#000000" fill-opacity="1"><g transform="translate(124.611077, 407.330275)"><g><path d="M 11.613281 -22.0625 L 11.613281 -28.304688 L 3.953125 -28.304688 L 3.953125 -22.0625 L 0.625 -22.0625 L 0.625 -15.402344 L 3.953125 -15.402344 L 3.953125 -8.117188 C 3.953125 -1.664062 7.492188 0.582031 12.777344 0.582031 C 14.859375 0.582031 16.109375 0.207031 16.484375 0 L 16.484375 -6.242188 C 16.273438 -6.160156 15.234375 -5.992188 14.570312 -5.992188 C 12.820312 -5.992188 11.613281 -6.453125 11.613281 -8.949219 L 11.613281 -15.402344 L 16.898438 -15.402344 L 16.898438 -22.0625 Z M 11.613281 -22.0625 "/></g></g></g><g fill="#000000" fill-opacity="1"><g transform="translate(142.926086, 407.330275)"><g><path d="M 1.996094 0 L 9.65625 0 L 9.65625 -22.0625 L 1.996094 -22.0625 Z M 9.78125 -32.46875 L 1.875 -32.46875 L 1.875 -24.558594 L 9.78125 -24.558594 Z M 9.78125 -32.46875 "/></g></g></g><g fill="#000000" fill-opacity="1"><g transform="translate(154.581092, 407.330275)"><g><path d="M 11.03125 -5.160156 C 9.449219 -5.160156 8.78125 -5.867188 8.78125 -7.078125 L 1.164062 -7.078125 L 1.164062 -6.867188 C 1.164062 -2.289062 4.539062 0.582031 11.03125 0.582031 C 17.648438 0.582031 20.894531 -2.289062 20.894531 -7.117188 L 20.894531 -7.535156 C 20.894531 -12.363281 16.898438 -13.363281 11.363281 -13.820312 C 9.492188 -13.984375 8.949219 -14.359375 8.949219 -15.402344 C 8.949219 -16.273438 9.65625 -16.898438 11.03125 -16.898438 C 12.402344 -16.898438 13.113281 -16.109375 13.113281 -14.777344 L 20.605469 -14.777344 L 20.605469 -14.984375 C 20.605469 -19.855469 17.648438 -22.644531 11.03125 -22.644531 C 5.785156 -22.644531 1.457031 -20.605469 1.457031 -15.152344 L 1.457031 -14.734375 C 1.457031 -10.324219 4.414062 -8.949219 10.738281 -8.449219 C 12.820312 -8.285156 13.238281 -7.699219 13.238281 -6.785156 C 13.238281 -5.910156 12.695312 -5.160156 11.03125 -5.160156 Z M 11.03125 -5.160156 "/></g></g></g><g fill="#000000" fill-opacity="1"><g transform="translate(176.642359, 407.330275)"><g><path d="M 11.613281 -22.0625 L 11.613281 -28.304688 L 3.953125 -28.304688 L 3.953125 -22.0625 L 0.625 -22.0625 L 0.625 -15.402344 L 3.953125 -15.402344 L 3.953125 -8.117188 C 3.953125 -1.664062 7.492188 0.582031 12.777344 0.582031 C 14.859375 0.582031 16.109375 0.207031 16.484375 0 L 16.484375 -6.242188 C 16.273438 -6.160156 15.234375 -5.992188 14.570312 -5.992188 C 12.820312 -5.992188 11.613281 -6.453125 11.613281 -8.949219 L 11.613281 -15.402344 L 16.898438 -15.402344 L 16.898438 -22.0625 Z M 11.613281 -22.0625 "/></g></g></g><g fill="#000000" fill-opacity="1"><g transform="translate(194.957368, 407.330275)"><g><path d="M 1.996094 0 L 9.65625 0 L 9.65625 -22.0625 L 1.996094 -22.0625 Z M 9.78125 -32.46875 L 1.875 -32.46875 L 1.875 -24.558594 L 9.78125 -24.558594 Z M 9.78125 -32.46875 "/></g></g></g><g fill="#000000" fill-opacity="1"><g transform="translate(206.612374, 407.330275)"><g><path d="M 8.65625 -10.199219 L 8.65625 -11.863281 C 8.65625 -14.570312 9.367188 -16.066406 11.40625 -16.066406 C 12.902344 -16.066406 13.820312 -15.234375 13.820312 -13.320312 L 21.019531 -13.320312 L 21.019531 -14.320312 C 21.019531 -19.5625 17.648438 -22.644531 11.238281 -22.644531 C 4.121094 -22.644531 1.039062 -18.316406 1.039062 -11.863281 L 1.039062 -10.199219 C 1.039062 -3.746094 4.121094 0.582031 11.238281 0.582031 C 17.648438 0.582031 21.019531 -2.496094 21.019531 -7.324219 L 21.019531 -8.324219 L 13.820312 -8.324219 C 13.820312 -6.867188 12.902344 -5.992188 11.40625 -5.992188 C 9.367188 -5.992188 8.65625 -7.492188 8.65625 -10.199219 Z M 8.65625 -10.199219 "/></g></g></g><g fill="#000000" fill-opacity="1"><g transform="translate(228.590385, 407.330275)"><g><path d="M 11.03125 -5.160156 C 9.449219 -5.160156 8.78125 -5.867188 8.78125 -7.078125 L 1.164062 -7.078125 L 1.164062 -6.867188 C 1.164062 -2.289062 4.539062 0.582031 11.03125 0.582031 C 17.648438 0.582031 20.894531 -2.289062 20.894531 -7.117188 L 20.894531 -7.535156 C 20.894531 -12.363281 16.898438 -13.363281 11.363281 -13.820312 C 9.492188 -13.984375 8.949219 -14.359375 8.949219 -15.402344 C 8.949219 -16.273438 9.65625 -16.898438 11.03125 -16.898438 C 12.402344 -16.898438 13.113281 -16.109375 13.113281 -14.777344 L 20.605469 -14.777344 L 20.605469 -14.984375 C 20.605469 -19.855469 17.648438 -22.644531 11.03125 -22.644531 C 5.785156 -22.644531 1.457031 -20.605469 1.457031 -15.152344 L 1.457031 -14.734375 C 1.457031 -10.324219 4.414062 -8.949219 10.738281 -8.449219 C 12.820312 -8.285156 13.238281 -7.699219 13.238281 -6.785156 C 13.238281 -5.910156 12.695312 -5.160156 11.03125 -5.160156 Z M 11.03125 -5.160156 "/></g></g></g><g fill="#000000" fill-opacity="1"><g transform="translate(250.651344, 407.330275)"><g/></g></g><g clip-path="url(#48492f5f54)"><g clip-path="url(#2fe59e3b23)"><g clip-path="url(#6800e57426)"><g clip-path="url(#84dddd7f26)"><path fill="#ffffff" d="M 327.234375 240.152344 L 303.792969 220.585938 L 287.101562 206.640625 C 263.554688 220.660156 233.390625 227.058594 201.785156 222.652344 C 136.621094 213.558594 89.96875 161.933594 97.585938 107.34375 C 105.203125 52.742188 164.203125 15.855469 229.367188 24.945312 C 294.539062 34.039062 341.191406 85.667969 333.574219 140.265625 C 330.734375 160.601562 320.765625 178.488281 305.992188 192.445312 L 314.8125 212.269531 Z M 327.234375 240.152344 " fill-opacity="1" fill-rule="nonzero"/></g></g></g></g><g clip-path="url(#48871ef9e0)"><g clip-path="url(#d042bd01f6)"><g clip-path="url(#4922d5b346)"><g clip-path="url(#4143b77952)"><path fill="#000000" d="M 326.929688 242.328125 C 326.539062 242.273438 326.148438 242.109375 325.820312 241.839844 L 286.871094 209.3125 C 262.199219 223.5625 231.933594 229.074219 201.46875 224.824219 C 135.21875 215.582031 87.636719 162.75 95.410156 107.039062 C 103.183594 51.332031 163.410156 13.527344 229.667969 22.769531 C 295.929688 32.015625 343.519531 84.859375 335.746094 140.570312 C 333 160.261719 323.632812 178.355469 308.625 192.957031 L 329.242188 239.257812 C 329.65625 240.191406 329.382812 241.285156 328.5625 241.902344 C 328.078125 242.265625 327.496094 242.40625 326.929688 242.328125 Z M 229.0625 27.121094 C 165.207031 18.210938 107.199219 54.332031 99.761719 107.648438 C 92.324219 160.953125 138.230469 211.566406 202.085938 220.476562 C 232.117188 224.664062 261.914062 219.078125 285.976562 204.753906 C 286.777344 204.277344 287.796875 204.351562 288.511719 204.953125 L 321.382812 232.398438 L 303.992188 193.332031 C 303.613281 192.480469 303.820312 191.476562 304.496094 190.839844 C 319.425781 176.738281 328.734375 159.136719 331.410156 139.953125 C 338.835938 86.644531 292.929688 36.03125 229.0625 27.121094 Z M 229.0625 27.121094 " fill-opacity="1" fill-rule="nonzero"/></g></g></g></g><g fill="#000000" fill-opacity="1"><g transform="translate(165.61341, 102.250892)"><g><path d="M 11.445312 -27.191406 C 4.199219 -27.191406 1.699219 -21.996094 1.699219 -14.246094 L 1.699219 -12.246094 C 1.699219 -4.5 4.199219 0.699219 11.445312 0.699219 C 15.046875 0.699219 17.34375 -0.851562 18.84375 -3.050781 L 19.445312 0 L 27.742188 0 L 27.242188 -7.5 L 27.242188 -39.988281 L 18.046875 -39.988281 L 18.046875 -24.492188 C 16.546875 -26.09375 14.394531 -27.191406 11.445312 -27.191406 Z M 18.046875 -9.246094 C 17.546875 -8.496094 16.195312 -7.199219 14.195312 -7.199219 C 11.695312 -7.199219 10.847656 -8.996094 10.847656 -12.246094 L 10.847656 -14.246094 C 10.847656 -17.496094 11.695312 -19.296875 14.195312 -19.296875 C 16.195312 -19.296875 17.546875 -17.996094 18.046875 -17.246094 Z M 18.046875 -9.246094 "/></g></g></g><g fill="#000000" fill-opacity="1"><g transform="translate(195.351786, 102.250892)"><g><path d="M 17.996094 0 L 26.292969 0 L 25.792969 -7.5 L 25.792969 -16.996094 C 25.792969 -23.542969 23.042969 -27.191406 13.996094 -27.191406 C 5 -27.191406 2.25 -22.996094 2.25 -18.195312 L 2.25 -17.746094 L 10.898438 -17.746094 C 10.898438 -18.996094 11.496094 -20.296875 13.746094 -20.296875 C 15.746094 -20.296875 16.496094 -19.394531 16.597656 -17.496094 L 10.996094 -16.597656 C 5.097656 -15.695312 1.25 -13.746094 1.25 -7.996094 L 1.25 -7.5 C 1.25 -3.25 3.25 0.699219 9.496094 0.699219 C 12.996094 0.699219 15.644531 -0.550781 17.496094 -2.5 Z M 12.996094 -6.699219 C 11.097656 -6.699219 10.398438 -7.796875 10.398438 -8.847656 L 10.398438 -9.148438 C 10.398438 -10.347656 10.847656 -11.296875 12.996094 -11.648438 L 16.597656 -12.195312 L 16.597656 -8.148438 C 15.847656 -7.449219 14.546875 -6.699219 12.996094 -6.699219 Z M 12.996094 -6.699219 "/></g></g></g><g fill="#000000" fill-opacity="1"><g transform="translate(223.34084, 102.250892)"><g><path d="M 13.945312 -26.492188 L 13.945312 -33.992188 L 4.75 -33.992188 L 4.75 -26.492188 L 0.75 -26.492188 L 0.75 -18.496094 L 4.75 -18.496094 L 4.75 -9.746094 C 4.75 -2 8.996094 0.699219 15.347656 0.699219 C 17.84375 0.699219 19.34375 0.25 19.796875 0 L 19.796875 -7.5 C 19.546875 -7.398438 18.296875 -7.199219 17.496094 -7.199219 C 15.394531 -7.199219 13.945312 -7.75 13.945312 -10.746094 L 13.945312 -18.496094 L 20.296875 -18.496094 L 20.296875 -26.492188 Z M 13.945312 -26.492188 "/></g></g></g><g fill="#000000" fill-opacity="1"><g transform="translate(245.332241, 102.250892)"><g><path d="M 17.996094 0 L 26.292969 0 L 25.792969 -7.5 L 25.792969 -16.996094 C 25.792969 -23.542969 23.042969 -27.191406 13.996094 -27.191406 C 5 -27.191406 2.25 -22.996094 2.25 -18.195312 L 2.25 -17.746094 L 10.898438 -17.746094 C 10.898438 -18.996094 11.496094 -20.296875 13.746094 -20.296875 C 15.746094 -20.296875 16.496094 -19.394531 16.597656 -17.496094 L 10.996094 -16.597656 C 5.097656 -15.695312 1.25 -13.746094 1.25 -7.996094 L 1.25 -7.5 C 1.25 -3.25 3.25 0.699219 9.496094 0.699219 C 12.996094 0.699219 15.644531 -0.550781 17.496094 -2.5 Z M 12.996094 -6.699219 C 11.097656 -6.699219 10.398438 -7.796875 10.398438 -8.847656 L 10.398438 -9.148438 C 10.398438 -10.347656 10.847656 -11.296875 12.996094 -11.648438 L 16.597656 -12.195312 L 16.597656 -8.148438 C 15.847656 -7.449219 14.546875 -6.699219 12.996094 -6.699219 Z M 12.996094 -6.699219 "/></g></g></g><g fill="#000000" fill-opacity="1"><g transform="translate(152.371223, 172.000889)"><g><path d="M 13.945312 -26.492188 L 13.945312 -33.992188 L 4.75 -33.992188 L 4.75 -26.492188 L 0.75 -26.492188 L 0.75 -18.496094 L 4.75 -18.496094 L 4.75 -9.746094 C 4.75 -2 8.996094 0.699219 15.347656 0.699219 C 17.84375 0.699219 19.34375 0.25 19.796875 0 L 19.796875 -7.5 C 19.546875 -7.398438 18.296875 -7.199219 17.496094 -7.199219 C 15.394531 -7.199219 13.945312 -7.75 13.945312 -10.746094 L 13.945312 -18.496094 L 20.296875 -18.496094 L 20.296875 -26.492188 Z M 13.945312 -26.492188 "/></g></g></g><g fill="#000000" fill-opacity="1"><g transform="translate(174.362624, 172.000889)"><g><path d="M 14.246094 -10.996094 L 9.996094 -26.492188 L 0 -26.492188 L 9.246094 -1.5 L 4.949219 9.996094 L 15.945312 9.996094 L 19.246094 -1.5 L 28.492188 -26.492188 L 18.496094 -26.492188 Z M 14.246094 -10.996094 "/></g></g></g><g fill="#000000" fill-opacity="1"><g transform="translate(202.851488, 172.000889)"><g><path d="M 18.246094 0.699219 C 25.492188 0.699219 27.992188 -4.5 27.992188 -12.246094 L 27.992188 -14.246094 C 27.992188 -21.996094 25.492188 -27.191406 18.246094 -27.191406 C 14.644531 -27.191406 12.296875 -25.644531 10.796875 -23.394531 L 10.246094 -26.492188 L 1.949219 -26.492188 L 2.449219 -18.996094 L 2.449219 9.996094 L 11.648438 9.996094 L 11.648438 -2 C 13.148438 -0.351562 15.246094 0.699219 18.246094 0.699219 Z M 11.648438 -17.246094 C 12.148438 -17.996094 13.496094 -19.296875 15.496094 -19.296875 C 17.996094 -19.296875 18.84375 -17.496094 18.84375 -14.246094 L 18.84375 -12.246094 C 18.84375 -8.996094 17.996094 -7.199219 15.496094 -7.199219 C 13.496094 -7.199219 12.148438 -8.496094 11.648438 -9.246094 Z M 11.648438 -17.246094 "/></g></g></g><g fill="#000000" fill-opacity="1"><g transform="translate(232.090054, 172.000889)"><g><path d="M 26.742188 -9.996094 L 26.742188 -13.996094 C 26.742188 -21.746094 22.746094 -27.191406 14.195312 -27.191406 C 5.648438 -27.191406 1.25 -21.746094 1.25 -13.996094 L 1.25 -12.496094 C 1.25 -4.75 5.449219 0.699219 14.496094 0.699219 C 22.195312 0.699219 26.742188 -3 26.742188 -8.296875 L 26.742188 -8.496094 L 18.09375 -8.496094 C 18.09375 -7.25 16.546875 -6.199219 14.546875 -6.199219 C 12.246094 -6.199219 10.746094 -7 10.449219 -9.996094 Z M 13.996094 -20.296875 C 16.144531 -20.296875 17.296875 -19.296875 17.546875 -16.496094 L 10.449219 -16.496094 C 10.699219 -19.296875 11.847656 -20.296875 13.996094 -20.296875 Z M 13.996094 -20.296875 "/></g></g></g><g fill="#000000" fill-opacity="1"><g transform="translate(260.079108, 172.000889)"><g><path d="M 13.246094 -6.199219 C 11.347656 -6.199219 10.546875 -7.046875 10.546875 -8.496094 L 1.398438 -8.496094 L 1.398438 -8.246094 C 1.398438 -2.75 5.449219 0.699219 13.246094 0.699219 C 21.195312 0.699219 25.09375 -2.75 25.09375 -8.546875 L 25.09375 -9.046875 C 25.09375 -14.847656 20.296875 -16.046875 13.648438 -16.597656 C 11.398438 -16.796875 10.746094 -17.246094 10.746094 -18.496094 C 10.746094 -19.546875 11.597656 -20.296875 13.246094 -20.296875 C 14.894531 -20.296875 15.746094 -19.34375 15.746094 -17.746094 L 24.742188 -17.746094 L 24.742188 -17.996094 C 24.742188 -23.84375 21.195312 -27.191406 13.246094 -27.191406 C 6.949219 -27.191406 1.75 -24.742188 1.75 -18.195312 L 1.75 -17.695312 C 1.75 -12.398438 5.296875 -10.746094 12.898438 -10.148438 C 15.394531 -9.949219 15.894531 -9.246094 15.894531 -8.148438 C 15.894531 -7.097656 15.246094 -6.199219 13.246094 -6.199219 Z M 13.246094 -6.199219 "/></g></g></g><g clip-path="url(#e0782ba385)"><path fill="#000000" d="M 721.222656 135.433594 C 716.117188 123.976562 707.921875 115.542969 698.054688 109.882812 C 689.523438 104.984375 679.730469 102.167969 669.628906 101.296875 L 670.382812 95.332031 C 670.382812 91.917969 669.421875 88.542969 667.847656 85.457031 C 666.34375 82.515625 664.289062 79.835938 662.070312 77.660156 C 659.417969 75.058594 656.460938 72.890625 653.242188 71.320312 C 649.902344 69.691406 646.292969 68.699219 642.453125 68.515625 C 641.519531 68.472656 637.007812 69.296875 634.820312 69.71875 L 629.796875 55.96875 C 626.035156 50.632812 621.257812 46.277344 615.925781 42.722656 C 610.695312 39.230469 604.9375 36.511719 599.121094 34.375 C 586.984375 29.914062 572.878906 28.25 559.019531 29.421875 C 545.144531 30.59375 531.53125 34.605469 520.375 41.402344 C 516.429688 43.808594 512.507812 46.3125 508.863281 49.183594 C 506.363281 51.160156 503.996094 53.304688 501.839844 55.703125 C 501.277344 56.332031 499.324219 59.167969 498.070312 61.023438 C 496.179688 59.660156 493.136719 57.507812 492.273438 57.09375 C 488.992188 55.507812 485.417969 54.292969 481.761719 53.636719 C 477.980469 52.960938 474.113281 52.886719 470.378906 53.605469 C 465.4375 54.550781 460.839844 56.734375 456.882812 59.808594 C 453.015625 62.8125 449.761719 66.664062 447.394531 71.011719 L 444.890625 78.332031 C 442.085938 77.640625 438.085938 76.617188 437.328125 76.582031 C 433.695312 76.429688 429.898438 77.027344 426.246094 78.1875 C 422.710938 79.308594 419.320312 80.957031 416.367188 82.914062 C 410.914062 86.535156 406.132812 91.335938 402.378906 96.867188 C 398.660156 102.34375 395.945312 108.539062 394.558594 115 L 394.210938 127.015625 C 392.941406 129.46875 387.570312 132.042969 383.605469 135.835938 C 381.707031 137.648438 380.046875 139.664062 378.925781 141.882812 C 375.222656 149.207031 375.144531 154.667969 376.808594 159.164062 C 379.03125 165.148438 385.003906 169.445312 390.867188 174.59375 L 390.722656 174.828125 L 386.539062 183.964844 C 385.042969 188.289062 384.046875 192.667969 383.539062 197.109375 C 383.03125 201.535156 383.011719 206.019531 383.460938 210.570312 C 385.574219 231.84375 396.542969 247.132812 411.476562 255.523438 C 425.890625 263.621094 444.082031 265.273438 461.71875 259.457031 C 463.003906 264.3125 463.890625 269.230469 464.425781 274.1875 C 465.0625 280.089844 465.203125 286.050781 464.910156 292.039062 L 463.453125 303.753906 C 463.074219 305.554688 461.226562 309.554688 461.292969 310.546875 C 461.402344 312.152344 462.242188 313.082031 463.148438 313.621094 C 463.894531 314.066406 465.371094 314.738281 467.414062 313.457031 C 474.082031 309.273438 480.027344 303.308594 484.929688 296.511719 C 489.726562 289.863281 493.523438 282.421875 496.042969 275.140625 L 499.167969 262.859375 L 509.070312 268.558594 C 514.21875 270.644531 520.121094 271.921875 526.039062 272.15625 C 532.0625 272.390625 538.097656 271.539062 543.402344 269.414062 C 548.097656 267.53125 552.738281 265.15625 557.078125 262.3125 C 561.441406 259.453125 565.5 256.117188 569.015625 252.339844 L 574.125 245.953125 C 574.789062 246.9375 575.5625 247.941406 576.167969 248.367188 C 578.109375 249.730469 580.335938 250.679688 582.660156 251.261719 C 584.878906 251.816406 587.1875 252.03125 589.398438 251.976562 C 592.722656 251.890625 595.347656 251.152344 597.597656 250.054688 C 601.964844 247.9375 604.613281 244.101562 609.046875 241.386719 C 611.59375 242.832031 615.910156 245.402344 616.78125 245.710938 C 621.328125 247.3125 625.917969 248.339844 630.5625 248.835938 C 635.1875 249.332031 639.871094 249.304688 644.628906 248.792969 C 653.640625 247.824219 661.917969 245.222656 669.140625 240.863281 C 676.347656 236.515625 682.519531 230.421875 687.308594 222.40625 L 693.054688 207.3125 C 695.375 204.824219 701.011719 204.351562 705.078125 202.449219 C 706.5625 201.753906 707.898438 200.933594 708.996094 199.960938 C 717.707031 192.253906 723.128906 181.246094 725.148438 169.519531 C 727.136719 157.980469 725.824219 145.761719 721.222656 135.433594 Z M 717.9375 168.277344 C 716.199219 178.351562 711.628906 187.859375 704.144531 194.480469 C 701.15625 197.128906 695.582031 197.800781 691.847656 199.507812 C 690.15625 200.273438 688.738281 201.207031 687.703125 202.316406 C 686.792969 203.292969 685.976562 204.664062 685.285156 206.308594 C 683.699219 210.074219 682.789062 215.703125 681.027344 218.652344 C 676.890625 225.570312 671.582031 230.84375 665.359375 234.597656 C 659.023438 238.421875 651.753906 240.667969 643.847656 241.515625 C 639.617188 241.96875 635.453125 242 631.339844 241.558594 C 627.253906 241.121094 623.214844 240.21875 619.214844 238.808594 C 618.347656 238.503906 613.65625 235.550781 611.675781 234.460938 C 609.425781 233.21875 607.566406 233.847656 607.347656 233.957031 C 602.570312 236.339844 599.785156 240.015625 595.964844 242.566406 C 594.199219 243.746094 592.125 244.582031 589.210938 244.65625 C 587.644531 244.699219 586.007812 244.550781 584.433594 244.160156 C 582.984375 243.796875 581.585938 243.226562 580.375 242.378906 C 579.175781 241.535156 578.488281 238.964844 577.492188 238.113281 C 575.816406 236.683594 573.996094 236.367188 571.914062 237.664062 C 570.722656 238.410156 569.554688 239.542969 568.449219 240.898438 C 566.746094 242.992188 565.183594 245.714844 563.65625 247.355469 C 560.539062 250.707031 556.9375 253.652344 553.066406 256.191406 C 549.136719 258.765625 544.929688 260.914062 540.679688 262.621094 C 536.296875 264.375 531.304688 265.035156 526.324219 264.839844 C 521.265625 264.640625 516.21875 263.558594 511.8125 261.777344 L 503.515625 256.988281 C 502.484375 256.199219 501.277344 253.859375 500.355469 253.160156 C 499.316406 252.371094 498.269531 252.15625 497.375 252.21875 C 496.183594 252.304688 494.875 252.789062 493.949219 254.53125 C 493.035156 256.253906 492.351562 258.328125 491.808594 260.554688 C 490.824219 264.609375 490.332031 269.265625 489.125 272.746094 C 486.828125 279.386719 483.363281 286.167969 478.992188 292.230469 C 476.621094 295.519531 473.980469 298.601562 471.105469 301.320312 L 472.21875 292.398438 C 472.53125 286.023438 472.382812 279.683594 471.703125 273.402344 C 471.023438 267.089844 469.804688 260.839844 467.988281 254.691406 C 467.625 253.453125 466.660156 252.554688 465.507812 252.21875 C 464.535156 251.425781 463.175781 251.160156 461.917969 251.632812 C 445.578125 257.773438 428.46875 256.675781 415.058594 249.144531 C 402.035156 241.820312 392.589844 228.40625 390.746094 209.847656 C 390.347656 205.824219 390.363281 201.855469 390.8125 197.941406 C 391.257812 194.03125 392.136719 190.171875 393.453125 186.363281 L 397.085938 178.449219 C 397.214844 178.21875 398.191406 176.675781 398.566406 176.039062 C 400.066406 173.492188 398.167969 171.328125 398.0625 171.226562 C 392.460938 165.992188 385.824219 162.417969 383.671875 156.617188 C 382.5625 153.628906 382.996094 150.050781 385.457031 145.183594 C 386.214844 143.683594 387.378906 142.351562 388.660156 141.128906 C 393.304688 136.691406 399.226562 133.25 400.710938 130.378906 C 401.207031 129.421875 401.546875 128.054688 401.664062 126.433594 C 401.890625 123.339844 401.222656 118.832031 401.714844 116.535156 C 402.90625 110.992188 405.242188 105.675781 408.433594 100.976562 C 411.652344 96.234375 415.742188 92.113281 420.414062 89.011719 C 422.820312 87.417969 425.582031 86.074219 428.464844 85.160156 C 431.28125 84.265625 434.210938 83.777344 437.011719 83.894531 C 437.820312 83.933594 442.875 85.398438 444.964844 85.894531 C 447.398438 86.46875 448.984375 85.433594 449.128906 85.3125 C 449.839844 84.71875 450.617188 83.628906 451.242188 82.15625 C 452.230469 79.820312 453.011719 76.003906 453.824219 74.507812 C 455.707031 71.046875 458.292969 67.980469 461.371094 65.589844 C 464.417969 63.222656 467.949219 61.523438 471.757812 60.792969 C 474.617188 60.242188 477.578125 60.328125 480.472656 60.84375 C 483.472656 61.378906 486.402344 62.386719 489.097656 63.6875 C 490.355469 64.292969 494.335938 67.667969 496.332031 68.675781 C 497.65625 69.347656 498.792969 69.414062 499.457031 69.316406 C 500.105469 69.214844 501.253906 68.796875 502.351562 67.601562 C 503.820312 66.003906 506.421875 61.550781 507.28125 60.597656 C 509.15625 58.511719 511.222656 56.648438 513.398438 54.929688 C 516.808594 52.242188 520.492188 49.90625 524.183594 47.65625 C 534.414062 41.421875 546.914062 37.789062 559.636719 36.714844 C 572.410156 35.632812 585.414062 37.132812 596.597656 41.242188 C 601.875 43.1875 607.113281 45.640625 611.863281 48.808594 C 616.449219 51.867188 620.578125 55.597656 623.816406 60.183594 C 625.382812 62.40625 627.1875 70.46875 628.785156 73.757812 C 629.472656 75.179688 630.289062 76.085938 630.917969 76.527344 C 631.378906 76.847656 632.535156 77.382812 634.269531 77.230469 C 636.289062 77.050781 641.003906 75.773438 642.105469 75.828125 C 644.925781 75.960938 647.578125 76.699219 650.03125 77.898438 C 652.550781 79.128906 654.863281 80.84375 656.945312 82.882812 C 658.625 84.53125 660.191406 86.554688 661.328125 88.78125 C 662.371094 90.832031 663.0625 93.0625 663.0625 95.328125 L 662.429688 100.59375 C 662.214844 101.332031 661.253906 102.546875 661.066406 103.214844 C 660.753906 104.328125 660.914062 105.257812 661.207031 105.949219 C 661.703125 107.136719 662.644531 108.285156 664.78125 108.34375 C 675.285156 108.640625 685.601562 111.171875 694.410156 116.226562 C 702.976562 121.144531 710.105469 128.464844 714.535156 138.410156 C 718.566406 147.460938 719.675781 158.167969 717.9375 168.277344 Z M 717.9375 168.277344 " fill-opacity="1" fill-rule="evenodd"/></g><path fill="#000000" d="M 404.570312 139.371094 C 404.914062 139.328125 404.933594 139.007812 404.796875 138.566406 C 404.710938 138.570312 404.679688 138.832031 404.65625 138.921875 C 404.628906 139.042969 404.390625 139.390625 404.570312 139.371094 Z M 404.570312 139.371094 " fill-opacity="1" fill-rule="evenodd"/><path fill="#000000" d="M 403.515625 124.957031 C 403.246094 126.644531 403.058594 128.390625 403.019531 130.144531 C 402.980469 131.921875 403.09375 133.699219 403.339844 135.417969 C 403.445312 136.023438 404.5 137.59375 404.796875 138.566406 C 404.8125 138.5625 404.828125 138.566406 404.84375 138.578125 C 406.269531 139.773438 400.09375 141.671875 399.054688 142.425781 C 394.859375 145.65625 391.1875 150.296875 390.890625 154.984375 C 390.699219 158.011719 391.808594 161.019531 395.179688 163.507812 C 392.671875 160.710938 392.128906 157.925781 392.800781 155.285156 C 393.773438 151.453125 397.445312 148.136719 401.382812 146.039062 C 402.492188 145.414062 405.828125 144.1875 407.660156 142.914062 C 408.8125 142.113281 409.445312 141.128906 409.707031 140.34375 C 409.875 139.839844 409.898438 139.074219 409.757812 138.167969 C 409.578125 137.042969 408.949219 135.414062 408.867188 134.648438 C 408.675781 133.210938 408.621094 131.726562 408.640625 130.246094 C 408.660156 128.734375 408.757812 127.226562 408.953125 125.769531 C 409.777344 117.800781 412.914062 110.253906 417.769531 104.160156 C 422.796875 97.847656 429.566406 93.066406 437.863281 91.148438 C 429.007812 92.003906 421.273438 96.011719 415.328125 101.984375 C 409.25 108.097656 405.210938 116.261719 403.515625 124.957031 Z M 403.515625 124.957031 " fill-opacity="1" fill-rule="evenodd"/><path fill="#000000" d="M 417.335938 235.925781 C 415.628906 234.421875 414.0625 232.761719 412.550781 231.023438 C 411.054688 229.304688 409.628906 227.511719 408.339844 225.609375 C 405.730469 221.761719 403.617188 217.566406 402.246094 213.125 C 400.105469 206.175781 399.578125 198.847656 401.523438 191.859375 C 398.28125 198.734375 397.417969 206.441406 398.613281 213.96875 C 399.425781 219.058594 401.191406 224.011719 403.765625 228.472656 C 405.074219 230.738281 406.605469 232.875 408.363281 234.78125 C 410.148438 236.714844 412.15625 238.421875 414.328125 239.855469 C 417.605469 242.015625 421.175781 243.628906 425 244.488281 C 428.644531 245.308594 432.386719 245.425781 436.292969 244.839844 C 432.542969 244.417969 429.171875 243.289062 425.945312 241.75 C 422.78125 240.242188 419.964844 238.246094 417.335938 235.925781 Z M 417.335938 235.925781 " fill-opacity="1" fill-rule="evenodd"/><path fill="#000000" d="M 480.273438 263.066406 C 479.59375 260.296875 478.632812 257.640625 477.371094 255.097656 C 475.515625 251.339844 473.125 248.015625 470.144531 244.90625 C 471.980469 248.609375 473.027344 252.375 473.847656 256.3125 C 474.402344 258.988281 474.671875 261.664062 474.996094 264.386719 C 475.210938 266.175781 475.40625 267.96875 475.671875 269.757812 C 475.941406 271.597656 476.3125 273.371094 476.636719 275.203125 C 477.148438 278.105469 477.730469 280.78125 478.066406 283.695312 C 478.785156 281.667969 479.445312 279.792969 479.953125 277.695312 C 480.457031 275.621094 480.785156 273.589844 480.957031 271.460938 C 481.074219 270.054688 481.089844 268.644531 480.980469 267.238281 C 480.871094 265.832031 480.609375 264.433594 480.273438 263.066406 Z M 480.273438 263.066406 " fill-opacity="1" fill-rule="evenodd"/><path fill="#000000" d="M 643.050781 61.117188 L 642.914062 60.835938 C 642.84375 60.722656 642.855469 60.730469 642.761719 60.636719 L 642.742188 60.625 L 643.015625 61.109375 Z M 643.050781 61.117188 " fill-opacity="1" fill-rule="evenodd"/><path fill="#000000" d="M 631.945312 45.753906 C 634.867188 51.15625 636.273438 57.0625 638.910156 63.476562 C 639.148438 64.03125 639.792969 64.667969 640.804688 65.152344 C 641.917969 65.683594 643.886719 66.085938 644.507812 66.269531 L 655.179688 70.082031 C 659.859375 71.738281 663.953125 74.121094 667.503906 77.140625 C 671.203125 80.285156 674.320312 83.976562 676.515625 88.746094 C 675.4375 83.3125 673.296875 78.621094 670.0625 74.636719 C 666.765625 70.570312 662.359375 67.484375 657.394531 64.941406 C 655.503906 64.132812 653.609375 63.382812 651.667969 62.769531 C 649.726562 62.15625 647.746094 61.671875 645.734375 61.25 C 645.367188 61.175781 643.832031 61.285156 643.050781 61.117188 C 643.09375 61.222656 643.136719 61.320312 643.167969 61.375 L 643.015625 61.109375 C 642.683594 61.039062 642.496094 60.90625 642.617188 60.691406 C 642.65625 60.621094 642.695312 60.605469 642.742188 60.625 C 639.457031 54.84375 637.3125 49.351562 633.726562 44.609375 C 631.304688 41.410156 628.292969 38.585938 623.910156 36.226562 C 627.707031 39.171875 630.101562 42.347656 631.945312 45.753906 Z M 631.945312 45.753906 " fill-opacity="1" fill-rule="evenodd"/><g clip-path="url(#1d6ed5bf98)"><path fill="#000000" d="M 737.015625 159.710938 C 736.867188 155.871094 736.296875 152.015625 735.398438 148.234375 C 733.617188 140.746094 730.546875 133.519531 726.414062 127.097656 C 720.132812 117.332031 711.410156 109.472656 700.980469 105.214844 C 710.570312 110.4375 718.003906 118.980469 723.191406 128.96875 C 726.492188 135.324219 728.785156 142.261719 730.121094 149.355469 C 730.785156 152.886719 731.1875 156.445312 731.398438 159.992188 C 731.613281 163.585938 731.628906 167.15625 731.339844 170.683594 C 730.902344 176.132812 729.832031 181.417969 727.917969 186.417969 C 725.957031 191.542969 723.28125 196.328125 719.535156 200.570312 C 724.089844 196.917969 727.757812 192.582031 730.535156 187.648438 C 733.363281 182.636719 735.242188 177.097656 736.25 171.308594 C 736.910156 167.519531 737.171875 163.625 737.015625 159.710938 Z M 737.015625 159.710938 " fill-opacity="1" fill-rule="evenodd"/></g></svg>