<svg xmlns="http://www.w3.org/2000/svg" xmlns:xlink="http://www.w3.org/1999/xlink" width="1000" zoomAndPan="magnify" viewBox="0 0 750 599.999999" height="800" preserveAspectRatio="xMidYMid meet" version="1.0"><defs><g/><clipPath id="43f53dcde0"><path d="M 21.140625 249.160156 L 298.640625 249.160156 L 298.640625 477 L 21.140625 477 Z M 21.140625 249.160156 " clip-rule="nonzero"/></clipPath><clipPath id="7316487544"><path d="M 277 522 L 296 522 L 296 540.160156 L 277 540.160156 Z M 277 522 " clip-rule="nonzero"/></clipPath><clipPath id="832916cd43"><path d="M 96 23 L 335 23 L 335 241 L 96 241 Z M 96 23 " clip-rule="nonzero"/></clipPath><clipPath id="c54608fa84"><path d="M 109.449219 6 L 357.546875 40.613281 L 329.359375 242.65625 L 81.261719 208.042969 Z M 109.449219 6 " clip-rule="nonzero"/></clipPath><clipPath id="935de61300"><path d="M 109.449219 6 L 357.546875 40.613281 L 329.359375 242.65625 L 81.261719 208.042969 Z M 109.449219 6 " clip-rule="nonzero"/></clipPath><clipPath id="d6e36a109d"><path d="M 109.449219 6 L 357.546875 40.613281 L 329.359375 242.65625 L 81.261719 208.042969 Z M 109.449219 6 " clip-rule="nonzero"/></clipPath><clipPath id="fb3c28847b"><path d="M 94 21 L 337 21 L 337 243 L 94 243 Z M 94 21 " clip-rule="nonzero"/></clipPath><clipPath id="2a216e9acd"><path d="M 109.449219 6 L 357.546875 40.613281 L 329.359375 242.65625 L 81.261719 208.042969 Z M 109.449219 6 " clip-rule="nonzero"/></clipPath><clipPath id="c2f96dbd42"><path d="M 109.449219 6 L 357.546875 40.613281 L 329.359375 242.65625 L 81.261719 208.042969 Z M 109.449219 6 " clip-rule="nonzero"/></clipPath><clipPath id="4d1f0fd5fd"><path d="M 109.449219 6 L 357.546875 40.613281 L 329.359375 242.65625 L 81.261719 208.042969 Z M 109.449219 6 " clip-rule="nonzero"/></clipPath><clipPath id="8b4cb7eed1"><path d="M 368.09375 47 L 720 47 L 720 332.761719 L 368.09375 332.761719 Z M 368.09375 47 " clip-rule="nonzero"/></clipPath><clipPath id="7b686a5015"><path d="M 694 123 L 730.34375 123 L 730.34375 219 L 694 219 Z M 694 123 " clip-rule="nonzero"/></clipPath></defs><g fill="#f57c00" fill-opacity="1"><g transform="translate(311.625847, 567.963038)"><g><path d="M 14.121094 -4.519531 C 14.121094 -1.695312 15.816406 0 18.640625 0 L 48.011719 0 C 51.117188 0 52.53125 -1.695312 52.53125 -4.519531 L 52.53125 -75.6875 L 86.417969 -75.6875 C 112.964844 -75.6875 127.085938 -90.089844 127.085938 -116.355469 L 127.085938 -185.265625 C 127.085938 -211.8125 112.964844 -225.933594 86.417969 -225.933594 L 18.640625 -225.933594 C 15.816406 -225.933594 14.121094 -224.238281 14.121094 -221.414062 Z M 52.53125 -112.964844 L 52.53125 -188.652344 L 77.382812 -188.652344 C 85.007812 -188.652344 88.679688 -184.699219 88.679688 -177.355469 L 88.679688 -124.261719 C 88.679688 -117.203125 85.007812 -112.964844 77.382812 -112.964844 Z M 52.53125 -112.964844 "/></g></g></g><g fill="#f57c00" fill-opacity="1"><g transform="translate(452.833568, 567.963038)"><g><path d="M 130.195312 -185.265625 C 130.195312 -211.8125 116.074219 -225.933594 89.527344 -225.933594 L 18.640625 -225.933594 C 15.816406 -225.933594 14.121094 -224.238281 14.121094 -221.414062 L 14.121094 -4.519531 C 14.121094 -1.695312 15.816406 0 18.640625 0 L 48.011719 0 C 50.835938 0 52.53125 -1.695312 52.53125 -4.519531 L 52.53125 -75.6875 L 72.015625 -75.6875 L 90.9375 -3.953125 C 91.503906 -1.410156 92.914062 0 95.738281 0 L 125.109375 0 C 128.214844 0 129.910156 -1.695312 129.0625 -5.082031 L 109.578125 -79.078125 C 123.132812 -85.007812 130.195312 -97.433594 130.195312 -116.355469 Z M 52.53125 -112.964844 L 52.53125 -188.652344 L 80.488281 -188.652344 C 87.832031 -188.652344 91.785156 -184.699219 91.785156 -177.355469 L 91.785156 -124.261719 C 91.785156 -116.921875 87.832031 -112.964844 80.488281 -112.964844 Z M 52.53125 -112.964844 "/></g></g></g><g fill="#f57c00" fill-opacity="1"><g transform="translate(597.147865, 567.963038)"><g><path d="M 14.121094 -40.667969 C 14.121094 -14.121094 28.242188 0 54.789062 0 L 86.417969 0 C 112.964844 0 127.085938 -14.121094 127.085938 -40.667969 L 127.085938 -185.265625 C 127.085938 -211.8125 112.964844 -225.933594 86.417969 -225.933594 L 54.789062 -225.933594 C 28.242188 -225.933594 14.121094 -211.8125 14.121094 -185.265625 Z M 62.980469 -36.429688 C 55.636719 -36.429688 51.683594 -40.101562 51.683594 -47.726562 L 51.683594 -178.203125 C 51.683594 -185.546875 55.636719 -189.5 62.980469 -189.5 L 79.359375 -189.5 C 86.703125 -189.5 90.65625 -185.546875 90.65625 -178.203125 L 90.65625 -47.726562 C 90.65625 -40.101562 86.703125 -36.429688 79.359375 -36.429688 Z M 62.980469 -36.429688 "/></g></g></g><g fill="#000000" fill-opacity="1"><g transform="translate(500.715715, 137.056017)"><g><path d="M 10.304688 -24.480469 C 3.78125 -24.480469 1.53125 -19.800781 1.53125 -12.824219 L 1.53125 -11.023438 C 1.53125 -4.050781 3.78125 0.628906 10.304688 0.628906 C 13.546875 0.628906 15.613281 -0.765625 16.964844 -2.746094 L 17.503906 0 L 24.976562 0 L 24.523438 -6.75 L 24.523438 -36 L 16.246094 -36 L 16.246094 -22.050781 C 14.894531 -23.488281 12.960938 -24.480469 10.304688 -24.480469 Z M 16.246094 -8.324219 C 15.796875 -7.648438 14.578125 -6.480469 12.78125 -6.480469 C 10.53125 -6.480469 9.765625 -8.101562 9.765625 -11.023438 L 9.765625 -12.824219 C 9.765625 -15.75 10.53125 -17.371094 12.78125 -17.371094 C 14.578125 -17.371094 15.796875 -16.199219 16.246094 -15.523438 Z M 16.246094 -8.324219 "/></g></g></g><g fill="#000000" fill-opacity="1"><g transform="translate(527.490688, 137.056017)"><g><path d="M 16.199219 0 L 23.671875 0 L 23.21875 -6.75 L 23.21875 -15.300781 C 23.21875 -21.195312 20.746094 -24.480469 12.601562 -24.480469 C 4.5 -24.480469 2.023438 -20.699219 2.023438 -16.378906 L 2.023438 -15.976562 L 9.808594 -15.976562 C 9.808594 -17.101562 10.351562 -18.269531 12.375 -18.269531 C 14.175781 -18.269531 14.851562 -17.460938 14.941406 -15.75 L 9.898438 -14.941406 C 4.589844 -14.128906 1.125 -12.375 1.125 -7.199219 L 1.125 -6.75 C 1.125 -2.925781 2.925781 0.628906 8.550781 0.628906 C 11.699219 0.628906 14.085938 -0.496094 15.75 -2.25 Z M 11.699219 -6.03125 C 9.988281 -6.03125 9.359375 -7.019531 9.359375 -7.964844 L 9.359375 -8.234375 C 9.359375 -9.316406 9.765625 -10.171875 11.699219 -10.484375 L 14.941406 -10.980469 L 14.941406 -7.335938 C 14.265625 -6.703125 13.09375 -6.03125 11.699219 -6.03125 Z M 11.699219 -6.03125 "/></g></g></g><g fill="#000000" fill-opacity="1"><g transform="translate(552.690669, 137.056017)"><g><path d="M 12.554688 -23.851562 L 12.554688 -30.601562 L 4.273438 -30.601562 L 4.273438 -23.851562 L 0.675781 -23.851562 L 0.675781 -16.648438 L 4.273438 -16.648438 L 4.273438 -8.773438 C 4.273438 -1.800781 8.101562 0.628906 13.816406 0.628906 C 16.066406 0.628906 17.414062 0.226562 17.820312 0 L 17.820312 -6.75 C 17.59375 -6.660156 16.46875 -6.480469 15.75 -6.480469 C 13.859375 -6.480469 12.554688 -6.976562 12.554688 -9.675781 L 12.554688 -16.648438 L 18.269531 -16.648438 L 18.269531 -23.851562 Z M 12.554688 -23.851562 "/></g></g></g><g fill="#000000" fill-opacity="1"><g transform="translate(572.490653, 137.056017)"><g><path d="M 16.199219 0 L 23.671875 0 L 23.21875 -6.75 L 23.21875 -15.300781 C 23.21875 -21.195312 20.746094 -24.480469 12.601562 -24.480469 C 4.5 -24.480469 2.023438 -20.699219 2.023438 -16.378906 L 2.023438 -15.976562 L 9.808594 -15.976562 C 9.808594 -17.101562 10.351562 -18.269531 12.375 -18.269531 C 14.175781 -18.269531 14.851562 -17.460938 14.941406 -15.75 L 9.898438 -14.941406 C 4.589844 -14.128906 1.125 -12.375 1.125 -7.199219 L 1.125 -6.75 C 1.125 -2.925781 2.925781 0.628906 8.550781 0.628906 C 11.699219 0.628906 14.085938 -0.496094 15.75 -2.25 Z M 11.699219 -6.03125 C 9.988281 -6.03125 9.359375 -7.019531 9.359375 -7.964844 L 9.359375 -8.234375 C 9.359375 -9.316406 9.765625 -10.171875 11.699219 -10.484375 L 14.941406 -10.980469 L 14.941406 -7.335938 C 14.265625 -6.703125 13.09375 -6.03125 11.699219 -6.03125 Z M 11.699219 -6.03125 "/></g></g></g><g fill="#000000" fill-opacity="1"><g transform="translate(413.528215, 200.056015)"><g><path d="M 6.75 0 L 18.449219 0 L 24.976562 -23.851562 L 16.425781 -23.851562 L 12.601562 -6.523438 L 8.773438 -23.851562 L 0.226562 -23.851562 Z M 6.75 0 "/></g></g></g><g fill="#000000" fill-opacity="1"><g transform="translate(438.728196, 200.056015)"><g><path d="M 2.160156 0 L 10.441406 0 L 10.441406 -23.851562 L 2.160156 -23.851562 Z M 10.574219 -35.101562 L 2.023438 -35.101562 L 2.023438 -26.550781 L 10.574219 -26.550781 Z M 10.574219 -35.101562 "/></g></g></g><g fill="#000000" fill-opacity="1"><g transform="translate(451.328186, 200.056015)"><g><path d="M 11.925781 -5.578125 C 10.214844 -5.578125 9.496094 -6.34375 9.496094 -7.648438 L 1.261719 -7.648438 L 1.261719 -7.425781 C 1.261719 -2.476562 4.90625 0.628906 11.925781 0.628906 C 19.078125 0.628906 22.589844 -2.476562 22.589844 -7.695312 L 22.589844 -8.144531 C 22.589844 -13.363281 18.269531 -14.445312 12.285156 -14.941406 C 10.261719 -15.121094 9.675781 -15.523438 9.675781 -16.648438 C 9.675781 -17.59375 10.441406 -18.269531 11.925781 -18.269531 C 13.410156 -18.269531 14.175781 -17.414062 14.175781 -15.976562 L 22.273438 -15.976562 L 22.273438 -16.199219 C 22.273438 -21.464844 19.078125 -24.480469 11.925781 -24.480469 C 6.253906 -24.480469 1.574219 -22.273438 1.574219 -16.378906 L 1.574219 -15.929688 C 1.574219 -11.160156 4.769531 -9.675781 11.609375 -9.136719 C 13.859375 -8.953125 14.308594 -8.324219 14.308594 -7.335938 C 14.308594 -6.390625 13.726562 -5.578125 11.925781 -5.578125 Z M 11.925781 -5.578125 "/></g></g></g><g fill="#000000" fill-opacity="1"><g transform="translate(475.178165, 200.056015)"><g><path d="M 1.980469 -23.851562 L 1.980469 -7.875 C 1.980469 -3.601562 3.78125 0.628906 9.40625 0.628906 C 12.960938 0.628906 15.390625 -0.808594 16.921875 -2.925781 L 17.503906 0 L 24.976562 0 L 24.523438 -6.75 L 24.523438 -23.851562 L 16.246094 -23.851562 L 16.246094 -8.324219 C 15.796875 -7.648438 14.578125 -6.480469 12.78125 -6.480469 C 10.53125 -6.480469 10.261719 -8.101562 10.261719 -9.226562 L 10.261719 -23.851562 Z M 1.980469 -23.851562 "/></g></g></g><g fill="#000000" fill-opacity="1"><g transform="translate(501.953138, 200.056015)"><g><path d="M 16.199219 0 L 23.671875 0 L 23.21875 -6.75 L 23.21875 -15.300781 C 23.21875 -21.195312 20.746094 -24.480469 12.601562 -24.480469 C 4.5 -24.480469 2.023438 -20.699219 2.023438 -16.378906 L 2.023438 -15.976562 L 9.808594 -15.976562 C 9.808594 -17.101562 10.351562 -18.269531 12.375 -18.269531 C 14.175781 -18.269531 14.851562 -17.460938 14.941406 -15.75 L 9.898438 -14.941406 C 4.589844 -14.128906 1.125 -12.375 1.125 -7.199219 L 1.125 -6.75 C 1.125 -2.925781 2.925781 0.628906 8.550781 0.628906 C 11.699219 0.628906 14.085938 -0.496094 15.75 -2.25 Z M 11.699219 -6.03125 C 9.988281 -6.03125 9.359375 -7.019531 9.359375 -7.964844 L 9.359375 -8.234375 C 9.359375 -9.316406 9.765625 -10.171875 11.699219 -10.484375 L 14.941406 -10.980469 L 14.941406 -7.335938 C 14.265625 -6.703125 13.09375 -6.03125 11.699219 -6.03125 Z M 11.699219 -6.03125 "/></g></g></g><g fill="#000000" fill-opacity="1"><g transform="translate(527.153119, 200.056015)"><g><path d="M 2.160156 0 L 10.441406 0 L 10.441406 -36 L 2.160156 -36 Z M 2.160156 0 "/></g></g></g><g fill="#000000" fill-opacity="1"><g transform="translate(539.75311, 200.056015)"><g><path d="M 2.160156 0 L 10.441406 0 L 10.441406 -23.851562 L 2.160156 -23.851562 Z M 10.574219 -35.101562 L 2.023438 -35.101562 L 2.023438 -26.550781 L 10.574219 -26.550781 Z M 10.574219 -35.101562 "/></g></g></g><g fill="#000000" fill-opacity="1"><g transform="translate(552.3531, 200.056015)"><g><path d="M 0.898438 -5.671875 L 0.898438 0 L 22.050781 0 L 22.050781 -7.199219 L 16.648438 -7.199219 L 11.789062 -7.019531 L 21.601562 -18.179688 L 21.601562 -23.851562 L 1.351562 -23.851562 L 1.351562 -16.648438 L 5.851562 -16.648438 L 10.710938 -16.828125 Z M 0.898438 -5.671875 "/></g></g></g><g fill="#000000" fill-opacity="1"><g transform="translate(575.303081, 200.056015)"><g><path d="M 16.199219 0 L 23.671875 0 L 23.21875 -6.75 L 23.21875 -15.300781 C 23.21875 -21.195312 20.746094 -24.480469 12.601562 -24.480469 C 4.5 -24.480469 2.023438 -20.699219 2.023438 -16.378906 L 2.023438 -15.976562 L 9.808594 -15.976562 C 9.808594 -17.101562 10.351562 -18.269531 12.375 -18.269531 C 14.175781 -18.269531 14.851562 -17.460938 14.941406 -15.75 L 9.898438 -14.941406 C 4.589844 -14.128906 1.125 -12.375 1.125 -7.199219 L 1.125 -6.75 C 1.125 -2.925781 2.925781 0.628906 8.550781 0.628906 C 11.699219 0.628906 14.085938 -0.496094 15.75 -2.25 Z M 11.699219 -6.03125 C 9.988281 -6.03125 9.359375 -7.019531 9.359375 -7.964844 L 9.359375 -8.234375 C 9.359375 -9.316406 9.765625 -10.171875 11.699219 -10.484375 L 14.941406 -10.980469 L 14.941406 -7.335938 C 14.265625 -6.703125 13.09375 -6.03125 11.699219 -6.03125 Z M 11.699219 -6.03125 "/></g></g></g><g fill="#000000" fill-opacity="1"><g transform="translate(600.503062, 200.056015)"><g><path d="M 12.554688 -23.851562 L 12.554688 -30.601562 L 4.273438 -30.601562 L 4.273438 -23.851562 L 0.675781 -23.851562 L 0.675781 -16.648438 L 4.273438 -16.648438 L 4.273438 -8.773438 C 4.273438 -1.800781 8.101562 0.628906 13.816406 0.628906 C 16.066406 0.628906 17.414062 0.226562 17.820312 0 L 17.820312 -6.75 C 17.59375 -6.660156 16.46875 -6.480469 15.75 -6.480469 C 13.859375 -6.480469 12.554688 -6.976562 12.554688 -9.675781 L 12.554688 -16.648438 L 18.269531 -16.648438 L 18.269531 -23.851562 Z M 12.554688 -23.851562 "/></g></g></g><g fill="#000000" fill-opacity="1"><g transform="translate(620.303034, 200.056015)"><g><path d="M 2.160156 0 L 10.441406 0 L 10.441406 -23.851562 L 2.160156 -23.851562 Z M 10.574219 -35.101562 L 2.023438 -35.101562 L 2.023438 -26.550781 L 10.574219 -26.550781 Z M 10.574219 -35.101562 "/></g></g></g><g fill="#000000" fill-opacity="1"><g transform="translate(632.903024, 200.056015)"><g><path d="M 12.601562 0.628906 C 20.476562 0.628906 24.074219 -4.050781 24.074219 -11.023438 L 24.074219 -12.824219 C 24.074219 -19.800781 20.476562 -24.480469 12.601562 -24.480469 C 4.726562 -24.480469 1.125 -19.800781 1.125 -12.824219 L 1.125 -11.023438 C 1.125 -4.050781 4.726562 0.628906 12.601562 0.628906 Z M 12.601562 -6.480469 C 10.351562 -6.480469 9.359375 -8.101562 9.359375 -11.023438 L 9.359375 -12.824219 C 9.359375 -15.75 10.351562 -17.371094 12.601562 -17.371094 C 14.851562 -17.371094 15.839844 -15.75 15.839844 -12.824219 L 15.839844 -11.023438 C 15.839844 -8.101562 14.851562 -6.480469 12.601562 -6.480469 Z M 12.601562 -6.480469 "/></g></g></g><g fill="#000000" fill-opacity="1"><g transform="translate(658.103005, 200.056015)"><g><path d="M 24.796875 0 L 24.796875 -15.976562 C 24.796875 -20.25 22.996094 -24.480469 17.371094 -24.480469 C 13.816406 -24.480469 11.386719 -22.996094 9.808594 -20.878906 L 9.269531 -23.851562 L 1.800781 -23.851562 L 2.25 -17.101562 L 2.25 0 L 10.53125 0 L 10.53125 -15.523438 C 10.980469 -16.199219 12.195312 -17.371094 13.996094 -17.371094 C 16.246094 -17.371094 16.515625 -15.75 16.515625 -14.625 L 16.515625 0 Z M 24.796875 0 "/></g></g></g><path fill="#ffffff" d="M 30.707031 412.515625 C 30.707031 427.90625 43.175781 440.390625 58.550781 440.390625 C 59.863281 440.390625 61.160156 440.304688 62.421875 440.121094 C 69.222656 459.742188 87.855469 473.832031 109.785156 473.832031 C 122.648438 473.832031 134.386719 468.976562 143.265625 460.992188 C 147.039062 463.027344 151.363281 464.167969 155.957031 464.167969 C 164.179688 464.167969 171.53125 460.488281 176.480469 454.675781 C 184.027344 460.625 193.542969 464.167969 203.898438 464.167969 C 213.710938 464.167969 222.773438 460.980469 230.125 455.570312 C 236.007812 463.507812 245.425781 468.632812 256.046875 468.632812 C 273.886719 468.632812 288.34375 454.148438 288.34375 436.292969 C 288.34375 426.289062 283.796875 417.335938 276.667969 411.414062 C 288.390625 401.050781 295.777344 385.90625 295.777344 369.042969 C 295.777344 345.402344 281.261719 325.15625 260.667969 316.742188 C 262.714844 311.410156 263.839844 305.609375 263.839844 299.550781 C 263.839844 273.074219 242.402344 251.613281 215.953125 251.613281 C 200.210938 251.613281 186.230469 259.21875 177.507812 270.964844 C 175.046875 269.984375 172.363281 269.445312 169.558594 269.445312 C 164.351562 269.445312 159.585938 271.296875 155.875 274.363281 C 150.59375 261.03125 137.59375 251.613281 122.402344 251.613281 C 102.839844 251.613281 86.925781 267.238281 86.421875 286.699219 C 72.703125 290.523438 61.640625 300.738281 56.628906 313.933594 C 54.09375 313.039062 51.375 312.5625 48.53125 312.5625 C 34.992188 312.5625 24.027344 323.535156 24.027344 337.085938 C 24.027344 346.113281 28.90625 353.996094 36.15625 358.253906 C 35.03125 361.515625 34.417969 365.023438 34.417969 368.664062 C 34.417969 376.769531 37.433594 384.175781 42.394531 389.832031 C 35.3125 394.871094 30.707031 403.160156 30.707031 412.515625 Z M 30.707031 412.515625 " fill-opacity="1" fill-rule="nonzero"/><g clip-path="url(#43f53dcde0)"><path fill="#000000" d="M 109.785156 476.285156 C 88.050781 476.285156 68.609375 462.894531 60.78125 442.769531 C 60.046875 442.820312 59.3125 442.84375 58.550781 442.84375 C 41.84375 442.84375 28.253906 429.242188 28.253906 412.515625 C 28.253906 403.601562 32.199219 395.152344 38.914062 389.4375 C 34.417969 383.464844 31.96875 376.179688 31.96875 368.664062 C 31.96875 365.476562 32.398438 362.335938 33.253906 359.308594 C 26.015625 354.304688 21.578125 345.964844 21.578125 337.085938 C 21.578125 322.210938 33.671875 310.109375 48.53125 310.109375 C 50.808594 310.109375 53.039062 310.390625 55.207031 310.941406 C 60.621094 298.542969 71.195312 288.96875 84.058594 284.847656 C 85.480469 264.699219 101.992188 249.160156 122.402344 249.160156 C 137.226562 249.160156 150.445312 257.488281 156.890625 270.621094 C 160.675781 268.265625 165.0625 266.992188 169.558594 266.992188 C 171.984375 266.992188 174.359375 267.347656 176.652344 268.058594 C 186.15625 256.199219 200.710938 249.160156 215.953125 249.160156 C 243.710938 249.160156 266.289062 271.761719 266.289062 299.550781 C 266.289062 304.984375 265.433594 310.304688 263.742188 315.40625 C 284.765625 324.972656 298.226562 345.769531 298.226562 369.042969 C 298.226562 385.023438 291.722656 400.304688 280.304688 411.386719 C 287.007812 417.914062 290.792969 426.851562 290.792969 436.292969 C 290.792969 455.472656 275.207031 471.085938 256.046875 471.085938 C 245.90625 471.085938 236.203125 466.570312 229.648438 458.894531 C 222.003906 463.960938 213.144531 466.621094 203.898438 466.621094 C 194.046875 466.621094 184.722656 463.640625 176.785156 457.964844 C 171.285156 463.492188 163.8125 466.621094 155.957031 466.621094 C 151.683594 466.621094 147.457031 465.6875 143.632812 463.921875 C 134.164062 471.90625 122.207031 476.285156 109.785156 476.285156 Z M 62.421875 437.667969 C 63.453125 437.667969 64.394531 438.316406 64.738281 439.3125 C 71.378906 458.492188 89.484375 471.378906 109.785156 471.378906 C 121.558594 471.378906 132.867188 467.039062 141.625 459.164062 C 142.398438 458.476562 143.511719 458.34375 144.429688 458.832031 C 147.921875 460.722656 151.917969 461.714844 155.957031 461.714844 C 163.148438 461.714844 169.949219 458.5625 174.617188 453.082031 C 175.472656 452.078125 176.96875 451.929688 178 452.75 C 185.445312 458.613281 194.402344 461.714844 203.898438 461.714844 C 212.886719 461.714844 221.453125 458.90625 228.679688 453.597656 C 229.769531 452.789062 231.289062 453.035156 232.097656 454.113281 C 237.78125 461.777344 246.515625 466.179688 256.046875 466.179688 C 272.5 466.179688 285.890625 452.777344 285.890625 436.292969 C 285.890625 427.378906 281.960938 418.992188 275.097656 413.300781 C 274.546875 412.847656 274.230469 412.171875 274.214844 411.449219 C 274.203125 410.738281 274.511719 410.050781 275.050781 409.574219 C 286.664062 399.296875 293.328125 384.53125 293.328125 369.042969 C 293.328125 346.984375 280.144531 327.351562 259.734375 319.011719 C 258.5 318.507812 257.898438 317.109375 258.375 315.859375 C 260.371094 310.648438 261.390625 305.167969 261.390625 299.550781 C 261.390625 274.472656 241.003906 254.066406 215.953125 254.066406 C 201.640625 254.066406 188.007812 260.933594 179.480469 272.425781 C 178.820312 273.320312 177.644531 273.652344 176.601562 273.246094 C 174.359375 272.351562 171.984375 271.898438 169.558594 271.898438 C 165.148438 271.898438 160.835938 273.441406 157.429688 276.25 C 156.828125 276.753906 156.019531 276.925781 155.261719 276.730469 C 154.5 276.53125 153.875 275.980469 153.59375 275.257812 C 148.5 262.394531 136.246094 254.066406 122.402344 254.066406 C 104.078125 254.066406 89.351562 268.425781 88.875 286.761719 C 88.847656 287.839844 88.113281 288.769531 87.085938 289.066406 C 74.207031 292.660156 63.683594 302.285156 58.917969 314.804688 C 58.441406 316.054688 57.070312 316.695312 55.820312 316.253906 C 53.503906 315.429688 51.054688 315.015625 48.53125 315.015625 C 36.367188 315.015625 26.480469 324.910156 26.480469 337.085938 C 26.480469 344.886719 30.65625 352.183594 37.394531 356.132812 C 38.398438 356.71875 38.851562 357.945312 38.472656 359.050781 C 37.40625 362.128906 36.867188 365.367188 36.867188 368.664062 C 36.867188 375.863281 39.488281 382.804688 44.230469 388.210938 C 44.683594 388.738281 44.90625 389.425781 44.820312 390.113281 C 44.734375 390.800781 44.367188 391.425781 43.800781 391.828125 C 37.125 396.574219 33.144531 404.3125 33.144531 412.515625 C 33.144531 426.535156 44.539062 437.9375 58.539062 437.9375 C 59.765625 437.9375 60.953125 437.851562 62.054688 437.691406 C 62.191406 437.679688 62.3125 437.667969 62.421875 437.667969 Z M 62.421875 437.667969 " fill-opacity="1" fill-rule="nonzero"/></g><path fill="#ffffff" d="M 246.492188 489.808594 C 246.492188 490.484375 246.460938 491.15625 246.394531 491.828125 C 246.328125 492.5 246.230469 493.164062 246.097656 493.828125 C 245.964844 494.488281 245.800781 495.140625 245.605469 495.785156 C 245.410156 496.433594 245.183594 497.066406 244.925781 497.6875 C 244.667969 498.3125 244.382812 498.921875 244.0625 499.515625 C 243.746094 500.109375 243.402344 500.6875 243.027344 501.25 C 242.652344 501.808594 242.25 502.351562 241.824219 502.871094 C 241.394531 503.394531 240.945312 503.890625 240.46875 504.367188 C 239.992188 504.847656 239.492188 505.296875 238.972656 505.726562 C 238.453125 506.152344 237.910156 506.554688 237.351562 506.929688 C 236.792969 507.304688 236.214844 507.652344 235.621094 507.96875 C 235.027344 508.285156 234.417969 508.574219 233.796875 508.832031 C 233.171875 509.089844 232.539062 509.316406 231.894531 509.511719 C 231.25 509.707031 230.597656 509.871094 229.9375 510.003906 C 229.277344 510.136719 228.609375 510.234375 227.941406 510.300781 C 227.269531 510.367188 226.597656 510.398438 225.921875 510.398438 C 225.25 510.398438 224.578125 510.367188 223.90625 510.300781 C 223.238281 510.234375 222.570312 510.136719 221.910156 510.003906 C 221.25 509.871094 220.597656 509.707031 219.953125 509.511719 C 219.308594 509.316406 218.675781 509.089844 218.050781 508.832031 C 217.429688 508.574219 216.820312 508.285156 216.226562 507.96875 C 215.632812 507.652344 215.054688 507.304688 214.496094 506.929688 C 213.9375 506.554688 213.394531 506.152344 212.875 505.726562 C 212.355469 505.296875 211.855469 504.847656 211.378906 504.367188 C 210.902344 503.890625 210.449219 503.394531 210.023438 502.871094 C 209.597656 502.351562 209.195312 501.808594 208.820312 501.25 C 208.445312 500.6875 208.101562 500.109375 207.78125 499.515625 C 207.464844 498.921875 207.179688 498.3125 206.921875 497.6875 C 206.664062 497.066406 206.4375 496.433594 206.238281 495.785156 C 206.042969 495.140625 205.882812 494.488281 205.75 493.828125 C 205.617188 493.164062 205.519531 492.5 205.453125 491.828125 C 205.386719 491.15625 205.355469 490.484375 205.355469 489.808594 C 205.355469 489.136719 205.386719 488.464844 205.453125 487.792969 C 205.519531 487.121094 205.617188 486.453125 205.75 485.792969 C 205.882812 485.132812 206.042969 484.480469 206.238281 483.832031 C 206.4375 483.1875 206.664062 482.554688 206.921875 481.929688 C 207.179688 481.308594 207.464844 480.699219 207.78125 480.105469 C 208.101562 479.507812 208.445312 478.933594 208.820312 478.371094 C 209.195312 477.808594 209.597656 477.269531 210.023438 476.75 C 210.449219 476.226562 210.902344 475.726562 211.378906 475.25 C 211.855469 474.773438 212.355469 474.320312 212.875 473.894531 C 213.394531 473.464844 213.9375 473.066406 214.496094 472.691406 C 215.054688 472.316406 215.632812 471.96875 216.226562 471.652344 C 216.820312 471.332031 217.429688 471.046875 218.050781 470.789062 C 218.675781 470.53125 219.308594 470.304688 219.953125 470.105469 C 220.597656 469.910156 221.25 469.746094 221.910156 469.617188 C 222.570312 469.484375 223.238281 469.386719 223.90625 469.320312 C 224.578125 469.253906 225.25 469.21875 225.921875 469.21875 C 226.597656 469.21875 227.269531 469.253906 227.941406 469.320312 C 228.609375 469.386719 229.277344 469.484375 229.9375 469.617188 C 230.597656 469.746094 231.25 469.910156 231.894531 470.105469 C 232.539062 470.304688 233.171875 470.53125 233.796875 470.789062 C 234.417969 471.046875 235.027344 471.332031 235.621094 471.652344 C 236.214844 471.96875 236.792969 472.316406 237.351562 472.691406 C 237.910156 473.066406 238.453125 473.464844 238.972656 473.894531 C 239.492188 474.320312 239.992188 474.773438 240.46875 475.25 C 240.945312 475.726562 241.394531 476.226562 241.824219 476.75 C 242.25 477.269531 242.652344 477.808594 243.027344 478.371094 C 243.402344 478.933594 243.746094 479.507812 244.0625 480.105469 C 244.382812 480.699219 244.667969 481.308594 244.925781 481.929688 C 245.183594 482.554688 245.410156 483.1875 245.605469 483.832031 C 245.800781 484.480469 245.964844 485.132812 246.097656 485.792969 C 246.230469 486.453125 246.328125 487.121094 246.394531 487.792969 C 246.460938 488.464844 246.492188 489.136719 246.492188 489.808594 Z M 246.492188 489.808594 " fill-opacity="1" fill-rule="nonzero"/><path fill="#000000" d="M 225.921875 512.851562 C 213.230469 512.851562 202.902344 502.515625 202.902344 489.808594 C 202.902344 477.105469 213.230469 466.769531 225.921875 466.769531 C 238.617188 466.769531 248.941406 477.105469 248.941406 489.808594 C 248.941406 502.515625 238.617188 512.851562 225.921875 512.851562 Z M 225.921875 471.671875 C 215.9375 471.671875 207.804688 479.804688 207.804688 489.808594 C 207.804688 499.816406 215.925781 507.945312 225.921875 507.945312 C 235.921875 507.945312 244.042969 499.816406 244.042969 489.808594 C 244.042969 479.804688 235.90625 471.671875 225.921875 471.671875 Z M 225.921875 471.671875 " fill-opacity="1" fill-rule="nonzero"/><path fill="#ffffff" d="M 273.222656 518.738281 C 273.222656 519.617188 273.136719 520.488281 272.96875 521.347656 C 272.796875 522.210938 272.542969 523.046875 272.207031 523.859375 C 271.871094 524.667969 271.460938 525.441406 270.972656 526.171875 C 270.484375 526.902344 269.929688 527.578125 269.308594 528.199219 C 268.6875 528.820312 268.015625 529.375 267.285156 529.863281 C 266.554688 530.351562 265.785156 530.761719 264.972656 531.097656 C 264.164062 531.433594 263.328125 531.6875 262.464844 531.859375 C 261.605469 532.03125 260.734375 532.117188 259.859375 532.117188 C 258.980469 532.117188 258.113281 532.03125 257.25 531.859375 C 256.390625 531.6875 255.554688 531.433594 254.742188 531.097656 C 253.933594 530.761719 253.164062 530.351562 252.433594 529.863281 C 251.703125 529.375 251.027344 528.820312 250.40625 528.199219 C 249.785156 527.578125 249.234375 526.902344 248.746094 526.171875 C 248.257812 525.441406 247.847656 524.667969 247.511719 523.859375 C 247.175781 523.046875 246.921875 522.210938 246.75 521.347656 C 246.578125 520.488281 246.492188 519.617188 246.492188 518.738281 C 246.492188 517.859375 246.578125 516.988281 246.75 516.128906 C 246.921875 515.265625 247.175781 514.429688 247.511719 513.617188 C 247.847656 512.808594 248.257812 512.035156 248.746094 511.304688 C 249.234375 510.574219 249.785156 509.898438 250.40625 509.277344 C 251.027344 508.65625 251.703125 508.101562 252.433594 507.613281 C 253.164062 507.125 253.933594 506.714844 254.742188 506.378906 C 255.554688 506.042969 256.390625 505.789062 257.25 505.617188 C 258.113281 505.445312 258.980469 505.359375 259.859375 505.359375 C 260.734375 505.359375 261.605469 505.445312 262.464844 505.617188 C 263.328125 505.789062 264.164062 506.042969 264.972656 506.378906 C 265.785156 506.714844 266.554688 507.125 267.285156 507.613281 C 268.015625 508.101562 268.6875 508.65625 269.308594 509.277344 C 269.929688 509.898438 270.484375 510.574219 270.972656 511.304688 C 271.460938 512.035156 271.871094 512.808594 272.207031 513.617188 C 272.542969 514.429688 272.796875 515.265625 272.96875 516.128906 C 273.136719 516.988281 273.222656 517.859375 273.222656 518.738281 Z M 273.222656 518.738281 " fill-opacity="1" fill-rule="nonzero"/><path fill="#000000" d="M 259.859375 534.582031 C 251.136719 534.582031 244.042969 527.480469 244.042969 518.75 C 244.042969 510.019531 251.136719 502.917969 259.859375 502.917969 C 268.582031 502.917969 275.675781 510.019531 275.675781 518.75 C 275.675781 527.480469 268.582031 534.582031 259.859375 534.582031 Z M 259.859375 507.8125 C 253.832031 507.8125 248.941406 512.71875 248.941406 518.738281 C 248.941406 524.757812 253.84375 529.664062 259.859375 529.664062 C 265.875 529.664062 270.773438 524.757812 270.773438 518.738281 C 270.773438 512.71875 265.886719 507.8125 259.859375 507.8125 Z M 259.859375 507.8125 " fill-opacity="1" fill-rule="nonzero"/><path fill="#ffffff" d="M 292.800781 531.480469 C 292.800781 531.886719 292.761719 532.289062 292.683594 532.6875 C 292.601562 533.085938 292.484375 533.472656 292.332031 533.847656 C 292.175781 534.226562 291.984375 534.582031 291.757812 534.921875 C 291.53125 535.257812 291.277344 535.570312 290.988281 535.859375 C 290.703125 536.144531 290.390625 536.402344 290.050781 536.628906 C 289.714844 536.855469 289.355469 537.046875 288.980469 537.199219 C 288.605469 537.355469 288.21875 537.472656 287.820312 537.554688 C 287.421875 537.632812 287.019531 537.671875 286.613281 537.671875 C 286.207031 537.671875 285.804688 537.632812 285.40625 537.554688 C 285.007812 537.472656 284.621094 537.355469 284.246094 537.199219 C 283.871094 537.046875 283.515625 536.855469 283.175781 536.628906 C 282.839844 536.402344 282.527344 536.144531 282.238281 535.859375 C 281.953125 535.570312 281.695312 535.257812 281.46875 534.921875 C 281.246094 534.582031 281.054688 534.226562 280.898438 533.847656 C 280.742188 533.472656 280.625 533.085938 280.546875 532.6875 C 280.46875 532.289062 280.425781 531.886719 280.425781 531.480469 C 280.425781 531.074219 280.46875 530.671875 280.546875 530.269531 C 280.625 529.871094 280.742188 529.484375 280.898438 529.109375 C 281.054688 528.734375 281.246094 528.378906 281.46875 528.039062 C 281.695312 527.699219 281.953125 527.386719 282.238281 527.101562 C 282.527344 526.8125 282.839844 526.554688 283.175781 526.332031 C 283.515625 526.105469 283.871094 525.914062 284.246094 525.757812 C 284.621094 525.601562 285.007812 525.484375 285.40625 525.40625 C 285.804688 525.328125 286.207031 525.285156 286.613281 525.285156 C 287.019531 525.285156 287.421875 525.328125 287.820312 525.40625 C 288.21875 525.484375 288.605469 525.601562 288.980469 525.757812 C 289.355469 525.914062 289.714844 526.105469 290.050781 526.332031 C 290.390625 526.554688 290.703125 526.8125 290.988281 527.101562 C 291.277344 527.386719 291.53125 527.699219 291.757812 528.039062 C 291.984375 528.378906 292.175781 528.734375 292.332031 529.109375 C 292.484375 529.484375 292.601562 529.871094 292.683594 530.269531 C 292.761719 530.671875 292.800781 531.074219 292.800781 531.480469 Z M 292.800781 531.480469 " fill-opacity="1" fill-rule="nonzero"/><g clip-path="url(#7316487544)"><path fill="#000000" d="M 286.613281 540.125 C 281.847656 540.125 277.976562 536.25 277.976562 531.480469 C 277.976562 526.710938 281.847656 522.835938 286.613281 522.835938 C 291.378906 522.835938 295.25 526.710938 295.25 531.480469 C 295.25 536.25 291.367188 540.125 286.613281 540.125 Z M 286.613281 527.75 C 284.554688 527.75 282.878906 529.433594 282.878906 531.492188 C 282.878906 533.550781 284.554688 535.230469 286.613281 535.230469 C 288.671875 535.230469 290.351562 533.550781 290.351562 531.492188 C 290.339844 529.417969 288.671875 527.75 286.613281 527.75 Z M 286.613281 527.75 " fill-opacity="1" fill-rule="nonzero"/></g><g fill="#000000" fill-opacity="1"><g transform="translate(119.436509, 349.773139)"><g><path d="M 14.679688 -30.78125 C 14.679688 -33.941406 16.207031 -34.519531 18.417969 -34.519531 C 19.257812 -34.519531 20.574219 -34.308594 20.835938 -34.203125 L 20.835938 -42.097656 C 20.363281 -42.359375 18.785156 -42.832031 16.15625 -42.832031 C 9.472656 -42.832031 5 -39.992188 5 -31.835938 L 5 -27.886719 L 0.789062 -27.886719 L 0.789062 -19.46875 L 5 -19.46875 L 5 0 L 14.679688 0 L 14.679688 -19.46875 L 20.3125 -19.46875 L 20.3125 -27.886719 L 14.679688 -27.886719 Z M 14.679688 -30.78125 "/></g></g></g><g fill="#000000" fill-opacity="1"><g transform="translate(141.53576, 349.773139)"><g><path d="M 2.527344 0 L 12.207031 0 L 12.207031 -27.886719 L 2.527344 -27.886719 Z M 12.367188 -41.042969 L 2.367188 -41.042969 L 2.367188 -31.046875 L 12.367188 -31.046875 Z M 12.367188 -41.042969 "/></g></g></g><g fill="#000000" fill-opacity="1"><g transform="translate(156.268585, 349.773139)"><g><path d="M 2.527344 0 L 12.207031 0 L 12.207031 -42.097656 L 2.527344 -42.097656 Z M 2.527344 0 "/></g></g></g><g fill="#000000" fill-opacity="1"><g transform="translate(171.00141, 349.773139)"><g><path d="M 28.152344 -10.523438 L 28.152344 -14.734375 C 28.152344 -22.890625 23.941406 -28.625 14.945312 -28.625 C 5.945312 -28.625 1.316406 -22.890625 1.316406 -14.734375 L 1.316406 -13.15625 C 1.316406 -5 5.734375 0.738281 15.261719 0.738281 C 23.363281 0.738281 28.152344 -3.15625 28.152344 -8.734375 L 28.152344 -8.945312 L 19.046875 -8.945312 C 19.046875 -7.628906 17.417969 -6.523438 15.3125 -6.523438 C 12.890625 -6.523438 11.3125 -7.367188 10.996094 -10.523438 Z M 14.734375 -21.363281 C 16.996094 -21.363281 18.207031 -20.3125 18.46875 -17.363281 L 10.996094 -17.363281 C 11.261719 -20.3125 12.472656 -21.363281 14.734375 -21.363281 Z M 14.734375 -21.363281 "/></g></g></g><g fill="#000000" fill-opacity="1"><g transform="translate(117.327135, 423.273136)"><g><path d="M 12.890625 -41.042969 L 2.894531 -41.042969 L 2.894531 0 L 12.890625 0 Z M 12.890625 -41.042969 "/></g></g></g><g fill="#000000" fill-opacity="1"><g transform="translate(133.112313, 423.273136)"><g><path d="M 22.363281 -44.199219 L 12.890625 -44.199219 L 0.789062 6.3125 L 10.261719 6.3125 Z M 22.363281 -44.199219 "/></g></g></g><g fill="#000000" fill-opacity="1"><g transform="translate(156.263905, 423.273136)"><g><path d="M 17.890625 0.738281 C 28.941406 0.738281 34.046875 -5.261719 34.046875 -19.46875 L 34.046875 -21.574219 C 34.046875 -35.78125 28.941406 -41.78125 17.890625 -41.78125 C 6.839844 -41.78125 1.738281 -35.78125 1.738281 -21.574219 L 1.738281 -19.46875 C 1.738281 -5.261719 6.839844 0.738281 17.890625 0.738281 Z M 17.628906 -7.894531 C 12.890625 -7.894531 11.890625 -12.367188 11.890625 -19.46875 L 11.890625 -21.574219 C 11.890625 -28.679688 12.890625 -33.152344 17.628906 -33.152344 L 18.152344 -33.152344 C 22.890625 -33.152344 23.890625 -28.679688 23.890625 -21.574219 L 23.890625 -19.46875 C 23.890625 -12.367188 22.890625 -7.894531 18.152344 -7.894531 Z M 17.628906 -7.894531 "/></g></g></g><g fill="#000000" fill-opacity="1"><g transform="translate(192.034159, 423.273136)"><g/></g></g><g clip-path="url(#832916cd43)"><g clip-path="url(#c54608fa84)"><g clip-path="url(#935de61300)"><g clip-path="url(#d6e36a109d)"><path fill="#ffffff" d="M 327.234375 240.152344 L 303.792969 220.585938 L 287.101562 206.640625 C 263.554688 220.660156 233.390625 227.058594 201.785156 222.652344 C 136.621094 213.558594 89.96875 161.933594 97.585938 107.34375 C 105.203125 52.742188 164.203125 15.855469 229.367188 24.945312 C 294.539062 34.039062 341.191406 85.667969 333.574219 140.265625 C 330.734375 160.601562 320.765625 178.488281 305.992188 192.445312 L 314.8125 212.269531 Z M 327.234375 240.152344 " fill-opacity="1" fill-rule="nonzero"/></g></g></g></g><g clip-path="url(#fb3c28847b)"><g clip-path="url(#2a216e9acd)"><g clip-path="url(#c2f96dbd42)"><g clip-path="url(#4d1f0fd5fd)"><path fill="#000000" d="M 326.929688 242.328125 C 326.539062 242.273438 326.148438 242.109375 325.820312 241.839844 L 286.871094 209.3125 C 262.199219 223.5625 231.933594 229.074219 201.46875 224.824219 C 135.21875 215.582031 87.636719 162.75 95.410156 107.039062 C 103.183594 51.332031 163.410156 13.527344 229.667969 22.769531 C 295.929688 32.015625 343.519531 84.859375 335.746094 140.570312 C 333 160.261719 323.632812 178.355469 308.625 192.957031 L 329.242188 239.257812 C 329.65625 240.191406 329.382812 241.285156 328.5625 241.902344 C 328.078125 242.265625 327.496094 242.40625 326.929688 242.328125 Z M 229.0625 27.121094 C 165.207031 18.210938 107.199219 54.332031 99.761719 107.648438 C 92.324219 160.953125 138.230469 211.566406 202.085938 220.476562 C 232.117188 224.664062 261.914062 219.078125 285.976562 204.753906 C 286.777344 204.277344 287.796875 204.351562 288.511719 204.953125 L 321.382812 232.398438 L 303.992188 193.332031 C 303.613281 192.480469 303.820312 191.476562 304.496094 190.839844 C 319.425781 176.738281 328.734375 159.136719 331.410156 139.953125 C 338.835938 86.644531 292.929688 36.03125 229.0625 27.121094 Z M 229.0625 27.121094 " fill-opacity="1" fill-rule="nonzero"/></g></g></g></g><g fill="#000000" fill-opacity="1"><g transform="translate(175.096391, 102.250892)"><g><path d="M 13.246094 -6.199219 C 11.347656 -6.199219 10.546875 -7.046875 10.546875 -8.496094 L 1.398438 -8.496094 L 1.398438 -8.246094 C 1.398438 -2.75 5.449219 0.699219 13.246094 0.699219 C 21.195312 0.699219 25.09375 -2.75 25.09375 -8.546875 L 25.09375 -9.046875 C 25.09375 -14.847656 20.296875 -16.046875 13.648438 -16.597656 C 11.398438 -16.796875 10.746094 -17.246094 10.746094 -18.496094 C 10.746094 -19.546875 11.597656 -20.296875 13.246094 -20.296875 C 14.894531 -20.296875 15.746094 -19.34375 15.746094 -17.746094 L 24.742188 -17.746094 L 24.742188 -17.996094 C 24.742188 -23.84375 21.195312 -27.191406 13.246094 -27.191406 C 6.949219 -27.191406 1.75 -24.742188 1.75 -18.195312 L 1.75 -17.695312 C 1.75 -12.398438 5.296875 -10.746094 12.898438 -10.148438 C 15.394531 -9.949219 15.894531 -9.246094 15.894531 -8.148438 C 15.894531 -7.097656 15.246094 -6.199219 13.246094 -6.199219 Z M 13.246094 -6.199219 "/></g></g></g><g fill="#000000" fill-opacity="1"><g transform="translate(201.586029, 102.250892)"><g><path d="M 26.742188 -9.996094 L 26.742188 -13.996094 C 26.742188 -21.746094 22.746094 -27.191406 14.195312 -27.191406 C 5.648438 -27.191406 1.25 -21.746094 1.25 -13.996094 L 1.25 -12.496094 C 1.25 -4.75 5.449219 0.699219 14.496094 0.699219 C 22.195312 0.699219 26.742188 -3 26.742188 -8.296875 L 26.742188 -8.496094 L 18.09375 -8.496094 C 18.09375 -7.25 16.546875 -6.199219 14.546875 -6.199219 C 12.246094 -6.199219 10.746094 -7 10.449219 -9.996094 Z M 13.996094 -20.296875 C 16.144531 -20.296875 17.296875 -19.296875 17.546875 -16.496094 L 10.449219 -16.496094 C 10.699219 -19.296875 11.847656 -20.296875 13.996094 -20.296875 Z M 13.996094 -20.296875 "/></g></g></g><g fill="#000000" fill-opacity="1"><g transform="translate(229.575084, 102.250892)"><g><path d="M 13.945312 -26.492188 L 13.945312 -33.992188 L 4.75 -33.992188 L 4.75 -26.492188 L 0.75 -26.492188 L 0.75 -18.496094 L 4.75 -18.496094 L 4.75 -9.746094 C 4.75 -2 8.996094 0.699219 15.347656 0.699219 C 17.84375 0.699219 19.34375 0.25 19.796875 0 L 19.796875 -7.5 C 19.546875 -7.398438 18.296875 -7.199219 17.496094 -7.199219 C 15.394531 -7.199219 13.945312 -7.75 13.945312 -10.746094 L 13.945312 -18.496094 L 20.296875 -18.496094 L 20.296875 -26.492188 Z M 13.945312 -26.492188 "/></g></g></g><g fill="#000000" fill-opacity="1"><g transform="translate(135.240924, 172.000889)"><g><path d="M 13.945312 -26.492188 L 13.945312 -33.992188 L 4.75 -33.992188 L 4.75 -26.492188 L 0.75 -26.492188 L 0.75 -18.496094 L 4.75 -18.496094 L 4.75 -9.746094 C 4.75 -2 8.996094 0.699219 15.347656 0.699219 C 17.84375 0.699219 19.34375 0.25 19.796875 0 L 19.796875 -7.5 C 19.546875 -7.398438 18.296875 -7.199219 17.496094 -7.199219 C 15.394531 -7.199219 13.945312 -7.75 13.945312 -10.746094 L 13.945312 -18.496094 L 20.296875 -18.496094 L 20.296875 -26.492188 Z M 13.945312 -26.492188 "/></g></g></g><g fill="#000000" fill-opacity="1"><g transform="translate(157.232325, 172.000889)"><g><path d="M 11.695312 -39.988281 L 2.5 -39.988281 L 2.5 0 L 11.695312 0 L 11.695312 -17.246094 C 12.195312 -17.996094 13.546875 -19.296875 15.546875 -19.296875 C 18.046875 -19.296875 18.34375 -17.496094 18.34375 -16.246094 L 18.34375 0 L 27.542969 0 L 27.542969 -17.746094 C 27.542969 -22.496094 25.542969 -27.191406 19.296875 -27.191406 C 15.894531 -27.191406 13.398438 -25.992188 11.695312 -24.144531 Z M 11.695312 -39.988281 "/></g></g></g><g fill="#000000" fill-opacity="1"><g transform="translate(186.9707, 172.000889)"><g><path d="M 26.742188 -9.996094 L 26.742188 -13.996094 C 26.742188 -21.746094 22.746094 -27.191406 14.195312 -27.191406 C 5.648438 -27.191406 1.25 -21.746094 1.25 -13.996094 L 1.25 -12.496094 C 1.25 -4.75 5.449219 0.699219 14.496094 0.699219 C 22.195312 0.699219 26.742188 -3 26.742188 -8.296875 L 26.742188 -8.496094 L 18.09375 -8.496094 C 18.09375 -7.25 16.546875 -6.199219 14.546875 -6.199219 C 12.246094 -6.199219 10.746094 -7 10.449219 -9.996094 Z M 13.996094 -20.296875 C 16.144531 -20.296875 17.296875 -19.296875 17.546875 -16.496094 L 10.449219 -16.496094 C 10.699219 -19.296875 11.847656 -20.296875 13.996094 -20.296875 Z M 13.996094 -20.296875 "/></g></g></g><g fill="#000000" fill-opacity="1"><g transform="translate(214.959755, 172.000889)"><g><path d="M 13.996094 0.699219 C 22.746094 0.699219 26.742188 -4.5 26.742188 -12.246094 L 26.742188 -14.246094 C 26.742188 -21.996094 22.746094 -27.191406 13.996094 -27.191406 C 5.25 -27.191406 1.25 -21.996094 1.25 -14.246094 L 1.25 -12.246094 C 1.25 -4.5 5.25 0.699219 13.996094 0.699219 Z M 13.996094 -7.199219 C 11.496094 -7.199219 10.398438 -8.996094 10.398438 -12.246094 L 10.398438 -14.246094 C 10.398438 -17.496094 11.496094 -19.296875 13.996094 -19.296875 C 16.496094 -19.296875 17.59375 -17.496094 17.59375 -14.246094 L 17.59375 -12.246094 C 17.59375 -8.996094 16.496094 -7.199219 13.996094 -7.199219 Z M 13.996094 -7.199219 "/></g></g></g><g fill="#000000" fill-opacity="1"><g transform="translate(242.948809, 172.000889)"><g><path d="M 17.796875 -27.191406 C 14.796875 -27.191406 12.445312 -25.742188 10.847656 -23.542969 L 10.296875 -26.492188 L 2 -26.492188 L 2.5 -18.996094 L 2.5 0 L 11.695312 0 L 11.695312 -15.996094 C 12.296875 -16.746094 14.046875 -17.746094 17.046875 -17.746094 L 18.546875 -17.746094 L 18.546875 -27.144531 C 18.296875 -27.191406 18.046875 -27.191406 17.796875 -27.191406 Z M 17.796875 -27.191406 "/></g></g></g><g fill="#000000" fill-opacity="1"><g transform="translate(262.940996, 172.000889)"><g><path d="M 14.246094 -10.996094 L 9.996094 -26.492188 L 0 -26.492188 L 9.246094 -1.5 L 4.949219 9.996094 L 15.945312 9.996094 L 19.246094 -1.5 L 28.492188 -26.492188 L 18.496094 -26.492188 Z M 14.246094 -10.996094 "/></g></g></g><g clip-path="url(#8b4cb7eed1)"><path fill="#000000" d="M 714.316406 153.433594 C 709.210938 141.976562 701.015625 133.542969 691.148438 127.878906 C 682.617188 122.984375 672.824219 120.164062 662.722656 119.292969 L 663.476562 113.332031 C 663.476562 109.917969 662.515625 106.542969 660.941406 103.453125 C 659.4375 100.511719 657.386719 97.835938 655.164062 95.65625 C 652.515625 93.058594 649.554688 90.890625 646.339844 89.320312 C 643 87.691406 639.386719 86.695312 635.550781 86.515625 C 634.617188 86.46875 630.101562 87.296875 627.914062 87.714844 L 622.890625 73.964844 C 619.132812 68.632812 614.351562 64.277344 609.023438 60.71875 C 603.789062 57.230469 598.03125 54.511719 592.21875 52.371094 C 580.082031 47.910156 565.976562 46.25 552.113281 47.421875 C 538.238281 48.589844 524.625 52.605469 513.46875 59.402344 C 509.527344 61.808594 505.601562 64.3125 501.960938 67.183594 C 499.457031 69.15625 497.089844 71.304688 494.933594 73.703125 C 494.371094 74.328125 492.417969 77.167969 491.164062 79.019531 C 489.273438 77.65625 486.230469 75.507812 485.367188 75.089844 C 482.085938 73.507812 478.511719 72.292969 474.855469 71.636719 C 471.074219 70.960938 467.210938 70.886719 463.472656 71.601562 C 458.53125 72.550781 453.933594 74.734375 449.976562 77.808594 C 446.109375 80.8125 442.855469 84.664062 440.488281 89.007812 L 437.984375 96.332031 C 435.179688 95.640625 431.179688 94.617188 430.421875 94.582031 C 426.792969 94.425781 422.992188 95.027344 419.34375 96.1875 C 415.804688 97.308594 412.414062 98.957031 409.464844 100.914062 C 404.007812 104.53125 399.226562 109.332031 395.472656 114.867188 C 391.753906 120.34375 389.039062 126.539062 387.652344 133 L 387.304688 145.015625 C 386.039062 147.46875 380.667969 150.042969 376.699219 153.832031 C 374.800781 155.648438 373.140625 157.660156 372.019531 159.882812 C 368.316406 167.207031 368.238281 172.664062 369.90625 177.164062 C 372.125 183.148438 378.097656 187.445312 383.960938 192.59375 L 383.820312 192.824219 L 379.636719 201.964844 C 378.136719 206.289062 377.140625 210.667969 376.632812 215.109375 C 376.125 219.535156 376.105469 224.019531 376.554688 228.566406 C 378.667969 249.839844 389.636719 265.132812 404.570312 273.519531 C 418.984375 281.621094 437.175781 283.273438 454.8125 277.453125 C 456.097656 282.3125 456.984375 287.226562 457.519531 292.1875 C 458.160156 298.089844 458.296875 304.046875 458.003906 310.035156 L 456.546875 321.75 C 456.167969 323.550781 454.324219 327.550781 454.390625 328.542969 C 454.496094 330.152344 455.339844 331.078125 456.242188 331.617188 C 456.988281 332.066406 458.46875 332.738281 460.511719 331.453125 C 467.175781 327.273438 473.121094 321.308594 478.023438 314.511719 C 482.820312 307.859375 486.617188 300.421875 489.136719 293.136719 L 492.261719 280.859375 L 502.164062 286.558594 C 507.3125 288.640625 513.214844 289.921875 519.132812 290.152344 C 525.15625 290.390625 531.191406 289.539062 536.496094 287.414062 C 541.191406 285.53125 545.832031 283.15625 550.171875 280.308594 C 554.535156 277.449219 558.59375 274.117188 562.109375 270.335938 L 567.21875 263.953125 C 567.886719 264.933594 568.660156 265.941406 569.261719 266.363281 C 571.203125 267.730469 573.429688 268.679688 575.757812 269.261719 C 577.972656 269.8125 580.28125 270.03125 582.492188 269.972656 C 585.816406 269.890625 588.441406 269.148438 590.695312 268.054688 C 595.058594 265.933594 597.707031 262.097656 602.140625 259.382812 C 604.6875 260.828125 609.003906 263.402344 609.878906 263.710938 C 614.425781 265.3125 619.011719 266.339844 623.65625 266.835938 C 628.28125 267.332031 632.96875 267.300781 637.722656 266.792969 C 646.734375 265.820312 655.011719 263.222656 662.234375 258.863281 C 669.445312 254.515625 675.613281 248.417969 680.402344 240.40625 L 686.148438 225.3125 C 688.46875 222.824219 694.105469 222.351562 698.175781 220.445312 C 699.65625 219.753906 700.992188 218.933594 702.09375 217.960938 C 710.800781 210.253906 716.222656 199.242188 718.242188 187.519531 C 720.234375 175.976562 718.917969 163.761719 714.316406 153.433594 Z M 711.03125 186.277344 C 709.296875 196.351562 704.722656 205.859375 697.242188 212.476562 C 694.25 215.125 688.675781 215.800781 684.941406 217.503906 C 683.253906 218.273438 681.832031 219.207031 680.796875 220.316406 C 679.886719 221.289062 679.070312 222.664062 678.378906 224.308594 C 676.796875 228.074219 675.882812 233.703125 674.121094 236.652344 C 669.984375 243.566406 664.675781 248.84375 658.453125 252.59375 C 652.117188 256.417969 644.847656 258.664062 636.941406 259.515625 C 632.714844 259.96875 628.546875 260 624.433594 259.558594 C 620.347656 259.121094 616.3125 258.21875 612.3125 256.808594 C 611.441406 256.5 606.753906 253.550781 604.773438 252.460938 C 602.519531 251.21875 600.660156 251.84375 600.441406 251.953125 C 595.664062 254.339844 592.878906 258.015625 589.058594 260.566406 C 587.292969 261.746094 585.21875 262.582031 582.304688 262.65625 C 580.738281 262.699219 579.101562 262.550781 577.527344 262.15625 C 576.078125 261.796875 574.679688 261.226562 573.46875 260.375 C 572.273438 259.535156 571.582031 256.964844 570.585938 256.113281 C 568.914062 254.683594 567.089844 254.367188 565.007812 255.664062 C 563.820312 256.40625 562.648438 257.542969 561.542969 258.894531 C 559.839844 260.992188 558.277344 263.714844 556.75 265.351562 C 553.632812 268.703125 550.03125 271.652344 546.160156 274.1875 C 542.230469 276.765625 538.023438 278.914062 533.773438 280.617188 C 529.390625 282.375 524.398438 283.035156 519.421875 282.839844 C 514.359375 282.640625 509.3125 281.554688 504.90625 279.773438 L 496.613281 274.988281 C 495.578125 274.199219 494.371094 271.859375 493.449219 271.160156 C 492.414062 270.367188 491.363281 270.15625 490.472656 270.21875 C 489.277344 270.304688 487.96875 270.789062 487.042969 272.527344 C 486.128906 274.253906 485.445312 276.324219 484.902344 278.554688 C 483.917969 282.609375 483.425781 287.261719 482.222656 290.746094 C 479.921875 297.382812 476.460938 304.167969 472.089844 310.230469 C 469.714844 313.519531 467.074219 316.601562 464.203125 319.316406 L 465.3125 310.394531 C 465.625 304.023438 465.476562 297.679688 464.796875 291.402344 C 464.117188 285.085938 462.898438 278.839844 461.085938 272.6875 C 460.71875 271.449219 459.753906 270.550781 458.601562 270.214844 C 457.628906 269.425781 456.273438 269.15625 455.015625 269.628906 C 438.671875 275.773438 421.5625 274.671875 408.15625 267.140625 C 395.128906 259.820312 385.683594 246.40625 383.839844 227.84375 C 383.441406 223.820312 383.457031 219.855469 383.90625 215.941406 C 384.351562 212.027344 385.230469 208.171875 386.550781 204.363281 L 390.183594 196.445312 C 390.308594 196.21875 391.285156 194.675781 391.660156 194.039062 C 393.160156 191.488281 391.261719 189.324219 391.15625 189.226562 C 385.558594 183.992188 378.917969 180.414062 376.765625 174.617188 C 375.65625 171.628906 376.09375 168.050781 378.554688 163.183594 C 379.308594 161.683594 380.472656 160.351562 381.753906 159.125 C 386.402344 154.6875 392.324219 151.25 393.808594 148.375 C 394.300781 147.417969 394.640625 146.054688 394.757812 144.433594 C 394.984375 141.339844 394.320312 136.828125 394.8125 134.535156 C 396 128.988281 398.339844 123.675781 401.527344 118.976562 C 404.746094 114.234375 408.835938 110.113281 413.507812 107.011719 C 415.914062 105.417969 418.679688 104.074219 421.558594 103.160156 C 424.375 102.265625 427.304688 101.777344 430.109375 101.894531 C 430.914062 101.929688 435.96875 103.398438 438.058594 103.890625 C 440.492188 104.46875 442.078125 103.433594 442.222656 103.3125 C 442.933594 102.714844 443.710938 101.628906 444.335938 100.152344 C 445.324219 97.820312 446.105469 94.003906 446.917969 92.503906 C 448.800781 89.046875 451.386719 85.980469 454.464844 83.589844 C 457.515625 81.222656 461.046875 79.519531 464.855469 78.792969 C 467.710938 78.242188 470.671875 78.324219 473.566406 78.84375 C 476.566406 79.378906 479.496094 80.386719 482.191406 81.683594 C 483.453125 82.292969 487.429688 85.667969 489.425781 86.675781 C 490.753906 87.347656 491.886719 87.414062 492.550781 87.3125 C 493.203125 87.214844 494.347656 86.796875 495.449219 85.601562 C 496.917969 84 499.515625 79.550781 500.375 78.597656 C 502.253906 76.507812 504.316406 74.648438 506.492188 72.929688 C 509.902344 70.238281 513.585938 67.90625 517.277344 65.652344 C 527.507812 59.417969 540.007812 55.785156 552.730469 54.710938 C 565.503906 53.632812 578.507812 55.128906 589.691406 59.242188 C 594.972656 61.183594 600.207031 63.640625 604.957031 66.808594 C 609.542969 69.867188 613.671875 73.59375 616.910156 78.183594 C 618.476562 80.40625 620.28125 88.464844 621.878906 91.757812 C 622.570312 93.179688 623.386719 94.082031 624.011719 94.527344 C 624.472656 94.847656 625.632812 95.382812 627.363281 95.226562 C 629.386719 95.050781 634.097656 93.773438 635.203125 93.824219 C 638.023438 93.960938 640.671875 94.699219 643.125 95.898438 C 645.648438 97.128906 647.960938 98.839844 650.039062 100.882812 C 651.71875 102.53125 653.285156 104.550781 654.421875 106.78125 C 655.464844 108.832031 656.15625 111.058594 656.15625 113.328125 L 655.523438 118.59375 C 655.3125 119.332031 654.351562 120.546875 654.160156 121.214844 C 653.847656 122.328125 654.007812 123.257812 654.300781 123.949219 C 654.796875 125.136719 655.742188 126.285156 657.878906 126.34375 C 668.378906 126.636719 678.695312 129.171875 687.503906 134.226562 C 696.074219 139.144531 703.199219 146.464844 707.628906 156.410156 C 711.660156 165.457031 712.769531 176.164062 711.03125 186.277344 Z M 711.03125 186.277344 " fill-opacity="1" fill-rule="evenodd"/></g><path fill="#000000" d="M 397.664062 157.367188 C 398.007812 157.328125 398.027344 157.007812 397.890625 156.5625 C 397.808594 156.570312 397.773438 156.828125 397.75 156.921875 C 397.722656 157.042969 397.488281 157.390625 397.664062 157.367188 Z M 397.664062 157.367188 " fill-opacity="1" fill-rule="evenodd"/><path fill="#000000" d="M 396.609375 142.957031 C 396.339844 144.644531 396.152344 146.390625 396.113281 148.140625 C 396.074219 149.917969 396.191406 151.695312 396.433594 153.417969 C 396.539062 154.019531 397.59375 155.59375 397.890625 156.5625 C 397.90625 156.558594 397.921875 156.5625 397.941406 156.578125 C 399.363281 157.773438 393.1875 159.671875 392.148438 160.425781 C 387.953125 163.65625 384.28125 168.296875 383.984375 172.984375 C 383.792969 176.011719 384.902344 179.019531 388.273438 181.507812 C 385.765625 178.707031 385.222656 175.921875 385.894531 173.285156 C 386.871094 169.449219 390.539062 166.132812 394.476562 164.039062 C 395.585938 163.410156 398.921875 162.1875 400.753906 160.910156 C 401.910156 160.113281 402.539062 159.125 402.800781 158.34375 C 402.96875 157.835938 402.996094 157.074219 402.851562 156.167969 C 402.675781 155.042969 402.046875 153.410156 401.964844 152.644531 C 401.769531 151.210938 401.714844 149.726562 401.734375 148.242188 C 401.753906 146.734375 401.851562 145.222656 402.046875 143.765625 C 402.871094 135.800781 406.007812 128.253906 410.863281 122.15625 C 415.890625 115.847656 422.660156 111.066406 430.957031 109.148438 C 422.101562 110.003906 414.367188 114.011719 408.425781 119.984375 C 402.34375 126.097656 398.304688 134.257812 396.609375 142.957031 Z M 396.609375 142.957031 " fill-opacity="1" fill-rule="evenodd"/><path fill="#000000" d="M 410.429688 253.925781 C 408.722656 252.417969 407.15625 250.761719 405.644531 249.023438 C 404.148438 247.300781 402.726562 245.511719 401.433594 243.605469 C 398.824219 239.757812 396.710938 235.566406 395.339844 231.121094 C 393.199219 224.175781 392.671875 216.847656 394.617188 209.855469 C 391.375 216.734375 390.511719 224.441406 391.710938 231.964844 C 392.519531 237.054688 394.289062 242.011719 396.859375 246.46875 C 398.167969 248.738281 399.699219 250.875 401.457031 252.78125 C 403.246094 254.714844 405.253906 256.417969 407.421875 257.851562 C 410.699219 260.015625 414.269531 261.628906 418.09375 262.488281 C 421.738281 263.304688 425.480469 263.425781 429.386719 262.839844 C 425.636719 262.417969 422.265625 261.285156 419.039062 259.75 C 415.875 258.242188 413.0625 256.242188 410.429688 253.925781 Z M 410.429688 253.925781 " fill-opacity="1" fill-rule="evenodd"/><path fill="#000000" d="M 473.367188 281.0625 C 472.691406 278.292969 471.726562 275.640625 470.464844 273.09375 C 468.609375 269.339844 466.21875 266.015625 463.242188 262.90625 C 465.074219 266.609375 466.121094 270.375 466.941406 274.308594 C 467.496094 276.984375 467.765625 279.660156 468.09375 282.386719 C 468.304688 284.175781 468.5 285.964844 468.765625 287.757812 C 469.035156 289.59375 469.40625 291.367188 469.730469 293.203125 C 470.242188 296.105469 470.824219 298.777344 471.160156 301.691406 C 471.878906 299.667969 472.542969 297.792969 473.050781 295.691406 C 473.550781 293.617188 473.882812 291.585938 474.054688 289.460938 C 474.167969 288.050781 474.1875 286.644531 474.074219 285.238281 C 473.964844 283.828125 473.707031 282.433594 473.367188 281.0625 Z M 473.367188 281.0625 " fill-opacity="1" fill-rule="evenodd"/><path fill="#000000" d="M 636.144531 79.117188 L 636.007812 78.835938 C 635.9375 78.71875 635.949219 78.730469 635.855469 78.632812 L 635.835938 78.625 L 636.113281 79.109375 Z M 636.144531 79.117188 " fill-opacity="1" fill-rule="evenodd"/><path fill="#000000" d="M 625.042969 63.753906 C 627.960938 69.152344 629.367188 75.0625 632.007812 81.472656 C 632.246094 82.03125 632.890625 82.667969 633.898438 83.152344 C 635.011719 83.683594 636.980469 84.085938 637.601562 84.269531 L 648.273438 88.078125 C 652.953125 89.738281 657.046875 92.121094 660.597656 95.136719 C 664.296875 98.285156 667.414062 101.976562 669.609375 106.746094 C 668.53125 101.308594 666.390625 96.617188 663.160156 92.636719 C 659.859375 88.570312 655.453125 85.480469 650.488281 82.9375 C 648.601562 82.132812 646.703125 81.382812 644.761719 80.769531 C 642.820312 80.15625 640.839844 79.667969 638.828125 79.246094 C 638.464844 79.175781 636.929688 79.285156 636.144531 79.117188 C 636.1875 79.222656 636.230469 79.316406 636.261719 79.371094 L 636.113281 79.109375 C 635.777344 79.035156 635.589844 78.90625 635.710938 78.6875 C 635.75 78.621094 635.792969 78.605469 635.835938 78.625 C 632.550781 72.84375 630.40625 67.351562 626.820312 62.609375 C 624.402344 59.410156 621.386719 56.585938 617.003906 54.226562 C 620.804688 57.171875 623.199219 60.347656 625.042969 63.753906 Z M 625.042969 63.753906 " fill-opacity="1" fill-rule="evenodd"/><g clip-path="url(#7b686a5015)"><path fill="#000000" d="M 730.109375 177.710938 C 729.960938 173.867188 729.390625 170.011719 728.492188 166.230469 C 726.710938 158.742188 723.644531 151.519531 719.507812 145.097656 C 713.226562 135.332031 704.503906 127.472656 694.074219 123.210938 C 703.664062 128.4375 711.097656 136.976562 716.285156 146.964844 C 719.585938 153.324219 721.878906 160.261719 723.214844 167.355469 C 723.878906 170.882812 724.285156 174.441406 724.492188 177.992188 C 724.707031 181.582031 724.722656 185.152344 724.4375 188.679688 C 723.996094 194.132812 722.925781 199.417969 721.011719 204.414062 C 719.050781 209.539062 716.375 214.324219 712.628906 218.566406 C 717.1875 214.917969 720.851562 210.578125 723.632812 205.648438 C 726.457031 200.632812 728.335938 195.097656 729.34375 189.304688 C 730.003906 185.519531 730.265625 181.621094 730.109375 177.710938 Z M 730.109375 177.710938 " fill-opacity="1" fill-rule="evenodd"/></g></svg>