<svg xmlns="http://www.w3.org/2000/svg" xmlns:xlink="http://www.w3.org/1999/xlink" width="1000" zoomAndPan="magnify" viewBox="0 0 750 599.999999" height="800" preserveAspectRatio="xMidYMid meet" version="1.0"><defs><g/><clipPath id="0bae6fabc1"><path d="M 21.121094 105 L 58 105 L 58 201 L 21.121094 201 Z M 21.121094 105 " clip-rule="nonzero"/></clipPath><clipPath id="0a61676a89"><path d="M 456.433594 239.226562 L 733.816406 239.226562 L 733.816406 467 L 456.433594 467 Z M 456.433594 239.226562 " clip-rule="nonzero"/></clipPath><clipPath id="1dabc110f7"><path d="M 459 512 L 478 512 L 478 530.226562 L 459 530.226562 Z M 459 512 " clip-rule="nonzero"/></clipPath><clipPath id="f9229b65f6"><path d="M 414 19 L 655 19 L 655 227 L 414 227 Z M 414 19 " clip-rule="nonzero"/></clipPath><clipPath id="13152de7aa"><path d="M 400.148438 25.304688 L 650.21875 10.652344 L 662.152344 214.304688 L 412.082031 228.957031 Z M 400.148438 25.304688 " clip-rule="nonzero"/></clipPath><clipPath id="c0db0746e5"><path d="M 650.382812 10.644531 L 400.3125 25.292969 L 412.242188 228.945312 L 662.316406 214.292969 Z M 650.382812 10.644531 " clip-rule="nonzero"/></clipPath><clipPath id="f32969b48f"><path d="M 650.382812 10.644531 L 400.3125 25.292969 L 412.242188 228.945312 L 662.316406 214.292969 Z M 650.382812 10.644531 " clip-rule="nonzero"/></clipPath><clipPath id="36e6db19bd"><path d="M 412 17 L 657 17 L 657 229 L 412 229 Z M 412 17 " clip-rule="nonzero"/></clipPath><clipPath id="67210e6bd6"><path d="M 400.148438 25.304688 L 650.21875 10.652344 L 662.152344 214.304688 L 412.082031 228.957031 Z M 400.148438 25.304688 " clip-rule="nonzero"/></clipPath><clipPath id="18082b8f3e"><path d="M 650.382812 10.644531 L 400.3125 25.292969 L 412.242188 228.945312 L 662.316406 214.292969 Z M 650.382812 10.644531 " clip-rule="nonzero"/></clipPath><clipPath id="581a48cfd3"><path d="M 650.382812 10.644531 L 400.3125 25.292969 L 412.242188 228.945312 L 662.316406 214.292969 Z M 650.382812 10.644531 " clip-rule="nonzero"/></clipPath></defs><g fill="#f57c00" fill-opacity="1"><g transform="translate(15.162073, 567.963038)"><g><path d="M 14.121094 -4.519531 C 14.121094 -1.695312 15.816406 0 18.640625 0 L 48.011719 0 C 51.117188 0 52.53125 -1.695312 52.53125 -4.519531 L 52.53125 -75.6875 L 86.417969 -75.6875 C 112.964844 -75.6875 127.085938 -90.089844 127.085938 -116.355469 L 127.085938 -185.265625 C 127.085938 -211.8125 112.964844 -225.933594 86.417969 -225.933594 L 18.640625 -225.933594 C 15.816406 -225.933594 14.121094 -224.238281 14.121094 -221.414062 Z M 52.53125 -112.964844 L 52.53125 -188.652344 L 77.382812 -188.652344 C 85.007812 -188.652344 88.679688 -184.699219 88.679688 -177.355469 L 88.679688 -124.261719 C 88.679688 -117.203125 85.007812 -112.964844 77.382812 -112.964844 Z M 52.53125 -112.964844 "/></g></g></g><g fill="#f57c00" fill-opacity="1"><g transform="translate(156.369794, 567.963038)"><g><path d="M 130.195312 -185.265625 C 130.195312 -211.8125 116.074219 -225.933594 89.527344 -225.933594 L 18.640625 -225.933594 C 15.816406 -225.933594 14.121094 -224.238281 14.121094 -221.414062 L 14.121094 -4.519531 C 14.121094 -1.695312 15.816406 0 18.640625 0 L 48.011719 0 C 50.835938 0 52.53125 -1.695312 52.53125 -4.519531 L 52.53125 -75.6875 L 72.015625 -75.6875 L 90.9375 -3.953125 C 91.503906 -1.410156 92.914062 0 95.738281 0 L 125.109375 0 C 128.214844 0 129.910156 -1.695312 129.0625 -5.082031 L 109.578125 -79.078125 C 123.132812 -85.007812 130.195312 -97.433594 130.195312 -116.355469 Z M 52.53125 -112.964844 L 52.53125 -188.652344 L 80.488281 -188.652344 C 87.832031 -188.652344 91.785156 -184.699219 91.785156 -177.355469 L 91.785156 -124.261719 C 91.785156 -116.921875 87.832031 -112.964844 80.488281 -112.964844 Z M 52.53125 -112.964844 "/></g></g></g><g fill="#f57c00" fill-opacity="1"><g transform="translate(300.684091, 567.963038)"><g><path d="M 14.121094 -40.667969 C 14.121094 -14.121094 28.242188 0 54.789062 0 L 86.417969 0 C 112.964844 0 127.085938 -14.121094 127.085938 -40.667969 L 127.085938 -185.265625 C 127.085938 -211.8125 112.964844 -225.933594 86.417969 -225.933594 L 54.789062 -225.933594 C 28.242188 -225.933594 14.121094 -211.8125 14.121094 -185.265625 Z M 62.980469 -36.429688 C 55.636719 -36.429688 51.683594 -40.101562 51.683594 -47.726562 L 51.683594 -178.203125 C 51.683594 -185.546875 55.636719 -189.5 62.980469 -189.5 L 79.359375 -189.5 C 86.703125 -189.5 90.65625 -185.546875 90.65625 -178.203125 L 90.65625 -47.726562 C 90.65625 -40.101562 86.703125 -36.429688 79.359375 -36.429688 Z M 62.980469 -36.429688 "/></g></g></g><path fill="#000000" d="M 37.113281 135.863281 C 42.214844 124.40625 50.414062 115.972656 60.277344 110.308594 C 68.8125 105.414062 78.605469 102.59375 88.707031 101.722656 L 87.953125 95.761719 C 87.953125 92.347656 88.914062 88.972656 90.488281 85.882812 C 91.988281 82.941406 94.042969 80.265625 96.265625 78.085938 C 98.914062 75.488281 101.875 73.320312 105.089844 71.75 C 108.429688 70.121094 112.042969 69.125 115.878906 68.945312 C 116.8125 68.898438 121.324219 69.726562 123.515625 70.144531 L 128.539062 56.394531 C 132.296875 51.0625 137.078125 46.707031 142.40625 43.148438 C 147.636719 39.660156 153.398438 36.941406 159.210938 34.800781 C 171.347656 30.339844 185.453125 28.679688 199.3125 29.851562 C 213.1875 31.019531 226.804688 35.035156 237.960938 41.832031 C 241.902344 44.238281 245.828125 46.742188 249.46875 49.613281 C 251.972656 51.585938 254.339844 53.734375 256.496094 56.132812 C 257.058594 56.757812 259.011719 59.597656 260.265625 61.449219 C 262.15625 60.085938 265.199219 57.9375 266.0625 57.519531 C 269.34375 55.9375 272.917969 54.722656 276.574219 54.066406 C 280.355469 53.390625 284.21875 53.316406 287.953125 54.03125 C 292.898438 54.980469 297.496094 57.164062 301.453125 60.238281 C 305.320312 63.242188 308.574219 67.09375 310.9375 71.4375 L 313.445312 78.761719 C 316.25 78.070312 320.25 77.046875 321.007812 77.011719 C 324.636719 76.855469 328.4375 77.457031 332.085938 78.617188 C 335.625 79.738281 339.015625 81.386719 341.964844 83.34375 C 347.421875 86.960938 352.203125 91.761719 355.957031 97.296875 C 359.671875 102.773438 362.390625 108.96875 363.773438 115.429688 L 364.125 127.445312 C 365.390625 129.898438 370.761719 132.472656 374.730469 136.261719 C 376.628906 138.078125 378.289062 140.089844 379.410156 142.3125 C 383.109375 149.636719 383.191406 155.097656 381.523438 159.59375 C 379.304688 165.578125 373.332031 169.875 367.464844 175.023438 L 367.609375 175.253906 L 371.792969 184.394531 C 373.292969 188.71875 374.289062 193.097656 374.796875 197.539062 C 375.300781 201.964844 375.324219 206.449219 374.871094 210.996094 C 372.757812 232.269531 361.792969 247.5625 346.859375 255.949219 C 332.445312 264.050781 314.253906 265.703125 296.617188 259.886719 C 295.332031 264.742188 294.445312 269.65625 293.910156 274.617188 C 293.269531 280.519531 293.132812 286.476562 293.425781 292.464844 L 294.878906 304.179688 C 295.261719 305.980469 297.105469 309.980469 297.039062 310.972656 C 296.933594 312.582031 296.089844 313.507812 295.1875 314.046875 C 294.441406 314.496094 292.960938 315.167969 290.917969 313.882812 C 284.25 309.703125 278.308594 303.738281 273.40625 296.941406 C 268.609375 290.292969 264.8125 282.851562 262.292969 275.566406 L 259.167969 263.289062 L 249.265625 268.988281 C 244.113281 271.070312 238.214844 272.351562 232.292969 272.582031 C 226.273438 272.820312 220.234375 271.96875 214.933594 269.84375 C 210.234375 267.960938 205.59375 265.585938 201.257812 262.738281 C 196.890625 259.878906 192.835938 256.546875 189.320312 252.765625 L 184.210938 246.382812 C 183.542969 247.363281 182.769531 248.371094 182.167969 248.792969 C 180.226562 250.160156 178 251.109375 175.671875 251.691406 C 173.453125 252.242188 171.148438 252.460938 168.9375 252.402344 C 165.613281 252.320312 162.988281 251.578125 160.734375 250.484375 C 156.371094 248.363281 153.722656 244.527344 149.289062 241.8125 C 146.738281 243.257812 142.421875 245.832031 141.550781 246.140625 C 137.003906 247.742188 132.417969 248.769531 127.773438 249.265625 C 123.148438 249.761719 118.460938 249.730469 113.707031 249.222656 C 104.691406 248.253906 96.417969 245.652344 89.195312 241.292969 C 81.984375 236.945312 75.816406 230.847656 71.027344 222.835938 L 65.28125 207.742188 C 62.960938 205.253906 57.324219 204.78125 53.253906 202.875 C 51.773438 202.183594 50.4375 201.363281 49.335938 200.390625 C 40.628906 192.683594 35.207031 181.671875 33.1875 169.949219 C 31.195312 158.40625 32.511719 146.191406 37.113281 135.863281 Z M 40.398438 168.707031 C 42.132812 178.78125 46.707031 188.289062 54.1875 194.90625 C 57.175781 197.554688 62.75 198.230469 66.488281 199.933594 C 68.175781 200.703125 69.59375 201.636719 70.632812 202.746094 C 71.542969 203.71875 72.359375 205.09375 73.050781 206.738281 C 74.632812 210.503906 75.546875 216.132812 77.308594 219.082031 C 81.441406 225.996094 86.753906 231.273438 92.976562 235.023438 C 99.3125 238.847656 106.582031 241.09375 114.488281 241.945312 C 118.714844 242.398438 122.882812 242.429688 126.992188 241.988281 C 131.082031 241.550781 135.117188 240.648438 139.117188 239.238281 C 139.988281 238.933594 144.675781 235.980469 146.65625 234.890625 C 148.910156 233.648438 150.765625 234.273438 150.988281 234.382812 C 155.765625 236.769531 158.550781 240.445312 162.371094 242.996094 C 164.136719 244.175781 166.207031 245.011719 169.125 245.085938 C 170.691406 245.128906 172.328125 244.980469 173.902344 244.589844 C 175.351562 244.226562 176.75 243.65625 177.960938 242.804688 C 179.15625 241.964844 179.847656 239.394531 180.84375 238.542969 C 182.515625 237.113281 184.335938 236.796875 186.421875 238.09375 C 187.609375 238.835938 188.78125 239.972656 189.882812 241.328125 C 191.589844 243.421875 193.152344 246.144531 194.679688 247.78125 C 197.796875 251.132812 201.398438 254.082031 205.269531 256.617188 C 209.199219 259.195312 213.402344 261.34375 217.65625 263.046875 C 222.039062 264.804688 227.03125 265.464844 232.007812 265.269531 C 237.066406 265.070312 242.117188 263.984375 246.519531 262.203125 L 254.816406 257.417969 C 255.851562 256.628906 257.054688 254.289062 257.980469 253.589844 C 259.015625 252.800781 260.066406 252.585938 260.957031 252.648438 C 262.148438 252.734375 263.460938 253.21875 264.382812 254.957031 C 265.300781 256.683594 265.984375 258.753906 266.527344 260.984375 C 267.511719 265.039062 268.003906 269.691406 269.207031 273.175781 C 271.507812 279.8125 274.96875 286.597656 279.339844 292.660156 C 281.714844 295.949219 284.355469 299.03125 287.226562 301.746094 L 286.117188 292.824219 C 285.800781 286.453125 285.949219 280.109375 286.628906 273.832031 C 287.3125 267.515625 288.527344 261.269531 290.34375 255.117188 C 290.710938 253.882812 291.671875 252.980469 292.828125 252.644531 C 293.800781 251.855469 295.15625 251.585938 296.414062 252.058594 C 312.757812 258.203125 329.867188 257.105469 343.273438 249.570312 C 356.300781 242.25 365.746094 228.835938 367.589844 210.273438 C 367.988281 206.25 367.972656 202.285156 367.523438 198.371094 C 367.078125 194.457031 366.199219 190.601562 364.878906 186.792969 L 361.246094 178.875 C 361.121094 178.648438 360.144531 177.105469 359.769531 176.46875 C 358.269531 173.917969 360.164062 171.757812 360.273438 171.65625 C 365.871094 166.421875 372.511719 162.84375 374.664062 157.046875 C 375.773438 154.058594 375.335938 150.480469 372.875 145.613281 C 372.117188 144.113281 370.957031 142.78125 369.671875 141.554688 C 365.027344 137.117188 359.105469 133.679688 357.621094 130.804688 C 357.128906 129.847656 356.789062 128.484375 356.671875 126.863281 C 356.445312 123.769531 357.109375 119.257812 356.617188 116.964844 C 355.429688 111.417969 353.089844 106.105469 349.898438 101.40625 C 346.683594 96.664062 342.59375 92.542969 337.917969 89.441406 C 335.515625 87.847656 332.75 86.503906 329.871094 85.589844 C 327.054688 84.695312 324.125 84.207031 321.320312 84.324219 C 320.515625 84.359375 315.457031 85.828125 313.371094 86.320312 C 310.9375 86.898438 309.347656 85.863281 309.207031 85.742188 C 308.496094 85.144531 307.714844 84.058594 307.09375 82.585938 C 306.105469 80.25 305.324219 76.433594 304.511719 74.9375 C 302.628906 71.476562 300.039062 68.410156 296.964844 66.019531 C 293.914062 63.652344 290.382812 61.953125 286.574219 61.222656 C 283.714844 60.671875 280.757812 60.753906 277.863281 61.273438 C 274.863281 61.808594 271.933594 62.816406 269.238281 64.113281 C 267.976562 64.722656 263.996094 68.097656 262.003906 69.105469 C 260.675781 69.777344 259.542969 69.84375 258.878906 69.742188 C 258.226562 69.644531 257.082031 69.226562 255.980469 68.03125 C 254.511719 66.433594 251.910156 61.980469 251.054688 61.027344 C 249.175781 58.9375 247.109375 57.078125 244.9375 55.359375 C 241.527344 52.667969 237.84375 50.335938 234.152344 48.082031 C 223.921875 41.847656 211.421875 38.214844 198.695312 37.140625 C 185.925781 36.0625 172.921875 37.558594 161.738281 41.671875 C 156.457031 43.613281 151.21875 46.070312 146.472656 49.238281 C 141.886719 52.296875 137.753906 56.023438 134.519531 60.613281 C 132.953125 62.835938 131.148438 70.898438 129.550781 74.1875 C 128.859375 75.609375 128.042969 76.515625 127.417969 76.957031 C 126.957031 77.277344 125.796875 77.8125 124.066406 77.65625 C 122.042969 77.480469 117.332031 76.203125 116.226562 76.253906 C 113.40625 76.390625 110.757812 77.128906 108.304688 78.328125 C 105.78125 79.558594 103.46875 81.269531 101.390625 83.3125 C 99.710938 84.960938 98.144531 86.984375 97.007812 89.210938 C 95.960938 91.261719 95.273438 93.488281 95.273438 95.757812 L 95.90625 101.023438 C 96.117188 101.761719 97.078125 102.976562 97.269531 103.644531 C 97.578125 104.757812 97.417969 105.6875 97.128906 106.378906 C 96.628906 107.566406 95.6875 108.714844 93.550781 108.773438 C 83.050781 109.066406 72.734375 111.601562 63.925781 116.65625 C 55.355469 121.574219 48.230469 128.894531 43.800781 138.839844 C 39.769531 147.890625 38.65625 158.59375 40.398438 168.707031 Z M 40.398438 168.707031 " fill-opacity="1" fill-rule="evenodd"/><path fill="#000000" d="M 353.761719 139.800781 C 353.421875 139.757812 353.398438 139.4375 353.539062 138.992188 C 353.621094 139 353.65625 139.257812 353.679688 139.351562 C 353.707031 139.472656 353.941406 139.820312 353.761719 139.800781 Z M 353.761719 139.800781 " fill-opacity="1" fill-rule="evenodd"/><path fill="#000000" d="M 354.816406 125.386719 C 355.089844 127.074219 355.277344 128.820312 355.3125 130.574219 C 355.351562 132.347656 355.238281 134.125 354.996094 135.847656 C 354.890625 136.449219 353.835938 138.023438 353.539062 138.992188 C 353.523438 138.988281 353.507812 138.992188 353.488281 139.007812 C 352.066406 140.203125 358.242188 142.101562 359.28125 142.855469 C 363.476562 146.085938 367.148438 150.726562 367.445312 155.414062 C 367.636719 158.441406 366.527344 161.449219 363.15625 163.9375 C 365.664062 161.136719 366.207031 158.351562 365.535156 155.714844 C 364.558594 151.878906 360.886719 148.5625 356.953125 146.46875 C 355.84375 145.839844 352.507812 144.617188 350.671875 143.339844 C 349.519531 142.542969 348.890625 141.554688 348.628906 140.773438 C 348.460938 140.269531 348.433594 139.503906 348.578125 138.597656 C 348.753906 137.472656 349.382812 135.84375 349.464844 135.074219 C 349.660156 133.640625 349.714844 132.15625 349.695312 130.671875 C 349.675781 129.164062 349.578125 127.652344 349.382812 126.195312 C 348.558594 118.230469 345.417969 110.683594 340.566406 104.585938 C 335.539062 98.277344 328.769531 93.496094 320.472656 91.578125 C 329.328125 92.433594 337.0625 96.441406 343.003906 102.414062 C 349.085938 108.527344 353.125 116.6875 354.816406 125.386719 Z M 354.816406 125.386719 " fill-opacity="1" fill-rule="evenodd"/><path fill="#000000" d="M 341 236.355469 C 342.707031 234.847656 344.269531 233.191406 345.785156 231.453125 C 347.277344 229.730469 348.703125 227.941406 349.996094 226.035156 C 352.605469 222.1875 354.71875 217.996094 356.085938 213.550781 C 358.226562 206.605469 358.757812 199.277344 356.808594 192.285156 C 360.054688 199.164062 360.917969 206.871094 359.71875 214.398438 C 358.910156 219.484375 357.140625 224.441406 354.570312 228.898438 C 353.261719 231.167969 351.730469 233.304688 349.972656 235.210938 C 348.183594 237.144531 346.175781 238.847656 344.007812 240.285156 C 340.730469 242.445312 337.160156 244.058594 333.335938 244.917969 C 329.691406 245.734375 325.949219 245.855469 322.042969 245.269531 C 325.792969 244.847656 329.164062 243.714844 332.390625 242.179688 C 335.550781 240.671875 338.367188 238.671875 341 236.355469 Z M 341 236.355469 " fill-opacity="1" fill-rule="evenodd"/><path fill="#000000" d="M 278.058594 263.492188 C 278.738281 260.722656 279.703125 258.070312 280.960938 255.527344 C 282.820312 251.769531 285.210938 248.445312 288.1875 245.335938 C 286.355469 249.039062 285.304688 252.804688 284.488281 256.738281 C 283.929688 259.414062 283.664062 262.09375 283.335938 264.816406 C 283.125 266.605469 282.925781 268.394531 282.664062 270.1875 C 282.394531 272.027344 282.023438 273.796875 281.695312 275.632812 C 281.1875 278.535156 280.605469 281.207031 280.265625 284.121094 C 279.550781 282.097656 278.886719 280.222656 278.378906 278.125 C 277.878906 276.046875 277.546875 274.015625 277.375 271.890625 C 277.261719 270.480469 277.242188 269.074219 277.351562 267.667969 C 277.464844 266.257812 277.722656 264.863281 278.058594 263.492188 Z M 278.058594 263.492188 " fill-opacity="1" fill-rule="evenodd"/><path fill="#000000" d="M 115.285156 61.546875 L 115.421875 61.265625 C 115.492188 61.152344 115.480469 61.160156 115.574219 61.0625 L 115.59375 61.054688 L 115.316406 61.539062 Z M 115.285156 61.546875 " fill-opacity="1" fill-rule="evenodd"/><path fill="#000000" d="M 126.386719 46.183594 C 123.464844 51.582031 122.058594 57.492188 119.421875 63.90625 C 119.183594 64.460938 118.539062 65.097656 117.527344 65.582031 C 116.417969 66.113281 114.449219 66.515625 113.824219 66.699219 L 103.15625 70.511719 C 98.476562 72.167969 94.382812 74.550781 90.832031 77.566406 C 87.132812 80.714844 84.015625 84.40625 81.816406 89.175781 C 82.898438 83.738281 85.039062 79.046875 88.269531 75.066406 C 91.570312 71 95.976562 67.910156 100.941406 65.367188 C 102.828125 64.5625 104.726562 63.8125 106.667969 63.199219 C 108.609375 62.585938 110.589844 62.101562 112.601562 61.675781 C 112.964844 61.605469 114.5 61.714844 115.285156 61.546875 C 115.238281 61.652344 115.199219 61.746094 115.167969 61.800781 L 115.316406 61.539062 C 115.652344 61.464844 115.839844 61.335938 115.71875 61.117188 C 115.679688 61.050781 115.636719 61.035156 115.59375 61.054688 C 118.878906 55.273438 121.023438 49.78125 124.609375 45.039062 C 127.027344 41.839844 130.042969 39.015625 134.425781 36.65625 C 130.625 39.601562 128.230469 42.777344 126.386719 46.183594 Z M 126.386719 46.183594 " fill-opacity="1" fill-rule="evenodd"/><g clip-path="url(#0bae6fabc1)"><path fill="#000000" d="M 21.316406 160.140625 C 21.46875 156.300781 22.039062 152.441406 22.9375 148.660156 C 24.71875 141.171875 27.785156 133.949219 31.917969 127.527344 C 38.203125 117.761719 46.921875 109.902344 57.355469 105.640625 C 47.765625 110.867188 40.332031 119.410156 35.144531 129.398438 C 31.84375 135.753906 29.550781 142.691406 28.214844 149.785156 C 27.550781 153.3125 27.144531 156.871094 26.933594 160.421875 C 26.722656 164.015625 26.707031 167.585938 26.992188 171.109375 C 27.433594 176.5625 28.503906 181.847656 30.417969 186.84375 C 32.378906 191.96875 35.054688 196.753906 38.800781 201 C 34.242188 197.347656 30.578125 193.007812 27.796875 188.078125 C 24.972656 183.0625 23.09375 177.527344 22.085938 171.734375 C 21.425781 167.949219 21.164062 164.050781 21.316406 160.140625 Z M 21.316406 160.140625 " fill-opacity="1" fill-rule="evenodd"/></g><g fill="#000000" fill-opacity="1"><g transform="translate(166.807142, 124.973283)"><g><path d="M 12.832031 -26.910156 C 12.832031 -29.667969 14.167969 -30.175781 16.097656 -30.175781 C 16.835938 -30.175781 17.984375 -29.992188 18.214844 -29.898438 L 18.214844 -36.796875 C 17.800781 -37.027344 16.421875 -37.441406 14.121094 -37.441406 C 8.28125 -37.441406 4.371094 -34.957031 4.371094 -27.828125 L 4.371094 -24.378906 L 0.691406 -24.378906 L 0.691406 -17.019531 L 4.371094 -17.019531 L 4.371094 0 L 12.832031 0 L 12.832031 -17.019531 L 17.753906 -17.019531 L 17.753906 -24.378906 L 12.832031 -24.378906 Z M 12.832031 -26.910156 "/></g></g></g><g fill="#000000" fill-opacity="1"><g transform="translate(186.125512, 124.973283)"><g><path d="M 2.207031 0 L 10.671875 0 L 10.671875 -24.378906 L 2.207031 -24.378906 Z M 10.808594 -35.878906 L 2.070312 -35.878906 L 2.070312 -27.136719 L 10.808594 -27.136719 Z M 10.808594 -35.878906 "/></g></g></g><g fill="#000000" fill-opacity="1"><g transform="translate(199.004429, 124.973283)"><g><path d="M 2.207031 0 L 10.671875 0 L 10.671875 -36.796875 L 2.207031 -36.796875 Z M 2.207031 0 "/></g></g></g><g fill="#000000" fill-opacity="1"><g transform="translate(211.883346, 124.973283)"><g><path d="M 24.609375 -9.199219 L 24.609375 -12.878906 C 24.609375 -20.007812 20.929688 -25.023438 13.0625 -25.023438 C 5.199219 -25.023438 1.148438 -20.007812 1.148438 -12.878906 L 1.148438 -11.5 C 1.148438 -4.371094 5.015625 0.644531 13.339844 0.644531 C 20.421875 0.644531 24.609375 -2.761719 24.609375 -7.636719 L 24.609375 -7.820312 L 16.652344 -7.820312 C 16.652344 -6.667969 15.226562 -5.703125 13.386719 -5.703125 C 11.269531 -5.703125 9.890625 -6.441406 9.613281 -9.199219 Z M 12.878906 -18.675781 C 14.855469 -18.675781 15.914062 -17.753906 16.144531 -15.179688 L 9.613281 -15.179688 C 9.84375 -17.753906 10.902344 -18.675781 12.878906 -18.675781 Z M 12.878906 -18.675781 "/></g></g></g><g fill="#000000" fill-opacity="1"><g transform="translate(83.721208, 188.72328)"><g><path d="M 16.789062 0.644531 C 23.457031 0.644531 25.757812 -4.140625 25.757812 -11.269531 L 25.757812 -13.109375 C 25.757812 -20.238281 23.457031 -25.023438 16.789062 -25.023438 C 13.476562 -25.023438 11.316406 -23.597656 9.933594 -21.527344 L 9.429688 -24.378906 L 1.792969 -24.378906 L 2.253906 -17.480469 L 2.253906 9.199219 L 10.71875 9.199219 L 10.71875 -1.839844 C 12.097656 -0.320312 14.027344 0.644531 16.789062 0.644531 Z M 10.71875 -15.867188 C 11.175781 -16.558594 12.417969 -17.753906 14.257812 -17.753906 C 16.558594 -17.753906 17.339844 -16.097656 17.339844 -13.109375 L 17.339844 -11.269531 C 17.339844 -8.28125 16.558594 -6.625 14.257812 -6.625 C 12.417969 -6.625 11.175781 -7.820312 10.71875 -8.507812 Z M 10.71875 -15.867188 "/></g></g></g><g fill="#000000" fill-opacity="1"><g transform="translate(110.628945, 188.72328)"><g><path d="M 16.375 -25.023438 C 13.617188 -25.023438 11.453125 -23.6875 9.980469 -21.664062 L 9.476562 -24.378906 L 1.839844 -24.378906 L 2.300781 -17.480469 L 2.300781 0 L 10.761719 0 L 10.761719 -14.71875 C 11.316406 -15.410156 12.925781 -16.328125 15.683594 -16.328125 L 17.066406 -16.328125 L 17.066406 -24.976562 C 16.835938 -25.023438 16.605469 -25.023438 16.375 -25.023438 Z M 16.375 -25.023438 "/></g></g></g><g fill="#000000" fill-opacity="1"><g transform="translate(129.027393, 188.72328)"><g><path d="M 12.878906 0.644531 C 20.929688 0.644531 24.609375 -4.140625 24.609375 -11.269531 L 24.609375 -13.109375 C 24.609375 -20.238281 20.929688 -25.023438 12.878906 -25.023438 C 4.828125 -25.023438 1.148438 -20.238281 1.148438 -13.109375 L 1.148438 -11.269531 C 1.148438 -4.140625 4.828125 0.644531 12.878906 0.644531 Z M 12.878906 -6.625 C 10.578125 -6.625 9.566406 -8.28125 9.566406 -11.269531 L 9.566406 -13.109375 C 9.566406 -16.097656 10.578125 -17.753906 12.878906 -17.753906 C 15.179688 -17.753906 16.191406 -16.097656 16.191406 -13.109375 L 16.191406 -11.269531 C 16.191406 -8.28125 15.179688 -6.625 12.878906 -6.625 Z M 12.878906 -6.625 "/></g></g></g><g fill="#000000" fill-opacity="1"><g transform="translate(154.785227, 188.72328)"><g><path d="M 9.566406 -11.269531 L 9.566406 -13.109375 C 9.566406 -16.097656 10.347656 -17.753906 12.601562 -17.753906 C 14.257812 -17.753906 15.269531 -16.835938 15.269531 -14.71875 L 23.230469 -14.71875 L 23.230469 -15.824219 C 23.230469 -21.617188 19.503906 -25.023438 12.417969 -25.023438 C 4.554688 -25.023438 1.148438 -20.238281 1.148438 -13.109375 L 1.148438 -11.269531 C 1.148438 -4.140625 4.554688 0.644531 12.417969 0.644531 C 19.503906 0.644531 23.230469 -2.761719 23.230469 -8.09375 L 23.230469 -9.199219 L 15.269531 -9.199219 C 15.269531 -7.589844 14.257812 -6.625 12.601562 -6.625 C 10.347656 -6.625 9.566406 -8.28125 9.566406 -11.269531 Z M 9.566406 -11.269531 "/></g></g></g><g fill="#000000" fill-opacity="1"><g transform="translate(179.071179, 188.72328)"><g><path d="M 24.609375 -9.199219 L 24.609375 -12.878906 C 24.609375 -20.007812 20.929688 -25.023438 13.0625 -25.023438 C 5.199219 -25.023438 1.148438 -20.007812 1.148438 -12.878906 L 1.148438 -11.5 C 1.148438 -4.371094 5.015625 0.644531 13.339844 0.644531 C 20.421875 0.644531 24.609375 -2.761719 24.609375 -7.636719 L 24.609375 -7.820312 L 16.652344 -7.820312 C 16.652344 -6.667969 15.226562 -5.703125 13.386719 -5.703125 C 11.269531 -5.703125 9.890625 -6.441406 9.613281 -9.199219 Z M 12.878906 -18.675781 C 14.855469 -18.675781 15.914062 -17.753906 16.144531 -15.179688 L 9.613281 -15.179688 C 9.84375 -17.753906 10.902344 -18.675781 12.878906 -18.675781 Z M 12.878906 -18.675781 "/></g></g></g><g fill="#000000" fill-opacity="1"><g transform="translate(204.829014, 188.72328)"><g><path d="M 12.1875 -5.703125 C 10.441406 -5.703125 9.707031 -6.484375 9.707031 -7.820312 L 1.289062 -7.820312 L 1.289062 -7.589844 C 1.289062 -2.53125 5.015625 0.644531 12.1875 0.644531 C 19.503906 0.644531 23.089844 -2.53125 23.089844 -7.867188 L 23.089844 -8.324219 C 23.089844 -13.660156 18.675781 -14.765625 12.558594 -15.269531 C 10.488281 -15.457031 9.890625 -15.867188 9.890625 -17.019531 C 9.890625 -17.984375 10.671875 -18.675781 12.1875 -18.675781 C 13.707031 -18.675781 14.488281 -17.800781 14.488281 -16.328125 L 22.769531 -16.328125 L 22.769531 -16.558594 C 22.769531 -21.941406 19.503906 -25.023438 12.1875 -25.023438 C 6.394531 -25.023438 1.609375 -22.769531 1.609375 -16.742188 L 1.609375 -16.28125 C 1.609375 -11.40625 4.875 -9.890625 11.867188 -9.335938 C 14.167969 -9.152344 14.628906 -8.507812 14.628906 -7.496094 C 14.628906 -6.53125 14.027344 -5.703125 12.1875 -5.703125 Z M 12.1875 -5.703125 "/></g></g></g><g fill="#000000" fill-opacity="1"><g transform="translate(229.206966, 188.72328)"><g><path d="M 12.1875 -5.703125 C 10.441406 -5.703125 9.707031 -6.484375 9.707031 -7.820312 L 1.289062 -7.820312 L 1.289062 -7.589844 C 1.289062 -2.53125 5.015625 0.644531 12.1875 0.644531 C 19.503906 0.644531 23.089844 -2.53125 23.089844 -7.867188 L 23.089844 -8.324219 C 23.089844 -13.660156 18.675781 -14.765625 12.558594 -15.269531 C 10.488281 -15.457031 9.890625 -15.867188 9.890625 -17.019531 C 9.890625 -17.984375 10.671875 -18.675781 12.1875 -18.675781 C 13.707031 -18.675781 14.488281 -17.800781 14.488281 -16.328125 L 22.769531 -16.328125 L 22.769531 -16.558594 C 22.769531 -21.941406 19.503906 -25.023438 12.1875 -25.023438 C 6.394531 -25.023438 1.609375 -22.769531 1.609375 -16.742188 L 1.609375 -16.28125 C 1.609375 -11.40625 4.875 -9.890625 11.867188 -9.335938 C 14.167969 -9.152344 14.628906 -8.507812 14.628906 -7.496094 C 14.628906 -6.53125 14.027344 -5.703125 12.1875 -5.703125 Z M 12.1875 -5.703125 "/></g></g></g><g fill="#000000" fill-opacity="1"><g transform="translate(253.584917, 188.72328)"><g><path d="M 2.207031 0 L 10.671875 0 L 10.671875 -24.378906 L 2.207031 -24.378906 Z M 10.808594 -35.878906 L 2.070312 -35.878906 L 2.070312 -27.136719 L 10.808594 -27.136719 Z M 10.808594 -35.878906 "/></g></g></g><g fill="#000000" fill-opacity="1"><g transform="translate(266.463834, 188.72328)"><g><path d="M 25.34375 0 L 25.34375 -16.328125 C 25.34375 -20.699219 23.503906 -25.023438 17.753906 -25.023438 C 14.121094 -25.023438 11.636719 -23.503906 10.027344 -21.34375 L 9.476562 -24.378906 L 1.839844 -24.378906 L 2.300781 -17.480469 L 2.300781 0 L 10.761719 0 L 10.761719 -15.867188 C 11.222656 -16.558594 12.464844 -17.753906 14.304688 -17.753906 C 16.605469 -17.753906 16.882812 -16.097656 16.882812 -14.949219 L 16.882812 0 Z M 25.34375 0 "/></g></g></g><g fill="#000000" fill-opacity="1"><g transform="translate(293.831521, 188.72328)"><g><path d="M 16.191406 -0.691406 C 16.191406 2.300781 14.949219 3.035156 12.695312 3.035156 C 10.121094 3.035156 9.566406 1.609375 9.566406 0 L 1.609375 0 L 1.609375 1.105469 C 1.609375 5.980469 4.414062 9.84375 12.878906 9.84375 C 20.746094 9.84375 24.65625 6.441406 24.65625 -0.691406 L 24.65625 -17.480469 L 25.113281 -24.378906 L 17.480469 -24.378906 L 16.972656 -21.710938 C 15.59375 -23.644531 13.429688 -25.023438 10.121094 -25.023438 C 3.679688 -25.023438 1.148438 -20.238281 1.148438 -13.570312 L 1.148438 -12.1875 C 1.148438 -5.058594 3.679688 -0.734375 10.121094 -0.734375 C 12.832031 -0.734375 14.8125 -1.609375 16.191406 -3.035156 Z M 16.191406 -9.890625 C 15.730469 -9.199219 14.488281 -8.003906 12.648438 -8.003906 C 10.578125 -8.003906 9.566406 -9.199219 9.566406 -12.1875 L 9.566406 -13.570312 C 9.566406 -16.097656 10.578125 -17.753906 12.648438 -17.753906 C 14.488281 -17.753906 15.730469 -16.558594 16.191406 -15.867188 Z M 16.191406 -9.890625 "/></g></g></g><path fill="#ffffff" d="M 724.371094 402.578125 C 724.371094 417.96875 711.898438 430.453125 696.523438 430.453125 C 695.214844 430.453125 693.914062 430.367188 692.652344 430.183594 C 685.855469 449.804688 667.21875 463.894531 645.292969 463.894531 C 632.429688 463.894531 620.691406 459.039062 611.808594 451.054688 C 608.035156 453.089844 603.710938 454.230469 599.117188 454.230469 C 590.898438 454.230469 583.546875 450.550781 578.597656 444.738281 C 571.050781 450.6875 561.53125 454.230469 551.179688 454.230469 C 541.367188 454.230469 532.300781 451.042969 524.949219 445.636719 C 519.070312 453.570312 509.648438 458.695312 499.027344 458.695312 C 481.191406 458.695312 466.734375 444.210938 466.734375 426.359375 C 466.734375 416.351562 471.28125 407.398438 478.410156 401.476562 C 466.6875 391.113281 459.296875 375.96875 459.296875 359.105469 C 459.296875 335.464844 473.816406 315.21875 494.410156 306.804688 C 492.363281 301.472656 491.238281 295.671875 491.238281 289.613281 C 491.238281 263.136719 512.675781 241.675781 539.125 241.675781 C 554.867188 241.675781 568.847656 249.28125 577.570312 261.027344 C 580.03125 260.046875 582.714844 259.507812 585.519531 259.507812 C 590.726562 259.507812 595.492188 261.359375 599.203125 264.425781 C 604.484375 251.09375 617.480469 241.675781 632.671875 241.675781 C 652.238281 241.675781 668.152344 257.300781 668.652344 276.761719 C 682.375 280.585938 693.4375 290.800781 698.449219 303.996094 C 700.984375 303.101562 703.703125 302.625 706.546875 302.625 C 720.082031 302.625 731.046875 313.597656 731.046875 327.148438 C 731.046875 336.175781 726.171875 344.0625 718.917969 348.316406 C 720.046875 351.578125 720.660156 355.085938 720.660156 358.726562 C 720.660156 366.832031 717.644531 374.238281 712.683594 379.894531 C 719.765625 384.933594 724.371094 393.222656 724.371094 402.578125 Z M 724.371094 402.578125 " fill-opacity="1" fill-rule="nonzero"/><g clip-path="url(#0a61676a89)"><path fill="#000000" d="M 645.292969 466.347656 C 667.023438 466.347656 686.464844 452.957031 694.292969 432.832031 C 695.03125 432.882812 695.765625 432.90625 696.523438 432.90625 C 713.234375 432.90625 726.820312 419.304688 726.820312 402.578125 C 726.820312 393.664062 722.875 385.214844 716.164062 379.5 C 720.660156 373.527344 723.109375 366.246094 723.109375 358.726562 C 723.109375 355.539062 722.679688 352.398438 721.824219 349.371094 C 729.0625 344.367188 733.496094 336.027344 733.496094 327.148438 C 733.496094 312.273438 721.40625 300.171875 706.546875 300.171875 C 704.265625 300.171875 702.039062 300.453125 699.867188 301.003906 C 694.453125 288.609375 683.882812 279.03125 671.019531 274.910156 C 669.597656 254.761719 653.082031 239.226562 632.671875 239.226562 C 617.847656 239.226562 604.628906 247.550781 598.1875 260.683594 C 594.402344 258.332031 590.015625 257.054688 585.519531 257.054688 C 583.09375 257.054688 580.71875 257.410156 578.425781 258.121094 C 568.917969 246.261719 554.363281 239.226562 539.125 239.226562 C 511.363281 239.226562 488.785156 261.824219 488.785156 289.613281 C 488.785156 295.046875 489.644531 300.367188 491.335938 305.46875 C 470.3125 315.035156 456.847656 335.832031 456.847656 359.105469 C 456.847656 375.085938 463.355469 390.367188 474.769531 401.453125 C 468.070312 407.976562 464.285156 416.914062 464.285156 426.359375 C 464.285156 445.535156 479.867188 461.148438 499.027344 461.148438 C 509.171875 461.148438 518.875 456.632812 525.429688 448.957031 C 533.074219 454.023438 541.929688 456.683594 551.179688 456.683594 C 561.03125 456.683594 570.351562 453.703125 578.292969 448.027344 C 583.792969 453.558594 591.265625 456.683594 599.117188 456.683594 C 603.394531 456.683594 607.621094 455.75 611.441406 453.984375 C 620.910156 461.96875 632.867188 466.347656 645.292969 466.347656 Z M 692.652344 427.730469 C 691.625 427.730469 690.679688 428.378906 690.335938 429.375 C 683.699219 448.554688 665.589844 461.441406 645.292969 461.441406 C 633.519531 461.441406 622.210938 457.101562 613.453125 449.226562 C 612.679688 448.542969 611.566406 448.40625 610.644531 448.898438 C 607.152344 450.785156 603.160156 451.777344 599.117188 451.777344 C 591.925781 451.777344 585.128906 448.625 580.460938 443.144531 C 579.601562 442.140625 578.105469 441.992188 577.078125 442.8125 C 569.628906 448.675781 560.675781 451.777344 551.179688 451.777344 C 542.1875 451.777344 533.625 448.96875 526.398438 443.660156 C 525.304688 442.851562 523.785156 443.097656 522.976562 444.175781 C 517.292969 451.839844 508.558594 456.242188 499.027344 456.242188 C 482.574219 456.242188 469.183594 442.839844 469.183594 426.359375 C 469.183594 417.441406 473.117188 409.054688 479.976562 403.363281 C 480.527344 402.910156 480.847656 402.234375 480.859375 401.511719 C 480.871094 400.800781 480.566406 400.113281 480.027344 399.636719 C 468.414062 389.359375 461.75 374.59375 461.75 359.105469 C 461.75 337.046875 474.929688 317.414062 495.339844 309.074219 C 496.578125 308.570312 497.179688 307.171875 496.699219 305.921875 C 494.703125 300.710938 493.6875 295.230469 493.6875 289.613281 C 493.6875 264.535156 514.070312 244.128906 539.125 244.128906 C 553.433594 244.128906 567.070312 250.996094 575.597656 262.488281 C 576.257812 263.382812 577.433594 263.714844 578.476562 263.308594 C 580.71875 262.414062 583.09375 261.960938 585.519531 261.960938 C 589.929688 261.960938 594.242188 263.503906 597.648438 266.3125 C 598.246094 266.816406 599.054688 266.988281 599.816406 266.792969 C 600.574219 266.59375 601.199219 266.042969 601.480469 265.320312 C 606.578125 252.457031 618.828125 244.128906 632.671875 244.128906 C 651 244.128906 665.726562 258.488281 666.203125 276.824219 C 666.226562 277.902344 666.964844 278.835938 667.992188 279.128906 C 680.867188 282.722656 691.390625 292.347656 696.15625 304.867188 C 696.632812 306.121094 698.007812 306.757812 699.257812 306.316406 C 701.570312 305.492188 704.023438 305.078125 706.546875 305.078125 C 718.710938 305.078125 728.597656 314.972656 728.597656 327.148438 C 728.597656 334.949219 724.417969 342.246094 717.679688 346.195312 C 716.675781 346.78125 716.222656 348.007812 716.601562 349.113281 C 717.667969 352.191406 718.207031 355.429688 718.207031 358.726562 C 718.207031 365.925781 715.585938 372.867188 710.84375 378.273438 C 710.390625 378.800781 710.171875 379.488281 710.257812 380.175781 C 710.34375 380.863281 710.710938 381.488281 711.273438 381.890625 C 717.949219 386.636719 721.933594 394.375 721.933594 402.578125 C 721.933594 416.597656 710.539062 428 696.535156 428 C 695.3125 428 694.125 427.914062 693.019531 427.753906 C 692.886719 427.742188 692.761719 427.730469 692.652344 427.730469 Z M 692.652344 427.730469 " fill-opacity="1" fill-rule="nonzero"/></g><path fill="#ffffff" d="M 508.582031 479.871094 C 508.582031 480.546875 508.617188 481.21875 508.683594 481.890625 C 508.75 482.5625 508.847656 483.226562 508.980469 483.890625 C 509.109375 484.550781 509.273438 485.203125 509.46875 485.851562 C 509.664062 486.496094 509.890625 487.128906 510.148438 487.753906 C 510.40625 488.375 510.695312 488.984375 511.011719 489.578125 C 511.328125 490.171875 511.675781 490.75 512.050781 491.3125 C 512.425781 491.871094 512.824219 492.414062 513.253906 492.933594 C 513.679688 493.457031 514.132812 493.957031 514.609375 494.433594 C 515.085938 494.910156 515.582031 495.359375 516.105469 495.789062 C 516.625 496.214844 517.164062 496.617188 517.726562 496.992188 C 518.285156 497.367188 518.863281 497.714844 519.457031 498.03125 C 520.050781 498.347656 520.660156 498.636719 521.28125 498.894531 C 521.902344 499.152344 522.539062 499.378906 523.183594 499.574219 C 523.828125 499.773438 524.480469 499.933594 525.140625 500.066406 C 525.800781 500.199219 526.464844 500.296875 527.136719 500.363281 C 527.808594 500.429688 528.480469 500.460938 529.152344 500.460938 C 529.828125 500.460938 530.5 500.429688 531.167969 500.363281 C 531.839844 500.296875 532.503906 500.199219 533.164062 500.066406 C 533.828125 499.933594 534.480469 499.773438 535.125 499.574219 C 535.769531 499.378906 536.402344 499.152344 537.023438 498.894531 C 537.648438 498.636719 538.253906 498.347656 538.847656 498.03125 C 539.441406 497.714844 540.019531 497.367188 540.582031 496.992188 C 541.140625 496.617188 541.679688 496.214844 542.203125 495.789062 C 542.722656 495.359375 543.222656 494.910156 543.699219 494.433594 C 544.175781 493.957031 544.625 493.457031 545.054688 492.933594 C 545.480469 492.414062 545.882812 491.871094 546.253906 491.3125 C 546.628906 490.75 546.976562 490.171875 547.292969 489.578125 C 547.609375 488.984375 547.898438 488.375 548.15625 487.753906 C 548.414062 487.128906 548.640625 486.496094 548.835938 485.851562 C 549.03125 485.203125 549.195312 484.550781 549.328125 483.890625 C 549.457031 483.226562 549.558594 482.5625 549.625 481.890625 C 549.6875 481.21875 549.722656 480.546875 549.722656 479.871094 C 549.722656 479.199219 549.6875 478.527344 549.625 477.855469 C 549.558594 477.183594 549.457031 476.519531 549.328125 475.855469 C 549.195312 475.195312 549.03125 474.542969 548.835938 473.894531 C 548.640625 473.25 548.414062 472.617188 548.15625 471.992188 C 547.898438 471.371094 547.609375 470.761719 547.292969 470.167969 C 546.976562 469.574219 546.628906 468.996094 546.253906 468.433594 C 545.882812 467.875 545.480469 467.332031 545.054688 466.8125 C 544.625 466.289062 544.175781 465.789062 543.699219 465.3125 C 543.222656 464.835938 542.722656 464.386719 542.203125 463.957031 C 541.679688 463.53125 541.140625 463.128906 540.582031 462.753906 C 540.019531 462.378906 539.441406 462.03125 538.847656 461.714844 C 538.253906 461.398438 537.648438 461.109375 537.023438 460.851562 C 536.402344 460.59375 535.769531 460.367188 535.125 460.171875 C 534.480469 459.972656 533.828125 459.8125 533.164062 459.679688 C 532.503906 459.546875 531.839844 459.449219 531.167969 459.382812 C 530.5 459.316406 529.828125 459.285156 529.152344 459.285156 C 528.480469 459.285156 527.808594 459.316406 527.136719 459.382812 C 526.464844 459.449219 525.800781 459.546875 525.140625 459.679688 C 524.480469 459.8125 523.828125 459.972656 523.183594 460.171875 C 522.539062 460.367188 521.902344 460.59375 521.28125 460.851562 C 520.660156 461.109375 520.050781 461.398438 519.457031 461.714844 C 518.863281 462.03125 518.285156 462.378906 517.726562 462.753906 C 517.164062 463.128906 516.625 463.53125 516.105469 463.957031 C 515.582031 464.386719 515.085938 464.835938 514.609375 465.3125 C 514.132812 465.789062 513.679688 466.289062 513.253906 466.8125 C 512.824219 467.332031 512.425781 467.875 512.050781 468.433594 C 511.675781 468.996094 511.328125 469.574219 511.011719 470.167969 C 510.695312 470.761719 510.40625 471.371094 510.148438 471.992188 C 509.890625 472.617188 509.664062 473.25 509.46875 473.894531 C 509.273438 474.542969 509.109375 475.195312 508.980469 475.855469 C 508.847656 476.519531 508.75 477.183594 508.683594 477.855469 C 508.617188 478.527344 508.582031 479.199219 508.582031 479.871094 Z M 508.582031 479.871094 " fill-opacity="1" fill-rule="nonzero"/><path fill="#000000" d="M 529.152344 502.914062 C 541.84375 502.914062 552.171875 492.578125 552.171875 479.871094 C 552.171875 467.167969 541.84375 456.832031 529.152344 456.832031 C 516.460938 456.832031 506.132812 467.167969 506.132812 479.871094 C 506.132812 492.578125 516.460938 502.914062 529.152344 502.914062 Z M 529.152344 461.734375 C 539.136719 461.734375 547.273438 469.867188 547.273438 479.871094 C 547.273438 489.878906 539.148438 498.011719 529.152344 498.011719 C 519.15625 498.011719 511.035156 489.878906 511.035156 479.871094 C 511.035156 469.867188 519.167969 461.734375 529.152344 461.734375 Z M 529.152344 461.734375 " fill-opacity="1" fill-rule="nonzero"/><path fill="#ffffff" d="M 481.851562 508.800781 C 481.851562 509.679688 481.9375 510.550781 482.109375 511.410156 C 482.28125 512.273438 482.535156 513.109375 482.871094 513.921875 C 483.207031 514.734375 483.617188 515.503906 484.105469 516.234375 C 484.59375 516.964844 485.148438 517.640625 485.765625 518.261719 C 486.386719 518.882812 487.0625 519.4375 487.792969 519.925781 C 488.523438 520.414062 489.292969 520.824219 490.101562 521.160156 C 490.914062 521.496094 491.75 521.75 492.609375 521.921875 C 493.472656 522.09375 494.339844 522.179688 495.21875 522.179688 C 496.09375 522.179688 496.964844 522.09375 497.824219 521.921875 C 498.6875 521.75 499.523438 521.496094 500.332031 521.160156 C 501.144531 520.824219 501.914062 520.414062 502.644531 519.925781 C 503.375 519.4375 504.046875 518.882812 504.667969 518.261719 C 505.289062 517.640625 505.84375 516.964844 506.332031 516.234375 C 506.820312 515.503906 507.230469 514.734375 507.566406 513.921875 C 507.902344 513.109375 508.15625 512.273438 508.328125 511.410156 C 508.5 510.550781 508.582031 509.679688 508.582031 508.800781 C 508.582031 507.921875 508.5 507.054688 508.328125 506.191406 C 508.15625 505.328125 507.902344 504.492188 507.566406 503.679688 C 507.230469 502.871094 506.820312 502.097656 506.332031 501.367188 C 505.84375 500.636719 505.289062 499.960938 504.667969 499.339844 C 504.046875 498.71875 503.375 498.164062 502.644531 497.675781 C 501.914062 497.1875 501.144531 496.777344 500.332031 496.441406 C 499.523438 496.105469 498.6875 495.851562 497.824219 495.679688 C 496.964844 495.507812 496.09375 495.421875 495.21875 495.421875 C 494.339844 495.421875 493.472656 495.507812 492.609375 495.679688 C 491.75 495.851562 490.914062 496.105469 490.101562 496.441406 C 489.292969 496.777344 488.523438 497.1875 487.792969 497.675781 C 487.0625 498.164062 486.386719 498.71875 485.765625 499.339844 C 485.148438 499.960938 484.59375 500.636719 484.105469 501.367188 C 483.617188 502.097656 483.207031 502.871094 482.871094 503.679688 C 482.535156 504.492188 482.28125 505.328125 482.109375 506.191406 C 481.9375 507.054688 481.851562 507.921875 481.851562 508.800781 Z M 481.851562 508.800781 " fill-opacity="1" fill-rule="nonzero"/><path fill="#000000" d="M 495.21875 524.644531 C 503.941406 524.644531 511.035156 517.542969 511.035156 508.8125 C 511.035156 500.082031 503.941406 492.980469 495.21875 492.980469 C 486.496094 492.980469 479.402344 500.082031 479.402344 508.8125 C 479.402344 517.542969 486.496094 524.644531 495.21875 524.644531 Z M 495.21875 497.875 C 501.246094 497.875 506.132812 502.78125 506.132812 508.800781 C 506.132812 514.824219 501.234375 519.726562 495.21875 519.726562 C 489.203125 519.726562 484.300781 514.824219 484.300781 508.800781 C 484.300781 502.78125 489.191406 497.875 495.21875 497.875 Z M 495.21875 497.875 " fill-opacity="1" fill-rule="nonzero"/><path fill="#ffffff" d="M 462.277344 521.542969 C 462.277344 521.949219 462.316406 522.351562 462.394531 522.75 C 462.472656 523.148438 462.589844 523.535156 462.746094 523.914062 C 462.902344 524.289062 463.09375 524.644531 463.316406 524.984375 C 463.542969 525.320312 463.800781 525.632812 464.085938 525.921875 C 464.375 526.207031 464.6875 526.464844 465.023438 526.691406 C 465.363281 526.917969 465.71875 527.109375 466.09375 527.265625 C 466.46875 527.417969 466.855469 527.535156 467.253906 527.617188 C 467.652344 527.695312 468.054688 527.734375 468.460938 527.734375 C 468.867188 527.734375 469.269531 527.695312 469.667969 527.617188 C 470.066406 527.535156 470.453125 527.417969 470.828125 527.265625 C 471.203125 527.109375 471.5625 526.917969 471.898438 526.691406 C 472.238281 526.464844 472.550781 526.207031 472.835938 525.921875 C 473.125 525.632812 473.378906 525.320312 473.605469 524.984375 C 473.832031 524.644531 474.023438 524.289062 474.179688 523.914062 C 474.332031 523.535156 474.449219 523.148438 474.53125 522.75 C 474.609375 522.351562 474.648438 521.949219 474.648438 521.542969 C 474.648438 521.136719 474.609375 520.734375 474.53125 520.335938 C 474.449219 519.933594 474.332031 519.546875 474.179688 519.171875 C 474.023438 518.796875 473.832031 518.441406 473.605469 518.101562 C 473.378906 517.765625 473.125 517.449219 472.835938 517.164062 C 472.550781 516.875 472.238281 516.621094 471.898438 516.394531 C 471.5625 516.167969 471.203125 515.976562 470.828125 515.820312 C 470.453125 515.664062 470.066406 515.546875 469.667969 515.46875 C 469.269531 515.390625 468.867188 515.351562 468.460938 515.351562 C 468.054688 515.351562 467.652344 515.390625 467.253906 515.46875 C 466.855469 515.546875 466.46875 515.664062 466.09375 515.820312 C 465.71875 515.976562 465.363281 516.167969 465.023438 516.394531 C 464.6875 516.621094 464.375 516.875 464.085938 517.164062 C 463.800781 517.449219 463.542969 517.765625 463.316406 518.101562 C 463.09375 518.441406 462.902344 518.796875 462.746094 519.171875 C 462.589844 519.546875 462.472656 519.933594 462.394531 520.335938 C 462.316406 520.734375 462.277344 521.136719 462.277344 521.542969 Z M 462.277344 521.542969 " fill-opacity="1" fill-rule="nonzero"/><g clip-path="url(#1dabc110f7)"><path fill="#000000" d="M 468.460938 530.1875 C 473.226562 530.1875 477.097656 526.3125 477.097656 521.542969 C 477.097656 516.773438 473.226562 512.898438 468.460938 512.898438 C 463.695312 512.898438 459.824219 516.773438 459.824219 521.542969 C 459.824219 526.3125 463.707031 530.1875 468.460938 530.1875 Z M 468.460938 517.816406 C 470.519531 517.816406 472.199219 519.496094 472.199219 521.554688 C 472.199219 523.613281 470.519531 525.296875 468.460938 525.296875 C 466.402344 525.296875 464.726562 523.613281 464.726562 521.554688 C 464.738281 519.480469 466.402344 517.816406 468.460938 517.816406 Z M 468.460938 517.816406 " fill-opacity="1" fill-rule="nonzero"/></g><g clip-path="url(#f9229b65f6)"><g clip-path="url(#13152de7aa)"><g clip-path="url(#c0db0746e5)"><g clip-path="url(#f32969b48f)"><path fill="#ffffff" d="M 414.5625 226.621094 L 439.492188 208.992188 L 457.246094 196.425781 C 479.59375 212.285156 509.152344 221.078125 541.011719 219.210938 C 606.691406 215.363281 657.324219 167.632812 654.101562 112.613281 C 650.875 57.578125 595.015625 16.085938 529.335938 19.933594 C 463.644531 23.785156 413.011719 71.515625 416.234375 126.546875 C 417.4375 147.042969 425.941406 165.671875 439.554688 180.765625 L 429.175781 199.820312 Z M 414.5625 226.621094 " fill-opacity="1" fill-rule="nonzero"/></g></g></g></g><g clip-path="url(#36e6db19bd)"><g clip-path="url(#67210e6bd6)"><g clip-path="url(#18082b8f3e)"><g clip-path="url(#581a48cfd3)"><path fill="#000000" d="M 414.691406 228.8125 C 415.085938 228.789062 415.484375 228.65625 415.835938 228.417969 L 457.261719 199.109375 C 480.71875 215.289062 510.441406 223.203125 541.148438 221.402344 C 607.925781 217.492188 659.582031 168.636719 656.292969 112.484375 C 653.003906 56.332031 595.992188 13.828125 529.207031 17.742188 C 462.421875 21.65625 410.753906 70.523438 414.042969 126.675781 C 415.207031 146.527344 423.09375 165.3125 436.886719 181.066406 L 412.632812 225.566406 C 412.144531 226.464844 412.332031 227.578125 413.097656 228.257812 C 413.550781 228.660156 414.121094 228.847656 414.691406 228.8125 Z M 529.464844 22.128906 C 593.828125 18.355469 648.757812 59 651.90625 112.738281 C 655.054688 166.46875 605.246094 213.25 540.882812 217.019531 C 510.613281 218.792969 481.359375 210.839844 458.519531 194.636719 C 457.761719 194.097656 456.738281 194.089844 455.976562 194.632812 L 421.011719 219.359375 L 441.472656 181.808594 C 441.921875 180.992188 441.796875 179.976562 441.171875 179.285156 C 427.417969 164.035156 419.550781 145.742188 418.417969 126.410156 C 415.28125 72.679688 465.089844 25.898438 529.464844 22.128906 Z M 529.464844 22.128906 " fill-opacity="1" fill-rule="nonzero"/></g></g></g></g><g fill="#000000" fill-opacity="1"><g transform="translate(437.93053, 130.340731)"><g><path d="M 12.171875 -25.519531 C 12.171875 -28.136719 13.4375 -28.617188 15.269531 -28.617188 C 15.96875 -28.617188 17.058594 -28.445312 17.277344 -28.355469 L 17.277344 -34.902344 C 16.882812 -35.117188 15.574219 -35.511719 13.394531 -35.511719 C 7.851562 -35.511719 4.144531 -33.15625 4.144531 -26.394531 L 4.144531 -23.121094 L 0.65625 -23.121094 L 0.65625 -16.140625 L 4.144531 -16.140625 L 4.144531 0 L 12.171875 0 L 12.171875 -16.140625 L 16.839844 -16.140625 L 16.839844 -23.121094 L 12.171875 -23.121094 Z M 12.171875 -25.519531 "/></g></g></g><g fill="#000000" fill-opacity="1"><g transform="translate(456.253367, 130.340731)"><g><path d="M 1.917969 -23.121094 L 1.917969 -7.632812 C 1.917969 -3.488281 3.664062 0.609375 9.117188 0.609375 C 12.5625 0.609375 14.921875 -0.785156 16.402344 -2.835938 L 16.96875 0 L 24.210938 0 L 23.777344 -6.542969 L 23.777344 -23.121094 L 15.75 -23.121094 L 15.75 -8.070312 C 15.3125 -7.417969 14.132812 -6.28125 12.390625 -6.28125 C 10.207031 -6.28125 9.945312 -7.851562 9.945312 -8.941406 L 9.945312 -23.121094 Z M 1.917969 -23.121094 "/></g></g></g><g fill="#000000" fill-opacity="1"><g transform="translate(482.21073, 130.340731)"><g><path d="M 24.039062 0 L 24.039062 -15.488281 C 24.039062 -19.632812 22.292969 -23.730469 16.839844 -23.730469 C 13.394531 -23.730469 11.039062 -22.292969 9.511719 -20.242188 L 8.988281 -23.121094 L 1.746094 -23.121094 L 2.179688 -16.578125 L 2.179688 0 L 10.207031 0 L 10.207031 -15.050781 C 10.644531 -15.707031 11.824219 -16.839844 13.566406 -16.839844 C 15.75 -16.839844 16.011719 -15.269531 16.011719 -14.179688 L 16.011719 0 Z M 24.039062 0 "/></g></g></g><g fill="#000000" fill-opacity="1"><g transform="translate(508.168092, 130.340731)"><g><path d="M 9.074219 -10.6875 L 9.074219 -12.433594 C 9.074219 -15.269531 9.816406 -16.839844 11.953125 -16.839844 C 13.523438 -16.839844 14.484375 -15.96875 14.484375 -13.960938 L 22.03125 -13.960938 L 22.03125 -15.007812 C 22.03125 -20.503906 18.496094 -23.730469 11.777344 -23.730469 C 4.320312 -23.730469 1.089844 -19.195312 1.089844 -12.433594 L 1.089844 -10.6875 C 1.089844 -3.925781 4.320312 0.609375 11.777344 0.609375 C 18.496094 0.609375 22.03125 -2.617188 22.03125 -7.679688 L 22.03125 -8.726562 L 14.484375 -8.726562 C 14.484375 -7.199219 13.523438 -6.28125 11.953125 -6.28125 C 9.816406 -6.28125 9.074219 -7.851562 9.074219 -10.6875 Z M 9.074219 -10.6875 "/></g></g></g><g fill="#000000" fill-opacity="1"><g transform="translate(531.202527, 130.340731)"><g><path d="M 12.171875 -23.121094 L 12.171875 -29.664062 L 4.144531 -29.664062 L 4.144531 -23.121094 L 0.65625 -23.121094 L 0.65625 -16.140625 L 4.144531 -16.140625 L 4.144531 -8.507812 C 4.144531 -1.746094 7.851562 0.609375 13.394531 0.609375 C 15.574219 0.609375 16.882812 0.21875 17.277344 0 L 17.277344 -6.542969 C 17.058594 -6.457031 15.96875 -6.28125 15.269531 -6.28125 C 13.4375 -6.28125 12.171875 -6.761719 12.171875 -9.378906 L 12.171875 -16.140625 L 17.710938 -16.140625 L 17.710938 -23.121094 Z M 12.171875 -23.121094 "/></g></g></g><g fill="#000000" fill-opacity="1"><g transform="translate(550.397885, 130.340731)"><g><path d="M 2.09375 0 L 10.121094 0 L 10.121094 -23.121094 L 2.09375 -23.121094 Z M 10.253906 -34.027344 L 1.964844 -34.027344 L 1.964844 -25.738281 L 10.253906 -25.738281 Z M 10.253906 -34.027344 "/></g></g></g><g fill="#000000" fill-opacity="1"><g transform="translate(562.613119, 130.340731)"><g><path d="M 12.214844 0.609375 C 19.851562 0.609375 23.339844 -3.925781 23.339844 -10.6875 L 23.339844 -12.433594 C 23.339844 -19.195312 19.851562 -23.730469 12.214844 -23.730469 C 4.582031 -23.730469 1.089844 -19.195312 1.089844 -12.433594 L 1.089844 -10.6875 C 1.089844 -3.925781 4.582031 0.609375 12.214844 0.609375 Z M 12.214844 -6.28125 C 10.035156 -6.28125 9.074219 -7.851562 9.074219 -10.6875 L 9.074219 -12.433594 C 9.074219 -15.269531 10.035156 -16.839844 12.214844 -16.839844 C 14.398438 -16.839844 15.355469 -15.269531 15.355469 -12.433594 L 15.355469 -10.6875 C 15.355469 -7.851562 14.398438 -6.28125 12.214844 -6.28125 Z M 12.214844 -6.28125 "/></g></g></g><g fill="#000000" fill-opacity="1"><g transform="translate(587.043574, 130.340731)"><g><path d="M 24.039062 0 L 24.039062 -15.488281 C 24.039062 -19.632812 22.292969 -23.730469 16.839844 -23.730469 C 13.394531 -23.730469 11.039062 -22.292969 9.511719 -20.242188 L 8.988281 -23.121094 L 1.746094 -23.121094 L 2.179688 -16.578125 L 2.179688 0 L 10.207031 0 L 10.207031 -15.050781 C 10.644531 -15.707031 11.824219 -16.839844 13.566406 -16.839844 C 15.75 -16.839844 16.011719 -15.269531 16.011719 -14.179688 L 16.011719 0 Z M 24.039062 0 "/></g></g></g><g fill="#000000" fill-opacity="1"><g transform="translate(613.000936, 130.340731)"><g><path d="M 11.5625 -5.410156 C 9.902344 -5.410156 9.203125 -6.152344 9.203125 -7.417969 L 1.222656 -7.417969 L 1.222656 -7.199219 C 1.222656 -2.398438 4.753906 0.609375 11.5625 0.609375 C 18.496094 0.609375 21.898438 -2.398438 21.898438 -7.460938 L 21.898438 -7.894531 C 21.898438 -12.957031 17.710938 -14.003906 11.910156 -14.484375 C 9.945312 -14.660156 9.378906 -15.050781 9.378906 -16.140625 C 9.378906 -17.058594 10.121094 -17.710938 11.5625 -17.710938 C 13 -17.710938 13.742188 -16.882812 13.742188 -15.488281 L 21.59375 -15.488281 L 21.59375 -15.707031 C 21.59375 -20.808594 18.496094 -23.730469 11.5625 -23.730469 C 6.0625 -23.730469 1.527344 -21.59375 1.527344 -15.878906 L 1.527344 -15.445312 C 1.527344 -10.820312 4.625 -9.378906 11.253906 -8.855469 C 13.4375 -8.679688 13.871094 -8.070312 13.871094 -7.109375 C 13.871094 -6.195312 13.304688 -5.410156 11.5625 -5.410156 Z M 11.5625 -5.410156 "/></g></g></g><g fill="#000000" fill-opacity="1"><g transform="translate(489.340638, 341.401616)"><g/></g></g><g fill="#000000" fill-opacity="1"><g transform="translate(497.532044, 341.401616)"><g><path d="M 14.753906 0 L 21.558594 0 L 21.148438 -6.148438 L 21.148438 -13.9375 C 21.148438 -19.304688 18.894531 -22.296875 11.476562 -22.296875 C 4.097656 -22.296875 1.84375 -18.855469 1.84375 -14.917969 L 1.84375 -14.550781 L 8.933594 -14.550781 C 8.933594 -15.574219 9.425781 -16.640625 11.273438 -16.640625 C 12.910156 -16.640625 13.527344 -15.902344 13.609375 -14.34375 L 9.015625 -13.609375 C 4.179688 -12.871094 1.023438 -11.273438 1.023438 -6.558594 L 1.023438 -6.148438 C 1.023438 -2.664062 2.664062 0.574219 7.789062 0.574219 C 10.65625 0.574219 12.828125 -0.449219 14.34375 -2.050781 Z M 10.65625 -5.492188 C 9.097656 -5.492188 8.527344 -6.394531 8.527344 -7.253906 L 8.527344 -7.5 C 8.527344 -8.484375 8.894531 -9.261719 10.65625 -9.550781 L 13.609375 -10 L 13.609375 -6.679688 C 12.992188 -6.105469 11.925781 -5.492188 10.65625 -5.492188 Z M 10.65625 -5.492188 "/></g></g></g><g fill="#000000" fill-opacity="1"><g transform="translate(520.481064, 341.401616)"><g><path d="M 14.589844 -22.296875 C 12.132812 -22.296875 10.207031 -21.109375 8.894531 -19.304688 L 8.445312 -21.722656 L 1.640625 -21.722656 L 2.050781 -15.574219 L 2.050781 0 L 9.589844 0 L 9.589844 -13.117188 C 10.082031 -13.730469 11.515625 -14.550781 13.976562 -14.550781 L 15.207031 -14.550781 L 15.207031 -22.257812 C 15 -22.296875 14.796875 -22.296875 14.589844 -22.296875 Z M 14.589844 -22.296875 "/></g></g></g><g fill="#000000" fill-opacity="1"><g transform="translate(536.873225, 341.401616)"><g><path d="M 1.96875 0 L 9.507812 0 L 9.507812 -21.722656 L 1.96875 -21.722656 Z M 9.632812 -31.96875 L 1.84375 -31.96875 L 1.84375 -24.183594 L 9.632812 -24.183594 Z M 9.632812 -31.96875 "/></g></g></g><g fill="#000000" fill-opacity="1"><g transform="translate(548.347735, 341.401616)"><g><path d="M 11.433594 -21.722656 L 11.433594 -27.871094 L 3.894531 -27.871094 L 3.894531 -21.722656 L 0.613281 -21.722656 L 0.613281 -15.164062 L 3.894531 -15.164062 L 3.894531 -7.992188 C 3.894531 -1.640625 7.378906 0.574219 12.582031 0.574219 C 14.632812 0.574219 15.863281 0.203125 16.230469 0 L 16.230469 -6.148438 C 16.027344 -6.066406 15 -5.902344 14.34375 -5.902344 C 12.625 -5.902344 11.433594 -6.351562 11.433594 -8.8125 L 11.433594 -15.164062 L 16.640625 -15.164062 L 16.640625 -21.722656 Z M 11.433594 -21.722656 "/></g></g></g><g fill="#000000" fill-opacity="1"><g transform="translate(566.379114, 341.401616)"><g><path d="M 9.589844 -32.789062 L 2.050781 -32.789062 L 2.050781 0 L 9.589844 0 L 9.589844 -14.140625 C 10 -14.753906 11.109375 -15.820312 12.746094 -15.820312 C 14.796875 -15.820312 15.042969 -14.34375 15.042969 -13.320312 L 15.042969 0 L 22.585938 0 L 22.585938 -14.550781 C 22.585938 -18.445312 20.945312 -22.296875 15.820312 -22.296875 C 13.035156 -22.296875 10.984375 -21.3125 9.589844 -19.796875 Z M 9.589844 -32.789062 "/></g></g></g><g fill="#000000" fill-opacity="1"><g transform="translate(590.762456, 341.401616)"><g><path d="M 34.265625 0 L 34.265625 -14.753906 C 34.265625 -18.855469 32.421875 -22.296875 27.707031 -22.296875 C 24.550781 -22.296875 22.378906 -20.945312 21.066406 -18.976562 C 20.082031 -20.945312 18.28125 -22.296875 15.371094 -22.296875 C 12.335938 -22.296875 10.246094 -21.066406 8.894531 -19.222656 L 8.445312 -21.722656 L 1.640625 -21.722656 L 2.050781 -15.574219 L 2.050781 0 L 9.589844 0 L 9.589844 -14.34375 C 10 -14.960938 10.863281 -15.820312 12.296875 -15.820312 C 13.9375 -15.820312 14.386719 -14.753906 14.386719 -13.527344 L 14.386719 0 L 21.929688 0 L 21.929688 -14.34375 C 22.339844 -14.960938 23.199219 -15.820312 24.632812 -15.820312 C 26.273438 -15.820312 26.722656 -14.753906 26.722656 -13.527344 L 26.722656 0 Z M 34.265625 0 "/></g></g></g><g fill="#000000" fill-opacity="1"><g transform="translate(626.825203, 341.401616)"><g><path d="M 21.929688 -8.199219 L 21.929688 -11.476562 C 21.929688 -17.828125 18.648438 -22.296875 11.640625 -22.296875 C 4.632812 -22.296875 1.023438 -17.828125 1.023438 -11.476562 L 1.023438 -10.246094 C 1.023438 -3.894531 4.46875 0.574219 11.886719 0.574219 C 18.199219 0.574219 21.929688 -2.460938 21.929688 -6.804688 L 21.929688 -6.96875 L 14.835938 -6.96875 C 14.835938 -5.941406 13.566406 -5.082031 11.925781 -5.082031 C 10.042969 -5.082031 8.8125 -5.738281 8.566406 -8.199219 Z M 11.476562 -16.640625 C 13.238281 -16.640625 14.183594 -15.820312 14.386719 -13.527344 L 8.566406 -13.527344 C 8.769531 -15.820312 9.714844 -16.640625 11.476562 -16.640625 Z M 11.476562 -16.640625 "/></g></g></g><g fill="#000000" fill-opacity="1"><g transform="translate(649.774222, 341.401616)"><g><path d="M 11.433594 -21.722656 L 11.433594 -27.871094 L 3.894531 -27.871094 L 3.894531 -21.722656 L 0.613281 -21.722656 L 0.613281 -15.164062 L 3.894531 -15.164062 L 3.894531 -7.992188 C 3.894531 -1.640625 7.378906 0.574219 12.582031 0.574219 C 14.632812 0.574219 15.863281 0.203125 16.230469 0 L 16.230469 -6.148438 C 16.027344 -6.066406 15 -5.902344 14.34375 -5.902344 C 12.625 -5.902344 11.433594 -6.351562 11.433594 -8.8125 L 11.433594 -15.164062 L 16.640625 -15.164062 L 16.640625 -21.722656 Z M 11.433594 -21.722656 "/></g></g></g><g fill="#000000" fill-opacity="1"><g transform="translate(667.805601, 341.401616)"><g><path d="M 1.96875 0 L 9.507812 0 L 9.507812 -21.722656 L 1.96875 -21.722656 Z M 9.632812 -31.96875 L 1.84375 -31.96875 L 1.84375 -24.183594 L 9.632812 -24.183594 Z M 9.632812 -31.96875 "/></g></g></g><g fill="#000000" fill-opacity="1"><g transform="translate(679.280111, 341.401616)"><g><path d="M 8.527344 -10.042969 L 8.527344 -11.679688 C 8.527344 -14.34375 9.222656 -15.820312 11.230469 -15.820312 C 12.707031 -15.820312 13.609375 -15 13.609375 -13.117188 L 20.699219 -13.117188 L 20.699219 -14.101562 C 20.699219 -19.265625 17.378906 -22.296875 11.066406 -22.296875 C 4.058594 -22.296875 1.023438 -18.035156 1.023438 -11.679688 L 1.023438 -10.042969 C 1.023438 -3.6875 4.058594 0.574219 11.066406 0.574219 C 17.378906 0.574219 20.699219 -2.460938 20.699219 -7.214844 L 20.699219 -8.199219 L 13.609375 -8.199219 C 13.609375 -6.761719 12.707031 -5.902344 11.230469 -5.902344 C 9.222656 -5.902344 8.527344 -7.378906 8.527344 -10.042969 Z M 8.527344 -10.042969 "/></g></g></g><g fill="#000000" fill-opacity="1"><g transform="translate(500.977357, 398.401613)"><g><path d="M 11.476562 0.574219 C 18.648438 0.574219 21.929688 -3.6875 21.929688 -10.042969 L 21.929688 -11.679688 C 21.929688 -18.035156 18.648438 -22.296875 11.476562 -22.296875 C 4.304688 -22.296875 1.023438 -18.035156 1.023438 -11.679688 L 1.023438 -10.042969 C 1.023438 -3.6875 4.304688 0.574219 11.476562 0.574219 Z M 11.476562 -5.902344 C 9.425781 -5.902344 8.527344 -7.378906 8.527344 -10.042969 L 8.527344 -11.679688 C 8.527344 -14.34375 9.425781 -15.820312 11.476562 -15.820312 C 13.527344 -15.820312 14.425781 -14.34375 14.425781 -11.679688 L 14.425781 -10.042969 C 14.425781 -7.378906 13.527344 -5.902344 11.476562 -5.902344 Z M 11.476562 -5.902344 "/></g></g></g><g fill="#000000" fill-opacity="1"><g transform="translate(523.926376, 398.401613)"><g><path d="M 14.960938 0.574219 C 20.902344 0.574219 22.953125 -3.6875 22.953125 -10.042969 L 22.953125 -11.679688 C 22.953125 -18.035156 20.902344 -22.296875 14.960938 -22.296875 C 12.007812 -22.296875 10.082031 -21.027344 8.851562 -19.183594 L 8.402344 -21.722656 L 1.597656 -21.722656 L 2.007812 -15.574219 L 2.007812 8.199219 L 9.550781 8.199219 L 9.550781 -1.640625 C 10.78125 -0.285156 12.5 0.574219 14.960938 0.574219 Z M 9.550781 -14.140625 C 9.960938 -14.753906 11.066406 -15.820312 12.707031 -15.820312 C 14.753906 -15.820312 15.453125 -14.34375 15.453125 -11.679688 L 15.453125 -10.042969 C 15.453125 -7.378906 14.753906 -5.902344 12.707031 -5.902344 C 11.066406 -5.902344 9.960938 -6.96875 9.550781 -7.582031 Z M 9.550781 -14.140625 "/></g></g></g><g fill="#000000" fill-opacity="1"><g transform="translate(547.899905, 398.401613)"><g><path d="M 21.929688 -8.199219 L 21.929688 -11.476562 C 21.929688 -17.828125 18.648438 -22.296875 11.640625 -22.296875 C 4.632812 -22.296875 1.023438 -17.828125 1.023438 -11.476562 L 1.023438 -10.246094 C 1.023438 -3.894531 4.46875 0.574219 11.886719 0.574219 C 18.199219 0.574219 21.929688 -2.460938 21.929688 -6.804688 L 21.929688 -6.96875 L 14.835938 -6.96875 C 14.835938 -5.941406 13.566406 -5.082031 11.925781 -5.082031 C 10.042969 -5.082031 8.8125 -5.738281 8.566406 -8.199219 Z M 11.476562 -16.640625 C 13.238281 -16.640625 14.183594 -15.820312 14.386719 -13.527344 L 8.566406 -13.527344 C 8.769531 -15.820312 9.714844 -16.640625 11.476562 -16.640625 Z M 11.476562 -16.640625 "/></g></g></g><g fill="#000000" fill-opacity="1"><g transform="translate(570.848924, 398.401613)"><g><path d="M 14.589844 -22.296875 C 12.132812 -22.296875 10.207031 -21.109375 8.894531 -19.304688 L 8.445312 -21.722656 L 1.640625 -21.722656 L 2.050781 -15.574219 L 2.050781 0 L 9.589844 0 L 9.589844 -13.117188 C 10.082031 -13.730469 11.515625 -14.550781 13.976562 -14.550781 L 15.207031 -14.550781 L 15.207031 -22.257812 C 15 -22.296875 14.796875 -22.296875 14.589844 -22.296875 Z M 14.589844 -22.296875 "/></g></g></g><g fill="#000000" fill-opacity="1"><g transform="translate(587.241086, 398.401613)"><g><path d="M 14.753906 0 L 21.558594 0 L 21.148438 -6.148438 L 21.148438 -13.9375 C 21.148438 -19.304688 18.894531 -22.296875 11.476562 -22.296875 C 4.097656 -22.296875 1.84375 -18.855469 1.84375 -14.917969 L 1.84375 -14.550781 L 8.933594 -14.550781 C 8.933594 -15.574219 9.425781 -16.640625 11.273438 -16.640625 C 12.910156 -16.640625 13.527344 -15.902344 13.609375 -14.34375 L 9.015625 -13.609375 C 4.179688 -12.871094 1.023438 -11.273438 1.023438 -6.558594 L 1.023438 -6.148438 C 1.023438 -2.664062 2.664062 0.574219 7.789062 0.574219 C 10.65625 0.574219 12.828125 -0.449219 14.34375 -2.050781 Z M 10.65625 -5.492188 C 9.097656 -5.492188 8.527344 -6.394531 8.527344 -7.253906 L 8.527344 -7.5 C 8.527344 -8.484375 8.894531 -9.261719 10.65625 -9.550781 L 13.609375 -10 L 13.609375 -6.679688 C 12.992188 -6.105469 11.925781 -5.492188 10.65625 -5.492188 Z M 10.65625 -5.492188 "/></g></g></g><g fill="#000000" fill-opacity="1"><g transform="translate(610.190105, 398.401613)"><g><path d="M 11.433594 -21.722656 L 11.433594 -27.871094 L 3.894531 -27.871094 L 3.894531 -21.722656 L 0.613281 -21.722656 L 0.613281 -15.164062 L 3.894531 -15.164062 L 3.894531 -7.992188 C 3.894531 -1.640625 7.378906 0.574219 12.582031 0.574219 C 14.632812 0.574219 15.863281 0.203125 16.230469 0 L 16.230469 -6.148438 C 16.027344 -6.066406 15 -5.902344 14.34375 -5.902344 C 12.625 -5.902344 11.433594 -6.351562 11.433594 -8.8125 L 11.433594 -15.164062 L 16.640625 -15.164062 L 16.640625 -21.722656 Z M 11.433594 -21.722656 "/></g></g></g><g fill="#000000" fill-opacity="1"><g transform="translate(628.221484, 398.401613)"><g><path d="M 11.476562 0.574219 C 18.648438 0.574219 21.929688 -3.6875 21.929688 -10.042969 L 21.929688 -11.679688 C 21.929688 -18.035156 18.648438 -22.296875 11.476562 -22.296875 C 4.304688 -22.296875 1.023438 -18.035156 1.023438 -11.679688 L 1.023438 -10.042969 C 1.023438 -3.6875 4.304688 0.574219 11.476562 0.574219 Z M 11.476562 -5.902344 C 9.425781 -5.902344 8.527344 -7.378906 8.527344 -10.042969 L 8.527344 -11.679688 C 8.527344 -14.34375 9.425781 -15.820312 11.476562 -15.820312 C 13.527344 -15.820312 14.425781 -14.34375 14.425781 -11.679688 L 14.425781 -10.042969 C 14.425781 -7.378906 13.527344 -5.902344 11.476562 -5.902344 Z M 11.476562 -5.902344 "/></g></g></g><g fill="#000000" fill-opacity="1"><g transform="translate(651.170504, 398.401613)"><g><path d="M 14.589844 -22.296875 C 12.132812 -22.296875 10.207031 -21.109375 8.894531 -19.304688 L 8.445312 -21.722656 L 1.640625 -21.722656 L 2.050781 -15.574219 L 2.050781 0 L 9.589844 0 L 9.589844 -13.117188 C 10.082031 -13.730469 11.515625 -14.550781 13.976562 -14.550781 L 15.207031 -14.550781 L 15.207031 -22.257812 C 15 -22.296875 14.796875 -22.296875 14.589844 -22.296875 Z M 14.589844 -22.296875 "/></g></g></g><g fill="#000000" fill-opacity="1"><g transform="translate(667.562665, 398.401613)"><g><path d="M 10.863281 -5.082031 C 9.304688 -5.082031 8.648438 -5.777344 8.648438 -6.96875 L 1.148438 -6.96875 L 1.148438 -6.761719 C 1.148438 -2.253906 4.46875 0.574219 10.863281 0.574219 C 17.378906 0.574219 20.574219 -2.253906 20.574219 -7.007812 L 20.574219 -7.417969 C 20.574219 -12.171875 16.640625 -13.15625 11.191406 -13.609375 C 9.34375 -13.773438 8.8125 -14.140625 8.8125 -15.164062 C 8.8125 -16.027344 9.507812 -16.640625 10.863281 -16.640625 C 12.214844 -16.640625 12.910156 -15.863281 12.910156 -14.550781 L 20.289062 -14.550781 L 20.289062 -14.753906 C 20.289062 -19.550781 17.378906 -22.296875 10.863281 -22.296875 C 5.695312 -22.296875 1.433594 -20.289062 1.433594 -14.917969 L 1.433594 -14.507812 C 1.433594 -10.164062 4.34375 -8.8125 10.574219 -8.320312 C 12.625 -8.15625 13.035156 -7.582031 13.035156 -6.679688 C 13.035156 -5.820312 12.5 -5.082031 10.863281 -5.082031 Z M 10.863281 -5.082031 "/></g></g></g></svg>