<svg xmlns="http://www.w3.org/2000/svg" xmlns:xlink="http://www.w3.org/1999/xlink" width="1000" zoomAndPan="magnify" viewBox="0 0 750 599.999999" height="800" preserveAspectRatio="xMidYMid meet" version="1.0"><defs><g/><clipPath id="f9379ac241"><path d="M 375 35.164062 L 727 35.164062 L 727 314.914062 L 375 314.914062 Z M 375 35.164062 " clip-rule="nonzero"/></clipPath><clipPath id="e6b7c80037"><path d="M 700 108 L 737.25 108 L 737.25 205 L 700 205 Z M 700 108 " clip-rule="nonzero"/></clipPath><clipPath id="d1b6750fe5"><path d="M 21.140625 249.160156 L 298.640625 249.160156 L 298.640625 477 L 21.140625 477 Z M 21.140625 249.160156 " clip-rule="nonzero"/></clipPath><clipPath id="58fbb66912"><path d="M 277 522 L 296 522 L 296 540.160156 L 277 540.160156 Z M 277 522 " clip-rule="nonzero"/></clipPath><clipPath id="a8fc78c872"><path d="M 96 23 L 335 23 L 335 241 L 96 241 Z M 96 23 " clip-rule="nonzero"/></clipPath><clipPath id="7c4dfbbba3"><path d="M 109.449219 6 L 357.546875 40.613281 L 329.359375 242.65625 L 81.261719 208.042969 Z M 109.449219 6 " clip-rule="nonzero"/></clipPath><clipPath id="e07055e1f1"><path d="M 109.449219 6 L 357.546875 40.613281 L 329.359375 242.65625 L 81.261719 208.042969 Z M 109.449219 6 " clip-rule="nonzero"/></clipPath><clipPath id="c61c7d8045"><path d="M 109.449219 6 L 357.546875 40.613281 L 329.359375 242.65625 L 81.261719 208.042969 Z M 109.449219 6 " clip-rule="nonzero"/></clipPath><clipPath id="28dbb8659e"><path d="M 94 21 L 337 21 L 337 243 L 94 243 Z M 94 21 " clip-rule="nonzero"/></clipPath><clipPath id="1193495cb0"><path d="M 109.449219 6 L 357.546875 40.613281 L 329.359375 242.65625 L 81.261719 208.042969 Z M 109.449219 6 " clip-rule="nonzero"/></clipPath><clipPath id="e90af2a3d0"><path d="M 109.449219 6 L 357.546875 40.613281 L 329.359375 242.65625 L 81.261719 208.042969 Z M 109.449219 6 " clip-rule="nonzero"/></clipPath><clipPath id="230476d4aa"><path d="M 109.449219 6 L 357.546875 40.613281 L 329.359375 242.65625 L 81.261719 208.042969 Z M 109.449219 6 " clip-rule="nonzero"/></clipPath></defs><g fill="#f57c00" fill-opacity="1"><g transform="translate(311.625847, 567.963038)"><g><path d="M 14.121094 -4.519531 C 14.121094 -1.695312 15.816406 0 18.640625 0 L 48.011719 0 C 51.117188 0 52.53125 -1.695312 52.53125 -4.519531 L 52.53125 -75.6875 L 86.417969 -75.6875 C 112.964844 -75.6875 127.085938 -90.089844 127.085938 -116.355469 L 127.085938 -185.265625 C 127.085938 -211.8125 112.964844 -225.933594 86.417969 -225.933594 L 18.640625 -225.933594 C 15.816406 -225.933594 14.121094 -224.238281 14.121094 -221.414062 Z M 52.53125 -112.964844 L 52.53125 -188.652344 L 77.382812 -188.652344 C 85.007812 -188.652344 88.679688 -184.699219 88.679688 -177.355469 L 88.679688 -124.261719 C 88.679688 -117.203125 85.007812 -112.964844 77.382812 -112.964844 Z M 52.53125 -112.964844 "/></g></g></g><g fill="#f57c00" fill-opacity="1"><g transform="translate(452.833568, 567.963038)"><g><path d="M 130.195312 -185.265625 C 130.195312 -211.8125 116.074219 -225.933594 89.527344 -225.933594 L 18.640625 -225.933594 C 15.816406 -225.933594 14.121094 -224.238281 14.121094 -221.414062 L 14.121094 -4.519531 C 14.121094 -1.695312 15.816406 0 18.640625 0 L 48.011719 0 C 50.835938 0 52.53125 -1.695312 52.53125 -4.519531 L 52.53125 -75.6875 L 72.015625 -75.6875 L 90.9375 -3.953125 C 91.503906 -1.410156 92.914062 0 95.738281 0 L 125.109375 0 C 128.214844 0 129.910156 -1.695312 129.0625 -5.082031 L 109.578125 -79.078125 C 123.132812 -85.007812 130.195312 -97.433594 130.195312 -116.355469 Z M 52.53125 -112.964844 L 52.53125 -188.652344 L 80.488281 -188.652344 C 87.832031 -188.652344 91.785156 -184.699219 91.785156 -177.355469 L 91.785156 -124.261719 C 91.785156 -116.921875 87.832031 -112.964844 80.488281 -112.964844 Z M 52.53125 -112.964844 "/></g></g></g><g fill="#f57c00" fill-opacity="1"><g transform="translate(597.147865, 567.963038)"><g><path d="M 14.121094 -40.667969 C 14.121094 -14.121094 28.242188 0 54.789062 0 L 86.417969 0 C 112.964844 0 127.085938 -14.121094 127.085938 -40.667969 L 127.085938 -185.265625 C 127.085938 -211.8125 112.964844 -225.933594 86.417969 -225.933594 L 54.789062 -225.933594 C 28.242188 -225.933594 14.121094 -211.8125 14.121094 -185.265625 Z M 62.980469 -36.429688 C 55.636719 -36.429688 51.683594 -40.101562 51.683594 -47.726562 L 51.683594 -178.203125 C 51.683594 -185.546875 55.636719 -189.5 62.980469 -189.5 L 79.359375 -189.5 C 86.703125 -189.5 90.65625 -185.546875 90.65625 -178.203125 L 90.65625 -47.726562 C 90.65625 -40.101562 86.703125 -36.429688 79.359375 -36.429688 Z M 62.980469 -36.429688 "/></g></g></g><g clip-path="url(#f9379ac241)"><path fill="#000000" d="M 721.222656 138.882812 C 716.117188 127.425781 707.921875 118.996094 698.054688 113.332031 C 689.523438 108.433594 679.730469 105.617188 669.628906 104.746094 L 670.382812 98.78125 C 670.382812 95.371094 669.421875 91.992188 667.847656 88.90625 C 666.34375 85.964844 664.289062 83.285156 662.070312 81.109375 C 659.417969 78.507812 656.460938 76.34375 653.242188 74.769531 C 649.902344 73.140625 646.292969 72.148438 642.453125 71.96875 C 641.519531 71.921875 637.007812 72.746094 634.820312 73.167969 L 629.796875 59.417969 C 626.035156 54.082031 621.257812 49.726562 615.925781 46.171875 C 610.695312 42.679688 604.9375 39.960938 599.121094 37.824219 C 586.984375 33.363281 572.878906 31.699219 559.019531 32.871094 C 545.144531 34.042969 531.53125 38.054688 520.375 44.855469 C 516.429688 47.257812 512.507812 49.761719 508.863281 52.636719 C 506.363281 54.609375 503.996094 56.753906 501.839844 59.152344 C 501.277344 59.78125 499.324219 62.617188 498.070312 64.472656 C 496.179688 63.109375 493.136719 60.957031 492.273438 60.542969 C 488.992188 58.960938 485.417969 57.742188 481.761719 57.089844 C 477.980469 56.410156 474.113281 56.339844 470.378906 57.054688 C 465.4375 58 460.839844 60.183594 456.882812 63.257812 C 453.015625 66.261719 449.761719 70.113281 447.394531 74.460938 L 444.890625 81.785156 C 442.085938 81.089844 438.085938 80.066406 437.328125 80.035156 C 433.695312 79.878906 429.898438 80.476562 426.246094 81.636719 C 422.710938 82.761719 419.320312 84.40625 416.367188 86.363281 C 410.914062 89.984375 406.132812 94.785156 402.378906 100.316406 C 398.660156 105.792969 395.945312 111.988281 394.558594 118.449219 L 394.210938 130.46875 C 392.941406 132.917969 387.570312 135.496094 383.605469 139.285156 C 381.707031 141.097656 380.046875 143.113281 378.925781 145.335938 C 375.222656 152.65625 375.144531 158.117188 376.808594 162.613281 C 379.03125 168.601562 385.003906 172.894531 390.867188 178.042969 L 390.722656 178.277344 L 386.539062 187.417969 C 385.042969 191.738281 384.046875 196.121094 383.539062 200.5625 C 383.03125 204.984375 383.011719 209.46875 383.460938 214.019531 C 385.574219 235.292969 396.542969 250.582031 411.476562 258.972656 C 425.890625 267.070312 444.082031 268.726562 461.71875 262.90625 C 463.003906 267.761719 463.890625 272.679688 464.425781 277.636719 C 465.0625 283.539062 465.203125 289.5 464.910156 295.488281 L 463.453125 307.203125 C 463.074219 309.003906 461.226562 313.003906 461.292969 313.996094 C 461.402344 315.605469 462.242188 316.53125 463.148438 317.070312 C 463.894531 317.519531 465.371094 318.1875 467.414062 316.90625 C 474.082031 312.722656 480.027344 306.757812 484.929688 299.960938 C 489.726562 293.3125 493.523438 285.871094 496.042969 278.589844 L 499.167969 266.308594 L 509.070312 272.007812 C 514.21875 274.09375 520.121094 275.371094 526.039062 275.605469 C 532.0625 275.839844 538.097656 274.988281 543.402344 272.863281 C 548.097656 270.984375 552.738281 268.605469 557.078125 265.761719 C 561.441406 262.902344 565.5 259.566406 569.015625 255.789062 L 574.125 249.40625 C 574.789062 250.386719 575.5625 251.390625 576.167969 251.816406 C 578.109375 253.179688 580.335938 254.128906 582.660156 254.710938 C 584.878906 255.265625 587.1875 255.480469 589.398438 255.425781 C 592.722656 255.339844 595.347656 254.601562 597.597656 253.503906 C 601.964844 251.386719 604.613281 247.550781 609.046875 244.835938 C 611.59375 246.28125 615.910156 248.851562 616.78125 249.164062 C 621.328125 250.761719 625.917969 251.789062 630.5625 252.285156 C 635.1875 252.78125 639.871094 252.753906 644.628906 252.242188 C 653.640625 251.273438 661.917969 248.671875 669.140625 244.3125 C 676.347656 239.964844 682.519531 233.871094 687.308594 225.859375 L 693.054688 210.761719 C 695.375 208.277344 701.011719 207.800781 705.078125 205.898438 C 706.5625 205.203125 707.898438 204.386719 708.996094 203.410156 C 717.707031 195.707031 723.128906 184.695312 725.148438 172.96875 C 727.136719 161.429688 725.824219 149.214844 721.222656 138.882812 Z M 717.9375 171.726562 C 716.199219 181.800781 711.628906 191.308594 704.144531 197.929688 C 701.15625 200.578125 695.582031 201.253906 691.847656 202.957031 C 690.15625 203.722656 688.738281 204.65625 687.703125 205.765625 C 686.792969 206.742188 685.976562 208.113281 685.285156 209.757812 C 683.699219 213.523438 682.789062 219.152344 681.027344 222.101562 C 676.890625 229.019531 671.582031 234.292969 665.359375 238.046875 C 659.023438 241.871094 651.753906 244.117188 643.847656 244.964844 C 639.617188 245.417969 635.453125 245.449219 631.339844 245.007812 C 627.253906 244.570312 623.214844 243.667969 619.214844 242.257812 C 618.347656 241.953125 613.65625 239.003906 611.675781 237.910156 C 609.425781 236.667969 607.566406 237.296875 607.347656 237.40625 C 602.570312 239.789062 599.785156 243.46875 595.964844 246.015625 C 594.199219 247.199219 592.125 248.03125 589.210938 248.109375 C 587.644531 248.148438 586.007812 248 584.433594 247.609375 C 582.984375 247.246094 581.585938 246.675781 580.375 245.828125 C 579.175781 244.984375 578.488281 242.414062 577.492188 241.5625 C 575.816406 240.132812 573.996094 239.816406 571.914062 241.117188 C 570.722656 241.859375 569.554688 242.992188 568.449219 244.347656 C 566.746094 246.441406 565.183594 249.164062 563.65625 250.804688 C 560.539062 254.15625 556.9375 257.105469 553.066406 259.640625 C 549.136719 262.214844 544.929688 264.367188 540.679688 266.070312 C 536.296875 267.824219 531.304688 268.488281 526.324219 268.289062 C 521.265625 268.089844 516.21875 267.007812 511.8125 265.226562 L 503.515625 260.4375 C 502.484375 259.648438 501.277344 257.308594 500.355469 256.609375 C 499.316406 255.820312 498.269531 255.609375 497.375 255.667969 C 496.183594 255.753906 494.875 256.238281 493.949219 257.980469 C 493.035156 259.703125 492.351562 261.777344 491.808594 264.007812 C 490.824219 268.058594 490.332031 272.714844 489.125 276.195312 C 486.828125 282.835938 483.363281 289.617188 478.992188 295.683594 C 476.621094 298.972656 473.980469 302.050781 471.105469 304.769531 L 472.21875 295.847656 C 472.53125 289.472656 472.382812 283.132812 471.703125 276.855469 C 471.023438 270.539062 469.804688 264.289062 467.988281 258.140625 C 467.625 256.902344 466.660156 256.003906 465.507812 255.667969 C 464.535156 254.875 463.175781 254.609375 461.917969 255.082031 C 445.578125 261.222656 428.46875 260.125 415.058594 252.59375 C 402.035156 245.273438 392.589844 231.855469 390.746094 213.296875 C 390.347656 209.273438 390.363281 205.304688 390.8125 201.390625 C 391.257812 197.480469 392.136719 193.621094 393.453125 189.8125 L 397.085938 181.898438 C 397.214844 181.667969 398.191406 180.128906 398.566406 179.488281 C 400.066406 176.941406 398.167969 174.777344 398.0625 174.675781 C 392.460938 169.445312 385.824219 165.867188 383.671875 160.066406 C 382.5625 157.078125 382.996094 153.5 385.457031 148.632812 C 386.214844 147.132812 387.378906 145.804688 388.660156 144.578125 C 393.304688 140.140625 399.226562 136.699219 400.710938 133.828125 C 401.207031 132.871094 401.546875 131.503906 401.664062 129.882812 C 401.890625 126.792969 401.222656 122.28125 401.714844 119.988281 C 402.90625 114.441406 405.242188 109.128906 408.433594 104.425781 C 411.652344 99.6875 415.742188 95.5625 420.414062 92.460938 C 422.820312 90.867188 425.582031 89.527344 428.464844 88.609375 C 431.28125 87.714844 434.210938 87.226562 437.011719 87.347656 C 437.820312 87.382812 442.875 88.847656 444.964844 89.34375 C 447.398438 89.917969 448.984375 88.882812 449.128906 88.761719 C 449.839844 88.167969 450.617188 87.078125 451.242188 85.605469 C 452.230469 83.269531 453.011719 79.457031 453.824219 77.957031 C 455.707031 74.5 458.292969 71.429688 461.371094 69.042969 C 464.417969 66.675781 467.949219 64.972656 471.757812 64.242188 C 474.617188 63.695312 477.578125 63.777344 480.472656 64.292969 C 483.472656 64.832031 486.402344 65.835938 489.097656 67.136719 C 490.355469 67.742188 494.335938 71.117188 496.332031 72.128906 C 497.65625 72.800781 498.792969 72.863281 499.457031 72.765625 C 500.105469 72.667969 501.253906 72.25 502.351562 71.050781 C 503.820312 69.453125 506.421875 65.003906 507.28125 64.046875 C 509.15625 61.960938 511.222656 60.097656 513.398438 58.378906 C 516.808594 55.691406 520.492188 53.355469 524.183594 51.105469 C 534.414062 44.871094 546.914062 41.238281 559.636719 40.164062 C 572.410156 39.082031 585.414062 40.582031 596.597656 44.695312 C 601.875 46.636719 607.113281 49.089844 611.863281 52.261719 C 616.449219 55.316406 620.578125 59.046875 623.816406 63.632812 C 625.382812 65.859375 627.1875 73.917969 628.785156 77.210938 C 629.472656 78.628906 630.289062 79.535156 630.917969 79.976562 C 631.378906 80.300781 632.535156 80.835938 634.269531 80.679688 C 636.289062 80.5 641.003906 79.222656 642.105469 79.277344 C 644.925781 79.410156 647.578125 80.152344 650.03125 81.347656 C 652.550781 82.578125 654.863281 84.292969 656.945312 86.332031 C 658.625 87.980469 660.191406 90.003906 661.328125 92.230469 C 662.371094 94.285156 663.0625 96.511719 663.0625 98.777344 L 662.429688 104.046875 C 662.214844 104.785156 661.253906 106 661.066406 106.667969 C 660.753906 107.777344 660.914062 108.707031 661.207031 109.398438 C 661.703125 110.585938 662.644531 111.734375 664.78125 111.792969 C 675.285156 112.089844 685.601562 114.625 694.410156 119.679688 C 702.976562 124.597656 710.105469 131.914062 714.535156 141.863281 C 718.566406 150.910156 719.675781 161.617188 717.9375 171.726562 Z M 717.9375 171.726562 " fill-opacity="1" fill-rule="evenodd"/></g><path fill="#000000" d="M 404.570312 142.820312 C 404.914062 142.777344 404.933594 142.457031 404.796875 142.015625 C 404.710938 142.023438 404.679688 142.28125 404.65625 142.371094 C 404.628906 142.492188 404.390625 142.839844 404.570312 142.820312 Z M 404.570312 142.820312 " fill-opacity="1" fill-rule="evenodd"/><path fill="#000000" d="M 403.515625 128.410156 C 403.246094 130.09375 403.058594 131.839844 403.019531 133.59375 C 402.980469 135.371094 403.09375 137.148438 403.339844 138.867188 C 403.445312 139.472656 404.5 141.042969 404.796875 142.015625 C 404.8125 142.011719 404.828125 142.015625 404.84375 142.027344 C 406.269531 143.226562 400.09375 145.121094 399.054688 145.875 C 394.859375 149.105469 391.1875 153.75 390.890625 158.433594 C 390.699219 161.464844 391.808594 164.472656 395.179688 166.957031 C 392.671875 164.160156 392.128906 161.375 392.800781 158.738281 C 393.773438 154.902344 397.445312 151.585938 401.382812 149.488281 C 402.492188 148.863281 405.828125 147.636719 407.660156 146.363281 C 408.8125 145.5625 409.445312 144.578125 409.707031 143.792969 C 409.875 143.289062 409.898438 142.523438 409.757812 141.621094 C 409.578125 140.496094 408.949219 138.863281 408.867188 138.097656 C 408.675781 136.660156 408.621094 135.175781 408.640625 133.695312 C 408.660156 132.183594 408.757812 130.675781 408.953125 129.21875 C 409.777344 121.25 412.914062 113.703125 417.769531 107.609375 C 422.796875 101.296875 429.566406 96.519531 437.863281 94.597656 C 429.007812 95.453125 421.273438 99.460938 415.328125 105.4375 C 409.25 111.550781 405.210938 119.710938 403.515625 128.410156 Z M 403.515625 128.410156 " fill-opacity="1" fill-rule="evenodd"/><path fill="#000000" d="M 417.335938 239.375 C 415.628906 237.871094 414.0625 236.210938 412.550781 234.472656 C 411.054688 232.753906 409.628906 230.964844 408.339844 229.058594 C 405.730469 225.210938 403.617188 221.019531 402.246094 216.574219 C 400.105469 209.625 399.578125 202.296875 401.523438 195.308594 C 398.28125 202.183594 397.417969 209.894531 398.613281 217.417969 C 399.425781 222.507812 401.191406 227.460938 403.765625 231.921875 C 405.074219 234.1875 406.605469 236.328125 408.363281 238.230469 C 410.148438 240.164062 412.15625 241.871094 414.328125 243.304688 C 417.605469 245.464844 421.175781 247.078125 425 247.9375 C 428.644531 248.757812 432.386719 248.875 436.292969 248.289062 C 432.542969 247.867188 429.171875 246.738281 425.945312 245.199219 C 422.78125 243.695312 419.964844 241.695312 417.335938 239.375 Z M 417.335938 239.375 " fill-opacity="1" fill-rule="evenodd"/><path fill="#000000" d="M 480.273438 266.515625 C 479.59375 263.746094 478.632812 261.09375 477.371094 258.546875 C 475.515625 254.792969 473.125 251.464844 470.144531 248.355469 C 471.980469 252.058594 473.027344 255.824219 473.847656 259.761719 C 474.402344 262.4375 474.671875 265.113281 474.996094 267.835938 C 475.210938 269.625 475.40625 271.417969 475.671875 273.207031 C 475.941406 275.046875 476.3125 276.820312 476.636719 278.652344 C 477.148438 281.554688 477.730469 284.230469 478.066406 287.144531 C 478.785156 285.121094 479.445312 283.242188 479.953125 281.144531 C 480.457031 279.070312 480.785156 277.039062 480.957031 274.910156 C 481.074219 273.503906 481.089844 272.097656 480.980469 270.691406 C 480.871094 269.28125 480.609375 267.882812 480.273438 266.515625 Z M 480.273438 266.515625 " fill-opacity="1" fill-rule="evenodd"/><path fill="#000000" d="M 643.050781 64.566406 L 642.914062 64.285156 C 642.84375 64.171875 642.855469 64.179688 642.761719 64.085938 L 642.742188 64.074219 L 643.015625 64.5625 Z M 643.050781 64.566406 " fill-opacity="1" fill-rule="evenodd"/><path fill="#000000" d="M 631.945312 49.203125 C 634.867188 54.605469 636.273438 60.511719 638.910156 66.925781 C 639.148438 67.480469 639.792969 68.121094 640.804688 68.601562 C 641.917969 69.136719 643.886719 69.535156 644.507812 69.722656 L 655.179688 73.53125 C 659.859375 75.191406 663.953125 77.570312 667.503906 80.589844 C 671.203125 83.738281 674.320312 87.429688 676.515625 92.199219 C 675.4375 86.761719 673.296875 82.070312 670.0625 78.085938 C 666.765625 74.019531 662.359375 70.933594 657.394531 68.390625 C 655.503906 67.585938 653.609375 66.835938 651.667969 66.222656 C 649.726562 65.605469 647.746094 65.121094 645.734375 64.699219 C 645.367188 64.628906 643.832031 64.734375 643.050781 64.566406 C 643.09375 64.671875 643.136719 64.769531 643.167969 64.824219 L 643.015625 64.5625 C 642.683594 64.488281 642.496094 64.355469 642.617188 64.140625 C 642.65625 64.070312 642.695312 64.054688 642.742188 64.074219 C 639.457031 58.292969 637.3125 52.800781 633.726562 48.0625 C 631.304688 44.859375 628.292969 42.035156 623.910156 39.679688 C 627.707031 42.621094 630.101562 45.796875 631.945312 49.203125 Z M 631.945312 49.203125 " fill-opacity="1" fill-rule="evenodd"/><g clip-path="url(#e6b7c80037)"><path fill="#000000" d="M 737.015625 163.164062 C 736.867188 159.320312 736.296875 155.464844 735.398438 151.683594 C 733.617188 144.195312 730.546875 136.96875 726.414062 130.546875 C 720.132812 120.78125 711.410156 112.925781 700.980469 108.664062 C 710.570312 113.890625 718.003906 122.429688 723.191406 132.417969 C 726.492188 138.773438 728.785156 145.714844 730.121094 152.804688 C 730.785156 156.335938 731.1875 159.894531 731.398438 163.441406 C 731.613281 167.035156 731.628906 170.605469 731.339844 174.132812 C 730.902344 179.582031 729.832031 184.867188 727.917969 189.867188 C 725.957031 194.992188 723.28125 199.777344 719.535156 204.019531 C 724.089844 200.367188 727.757812 196.03125 730.535156 191.097656 C 733.363281 186.085938 735.242188 180.546875 736.25 174.757812 C 736.910156 170.96875 737.171875 167.074219 737.015625 163.164062 Z M 737.015625 163.164062 " fill-opacity="1" fill-rule="evenodd"/></g><g fill="#000000" fill-opacity="1"><g transform="translate(426.71922, 154.703077)"><g><path d="M 9.359375 -11.023438 L 9.359375 -12.824219 C 9.359375 -15.75 10.125 -17.371094 12.328125 -17.371094 C 13.949219 -17.371094 14.941406 -16.46875 14.941406 -14.398438 L 22.726562 -14.398438 L 22.726562 -15.480469 C 22.726562 -21.148438 19.078125 -24.480469 12.148438 -24.480469 C 4.453125 -24.480469 1.125 -19.800781 1.125 -12.824219 L 1.125 -11.023438 C 1.125 -4.050781 4.453125 0.628906 12.148438 0.628906 C 19.078125 0.628906 22.726562 -2.699219 22.726562 -7.921875 L 22.726562 -9 L 14.941406 -9 C 14.941406 -7.425781 13.949219 -6.480469 12.328125 -6.480469 C 10.125 -6.480469 9.359375 -8.101562 9.359375 -11.023438 Z M 9.359375 -11.023438 "/></g></g></g><g fill="#000000" fill-opacity="1"><g transform="translate(450.479202, 154.703077)"><g><path d="M 12.601562 0.628906 C 20.476562 0.628906 24.074219 -4.050781 24.074219 -11.023438 L 24.074219 -12.824219 C 24.074219 -19.800781 20.476562 -24.480469 12.601562 -24.480469 C 4.726562 -24.480469 1.125 -19.800781 1.125 -12.824219 L 1.125 -11.023438 C 1.125 -4.050781 4.726562 0.628906 12.601562 0.628906 Z M 12.601562 -6.480469 C 10.351562 -6.480469 9.359375 -8.101562 9.359375 -11.023438 L 9.359375 -12.824219 C 9.359375 -15.75 10.351562 -17.371094 12.601562 -17.371094 C 14.851562 -17.371094 15.839844 -15.75 15.839844 -12.824219 L 15.839844 -11.023438 C 15.839844 -8.101562 14.851562 -6.480469 12.601562 -6.480469 Z M 12.601562 -6.480469 "/></g></g></g><g fill="#000000" fill-opacity="1"><g transform="translate(475.679183, 154.703077)"><g><path d="M 24.796875 0 L 24.796875 -15.976562 C 24.796875 -20.25 22.996094 -24.480469 17.371094 -24.480469 C 13.816406 -24.480469 11.386719 -22.996094 9.808594 -20.878906 L 9.269531 -23.851562 L 1.800781 -23.851562 L 2.25 -17.101562 L 2.25 0 L 10.53125 0 L 10.53125 -15.523438 C 10.980469 -16.199219 12.195312 -17.371094 13.996094 -17.371094 C 16.246094 -17.371094 16.515625 -15.75 16.515625 -14.625 L 16.515625 0 Z M 24.796875 0 "/></g></g></g><g fill="#000000" fill-opacity="1"><g transform="translate(502.454156, 154.703077)"><g><path d="M 10.304688 -24.480469 C 3.78125 -24.480469 1.53125 -19.800781 1.53125 -12.824219 L 1.53125 -11.023438 C 1.53125 -4.050781 3.78125 0.628906 10.304688 0.628906 C 13.546875 0.628906 15.613281 -0.765625 16.964844 -2.746094 L 17.503906 0 L 24.976562 0 L 24.523438 -6.75 L 24.523438 -36 L 16.246094 -36 L 16.246094 -22.050781 C 14.894531 -23.488281 12.960938 -24.480469 10.304688 -24.480469 Z M 16.246094 -8.324219 C 15.796875 -7.648438 14.578125 -6.480469 12.78125 -6.480469 C 10.53125 -6.480469 9.765625 -8.101562 9.765625 -11.023438 L 9.765625 -12.824219 C 9.765625 -15.75 10.53125 -17.371094 12.78125 -17.371094 C 14.578125 -17.371094 15.796875 -16.199219 16.246094 -15.523438 Z M 16.246094 -8.324219 "/></g></g></g><g fill="#000000" fill-opacity="1"><g transform="translate(529.22913, 154.703077)"><g><path d="M 2.160156 0 L 10.441406 0 L 10.441406 -23.851562 L 2.160156 -23.851562 Z M 10.574219 -35.101562 L 2.023438 -35.101562 L 2.023438 -26.550781 L 10.574219 -26.550781 Z M 10.574219 -35.101562 "/></g></g></g><g fill="#000000" fill-opacity="1"><g transform="translate(541.82912, 154.703077)"><g><path d="M 12.554688 -23.851562 L 12.554688 -30.601562 L 4.273438 -30.601562 L 4.273438 -23.851562 L 0.675781 -23.851562 L 0.675781 -16.648438 L 4.273438 -16.648438 L 4.273438 -8.773438 C 4.273438 -1.800781 8.101562 0.628906 13.816406 0.628906 C 16.066406 0.628906 17.414062 0.226562 17.820312 0 L 17.820312 -6.75 C 17.59375 -6.660156 16.46875 -6.480469 15.75 -6.480469 C 13.859375 -6.480469 12.554688 -6.976562 12.554688 -9.675781 L 12.554688 -16.648438 L 18.269531 -16.648438 L 18.269531 -23.851562 Z M 12.554688 -23.851562 "/></g></g></g><g fill="#000000" fill-opacity="1"><g transform="translate(561.629104, 154.703077)"><g><path d="M 2.160156 0 L 10.441406 0 L 10.441406 -23.851562 L 2.160156 -23.851562 Z M 10.574219 -35.101562 L 2.023438 -35.101562 L 2.023438 -26.550781 L 10.574219 -26.550781 Z M 10.574219 -35.101562 "/></g></g></g><g fill="#000000" fill-opacity="1"><g transform="translate(574.229094, 154.703077)"><g><path d="M 12.601562 0.628906 C 20.476562 0.628906 24.074219 -4.050781 24.074219 -11.023438 L 24.074219 -12.824219 C 24.074219 -19.800781 20.476562 -24.480469 12.601562 -24.480469 C 4.726562 -24.480469 1.125 -19.800781 1.125 -12.824219 L 1.125 -11.023438 C 1.125 -4.050781 4.726562 0.628906 12.601562 0.628906 Z M 12.601562 -6.480469 C 10.351562 -6.480469 9.359375 -8.101562 9.359375 -11.023438 L 9.359375 -12.824219 C 9.359375 -15.75 10.351562 -17.371094 12.601562 -17.371094 C 14.851562 -17.371094 15.839844 -15.75 15.839844 -12.824219 L 15.839844 -11.023438 C 15.839844 -8.101562 14.851562 -6.480469 12.601562 -6.480469 Z M 12.601562 -6.480469 "/></g></g></g><g fill="#000000" fill-opacity="1"><g transform="translate(599.429075, 154.703077)"><g><path d="M 24.796875 0 L 24.796875 -15.976562 C 24.796875 -20.25 22.996094 -24.480469 17.371094 -24.480469 C 13.816406 -24.480469 11.386719 -22.996094 9.808594 -20.878906 L 9.269531 -23.851562 L 1.800781 -23.851562 L 2.25 -17.101562 L 2.25 0 L 10.53125 0 L 10.53125 -15.523438 C 10.980469 -16.199219 12.195312 -17.371094 13.996094 -17.371094 C 16.246094 -17.371094 16.515625 -15.75 16.515625 -14.625 L 16.515625 0 Z M 24.796875 0 "/></g></g></g><g fill="#000000" fill-opacity="1"><g transform="translate(626.20406, 154.703077)"><g><path d="M 16.199219 0 L 23.671875 0 L 23.21875 -6.75 L 23.21875 -15.300781 C 23.21875 -21.195312 20.746094 -24.480469 12.601562 -24.480469 C 4.5 -24.480469 2.023438 -20.699219 2.023438 -16.378906 L 2.023438 -15.976562 L 9.808594 -15.976562 C 9.808594 -17.101562 10.351562 -18.269531 12.375 -18.269531 C 14.175781 -18.269531 14.851562 -17.460938 14.941406 -15.75 L 9.898438 -14.941406 C 4.589844 -14.128906 1.125 -12.375 1.125 -7.199219 L 1.125 -6.75 C 1.125 -2.925781 2.925781 0.628906 8.550781 0.628906 C 11.699219 0.628906 14.085938 -0.496094 15.75 -2.25 Z M 11.699219 -6.03125 C 9.988281 -6.03125 9.359375 -7.019531 9.359375 -7.964844 L 9.359375 -8.234375 C 9.359375 -9.316406 9.765625 -10.171875 11.699219 -10.484375 L 14.941406 -10.980469 L 14.941406 -7.335938 C 14.265625 -6.703125 13.09375 -6.03125 11.699219 -6.03125 Z M 11.699219 -6.03125 "/></g></g></g><g fill="#000000" fill-opacity="1"><g transform="translate(651.404041, 154.703077)"><g><path d="M 2.160156 0 L 10.441406 0 L 10.441406 -36 L 2.160156 -36 Z M 2.160156 0 "/></g></g></g><g fill="#000000" fill-opacity="1"><g transform="translate(495.121565, 217.703075)"><g><path d="M 2.160156 0 L 10.441406 0 L 10.441406 -36 L 2.160156 -36 Z M 2.160156 0 "/></g></g></g><g fill="#000000" fill-opacity="1"><g transform="translate(507.721556, 217.703075)"><g><path d="M 12.601562 0.628906 C 20.476562 0.628906 24.074219 -4.050781 24.074219 -11.023438 L 24.074219 -12.824219 C 24.074219 -19.800781 20.476562 -24.480469 12.601562 -24.480469 C 4.726562 -24.480469 1.125 -19.800781 1.125 -12.824219 L 1.125 -11.023438 C 1.125 -4.050781 4.726562 0.628906 12.601562 0.628906 Z M 12.601562 -6.480469 C 10.351562 -6.480469 9.359375 -8.101562 9.359375 -11.023438 L 9.359375 -12.824219 C 9.359375 -15.75 10.351562 -17.371094 12.601562 -17.371094 C 14.851562 -17.371094 15.839844 -15.75 15.839844 -12.824219 L 15.839844 -11.023438 C 15.839844 -8.101562 14.851562 -6.480469 12.601562 -6.480469 Z M 12.601562 -6.480469 "/></g></g></g><g fill="#000000" fill-opacity="1"><g transform="translate(532.921536, 217.703075)"><g><path d="M 15.839844 -0.675781 C 15.839844 2.25 14.625 2.96875 12.421875 2.96875 C 9.898438 2.96875 9.359375 1.574219 9.359375 0 L 1.574219 0 L 1.574219 1.078125 C 1.574219 5.851562 4.320312 9.628906 12.601562 9.628906 C 20.296875 9.628906 24.121094 6.300781 24.121094 -0.675781 L 24.121094 -17.101562 L 24.570312 -23.851562 L 17.101562 -23.851562 L 16.605469 -21.238281 C 15.253906 -23.128906 13.140625 -24.480469 9.898438 -24.480469 C 3.601562 -24.480469 1.125 -19.800781 1.125 -13.273438 L 1.125 -11.925781 C 1.125 -4.949219 3.601562 -0.71875 9.898438 -0.71875 C 12.554688 -0.71875 14.488281 -1.574219 15.839844 -2.96875 Z M 15.839844 -9.675781 C 15.390625 -9 14.175781 -7.828125 12.375 -7.828125 C 10.351562 -7.828125 9.359375 -9 9.359375 -11.925781 L 9.359375 -13.273438 C 9.359375 -15.75 10.351562 -17.371094 12.375 -17.371094 C 14.175781 -17.371094 15.390625 -16.199219 15.839844 -15.523438 Z M 15.839844 -9.675781 "/></g></g></g><g fill="#000000" fill-opacity="1"><g transform="translate(559.246505, 217.703075)"><g><path d="M 2.160156 0 L 10.441406 0 L 10.441406 -23.851562 L 2.160156 -23.851562 Z M 10.574219 -35.101562 L 2.023438 -35.101562 L 2.023438 -26.550781 L 10.574219 -26.550781 Z M 10.574219 -35.101562 "/></g></g></g><g fill="#000000" fill-opacity="1"><g transform="translate(571.846496, 217.703075)"><g><path d="M 9.359375 -11.023438 L 9.359375 -12.824219 C 9.359375 -15.75 10.125 -17.371094 12.328125 -17.371094 C 13.949219 -17.371094 14.941406 -16.46875 14.941406 -14.398438 L 22.726562 -14.398438 L 22.726562 -15.480469 C 22.726562 -21.148438 19.078125 -24.480469 12.148438 -24.480469 C 4.453125 -24.480469 1.125 -19.800781 1.125 -12.824219 L 1.125 -11.023438 C 1.125 -4.050781 4.453125 0.628906 12.148438 0.628906 C 19.078125 0.628906 22.726562 -2.699219 22.726562 -7.921875 L 22.726562 -9 L 14.941406 -9 C 14.941406 -7.425781 13.949219 -6.480469 12.328125 -6.480469 C 10.125 -6.480469 9.359375 -8.101562 9.359375 -11.023438 Z M 9.359375 -11.023438 "/></g></g></g><path fill="#ffffff" d="M 30.707031 412.515625 C 30.707031 427.90625 43.175781 440.390625 58.550781 440.390625 C 59.863281 440.390625 61.160156 440.304688 62.421875 440.121094 C 69.222656 459.742188 87.855469 473.832031 109.785156 473.832031 C 122.648438 473.832031 134.386719 468.976562 143.265625 460.992188 C 147.039062 463.027344 151.363281 464.167969 155.957031 464.167969 C 164.179688 464.167969 171.53125 460.488281 176.480469 454.675781 C 184.027344 460.625 193.542969 464.167969 203.898438 464.167969 C 213.710938 464.167969 222.773438 460.980469 230.125 455.570312 C 236.007812 463.507812 245.425781 468.632812 256.046875 468.632812 C 273.886719 468.632812 288.34375 454.148438 288.34375 436.292969 C 288.34375 426.289062 283.796875 417.335938 276.667969 411.414062 C 288.390625 401.050781 295.777344 385.90625 295.777344 369.042969 C 295.777344 345.402344 281.261719 325.15625 260.667969 316.742188 C 262.714844 311.410156 263.839844 305.609375 263.839844 299.550781 C 263.839844 273.074219 242.402344 251.613281 215.953125 251.613281 C 200.210938 251.613281 186.230469 259.21875 177.507812 270.964844 C 175.046875 269.984375 172.363281 269.445312 169.558594 269.445312 C 164.351562 269.445312 159.585938 271.296875 155.875 274.363281 C 150.59375 261.03125 137.59375 251.613281 122.402344 251.613281 C 102.839844 251.613281 86.925781 267.238281 86.421875 286.699219 C 72.703125 290.523438 61.640625 300.738281 56.628906 313.933594 C 54.09375 313.039062 51.375 312.5625 48.53125 312.5625 C 34.992188 312.5625 24.027344 323.535156 24.027344 337.085938 C 24.027344 346.113281 28.90625 353.996094 36.15625 358.253906 C 35.03125 361.515625 34.417969 365.023438 34.417969 368.664062 C 34.417969 376.769531 37.433594 384.175781 42.394531 389.832031 C 35.3125 394.871094 30.707031 403.160156 30.707031 412.515625 Z M 30.707031 412.515625 " fill-opacity="1" fill-rule="nonzero"/><g clip-path="url(#d1b6750fe5)"><path fill="#000000" d="M 109.785156 476.285156 C 88.050781 476.285156 68.609375 462.894531 60.78125 442.769531 C 60.046875 442.820312 59.3125 442.84375 58.550781 442.84375 C 41.84375 442.84375 28.253906 429.242188 28.253906 412.515625 C 28.253906 403.601562 32.199219 395.152344 38.914062 389.4375 C 34.417969 383.464844 31.96875 376.179688 31.96875 368.664062 C 31.96875 365.476562 32.398438 362.335938 33.253906 359.308594 C 26.015625 354.304688 21.578125 345.964844 21.578125 337.085938 C 21.578125 322.210938 33.671875 310.109375 48.53125 310.109375 C 50.808594 310.109375 53.039062 310.390625 55.207031 310.941406 C 60.621094 298.542969 71.195312 288.96875 84.058594 284.847656 C 85.480469 264.699219 101.992188 249.160156 122.402344 249.160156 C 137.226562 249.160156 150.445312 257.488281 156.890625 270.621094 C 160.675781 268.265625 165.0625 266.992188 169.558594 266.992188 C 171.984375 266.992188 174.359375 267.347656 176.652344 268.058594 C 186.15625 256.199219 200.710938 249.160156 215.953125 249.160156 C 243.710938 249.160156 266.289062 271.761719 266.289062 299.550781 C 266.289062 304.984375 265.433594 310.304688 263.742188 315.40625 C 284.765625 324.972656 298.226562 345.769531 298.226562 369.042969 C 298.226562 385.023438 291.722656 400.304688 280.304688 411.386719 C 287.007812 417.914062 290.792969 426.851562 290.792969 436.292969 C 290.792969 455.472656 275.207031 471.085938 256.046875 471.085938 C 245.90625 471.085938 236.203125 466.570312 229.648438 458.894531 C 222.003906 463.960938 213.144531 466.621094 203.898438 466.621094 C 194.046875 466.621094 184.722656 463.640625 176.785156 457.964844 C 171.285156 463.492188 163.8125 466.621094 155.957031 466.621094 C 151.683594 466.621094 147.457031 465.6875 143.632812 463.921875 C 134.164062 471.90625 122.207031 476.285156 109.785156 476.285156 Z M 62.421875 437.667969 C 63.453125 437.667969 64.394531 438.316406 64.738281 439.3125 C 71.378906 458.492188 89.484375 471.378906 109.785156 471.378906 C 121.558594 471.378906 132.867188 467.039062 141.625 459.164062 C 142.398438 458.476562 143.511719 458.34375 144.429688 458.832031 C 147.921875 460.722656 151.917969 461.714844 155.957031 461.714844 C 163.148438 461.714844 169.949219 458.5625 174.617188 453.082031 C 175.472656 452.078125 176.96875 451.929688 178 452.75 C 185.445312 458.613281 194.402344 461.714844 203.898438 461.714844 C 212.886719 461.714844 221.453125 458.90625 228.679688 453.597656 C 229.769531 452.789062 231.289062 453.035156 232.097656 454.113281 C 237.78125 461.777344 246.515625 466.179688 256.046875 466.179688 C 272.5 466.179688 285.890625 452.777344 285.890625 436.292969 C 285.890625 427.378906 281.960938 418.992188 275.097656 413.300781 C 274.546875 412.847656 274.230469 412.171875 274.214844 411.449219 C 274.203125 410.738281 274.511719 410.050781 275.050781 409.574219 C 286.664062 399.296875 293.328125 384.53125 293.328125 369.042969 C 293.328125 346.984375 280.144531 327.351562 259.734375 319.011719 C 258.5 318.507812 257.898438 317.109375 258.375 315.859375 C 260.371094 310.648438 261.390625 305.167969 261.390625 299.550781 C 261.390625 274.472656 241.003906 254.066406 215.953125 254.066406 C 201.640625 254.066406 188.007812 260.933594 179.480469 272.425781 C 178.820312 273.320312 177.644531 273.652344 176.601562 273.246094 C 174.359375 272.351562 171.984375 271.898438 169.558594 271.898438 C 165.148438 271.898438 160.835938 273.441406 157.429688 276.25 C 156.828125 276.753906 156.019531 276.925781 155.261719 276.730469 C 154.5 276.53125 153.875 275.980469 153.59375 275.257812 C 148.5 262.394531 136.246094 254.066406 122.402344 254.066406 C 104.078125 254.066406 89.351562 268.425781 88.875 286.761719 C 88.847656 287.839844 88.113281 288.769531 87.085938 289.066406 C 74.207031 292.660156 63.683594 302.285156 58.917969 314.804688 C 58.441406 316.054688 57.070312 316.695312 55.820312 316.253906 C 53.503906 315.429688 51.054688 315.015625 48.53125 315.015625 C 36.367188 315.015625 26.480469 324.910156 26.480469 337.085938 C 26.480469 344.886719 30.65625 352.183594 37.394531 356.132812 C 38.398438 356.71875 38.851562 357.945312 38.472656 359.050781 C 37.40625 362.128906 36.867188 365.367188 36.867188 368.664062 C 36.867188 375.863281 39.488281 382.804688 44.230469 388.210938 C 44.683594 388.738281 44.90625 389.425781 44.820312 390.113281 C 44.734375 390.800781 44.367188 391.425781 43.800781 391.828125 C 37.125 396.574219 33.144531 404.3125 33.144531 412.515625 C 33.144531 426.535156 44.539062 437.9375 58.539062 437.9375 C 59.765625 437.9375 60.953125 437.851562 62.054688 437.691406 C 62.191406 437.679688 62.3125 437.667969 62.421875 437.667969 Z M 62.421875 437.667969 " fill-opacity="1" fill-rule="nonzero"/></g><path fill="#ffffff" d="M 246.492188 489.808594 C 246.492188 490.484375 246.460938 491.15625 246.394531 491.828125 C 246.328125 492.5 246.230469 493.164062 246.097656 493.828125 C 245.964844 494.488281 245.800781 495.140625 245.605469 495.785156 C 245.410156 496.433594 245.183594 497.066406 244.925781 497.6875 C 244.667969 498.3125 244.382812 498.921875 244.0625 499.515625 C 243.746094 500.109375 243.402344 500.6875 243.027344 501.25 C 242.652344 501.808594 242.25 502.351562 241.824219 502.871094 C 241.394531 503.394531 240.945312 503.890625 240.46875 504.367188 C 239.992188 504.847656 239.492188 505.296875 238.972656 505.726562 C 238.453125 506.152344 237.910156 506.554688 237.351562 506.929688 C 236.792969 507.304688 236.214844 507.652344 235.621094 507.96875 C 235.027344 508.285156 234.417969 508.574219 233.796875 508.832031 C 233.171875 509.089844 232.539062 509.316406 231.894531 509.511719 C 231.25 509.707031 230.597656 509.871094 229.9375 510.003906 C 229.277344 510.136719 228.609375 510.234375 227.941406 510.300781 C 227.269531 510.367188 226.597656 510.398438 225.921875 510.398438 C 225.25 510.398438 224.578125 510.367188 223.90625 510.300781 C 223.238281 510.234375 222.570312 510.136719 221.910156 510.003906 C 221.25 509.871094 220.597656 509.707031 219.953125 509.511719 C 219.308594 509.316406 218.675781 509.089844 218.050781 508.832031 C 217.429688 508.574219 216.820312 508.285156 216.226562 507.96875 C 215.632812 507.652344 215.054688 507.304688 214.496094 506.929688 C 213.9375 506.554688 213.394531 506.152344 212.875 505.726562 C 212.355469 505.296875 211.855469 504.847656 211.378906 504.367188 C 210.902344 503.890625 210.449219 503.394531 210.023438 502.871094 C 209.597656 502.351562 209.195312 501.808594 208.820312 501.25 C 208.445312 500.6875 208.101562 500.109375 207.78125 499.515625 C 207.464844 498.921875 207.179688 498.3125 206.921875 497.6875 C 206.664062 497.066406 206.4375 496.433594 206.238281 495.785156 C 206.042969 495.140625 205.882812 494.488281 205.75 493.828125 C 205.617188 493.164062 205.519531 492.5 205.453125 491.828125 C 205.386719 491.15625 205.355469 490.484375 205.355469 489.808594 C 205.355469 489.136719 205.386719 488.464844 205.453125 487.792969 C 205.519531 487.121094 205.617188 486.453125 205.75 485.792969 C 205.882812 485.132812 206.042969 484.480469 206.238281 483.832031 C 206.4375 483.1875 206.664062 482.554688 206.921875 481.929688 C 207.179688 481.308594 207.464844 480.699219 207.78125 480.105469 C 208.101562 479.507812 208.445312 478.933594 208.820312 478.371094 C 209.195312 477.808594 209.597656 477.269531 210.023438 476.75 C 210.449219 476.226562 210.902344 475.726562 211.378906 475.25 C 211.855469 474.773438 212.355469 474.320312 212.875 473.894531 C 213.394531 473.464844 213.9375 473.066406 214.496094 472.691406 C 215.054688 472.316406 215.632812 471.96875 216.226562 471.652344 C 216.820312 471.332031 217.429688 471.046875 218.050781 470.789062 C 218.675781 470.53125 219.308594 470.304688 219.953125 470.105469 C 220.597656 469.910156 221.25 469.746094 221.910156 469.617188 C 222.570312 469.484375 223.238281 469.386719 223.90625 469.320312 C 224.578125 469.253906 225.25 469.21875 225.921875 469.21875 C 226.597656 469.21875 227.269531 469.253906 227.941406 469.320312 C 228.609375 469.386719 229.277344 469.484375 229.9375 469.617188 C 230.597656 469.746094 231.25 469.910156 231.894531 470.105469 C 232.539062 470.304688 233.171875 470.53125 233.796875 470.789062 C 234.417969 471.046875 235.027344 471.332031 235.621094 471.652344 C 236.214844 471.96875 236.792969 472.316406 237.351562 472.691406 C 237.910156 473.066406 238.453125 473.464844 238.972656 473.894531 C 239.492188 474.320312 239.992188 474.773438 240.46875 475.25 C 240.945312 475.726562 241.394531 476.226562 241.824219 476.75 C 242.25 477.269531 242.652344 477.808594 243.027344 478.371094 C 243.402344 478.933594 243.746094 479.507812 244.0625 480.105469 C 244.382812 480.699219 244.667969 481.308594 244.925781 481.929688 C 245.183594 482.554688 245.410156 483.1875 245.605469 483.832031 C 245.800781 484.480469 245.964844 485.132812 246.097656 485.792969 C 246.230469 486.453125 246.328125 487.121094 246.394531 487.792969 C 246.460938 488.464844 246.492188 489.136719 246.492188 489.808594 Z M 246.492188 489.808594 " fill-opacity="1" fill-rule="nonzero"/><path fill="#000000" d="M 225.921875 512.851562 C 213.230469 512.851562 202.902344 502.515625 202.902344 489.808594 C 202.902344 477.105469 213.230469 466.769531 225.921875 466.769531 C 238.617188 466.769531 248.941406 477.105469 248.941406 489.808594 C 248.941406 502.515625 238.617188 512.851562 225.921875 512.851562 Z M 225.921875 471.671875 C 215.9375 471.671875 207.804688 479.804688 207.804688 489.808594 C 207.804688 499.816406 215.925781 507.945312 225.921875 507.945312 C 235.921875 507.945312 244.042969 499.816406 244.042969 489.808594 C 244.042969 479.804688 235.90625 471.671875 225.921875 471.671875 Z M 225.921875 471.671875 " fill-opacity="1" fill-rule="nonzero"/><path fill="#ffffff" d="M 273.222656 518.738281 C 273.222656 519.617188 273.136719 520.488281 272.96875 521.347656 C 272.796875 522.210938 272.542969 523.046875 272.207031 523.859375 C 271.871094 524.667969 271.460938 525.441406 270.972656 526.171875 C 270.484375 526.902344 269.929688 527.578125 269.308594 528.199219 C 268.6875 528.820312 268.015625 529.375 267.285156 529.863281 C 266.554688 530.351562 265.785156 530.761719 264.972656 531.097656 C 264.164062 531.433594 263.328125 531.6875 262.464844 531.859375 C 261.605469 532.03125 260.734375 532.117188 259.859375 532.117188 C 258.980469 532.117188 258.113281 532.03125 257.25 531.859375 C 256.390625 531.6875 255.554688 531.433594 254.742188 531.097656 C 253.933594 530.761719 253.164062 530.351562 252.433594 529.863281 C 251.703125 529.375 251.027344 528.820312 250.40625 528.199219 C 249.785156 527.578125 249.234375 526.902344 248.746094 526.171875 C 248.257812 525.441406 247.847656 524.667969 247.511719 523.859375 C 247.175781 523.046875 246.921875 522.210938 246.75 521.347656 C 246.578125 520.488281 246.492188 519.617188 246.492188 518.738281 C 246.492188 517.859375 246.578125 516.988281 246.75 516.128906 C 246.921875 515.265625 247.175781 514.429688 247.511719 513.617188 C 247.847656 512.808594 248.257812 512.035156 248.746094 511.304688 C 249.234375 510.574219 249.785156 509.898438 250.40625 509.277344 C 251.027344 508.65625 251.703125 508.101562 252.433594 507.613281 C 253.164062 507.125 253.933594 506.714844 254.742188 506.378906 C 255.554688 506.042969 256.390625 505.789062 257.25 505.617188 C 258.113281 505.445312 258.980469 505.359375 259.859375 505.359375 C 260.734375 505.359375 261.605469 505.445312 262.464844 505.617188 C 263.328125 505.789062 264.164062 506.042969 264.972656 506.378906 C 265.785156 506.714844 266.554688 507.125 267.285156 507.613281 C 268.015625 508.101562 268.6875 508.65625 269.308594 509.277344 C 269.929688 509.898438 270.484375 510.574219 270.972656 511.304688 C 271.460938 512.035156 271.871094 512.808594 272.207031 513.617188 C 272.542969 514.429688 272.796875 515.265625 272.96875 516.128906 C 273.136719 516.988281 273.222656 517.859375 273.222656 518.738281 Z M 273.222656 518.738281 " fill-opacity="1" fill-rule="nonzero"/><path fill="#000000" d="M 259.859375 534.582031 C 251.136719 534.582031 244.042969 527.480469 244.042969 518.75 C 244.042969 510.019531 251.136719 502.917969 259.859375 502.917969 C 268.582031 502.917969 275.675781 510.019531 275.675781 518.75 C 275.675781 527.480469 268.582031 534.582031 259.859375 534.582031 Z M 259.859375 507.8125 C 253.832031 507.8125 248.941406 512.71875 248.941406 518.738281 C 248.941406 524.757812 253.84375 529.664062 259.859375 529.664062 C 265.875 529.664062 270.773438 524.757812 270.773438 518.738281 C 270.773438 512.71875 265.886719 507.8125 259.859375 507.8125 Z M 259.859375 507.8125 " fill-opacity="1" fill-rule="nonzero"/><path fill="#ffffff" d="M 292.800781 531.480469 C 292.800781 531.886719 292.761719 532.289062 292.683594 532.6875 C 292.601562 533.085938 292.484375 533.472656 292.332031 533.847656 C 292.175781 534.226562 291.984375 534.582031 291.757812 534.921875 C 291.53125 535.257812 291.277344 535.570312 290.988281 535.859375 C 290.703125 536.144531 290.390625 536.402344 290.050781 536.628906 C 289.714844 536.855469 289.355469 537.046875 288.980469 537.199219 C 288.605469 537.355469 288.21875 537.472656 287.820312 537.554688 C 287.421875 537.632812 287.019531 537.671875 286.613281 537.671875 C 286.207031 537.671875 285.804688 537.632812 285.40625 537.554688 C 285.007812 537.472656 284.621094 537.355469 284.246094 537.199219 C 283.871094 537.046875 283.515625 536.855469 283.175781 536.628906 C 282.839844 536.402344 282.527344 536.144531 282.238281 535.859375 C 281.953125 535.570312 281.695312 535.257812 281.46875 534.921875 C 281.246094 534.582031 281.054688 534.226562 280.898438 533.847656 C 280.742188 533.472656 280.625 533.085938 280.546875 532.6875 C 280.46875 532.289062 280.425781 531.886719 280.425781 531.480469 C 280.425781 531.074219 280.46875 530.671875 280.546875 530.269531 C 280.625 529.871094 280.742188 529.484375 280.898438 529.109375 C 281.054688 528.734375 281.246094 528.378906 281.46875 528.039062 C 281.695312 527.699219 281.953125 527.386719 282.238281 527.101562 C 282.527344 526.8125 282.839844 526.554688 283.175781 526.332031 C 283.515625 526.105469 283.871094 525.914062 284.246094 525.757812 C 284.621094 525.601562 285.007812 525.484375 285.40625 525.40625 C 285.804688 525.328125 286.207031 525.285156 286.613281 525.285156 C 287.019531 525.285156 287.421875 525.328125 287.820312 525.40625 C 288.21875 525.484375 288.605469 525.601562 288.980469 525.757812 C 289.355469 525.914062 289.714844 526.105469 290.050781 526.332031 C 290.390625 526.554688 290.703125 526.8125 290.988281 527.101562 C 291.277344 527.386719 291.53125 527.699219 291.757812 528.039062 C 291.984375 528.378906 292.175781 528.734375 292.332031 529.109375 C 292.484375 529.484375 292.601562 529.871094 292.683594 530.269531 C 292.761719 530.671875 292.800781 531.074219 292.800781 531.480469 Z M 292.800781 531.480469 " fill-opacity="1" fill-rule="nonzero"/><g clip-path="url(#58fbb66912)"><path fill="#000000" d="M 286.613281 540.125 C 281.847656 540.125 277.976562 536.25 277.976562 531.480469 C 277.976562 526.710938 281.847656 522.835938 286.613281 522.835938 C 291.378906 522.835938 295.25 526.710938 295.25 531.480469 C 295.25 536.25 291.367188 540.125 286.613281 540.125 Z M 286.613281 527.75 C 284.554688 527.75 282.878906 529.433594 282.878906 531.492188 C 282.878906 533.550781 284.554688 535.230469 286.613281 535.230469 C 288.671875 535.230469 290.351562 533.550781 290.351562 531.492188 C 290.339844 529.417969 288.671875 527.75 286.613281 527.75 Z M 286.613281 527.75 " fill-opacity="1" fill-rule="nonzero"/></g><g fill="#000000" fill-opacity="1"><g transform="translate(81.080471, 349.580278)"><g><path d="M 1.996094 0 L 9.65625 0 L 9.65625 -22.0625 L 1.996094 -22.0625 Z M 9.78125 -32.46875 L 1.875 -32.46875 L 1.875 -24.558594 L 9.78125 -24.558594 Z M 9.78125 -32.46875 "/></g></g></g><g fill="#000000" fill-opacity="1"><g transform="translate(92.735477, 349.580278)"><g><path d="M 11.613281 -22.0625 L 11.613281 -28.304688 L 3.953125 -28.304688 L 3.953125 -22.0625 L 0.625 -22.0625 L 0.625 -15.402344 L 3.953125 -15.402344 L 3.953125 -8.117188 C 3.953125 -1.664062 7.492188 0.582031 12.777344 0.582031 C 14.859375 0.582031 16.109375 0.207031 16.484375 0 L 16.484375 -6.242188 C 16.273438 -6.160156 15.234375 -5.992188 14.570312 -5.992188 C 12.820312 -5.992188 11.613281 -6.453125 11.613281 -8.949219 L 11.613281 -15.402344 L 16.898438 -15.402344 L 16.898438 -22.0625 Z M 11.613281 -22.0625 "/></g></g></g><g fill="#000000" fill-opacity="1"><g transform="translate(111.050486, 349.580278)"><g><path d="M 22.269531 -8.324219 L 22.269531 -11.65625 C 22.269531 -18.105469 18.9375 -22.644531 11.820312 -22.644531 C 4.703125 -22.644531 1.039062 -18.105469 1.039062 -11.65625 L 1.039062 -10.40625 C 1.039062 -3.953125 4.539062 0.582031 12.070312 0.582031 C 18.480469 0.582031 22.269531 -2.496094 22.269531 -6.910156 L 22.269531 -7.078125 L 15.066406 -7.078125 C 15.066406 -6.035156 13.777344 -5.160156 12.113281 -5.160156 C 10.199219 -5.160156 8.949219 -5.828125 8.699219 -8.324219 Z M 11.65625 -16.898438 C 13.445312 -16.898438 14.402344 -16.066406 14.609375 -13.734375 L 8.699219 -13.734375 C 8.90625 -16.066406 9.863281 -16.898438 11.65625 -16.898438 Z M 11.65625 -16.898438 "/></g></g></g><g fill="#000000" fill-opacity="1"><g transform="translate(134.360497, 349.580278)"><g><path d="M 14.820312 -22.644531 C 12.320312 -22.644531 10.363281 -21.4375 9.03125 -19.605469 L 8.574219 -22.0625 L 1.664062 -22.0625 L 2.082031 -15.816406 L 2.082031 0 L 9.742188 0 L 9.742188 -13.320312 C 10.238281 -13.945312 11.695312 -14.777344 14.195312 -14.777344 L 15.441406 -14.777344 L 15.441406 -22.601562 C 15.234375 -22.644531 15.027344 -22.644531 14.820312 -22.644531 Z M 14.820312 -22.644531 "/></g></g></g><g fill="#000000" fill-opacity="1"><g transform="translate(151.010506, 349.580278)"><g><path d="M 14.984375 0 L 21.894531 0 L 21.476562 -6.242188 L 21.476562 -14.152344 C 21.476562 -19.605469 19.1875 -22.644531 11.65625 -22.644531 C 4.164062 -22.644531 1.875 -19.148438 1.875 -15.152344 L 1.875 -14.777344 L 9.074219 -14.777344 C 9.074219 -15.816406 9.574219 -16.898438 11.445312 -16.898438 C 13.113281 -16.898438 13.734375 -16.152344 13.820312 -14.570312 L 9.15625 -13.820312 C 4.246094 -13.070312 1.039062 -11.445312 1.039062 -6.660156 L 1.039062 -6.242188 C 1.039062 -2.707031 2.707031 0.582031 7.910156 0.582031 C 10.824219 0.582031 13.027344 -0.457031 14.570312 -2.082031 Z M 10.824219 -5.578125 C 9.242188 -5.578125 8.65625 -6.492188 8.65625 -7.367188 L 8.65625 -7.617188 C 8.65625 -8.617188 9.03125 -9.40625 10.824219 -9.699219 L 13.820312 -10.15625 L 13.820312 -6.785156 C 13.195312 -6.203125 12.113281 -5.578125 10.824219 -5.578125 Z M 10.824219 -5.578125 "/></g></g></g><g fill="#000000" fill-opacity="1"><g transform="translate(174.320517, 349.580278)"><g><path d="M 11.613281 -22.0625 L 11.613281 -28.304688 L 3.953125 -28.304688 L 3.953125 -22.0625 L 0.625 -22.0625 L 0.625 -15.402344 L 3.953125 -15.402344 L 3.953125 -8.117188 C 3.953125 -1.664062 7.492188 0.582031 12.777344 0.582031 C 14.859375 0.582031 16.109375 0.207031 16.484375 0 L 16.484375 -6.242188 C 16.273438 -6.160156 15.234375 -5.992188 14.570312 -5.992188 C 12.820312 -5.992188 11.613281 -6.453125 11.613281 -8.949219 L 11.613281 -15.402344 L 16.898438 -15.402344 L 16.898438 -22.0625 Z M 11.613281 -22.0625 "/></g></g></g><g fill="#000000" fill-opacity="1"><g transform="translate(192.635526, 349.580278)"><g><path d="M 1.996094 0 L 9.65625 0 L 9.65625 -22.0625 L 1.996094 -22.0625 Z M 9.78125 -32.46875 L 1.875 -32.46875 L 1.875 -24.558594 L 9.78125 -24.558594 Z M 9.78125 -32.46875 "/></g></g></g><g fill="#000000" fill-opacity="1"><g transform="translate(204.290532, 349.580278)"><g><path d="M 11.65625 0.582031 C 18.9375 0.582031 22.269531 -3.746094 22.269531 -10.199219 L 22.269531 -11.863281 C 22.269531 -18.316406 18.9375 -22.644531 11.65625 -22.644531 C 4.371094 -22.644531 1.039062 -18.316406 1.039062 -11.863281 L 1.039062 -10.199219 C 1.039062 -3.746094 4.371094 0.582031 11.65625 0.582031 Z M 11.65625 -5.992188 C 9.574219 -5.992188 8.65625 -7.492188 8.65625 -10.199219 L 8.65625 -11.863281 C 8.65625 -14.570312 9.574219 -16.066406 11.65625 -16.066406 C 13.734375 -16.066406 14.652344 -14.570312 14.652344 -11.863281 L 14.652344 -10.199219 C 14.652344 -7.492188 13.734375 -5.992188 11.65625 -5.992188 Z M 11.65625 -5.992188 "/></g></g></g><g fill="#000000" fill-opacity="1"><g transform="translate(227.600544, 349.580278)"><g><path d="M 22.933594 0 L 22.933594 -14.777344 C 22.933594 -18.730469 21.269531 -22.644531 16.066406 -22.644531 C 12.777344 -22.644531 10.53125 -21.269531 9.074219 -19.3125 L 8.574219 -22.0625 L 1.664062 -22.0625 L 2.082031 -15.816406 L 2.082031 0 L 9.742188 0 L 9.742188 -14.359375 C 10.15625 -14.984375 11.28125 -16.066406 12.945312 -16.066406 C 15.027344 -16.066406 15.277344 -14.570312 15.277344 -13.527344 L 15.277344 0 Z M 22.933594 0 "/></g></g></g><g fill="#000000" fill-opacity="1"><g transform="translate(55.463284, 407.330275)"><g><path d="M 8.65625 -10.199219 L 8.65625 -11.863281 C 8.65625 -14.570312 9.367188 -16.066406 11.40625 -16.066406 C 12.902344 -16.066406 13.820312 -15.234375 13.820312 -13.320312 L 21.019531 -13.320312 L 21.019531 -14.320312 C 21.019531 -19.5625 17.648438 -22.644531 11.238281 -22.644531 C 4.121094 -22.644531 1.039062 -18.316406 1.039062 -11.863281 L 1.039062 -10.199219 C 1.039062 -3.746094 4.121094 0.582031 11.238281 0.582031 C 17.648438 0.582031 21.019531 -2.496094 21.019531 -7.324219 L 21.019531 -8.324219 L 13.820312 -8.324219 C 13.820312 -6.867188 12.902344 -5.992188 11.40625 -5.992188 C 9.367188 -5.992188 8.65625 -7.492188 8.65625 -10.199219 Z M 8.65625 -10.199219 "/></g></g></g><g fill="#000000" fill-opacity="1"><g transform="translate(77.441295, 407.330275)"><g><path d="M 11.65625 0.582031 C 18.9375 0.582031 22.269531 -3.746094 22.269531 -10.199219 L 22.269531 -11.863281 C 22.269531 -18.316406 18.9375 -22.644531 11.65625 -22.644531 C 4.371094 -22.644531 1.039062 -18.316406 1.039062 -11.863281 L 1.039062 -10.199219 C 1.039062 -3.746094 4.371094 0.582031 11.65625 0.582031 Z M 11.65625 -5.992188 C 9.574219 -5.992188 8.65625 -7.492188 8.65625 -10.199219 L 8.65625 -11.863281 C 8.65625 -14.570312 9.574219 -16.066406 11.65625 -16.066406 C 13.734375 -16.066406 14.652344 -14.570312 14.652344 -11.863281 L 14.652344 -10.199219 C 14.652344 -7.492188 13.734375 -5.992188 11.65625 -5.992188 Z M 11.65625 -5.992188 "/></g></g></g><g fill="#000000" fill-opacity="1"><g transform="translate(100.751307, 407.330275)"><g><path d="M 22.933594 0 L 22.933594 -14.777344 C 22.933594 -18.730469 21.269531 -22.644531 16.066406 -22.644531 C 12.777344 -22.644531 10.53125 -21.269531 9.074219 -19.3125 L 8.574219 -22.0625 L 1.664062 -22.0625 L 2.082031 -15.816406 L 2.082031 0 L 9.742188 0 L 9.742188 -14.359375 C 10.15625 -14.984375 11.28125 -16.066406 12.945312 -16.066406 C 15.027344 -16.066406 15.277344 -14.570312 15.277344 -13.527344 L 15.277344 0 Z M 22.933594 0 "/></g></g></g><g fill="#000000" fill-opacity="1"><g transform="translate(125.518198, 407.330275)"><g><path d="M 11.03125 -5.160156 C 9.449219 -5.160156 8.78125 -5.867188 8.78125 -7.078125 L 1.164062 -7.078125 L 1.164062 -6.867188 C 1.164062 -2.289062 4.539062 0.582031 11.03125 0.582031 C 17.648438 0.582031 20.894531 -2.289062 20.894531 -7.117188 L 20.894531 -7.535156 C 20.894531 -12.363281 16.898438 -13.363281 11.363281 -13.820312 C 9.492188 -13.984375 8.949219 -14.359375 8.949219 -15.402344 C 8.949219 -16.273438 9.65625 -16.898438 11.03125 -16.898438 C 12.402344 -16.898438 13.113281 -16.109375 13.113281 -14.777344 L 20.605469 -14.777344 L 20.605469 -14.984375 C 20.605469 -19.855469 17.648438 -22.644531 11.03125 -22.644531 C 5.785156 -22.644531 1.457031 -20.605469 1.457031 -15.152344 L 1.457031 -14.734375 C 1.457031 -10.324219 4.414062 -8.949219 10.738281 -8.449219 C 12.820312 -8.285156 13.238281 -7.699219 13.238281 -6.785156 C 13.238281 -5.910156 12.695312 -5.160156 11.03125 -5.160156 Z M 11.03125 -5.160156 "/></g></g></g><g fill="#000000" fill-opacity="1"><g transform="translate(147.579465, 407.330275)"><g><path d="M 11.613281 -22.0625 L 11.613281 -28.304688 L 3.953125 -28.304688 L 3.953125 -22.0625 L 0.625 -22.0625 L 0.625 -15.402344 L 3.953125 -15.402344 L 3.953125 -8.117188 C 3.953125 -1.664062 7.492188 0.582031 12.777344 0.582031 C 14.859375 0.582031 16.109375 0.207031 16.484375 0 L 16.484375 -6.242188 C 16.273438 -6.160156 15.234375 -5.992188 14.570312 -5.992188 C 12.820312 -5.992188 11.613281 -6.453125 11.613281 -8.949219 L 11.613281 -15.402344 L 16.898438 -15.402344 L 16.898438 -22.0625 Z M 11.613281 -22.0625 "/></g></g></g><g fill="#000000" fill-opacity="1"><g transform="translate(165.894474, 407.330275)"><g><path d="M 14.820312 -22.644531 C 12.320312 -22.644531 10.363281 -21.4375 9.03125 -19.605469 L 8.574219 -22.0625 L 1.664062 -22.0625 L 2.082031 -15.816406 L 2.082031 0 L 9.742188 0 L 9.742188 -13.320312 C 10.238281 -13.945312 11.695312 -14.777344 14.195312 -14.777344 L 15.441406 -14.777344 L 15.441406 -22.601562 C 15.234375 -22.644531 15.027344 -22.644531 14.820312 -22.644531 Z M 14.820312 -22.644531 "/></g></g></g><g fill="#000000" fill-opacity="1"><g transform="translate(182.544482, 407.330275)"><g><path d="M 1.832031 -22.0625 L 1.832031 -7.285156 C 1.832031 -3.328125 3.496094 0.582031 8.699219 0.582031 C 11.988281 0.582031 14.234375 -0.75 15.652344 -2.707031 L 16.191406 0 L 23.101562 0 L 22.6875 -6.242188 L 22.6875 -22.0625 L 15.027344 -22.0625 L 15.027344 -7.699219 C 14.609375 -7.078125 13.488281 -5.992188 11.820312 -5.992188 C 9.742188 -5.992188 9.492188 -7.492188 9.492188 -8.53125 L 9.492188 -22.0625 Z M 1.832031 -22.0625 "/></g></g></g><g fill="#000000" fill-opacity="1"><g transform="translate(207.311372, 407.330275)"><g><path d="M 8.65625 -10.199219 L 8.65625 -11.863281 C 8.65625 -14.570312 9.367188 -16.066406 11.40625 -16.066406 C 12.902344 -16.066406 13.820312 -15.234375 13.820312 -13.320312 L 21.019531 -13.320312 L 21.019531 -14.320312 C 21.019531 -19.5625 17.648438 -22.644531 11.238281 -22.644531 C 4.121094 -22.644531 1.039062 -18.316406 1.039062 -11.863281 L 1.039062 -10.199219 C 1.039062 -3.746094 4.121094 0.582031 11.238281 0.582031 C 17.648438 0.582031 21.019531 -2.496094 21.019531 -7.324219 L 21.019531 -8.324219 L 13.820312 -8.324219 C 13.820312 -6.867188 12.902344 -5.992188 11.40625 -5.992188 C 9.367188 -5.992188 8.65625 -7.492188 8.65625 -10.199219 Z M 8.65625 -10.199219 "/></g></g></g><g fill="#000000" fill-opacity="1"><g transform="translate(229.289383, 407.330275)"><g><path d="M 11.613281 -22.0625 L 11.613281 -28.304688 L 3.953125 -28.304688 L 3.953125 -22.0625 L 0.625 -22.0625 L 0.625 -15.402344 L 3.953125 -15.402344 L 3.953125 -8.117188 C 3.953125 -1.664062 7.492188 0.582031 12.777344 0.582031 C 14.859375 0.582031 16.109375 0.207031 16.484375 0 L 16.484375 -6.242188 C 16.273438 -6.160156 15.234375 -5.992188 14.570312 -5.992188 C 12.820312 -5.992188 11.613281 -6.453125 11.613281 -8.949219 L 11.613281 -15.402344 L 16.898438 -15.402344 L 16.898438 -22.0625 Z M 11.613281 -22.0625 "/></g></g></g><g fill="#000000" fill-opacity="1"><g transform="translate(247.604404, 407.330275)"><g><path d="M 11.03125 -5.160156 C 9.449219 -5.160156 8.78125 -5.867188 8.78125 -7.078125 L 1.164062 -7.078125 L 1.164062 -6.867188 C 1.164062 -2.289062 4.539062 0.582031 11.03125 0.582031 C 17.648438 0.582031 20.894531 -2.289062 20.894531 -7.117188 L 20.894531 -7.535156 C 20.894531 -12.363281 16.898438 -13.363281 11.363281 -13.820312 C 9.492188 -13.984375 8.949219 -14.359375 8.949219 -15.402344 C 8.949219 -16.273438 9.65625 -16.898438 11.03125 -16.898438 C 12.402344 -16.898438 13.113281 -16.109375 13.113281 -14.777344 L 20.605469 -14.777344 L 20.605469 -14.984375 C 20.605469 -19.855469 17.648438 -22.644531 11.03125 -22.644531 C 5.785156 -22.644531 1.457031 -20.605469 1.457031 -15.152344 L 1.457031 -14.734375 C 1.457031 -10.324219 4.414062 -8.949219 10.738281 -8.449219 C 12.820312 -8.285156 13.238281 -7.699219 13.238281 -6.785156 C 13.238281 -5.910156 12.695312 -5.160156 11.03125 -5.160156 Z M 11.03125 -5.160156 "/></g></g></g><g fill="#000000" fill-opacity="1"><g transform="translate(269.658588, 407.330275)"><g/></g></g><g clip-path="url(#a8fc78c872)"><g clip-path="url(#7c4dfbbba3)"><g clip-path="url(#e07055e1f1)"><g clip-path="url(#c61c7d8045)"><path fill="#ffffff" d="M 327.234375 240.152344 L 303.792969 220.585938 L 287.101562 206.640625 C 263.554688 220.660156 233.390625 227.058594 201.785156 222.652344 C 136.621094 213.558594 89.96875 161.933594 97.585938 107.34375 C 105.203125 52.742188 164.203125 15.855469 229.367188 24.945312 C 294.539062 34.039062 341.191406 85.667969 333.574219 140.265625 C 330.734375 160.601562 320.765625 178.488281 305.992188 192.445312 L 314.8125 212.269531 Z M 327.234375 240.152344 " fill-opacity="1" fill-rule="nonzero"/></g></g></g></g><g clip-path="url(#28dbb8659e)"><g clip-path="url(#1193495cb0)"><g clip-path="url(#e90af2a3d0)"><g clip-path="url(#230476d4aa)"><path fill="#000000" d="M 326.929688 242.328125 C 326.539062 242.273438 326.148438 242.109375 325.820312 241.839844 L 286.871094 209.3125 C 262.199219 223.5625 231.933594 229.074219 201.46875 224.824219 C 135.21875 215.582031 87.636719 162.75 95.410156 107.039062 C 103.183594 51.332031 163.410156 13.527344 229.667969 22.769531 C 295.929688 32.015625 343.519531 84.859375 335.746094 140.570312 C 333 160.261719 323.632812 178.355469 308.625 192.957031 L 329.242188 239.257812 C 329.65625 240.191406 329.382812 241.285156 328.5625 241.902344 C 328.078125 242.265625 327.496094 242.40625 326.929688 242.328125 Z M 229.0625 27.121094 C 165.207031 18.210938 107.199219 54.332031 99.761719 107.648438 C 92.324219 160.953125 138.230469 211.566406 202.085938 220.476562 C 232.117188 224.664062 261.914062 219.078125 285.976562 204.753906 C 286.777344 204.277344 287.796875 204.351562 288.511719 204.953125 L 321.382812 232.398438 L 303.992188 193.332031 C 303.613281 192.480469 303.820312 191.476562 304.496094 190.839844 C 319.425781 176.738281 328.734375 159.136719 331.410156 139.953125 C 338.835938 86.644531 292.929688 36.03125 229.0625 27.121094 Z M 229.0625 27.121094 " fill-opacity="1" fill-rule="nonzero"/></g></g></g></g><g fill="#000000" fill-opacity="1"><g transform="translate(109.46459, 134.927306)"><g><path d="M 22.460938 -8.398438 L 22.460938 -11.753906 C 22.460938 -18.261719 19.101562 -22.839844 11.921875 -22.839844 C 4.746094 -22.839844 1.050781 -18.261719 1.050781 -11.753906 L 1.050781 -10.496094 C 1.050781 -3.988281 4.578125 0.585938 12.175781 0.585938 C 18.640625 0.585938 22.460938 -2.519531 22.460938 -6.96875 L 22.460938 -7.136719 L 15.199219 -7.136719 C 15.199219 -6.085938 13.898438 -5.207031 12.21875 -5.207031 C 10.285156 -5.207031 9.027344 -5.878906 8.773438 -8.398438 Z M 11.753906 -17.046875 C 13.5625 -17.046875 14.527344 -16.207031 14.738281 -13.855469 L 8.773438 -13.855469 C 8.984375 -16.207031 9.949219 -17.046875 11.753906 -17.046875 Z M 11.753906 -17.046875 "/></g></g></g><g fill="#000000" fill-opacity="1"><g transform="translate(132.971474, 134.927306)"><g><path d="M 0.628906 -22.253906 L 6.003906 -11.546875 L 0.628906 0 L 9.277344 0 L 12.175781 -7.222656 L 15.074219 0 L 23.722656 0 L 18.304688 -11.546875 L 23.722656 -22.253906 L 14.820312 -22.253906 L 12.175781 -15.199219 L 9.53125 -22.253906 Z M 0.628906 -22.253906 "/></g></g></g><g fill="#000000" fill-opacity="1"><g transform="translate(157.317886, 134.927306)"><g><path d="M 15.324219 0.585938 C 21.414062 0.585938 23.511719 -3.777344 23.511719 -10.285156 L 23.511719 -11.964844 C 23.511719 -18.472656 21.414062 -22.839844 15.324219 -22.839844 C 12.300781 -22.839844 10.328125 -21.539062 9.070312 -19.648438 L 8.605469 -22.253906 L 1.636719 -22.253906 L 2.058594 -15.953125 L 2.058594 8.398438 L 9.78125 8.398438 L 9.78125 -1.679688 C 11.042969 -0.292969 12.804688 0.585938 15.324219 0.585938 Z M 9.78125 -14.484375 C 10.203125 -15.113281 11.335938 -16.207031 13.015625 -16.207031 C 15.113281 -16.207031 15.828125 -14.695312 15.828125 -11.964844 L 15.828125 -10.285156 C 15.828125 -7.558594 15.113281 -6.046875 13.015625 -6.046875 C 11.335938 -6.046875 10.203125 -7.136719 9.78125 -7.765625 Z M 9.78125 -14.484375 "/></g></g></g><g fill="#000000" fill-opacity="1"><g transform="translate(181.874182, 134.927306)"><g><path d="M 11.753906 0.585938 C 19.101562 0.585938 22.460938 -3.777344 22.460938 -10.285156 L 22.460938 -11.964844 C 22.460938 -18.472656 19.101562 -22.839844 11.753906 -22.839844 C 4.410156 -22.839844 1.050781 -18.472656 1.050781 -11.964844 L 1.050781 -10.285156 C 1.050781 -3.777344 4.410156 0.585938 11.753906 0.585938 Z M 11.753906 -6.046875 C 9.65625 -6.046875 8.734375 -7.558594 8.734375 -10.285156 L 8.734375 -11.964844 C 8.734375 -14.695312 9.65625 -16.207031 11.753906 -16.207031 C 13.855469 -16.207031 14.777344 -14.695312 14.777344 -11.964844 L 14.777344 -10.285156 C 14.777344 -7.558594 13.855469 -6.046875 11.753906 -6.046875 Z M 11.753906 -6.046875 "/></g></g></g><g fill="#000000" fill-opacity="1"><g transform="translate(205.381067, 134.927306)"><g><path d="M 23.132812 0 L 23.132812 -14.90625 C 23.132812 -18.894531 21.453125 -22.839844 16.207031 -22.839844 C 12.890625 -22.839844 10.621094 -21.453125 9.152344 -19.480469 L 8.648438 -22.253906 L 1.679688 -22.253906 L 2.097656 -15.953125 L 2.097656 0 L 9.824219 0 L 9.824219 -14.484375 C 10.246094 -15.113281 11.378906 -16.207031 13.058594 -16.207031 C 15.15625 -16.207031 15.410156 -14.695312 15.410156 -13.644531 L 15.410156 0 Z M 23.132812 0 "/></g></g></g><g fill="#000000" fill-opacity="1"><g transform="translate(230.357121, 134.927306)"><g><path d="M 22.460938 -8.398438 L 22.460938 -11.753906 C 22.460938 -18.261719 19.101562 -22.839844 11.921875 -22.839844 C 4.746094 -22.839844 1.050781 -18.261719 1.050781 -11.753906 L 1.050781 -10.496094 C 1.050781 -3.988281 4.578125 0.585938 12.175781 0.585938 C 18.640625 0.585938 22.460938 -2.519531 22.460938 -6.96875 L 22.460938 -7.136719 L 15.199219 -7.136719 C 15.199219 -6.085938 13.898438 -5.207031 12.21875 -5.207031 C 10.285156 -5.207031 9.027344 -5.878906 8.773438 -8.398438 Z M 11.753906 -17.046875 C 13.5625 -17.046875 14.527344 -16.207031 14.738281 -13.855469 L 8.773438 -13.855469 C 8.984375 -16.207031 9.949219 -17.046875 11.753906 -17.046875 Z M 11.753906 -17.046875 "/></g></g></g><g fill="#000000" fill-opacity="1"><g transform="translate(253.864006, 134.927306)"><g><path d="M 23.132812 0 L 23.132812 -14.90625 C 23.132812 -18.894531 21.453125 -22.839844 16.207031 -22.839844 C 12.890625 -22.839844 10.621094 -21.453125 9.152344 -19.480469 L 8.648438 -22.253906 L 1.679688 -22.253906 L 2.097656 -15.953125 L 2.097656 0 L 9.824219 0 L 9.824219 -14.484375 C 10.246094 -15.113281 11.378906 -16.207031 13.058594 -16.207031 C 15.15625 -16.207031 15.410156 -14.695312 15.410156 -13.644531 L 15.410156 0 Z M 23.132812 0 "/></g></g></g><g fill="#000000" fill-opacity="1"><g transform="translate(278.84006, 134.927306)"><g><path d="M 11.714844 -22.253906 L 11.714844 -28.550781 L 3.988281 -28.550781 L 3.988281 -22.253906 L 0.628906 -22.253906 L 0.628906 -15.535156 L 3.988281 -15.535156 L 3.988281 -8.1875 C 3.988281 -1.679688 7.558594 0.585938 12.890625 0.585938 C 14.988281 0.585938 16.25 0.210938 16.625 0 L 16.625 -6.296875 C 16.417969 -6.214844 15.367188 -6.046875 14.695312 -6.046875 C 12.929688 -6.046875 11.714844 -6.507812 11.714844 -9.027344 L 11.714844 -15.535156 L 17.046875 -15.535156 L 17.046875 -22.253906 Z M 11.714844 -22.253906 "/></g></g></g><g fill="#000000" fill-opacity="1"><g transform="translate(297.309747, 134.927306)"><g><path d="M 11.125 -5.207031 C 9.53125 -5.207031 8.859375 -5.917969 8.859375 -7.136719 L 1.175781 -7.136719 L 1.175781 -6.925781 C 1.175781 -2.308594 4.578125 0.585938 11.125 0.585938 C 17.800781 0.585938 21.078125 -2.308594 21.078125 -7.179688 L 21.078125 -7.597656 C 21.078125 -12.46875 17.046875 -13.476562 11.460938 -13.9375 C 9.574219 -14.105469 9.027344 -14.484375 9.027344 -15.535156 C 9.027344 -16.417969 9.742188 -17.046875 11.125 -17.046875 C 12.511719 -17.046875 13.226562 -16.25 13.226562 -14.90625 L 20.78125 -14.90625 L 20.78125 -15.113281 C 20.78125 -20.027344 17.800781 -22.839844 11.125 -22.839844 C 5.835938 -22.839844 1.46875 -20.78125 1.46875 -15.28125 L 1.46875 -14.863281 C 1.46875 -10.414062 4.449219 -9.027344 10.832031 -8.523438 C 12.929688 -8.355469 13.351562 -7.765625 13.351562 -6.84375 C 13.351562 -5.960938 12.804688 -5.207031 11.125 -5.207031 Z M 11.125 -5.207031 "/></g></g></g></svg>