<svg xmlns="http://www.w3.org/2000/svg" xmlns:xlink="http://www.w3.org/1999/xlink" width="1000" zoomAndPan="magnify" viewBox="0 0 750 599.999999" height="800" preserveAspectRatio="xMidYMid meet" version="1.0"><defs><g/><clipPath id="77f00f5c09"><path d="M 375 35.164062 L 727 35.164062 L 727 321.664062 L 375 321.664062 Z M 375 35.164062 " clip-rule="nonzero"/></clipPath><clipPath id="ed587f92ec"><path d="M 700 112 L 737.25 112 L 737.25 208 L 700 208 Z M 700 112 " clip-rule="nonzero"/></clipPath><clipPath id="2db503de1c"><path d="M 21.140625 249.160156 L 298.640625 249.160156 L 298.640625 477 L 21.140625 477 Z M 21.140625 249.160156 " clip-rule="nonzero"/></clipPath><clipPath id="693a937004"><path d="M 277 522 L 296 522 L 296 540.160156 L 277 540.160156 Z M 277 522 " clip-rule="nonzero"/></clipPath><clipPath id="a3abdfd6b8"><path d="M 96 23 L 335 23 L 335 241 L 96 241 Z M 96 23 " clip-rule="nonzero"/></clipPath><clipPath id="cb0dae0efd"><path d="M 109.449219 6 L 357.546875 40.613281 L 329.359375 242.65625 L 81.261719 208.042969 Z M 109.449219 6 " clip-rule="nonzero"/></clipPath><clipPath id="ab6909e8dc"><path d="M 109.449219 6 L 357.546875 40.613281 L 329.359375 242.65625 L 81.261719 208.042969 Z M 109.449219 6 " clip-rule="nonzero"/></clipPath><clipPath id="8d06b83869"><path d="M 109.449219 6 L 357.546875 40.613281 L 329.359375 242.65625 L 81.261719 208.042969 Z M 109.449219 6 " clip-rule="nonzero"/></clipPath><clipPath id="9f41ca9408"><path d="M 94 21 L 337 21 L 337 243 L 94 243 Z M 94 21 " clip-rule="nonzero"/></clipPath><clipPath id="f4edb3061b"><path d="M 109.449219 6 L 357.546875 40.613281 L 329.359375 242.65625 L 81.261719 208.042969 Z M 109.449219 6 " clip-rule="nonzero"/></clipPath><clipPath id="c32ce44e98"><path d="M 109.449219 6 L 357.546875 40.613281 L 329.359375 242.65625 L 81.261719 208.042969 Z M 109.449219 6 " clip-rule="nonzero"/></clipPath><clipPath id="d9de99ffd6"><path d="M 109.449219 6 L 357.546875 40.613281 L 329.359375 242.65625 L 81.261719 208.042969 Z M 109.449219 6 " clip-rule="nonzero"/></clipPath></defs><g fill="#f57c00" fill-opacity="1"><g transform="translate(311.625847, 570.039623)"><g><path d="M 14.121094 -4.519531 C 14.121094 -1.695312 15.816406 0 18.640625 0 L 48.011719 0 C 51.117188 0 52.53125 -1.695312 52.53125 -4.519531 L 52.53125 -75.6875 L 86.417969 -75.6875 C 112.964844 -75.6875 127.085938 -90.089844 127.085938 -116.355469 L 127.085938 -185.265625 C 127.085938 -211.8125 112.964844 -225.933594 86.417969 -225.933594 L 18.640625 -225.933594 C 15.816406 -225.933594 14.121094 -224.238281 14.121094 -221.414062 Z M 52.53125 -112.964844 L 52.53125 -188.652344 L 77.382812 -188.652344 C 85.007812 -188.652344 88.679688 -184.699219 88.679688 -177.355469 L 88.679688 -124.261719 C 88.679688 -117.203125 85.007812 -112.964844 77.382812 -112.964844 Z M 52.53125 -112.964844 "/></g></g></g><g fill="#f57c00" fill-opacity="1"><g transform="translate(452.833568, 570.039623)"><g><path d="M 130.195312 -185.265625 C 130.195312 -211.8125 116.074219 -225.933594 89.527344 -225.933594 L 18.640625 -225.933594 C 15.816406 -225.933594 14.121094 -224.238281 14.121094 -221.414062 L 14.121094 -4.519531 C 14.121094 -1.695312 15.816406 0 18.640625 0 L 48.011719 0 C 50.835938 0 52.53125 -1.695312 52.53125 -4.519531 L 52.53125 -75.6875 L 72.015625 -75.6875 L 90.9375 -3.953125 C 91.503906 -1.410156 92.914062 0 95.738281 0 L 125.109375 0 C 128.214844 0 129.910156 -1.695312 129.0625 -5.082031 L 109.578125 -79.078125 C 123.132812 -85.007812 130.195312 -97.433594 130.195312 -116.355469 Z M 52.53125 -112.964844 L 52.53125 -188.652344 L 80.488281 -188.652344 C 87.832031 -188.652344 91.785156 -184.699219 91.785156 -177.355469 L 91.785156 -124.261719 C 91.785156 -116.921875 87.832031 -112.964844 80.488281 -112.964844 Z M 52.53125 -112.964844 "/></g></g></g><g fill="#f57c00" fill-opacity="1"><g transform="translate(597.147865, 570.039623)"><g><path d="M 14.121094 -40.667969 C 14.121094 -14.121094 28.242188 0 54.789062 0 L 86.417969 0 C 112.964844 0 127.085938 -14.121094 127.085938 -40.667969 L 127.085938 -185.265625 C 127.085938 -211.8125 112.964844 -225.933594 86.417969 -225.933594 L 54.789062 -225.933594 C 28.242188 -225.933594 14.121094 -211.8125 14.121094 -185.265625 Z M 62.980469 -36.429688 C 55.636719 -36.429688 51.683594 -40.101562 51.683594 -47.726562 L 51.683594 -178.203125 C 51.683594 -185.546875 55.636719 -189.5 62.980469 -189.5 L 79.359375 -189.5 C 86.703125 -189.5 90.65625 -185.546875 90.65625 -178.203125 L 90.65625 -47.726562 C 90.65625 -40.101562 86.703125 -36.429688 79.359375 -36.429688 Z M 62.980469 -36.429688 "/></g></g></g><g clip-path="url(#77f00f5c09)"><path fill="#000000" d="M 721.222656 142.335938 C 716.117188 130.878906 707.921875 122.445312 698.054688 116.78125 C 689.523438 111.882812 679.730469 109.066406 669.628906 108.195312 L 670.382812 102.230469 C 670.382812 98.820312 669.421875 95.445312 667.847656 92.355469 C 666.34375 89.414062 664.289062 86.734375 662.070312 84.558594 C 659.417969 81.957031 656.460938 79.792969 653.242188 78.222656 C 649.902344 76.59375 646.292969 75.597656 642.453125 75.417969 C 641.519531 75.371094 637.007812 76.195312 634.820312 76.617188 L 629.796875 62.867188 C 626.035156 57.53125 621.257812 53.179688 615.925781 49.621094 C 610.695312 46.132812 604.9375 43.410156 599.121094 41.273438 C 586.984375 36.8125 572.878906 35.148438 559.019531 36.320312 C 545.144531 37.492188 531.53125 41.507812 520.375 48.304688 C 516.429688 50.707031 512.507812 53.210938 508.863281 56.085938 C 506.363281 58.058594 503.996094 60.203125 501.839844 62.605469 C 501.277344 63.230469 499.324219 66.070312 498.070312 67.921875 C 496.179688 66.558594 493.136719 64.410156 492.273438 63.992188 C 488.992188 62.410156 485.417969 61.191406 481.761719 60.539062 C 477.980469 59.863281 474.113281 59.789062 470.378906 60.503906 C 465.4375 61.449219 460.839844 63.636719 456.882812 66.710938 C 453.015625 69.710938 449.761719 73.5625 447.394531 77.910156 L 444.890625 85.234375 C 442.085938 84.539062 438.085938 83.519531 437.328125 83.484375 C 433.695312 83.328125 429.898438 83.925781 426.246094 85.085938 C 422.710938 86.210938 419.320312 87.855469 416.367188 89.816406 C 410.914062 93.433594 406.132812 98.234375 402.378906 103.765625 C 398.660156 109.246094 395.945312 115.4375 394.558594 121.898438 L 394.210938 133.917969 C 392.941406 136.367188 387.570312 138.945312 383.605469 142.734375 C 381.707031 144.546875 380.046875 146.5625 378.925781 148.785156 C 375.222656 156.109375 375.144531 161.566406 376.808594 166.0625 C 379.03125 172.050781 385.003906 176.34375 390.867188 181.492188 L 390.722656 181.726562 L 386.539062 190.867188 C 385.042969 195.1875 384.046875 199.570312 383.539062 204.011719 C 383.03125 208.433594 383.011719 212.917969 383.460938 217.46875 C 385.574219 238.742188 396.542969 254.03125 411.476562 262.421875 C 425.890625 270.519531 444.082031 272.175781 461.71875 266.355469 C 463.003906 271.210938 463.890625 276.128906 464.425781 281.089844 C 465.0625 286.988281 465.203125 292.949219 464.910156 298.9375 L 463.453125 310.652344 C 463.074219 312.453125 461.226562 316.453125 461.292969 317.445312 C 461.402344 319.054688 462.242188 319.980469 463.148438 320.519531 C 463.894531 320.96875 465.371094 321.636719 467.414062 320.355469 C 474.082031 316.175781 480.027344 310.210938 484.929688 303.410156 C 489.726562 296.761719 493.523438 289.320312 496.042969 282.039062 L 499.167969 269.757812 L 509.070312 275.460938 C 514.21875 277.542969 520.121094 278.820312 526.039062 279.054688 C 532.0625 279.289062 538.097656 278.441406 543.402344 276.316406 C 548.097656 274.433594 552.738281 272.054688 557.078125 269.210938 C 561.441406 266.351562 565.5 263.015625 569.015625 259.238281 L 574.125 252.855469 C 574.789062 253.835938 575.5625 254.84375 576.167969 255.265625 C 578.109375 256.632812 580.335938 257.582031 582.660156 258.160156 C 584.878906 258.714844 587.1875 258.933594 589.398438 258.875 C 592.722656 258.789062 595.347656 258.050781 597.597656 256.957031 C 601.964844 254.835938 604.613281 251 609.046875 248.285156 C 611.59375 249.730469 615.910156 252.304688 616.78125 252.613281 C 621.328125 254.214844 625.917969 255.242188 630.5625 255.738281 C 635.1875 256.234375 639.871094 256.203125 644.628906 255.691406 C 653.640625 254.722656 661.917969 252.121094 669.140625 247.761719 C 676.347656 243.414062 682.519531 237.320312 687.308594 229.308594 L 693.054688 214.210938 C 695.375 211.726562 701.011719 211.253906 705.078125 209.347656 C 706.5625 208.652344 707.898438 207.835938 708.996094 206.859375 C 717.707031 199.15625 723.128906 188.144531 725.148438 176.421875 C 727.136719 164.878906 725.824219 152.664062 721.222656 142.335938 Z M 717.9375 175.179688 C 716.199219 185.25 711.628906 194.757812 704.144531 201.378906 C 701.15625 204.027344 695.582031 204.703125 691.847656 206.40625 C 690.15625 207.175781 688.738281 208.109375 687.703125 209.21875 C 686.792969 210.191406 685.976562 211.5625 685.285156 213.207031 C 683.699219 216.976562 682.789062 222.605469 681.027344 225.550781 C 676.890625 232.46875 671.582031 237.742188 665.359375 241.496094 C 659.023438 245.320312 651.753906 247.566406 643.847656 248.414062 C 639.617188 248.867188 635.453125 248.898438 631.339844 248.457031 C 627.253906 248.023438 623.214844 247.117188 619.214844 245.710938 C 618.347656 245.402344 613.65625 242.453125 611.675781 241.363281 C 609.425781 240.121094 607.566406 240.746094 607.347656 240.855469 C 602.570312 243.238281 599.785156 246.917969 595.964844 249.46875 C 594.199219 250.648438 592.125 251.484375 589.210938 251.558594 C 587.644531 251.597656 586.007812 251.449219 584.433594 251.058594 C 582.984375 250.699219 581.585938 250.125 580.375 249.277344 C 579.175781 248.4375 578.488281 245.863281 577.492188 245.015625 C 575.816406 243.585938 573.996094 243.265625 571.914062 244.566406 C 570.722656 245.308594 569.554688 246.445312 568.449219 247.796875 C 566.746094 249.894531 565.183594 252.613281 563.65625 254.253906 C 560.539062 257.605469 556.9375 260.554688 553.066406 263.089844 C 549.136719 265.664062 544.929688 267.816406 540.679688 269.519531 C 536.296875 271.277344 531.304688 271.9375 526.324219 271.742188 C 521.265625 271.542969 516.21875 270.457031 511.8125 268.675781 L 503.515625 263.886719 C 502.484375 263.097656 501.277344 260.757812 500.355469 260.058594 C 499.316406 259.269531 498.269531 259.058594 497.375 259.121094 C 496.183594 259.203125 494.875 259.6875 493.949219 261.429688 C 493.035156 263.152344 492.351562 265.226562 491.808594 267.457031 C 490.824219 271.507812 490.332031 276.164062 489.125 279.648438 C 486.828125 286.285156 483.363281 293.070312 478.992188 299.132812 C 476.621094 302.421875 473.980469 305.503906 471.105469 308.21875 L 472.21875 299.296875 C 472.53125 292.925781 472.382812 286.582031 471.703125 280.304688 C 471.023438 273.988281 469.804688 267.738281 467.988281 261.589844 C 467.625 260.351562 466.660156 259.453125 465.507812 259.117188 C 464.535156 258.324219 463.175781 258.058594 461.917969 258.53125 C 445.578125 264.671875 428.46875 263.574219 415.058594 256.042969 C 402.035156 248.722656 392.589844 235.308594 390.746094 216.746094 C 390.347656 212.722656 390.363281 208.753906 390.8125 204.839844 C 391.257812 200.929688 392.136719 197.070312 393.453125 193.261719 L 397.085938 185.347656 C 397.214844 185.117188 398.191406 183.578125 398.566406 182.9375 C 400.066406 180.390625 398.167969 178.226562 398.0625 178.125 C 392.460938 172.894531 385.824219 169.316406 383.671875 163.519531 C 382.5625 160.527344 382.996094 156.953125 385.457031 152.085938 C 386.214844 150.585938 387.378906 149.253906 388.660156 148.027344 C 393.304688 143.589844 399.226562 140.148438 400.710938 137.277344 C 401.207031 136.320312 401.546875 134.957031 401.664062 133.332031 C 401.890625 130.242188 401.222656 125.730469 401.714844 123.4375 C 402.90625 117.890625 405.242188 112.578125 408.433594 107.878906 C 411.652344 103.136719 415.742188 99.015625 420.414062 95.914062 C 422.820312 94.320312 425.582031 92.976562 428.464844 92.0625 C 431.28125 91.167969 434.210938 90.675781 437.011719 90.796875 C 437.820312 90.832031 442.875 92.296875 444.964844 92.792969 C 447.398438 93.371094 448.984375 92.332031 449.128906 92.210938 C 449.839844 91.617188 450.617188 90.527344 451.242188 89.054688 C 452.230469 86.71875 453.011719 82.90625 453.824219 81.40625 C 455.707031 77.949219 458.292969 74.882812 461.371094 72.492188 C 464.417969 70.125 467.949219 68.421875 471.757812 67.691406 C 474.617188 67.144531 477.578125 67.226562 480.472656 67.742188 C 483.472656 68.28125 486.402344 69.285156 489.097656 70.585938 C 490.355469 71.191406 494.335938 74.566406 496.332031 75.578125 C 497.65625 76.25 498.792969 76.3125 499.457031 76.214844 C 500.105469 76.117188 501.253906 75.699219 502.351562 74.5 C 503.820312 72.902344 506.421875 68.453125 507.28125 67.5 C 509.15625 65.410156 511.222656 63.546875 513.398438 61.832031 C 516.808594 59.140625 520.492188 56.804688 524.183594 54.554688 C 534.414062 48.320312 546.914062 44.6875 559.636719 43.613281 C 572.410156 42.535156 585.414062 44.03125 596.597656 48.144531 C 601.875 50.085938 607.113281 52.539062 611.863281 55.710938 C 616.449219 58.769531 620.578125 62.496094 623.816406 67.085938 C 625.382812 69.308594 627.1875 77.367188 628.785156 80.660156 C 629.472656 82.078125 630.289062 82.984375 630.917969 83.425781 C 631.378906 83.75 632.535156 84.285156 634.269531 84.128906 C 636.289062 83.949219 641.003906 82.675781 642.105469 82.726562 C 644.925781 82.863281 647.578125 83.601562 650.03125 84.800781 C 652.550781 86.03125 654.863281 87.742188 656.945312 89.78125 C 658.625 91.433594 660.191406 93.453125 661.328125 95.679688 C 662.371094 97.734375 663.0625 99.960938 663.0625 102.226562 L 662.429688 107.496094 C 662.214844 108.234375 661.253906 109.449219 661.066406 110.117188 C 660.753906 111.226562 660.914062 112.160156 661.207031 112.847656 C 661.703125 114.035156 662.644531 115.183594 664.78125 115.246094 C 675.285156 115.539062 685.601562 118.074219 694.410156 123.128906 C 702.976562 128.046875 710.105469 135.363281 714.535156 145.3125 C 718.566406 154.359375 719.675781 165.066406 717.9375 175.179688 Z M 717.9375 175.179688 " fill-opacity="1" fill-rule="evenodd"/></g><path fill="#000000" d="M 404.570312 146.269531 C 404.914062 146.230469 404.933594 145.910156 404.796875 145.464844 C 404.710938 145.472656 404.679688 145.730469 404.65625 145.820312 C 404.628906 145.941406 404.390625 146.289062 404.570312 146.269531 Z M 404.570312 146.269531 " fill-opacity="1" fill-rule="evenodd"/><path fill="#000000" d="M 403.515625 131.859375 C 403.246094 133.542969 403.058594 135.292969 403.019531 137.042969 C 402.980469 138.820312 403.09375 140.597656 403.339844 142.316406 C 403.445312 142.921875 404.5 144.492188 404.796875 145.464844 C 404.8125 145.460938 404.828125 145.464844 404.84375 145.480469 C 406.269531 146.675781 400.09375 148.570312 399.054688 149.324219 C 394.859375 152.554688 391.1875 157.199219 390.890625 161.886719 C 390.699219 164.914062 391.808594 167.921875 395.179688 170.40625 C 392.671875 167.609375 392.128906 164.824219 392.800781 162.1875 C 393.773438 158.351562 397.445312 155.035156 401.382812 152.941406 C 402.492188 152.3125 405.828125 151.085938 407.660156 149.8125 C 408.8125 149.011719 409.445312 148.027344 409.707031 147.246094 C 409.875 146.738281 409.898438 145.976562 409.757812 145.070312 C 409.578125 143.945312 408.949219 142.3125 408.867188 141.546875 C 408.675781 140.109375 408.621094 138.625 408.640625 137.144531 C 408.660156 135.632812 408.757812 134.125 408.953125 132.667969 C 409.777344 124.703125 412.914062 117.152344 417.769531 111.058594 C 422.796875 104.75 429.566406 99.96875 437.863281 98.050781 C 429.007812 98.902344 421.273438 102.910156 415.328125 108.886719 C 409.25 115 405.210938 123.160156 403.515625 131.859375 Z M 403.515625 131.859375 " fill-opacity="1" fill-rule="evenodd"/><path fill="#000000" d="M 417.335938 242.824219 C 415.628906 241.320312 414.0625 239.660156 412.550781 237.921875 C 411.054688 236.203125 409.628906 234.414062 408.339844 232.507812 C 405.730469 228.660156 403.617188 224.46875 402.246094 220.023438 C 400.105469 213.074219 399.578125 205.746094 401.523438 198.757812 C 398.28125 205.636719 397.417969 213.34375 398.613281 220.867188 C 399.425781 225.957031 401.191406 230.910156 403.765625 235.371094 C 405.074219 237.636719 406.605469 239.777344 408.363281 241.683594 C 410.148438 243.613281 412.15625 245.320312 414.328125 246.753906 C 417.605469 248.917969 421.175781 250.527344 425 251.390625 C 428.644531 252.207031 432.386719 252.328125 436.292969 251.742188 C 432.542969 251.316406 429.171875 250.1875 425.945312 248.652344 C 422.78125 247.144531 419.964844 245.144531 417.335938 242.824219 Z M 417.335938 242.824219 " fill-opacity="1" fill-rule="evenodd"/><path fill="#000000" d="M 480.273438 269.964844 C 479.59375 267.195312 478.632812 264.542969 477.371094 261.996094 C 475.515625 258.242188 473.125 254.914062 470.144531 251.808594 C 471.980469 255.511719 473.027344 259.273438 473.847656 263.210938 C 474.402344 265.886719 474.671875 268.5625 474.996094 271.289062 C 475.210938 273.074219 475.40625 274.867188 475.671875 276.65625 C 475.941406 278.496094 476.3125 280.269531 476.636719 282.105469 C 477.148438 285.007812 477.730469 287.679688 478.066406 290.59375 C 478.785156 288.570312 479.445312 286.695312 479.953125 284.59375 C 480.457031 282.519531 480.785156 280.488281 480.957031 278.363281 C 481.074219 276.953125 481.089844 275.546875 480.980469 274.140625 C 480.871094 272.730469 480.609375 271.332031 480.273438 269.964844 Z M 480.273438 269.964844 " fill-opacity="1" fill-rule="evenodd"/><path fill="#000000" d="M 643.050781 68.019531 L 642.914062 67.738281 C 642.84375 67.621094 642.855469 67.632812 642.761719 67.535156 L 642.742188 67.527344 L 643.015625 68.011719 Z M 643.050781 68.019531 " fill-opacity="1" fill-rule="evenodd"/><path fill="#000000" d="M 631.945312 52.65625 C 634.867188 58.054688 636.273438 63.960938 638.910156 70.375 C 639.148438 70.929688 639.792969 71.570312 640.804688 72.050781 C 641.917969 72.585938 643.886719 72.984375 644.507812 73.171875 L 655.179688 76.980469 C 659.859375 78.640625 663.953125 81.019531 667.503906 84.039062 C 671.203125 87.1875 674.320312 90.878906 676.515625 95.648438 C 675.4375 90.210938 673.296875 85.519531 670.0625 81.539062 C 666.765625 77.472656 662.359375 74.382812 657.394531 71.839844 C 655.503906 71.035156 653.609375 70.285156 651.667969 69.671875 C 649.726562 69.054688 647.746094 68.570312 645.734375 68.148438 C 645.367188 68.078125 643.832031 68.183594 643.050781 68.019531 C 643.09375 68.121094 643.136719 68.21875 643.167969 68.273438 L 643.015625 68.011719 C 642.683594 67.9375 642.496094 67.808594 642.617188 67.589844 C 642.65625 67.519531 642.695312 67.503906 642.742188 67.527344 C 639.457031 61.742188 637.3125 56.253906 633.726562 51.511719 C 631.304688 48.3125 628.292969 45.484375 623.910156 43.128906 C 627.707031 46.070312 630.101562 49.25 631.945312 52.65625 Z M 631.945312 52.65625 " fill-opacity="1" fill-rule="evenodd"/><g clip-path="url(#ed587f92ec)"><path fill="#000000" d="M 737.015625 166.613281 C 736.867188 162.769531 736.296875 158.914062 735.398438 155.132812 C 733.617188 147.644531 730.546875 140.417969 726.414062 133.996094 C 720.132812 124.234375 711.410156 116.375 700.980469 112.113281 C 710.570312 117.339844 718.003906 125.878906 723.191406 135.867188 C 726.492188 142.222656 728.785156 149.164062 730.121094 156.257812 C 730.785156 159.785156 731.1875 163.34375 731.398438 166.890625 C 731.613281 170.484375 731.628906 174.054688 731.339844 177.582031 C 730.902344 183.03125 729.832031 188.320312 727.917969 193.316406 C 725.957031 198.441406 723.28125 203.226562 719.535156 207.46875 C 724.089844 203.820312 727.757812 199.480469 730.535156 194.550781 C 733.363281 189.535156 735.242188 184 736.25 178.207031 C 736.910156 174.417969 737.171875 170.523438 737.015625 166.613281 Z M 737.015625 166.613281 " fill-opacity="1" fill-rule="evenodd"/></g><g fill="#000000" fill-opacity="1"><g transform="translate(472.277324, 134.352019)"><g><path d="M 16.375 -25.023438 C 13.617188 -25.023438 11.453125 -23.6875 9.980469 -21.664062 L 9.476562 -24.378906 L 1.839844 -24.378906 L 2.300781 -17.480469 L 2.300781 0 L 10.761719 0 L 10.761719 -14.71875 C 11.316406 -15.410156 12.925781 -16.328125 15.683594 -16.328125 L 17.066406 -16.328125 L 17.066406 -24.976562 C 16.835938 -25.023438 16.605469 -25.023438 16.375 -25.023438 Z M 16.375 -25.023438 "/></g></g></g><g fill="#000000" fill-opacity="1"><g transform="translate(490.675772, 134.352019)"><g><path d="M 2.023438 -24.378906 L 2.023438 -8.050781 C 2.023438 -3.679688 3.863281 0.644531 9.613281 0.644531 C 13.246094 0.644531 15.730469 -0.828125 17.296875 -2.988281 L 17.894531 0 L 25.527344 0 L 25.070312 -6.898438 L 25.070312 -24.378906 L 16.605469 -24.378906 L 16.605469 -8.507812 C 16.144531 -7.820312 14.902344 -6.625 13.0625 -6.625 C 10.761719 -6.625 10.488281 -8.28125 10.488281 -9.429688 L 10.488281 -24.378906 Z M 2.023438 -24.378906 "/></g></g></g><g fill="#000000" fill-opacity="1"><g transform="translate(518.04347, 134.352019)"><g><path d="M 25.34375 0 L 25.34375 -16.328125 C 25.34375 -20.699219 23.503906 -25.023438 17.753906 -25.023438 C 14.121094 -25.023438 11.636719 -23.503906 10.027344 -21.34375 L 9.476562 -24.378906 L 1.839844 -24.378906 L 2.300781 -17.480469 L 2.300781 0 L 10.761719 0 L 10.761719 -15.867188 C 11.222656 -16.558594 12.464844 -17.753906 14.304688 -17.753906 C 16.605469 -17.753906 16.882812 -16.097656 16.882812 -14.949219 L 16.882812 0 Z M 25.34375 0 "/></g></g></g><g fill="#000000" fill-opacity="1"><g transform="translate(545.411167, 134.352019)"><g><path d="M 25.34375 0 L 25.34375 -16.328125 C 25.34375 -20.699219 23.503906 -25.023438 17.753906 -25.023438 C 14.121094 -25.023438 11.636719 -23.503906 10.027344 -21.34375 L 9.476562 -24.378906 L 1.839844 -24.378906 L 2.300781 -17.480469 L 2.300781 0 L 10.761719 0 L 10.761719 -15.867188 C 11.222656 -16.558594 12.464844 -17.753906 14.304688 -17.753906 C 16.605469 -17.753906 16.882812 -16.097656 16.882812 -14.949219 L 16.882812 0 Z M 25.34375 0 "/></g></g></g><g fill="#000000" fill-opacity="1"><g transform="translate(572.778865, 134.352019)"><g><path d="M 2.207031 0 L 10.671875 0 L 10.671875 -24.378906 L 2.207031 -24.378906 Z M 10.808594 -35.878906 L 2.070312 -35.878906 L 2.070312 -27.136719 L 10.808594 -27.136719 Z M 10.808594 -35.878906 "/></g></g></g><g fill="#000000" fill-opacity="1"><g transform="translate(585.657782, 134.352019)"><g><path d="M 25.34375 0 L 25.34375 -16.328125 C 25.34375 -20.699219 23.503906 -25.023438 17.753906 -25.023438 C 14.121094 -25.023438 11.636719 -23.503906 10.027344 -21.34375 L 9.476562 -24.378906 L 1.839844 -24.378906 L 2.300781 -17.480469 L 2.300781 0 L 10.761719 0 L 10.761719 -15.867188 C 11.222656 -16.558594 12.464844 -17.753906 14.304688 -17.753906 C 16.605469 -17.753906 16.882812 -16.097656 16.882812 -14.949219 L 16.882812 0 Z M 25.34375 0 "/></g></g></g><g fill="#000000" fill-opacity="1"><g transform="translate(613.025479, 134.352019)"><g><path d="M 16.191406 -0.691406 C 16.191406 2.300781 14.949219 3.035156 12.695312 3.035156 C 10.121094 3.035156 9.566406 1.609375 9.566406 0 L 1.609375 0 L 1.609375 1.105469 C 1.609375 5.980469 4.414062 9.84375 12.878906 9.84375 C 20.746094 9.84375 24.65625 6.441406 24.65625 -0.691406 L 24.65625 -17.480469 L 25.113281 -24.378906 L 17.480469 -24.378906 L 16.972656 -21.710938 C 15.59375 -23.644531 13.429688 -25.023438 10.121094 -25.023438 C 3.679688 -25.023438 1.148438 -20.238281 1.148438 -13.570312 L 1.148438 -12.1875 C 1.148438 -5.058594 3.679688 -0.734375 10.121094 -0.734375 C 12.832031 -0.734375 14.8125 -1.609375 16.191406 -3.035156 Z M 16.191406 -9.890625 C 15.730469 -9.199219 14.488281 -8.003906 12.648438 -8.003906 C 10.578125 -8.003906 9.566406 -9.199219 9.566406 -12.1875 L 9.566406 -13.570312 C 9.566406 -16.097656 10.578125 -17.753906 12.648438 -17.753906 C 14.488281 -17.753906 15.730469 -16.558594 16.191406 -15.867188 Z M 16.191406 -9.890625 "/></g></g></g><g fill="#000000" fill-opacity="1"><g transform="translate(414.21092, 198.102016)"><g><path d="M 24.609375 -9.199219 L 24.609375 -12.878906 C 24.609375 -20.007812 20.929688 -25.023438 13.0625 -25.023438 C 5.199219 -25.023438 1.148438 -20.007812 1.148438 -12.878906 L 1.148438 -11.5 C 1.148438 -4.371094 5.015625 0.644531 13.339844 0.644531 C 20.421875 0.644531 24.609375 -2.761719 24.609375 -7.636719 L 24.609375 -7.820312 L 16.652344 -7.820312 C 16.652344 -6.667969 15.226562 -5.703125 13.386719 -5.703125 C 11.269531 -5.703125 9.890625 -6.441406 9.613281 -9.199219 Z M 12.878906 -18.675781 C 14.855469 -18.675781 15.914062 -17.753906 16.144531 -15.179688 L 9.613281 -15.179688 C 9.84375 -17.753906 10.902344 -18.675781 12.878906 -18.675781 Z M 12.878906 -18.675781 "/></g></g></g><g fill="#000000" fill-opacity="1"><g transform="translate(439.968755, 198.102016)"><g><path d="M 0.691406 -24.378906 L 6.578125 -12.648438 L 0.691406 0 L 10.164062 0 L 13.339844 -7.910156 L 16.511719 0 L 25.988281 0 L 20.054688 -12.648438 L 25.988281 -24.378906 L 16.238281 -24.378906 L 13.339844 -16.652344 L 10.441406 -24.378906 Z M 0.691406 -24.378906 "/></g></g></g><g fill="#000000" fill-opacity="1"><g transform="translate(466.646511, 198.102016)"><g><path d="M 16.789062 0.644531 C 23.457031 0.644531 25.757812 -4.140625 25.757812 -11.269531 L 25.757812 -13.109375 C 25.757812 -20.238281 23.457031 -25.023438 16.789062 -25.023438 C 13.476562 -25.023438 11.316406 -23.597656 9.933594 -21.527344 L 9.429688 -24.378906 L 1.792969 -24.378906 L 2.253906 -17.480469 L 2.253906 9.199219 L 10.71875 9.199219 L 10.71875 -1.839844 C 12.097656 -0.320312 14.027344 0.644531 16.789062 0.644531 Z M 10.71875 -15.867188 C 11.175781 -16.558594 12.417969 -17.753906 14.257812 -17.753906 C 16.558594 -17.753906 17.339844 -16.097656 17.339844 -13.109375 L 17.339844 -11.269531 C 17.339844 -8.28125 16.558594 -6.625 14.257812 -6.625 C 12.417969 -6.625 11.175781 -7.820312 10.71875 -8.507812 Z M 10.71875 -15.867188 "/></g></g></g><g fill="#000000" fill-opacity="1"><g transform="translate(493.554248, 198.102016)"><g><path d="M 24.609375 -9.199219 L 24.609375 -12.878906 C 24.609375 -20.007812 20.929688 -25.023438 13.0625 -25.023438 C 5.199219 -25.023438 1.148438 -20.007812 1.148438 -12.878906 L 1.148438 -11.5 C 1.148438 -4.371094 5.015625 0.644531 13.339844 0.644531 C 20.421875 0.644531 24.609375 -2.761719 24.609375 -7.636719 L 24.609375 -7.820312 L 16.652344 -7.820312 C 16.652344 -6.667969 15.226562 -5.703125 13.386719 -5.703125 C 11.269531 -5.703125 9.890625 -6.441406 9.613281 -9.199219 Z M 12.878906 -18.675781 C 14.855469 -18.675781 15.914062 -17.753906 16.144531 -15.179688 L 9.613281 -15.179688 C 9.84375 -17.753906 10.902344 -18.675781 12.878906 -18.675781 Z M 12.878906 -18.675781 "/></g></g></g><g fill="#000000" fill-opacity="1"><g transform="translate(519.312082, 198.102016)"><g><path d="M 16.375 -25.023438 C 13.617188 -25.023438 11.453125 -23.6875 9.980469 -21.664062 L 9.476562 -24.378906 L 1.839844 -24.378906 L 2.300781 -17.480469 L 2.300781 0 L 10.761719 0 L 10.761719 -14.71875 C 11.316406 -15.410156 12.925781 -16.328125 15.683594 -16.328125 L 17.066406 -16.328125 L 17.066406 -24.976562 C 16.835938 -25.023438 16.605469 -25.023438 16.375 -25.023438 Z M 16.375 -25.023438 "/></g></g></g><g fill="#000000" fill-opacity="1"><g transform="translate(537.71053, 198.102016)"><g><path d="M 2.207031 0 L 10.671875 0 L 10.671875 -24.378906 L 2.207031 -24.378906 Z M 10.808594 -35.878906 L 2.070312 -35.878906 L 2.070312 -27.136719 L 10.808594 -27.136719 Z M 10.808594 -35.878906 "/></g></g></g><g fill="#000000" fill-opacity="1"><g transform="translate(550.589447, 198.102016)"><g><path d="M 38.453125 0 L 38.453125 -16.558594 C 38.453125 -21.160156 36.382812 -25.023438 31.09375 -25.023438 C 27.550781 -25.023438 25.113281 -23.503906 23.644531 -21.296875 C 22.539062 -23.503906 20.515625 -25.023438 17.25 -25.023438 C 13.84375 -25.023438 11.5 -23.644531 9.980469 -21.574219 L 9.476562 -24.378906 L 1.839844 -24.378906 L 2.300781 -17.480469 L 2.300781 0 L 10.761719 0 L 10.761719 -16.097656 C 11.222656 -16.789062 12.1875 -17.753906 13.800781 -17.753906 C 15.640625 -17.753906 16.144531 -16.558594 16.144531 -15.179688 L 16.144531 0 L 24.609375 0 L 24.609375 -16.097656 C 25.070312 -16.789062 26.035156 -17.753906 27.644531 -17.753906 C 29.484375 -17.753906 29.992188 -16.558594 29.992188 -15.179688 L 29.992188 0 Z M 38.453125 0 "/></g></g></g><g fill="#000000" fill-opacity="1"><g transform="translate(591.066043, 198.102016)"><g><path d="M 24.609375 -9.199219 L 24.609375 -12.878906 C 24.609375 -20.007812 20.929688 -25.023438 13.0625 -25.023438 C 5.199219 -25.023438 1.148438 -20.007812 1.148438 -12.878906 L 1.148438 -11.5 C 1.148438 -4.371094 5.015625 0.644531 13.339844 0.644531 C 20.421875 0.644531 24.609375 -2.761719 24.609375 -7.636719 L 24.609375 -7.820312 L 16.652344 -7.820312 C 16.652344 -6.667969 15.226562 -5.703125 13.386719 -5.703125 C 11.269531 -5.703125 9.890625 -6.441406 9.613281 -9.199219 Z M 12.878906 -18.675781 C 14.855469 -18.675781 15.914062 -17.753906 16.144531 -15.179688 L 9.613281 -15.179688 C 9.84375 -17.753906 10.902344 -18.675781 12.878906 -18.675781 Z M 12.878906 -18.675781 "/></g></g></g><g fill="#000000" fill-opacity="1"><g transform="translate(616.823889, 198.102016)"><g><path d="M 25.34375 0 L 25.34375 -16.328125 C 25.34375 -20.699219 23.503906 -25.023438 17.753906 -25.023438 C 14.121094 -25.023438 11.636719 -23.503906 10.027344 -21.34375 L 9.476562 -24.378906 L 1.839844 -24.378906 L 2.300781 -17.480469 L 2.300781 0 L 10.761719 0 L 10.761719 -15.867188 C 11.222656 -16.558594 12.464844 -17.753906 14.304688 -17.753906 C 16.605469 -17.753906 16.882812 -16.097656 16.882812 -14.949219 L 16.882812 0 Z M 25.34375 0 "/></g></g></g><g fill="#000000" fill-opacity="1"><g transform="translate(644.191586, 198.102016)"><g><path d="M 12.832031 -24.378906 L 12.832031 -31.277344 L 4.371094 -31.277344 L 4.371094 -24.378906 L 0.691406 -24.378906 L 0.691406 -17.019531 L 4.371094 -17.019531 L 4.371094 -8.96875 C 4.371094 -1.839844 8.28125 0.644531 14.121094 0.644531 C 16.421875 0.644531 17.800781 0.230469 18.214844 0 L 18.214844 -6.898438 C 17.984375 -6.808594 16.835938 -6.625 16.097656 -6.625 C 14.167969 -6.625 12.832031 -7.128906 12.832031 -9.890625 L 12.832031 -17.019531 L 18.675781 -17.019531 L 18.675781 -24.378906 Z M 12.832031 -24.378906 "/></g></g></g><g fill="#000000" fill-opacity="1"><g transform="translate(664.42989, 198.102016)"><g><path d="M 12.1875 -5.703125 C 10.441406 -5.703125 9.707031 -6.484375 9.707031 -7.820312 L 1.289062 -7.820312 L 1.289062 -7.589844 C 1.289062 -2.53125 5.015625 0.644531 12.1875 0.644531 C 19.503906 0.644531 23.089844 -2.53125 23.089844 -7.867188 L 23.089844 -8.324219 C 23.089844 -13.660156 18.675781 -14.765625 12.558594 -15.269531 C 10.488281 -15.457031 9.890625 -15.867188 9.890625 -17.019531 C 9.890625 -17.984375 10.671875 -18.675781 12.1875 -18.675781 C 13.707031 -18.675781 14.488281 -17.800781 14.488281 -16.328125 L 22.769531 -16.328125 L 22.769531 -16.558594 C 22.769531 -21.941406 19.503906 -25.023438 12.1875 -25.023438 C 6.394531 -25.023438 1.609375 -22.769531 1.609375 -16.742188 L 1.609375 -16.28125 C 1.609375 -11.40625 4.875 -9.890625 11.867188 -9.335938 C 14.167969 -9.152344 14.628906 -8.507812 14.628906 -7.496094 C 14.628906 -6.53125 14.027344 -5.703125 12.1875 -5.703125 Z M 12.1875 -5.703125 "/></g></g></g><g fill="#000000" fill-opacity="1"><g transform="translate(688.804658, 198.102016)"><g/></g></g><path fill="#ffffff" d="M 30.707031 412.515625 C 30.707031 427.90625 43.175781 440.390625 58.550781 440.390625 C 59.863281 440.390625 61.160156 440.304688 62.421875 440.121094 C 69.222656 459.742188 87.855469 473.832031 109.785156 473.832031 C 122.648438 473.832031 134.386719 468.976562 143.265625 460.992188 C 147.039062 463.027344 151.363281 464.167969 155.957031 464.167969 C 164.179688 464.167969 171.53125 460.488281 176.480469 454.675781 C 184.027344 460.625 193.542969 464.167969 203.898438 464.167969 C 213.710938 464.167969 222.773438 460.980469 230.125 455.570312 C 236.007812 463.507812 245.425781 468.632812 256.046875 468.632812 C 273.886719 468.632812 288.34375 454.148438 288.34375 436.292969 C 288.34375 426.289062 283.796875 417.335938 276.667969 411.414062 C 288.390625 401.050781 295.777344 385.90625 295.777344 369.042969 C 295.777344 345.402344 281.261719 325.15625 260.667969 316.742188 C 262.714844 311.410156 263.839844 305.609375 263.839844 299.550781 C 263.839844 273.074219 242.402344 251.613281 215.953125 251.613281 C 200.210938 251.613281 186.230469 259.21875 177.507812 270.964844 C 175.046875 269.984375 172.363281 269.445312 169.558594 269.445312 C 164.351562 269.445312 159.585938 271.296875 155.875 274.363281 C 150.59375 261.03125 137.59375 251.613281 122.402344 251.613281 C 102.839844 251.613281 86.925781 267.238281 86.421875 286.699219 C 72.703125 290.523438 61.640625 300.738281 56.628906 313.933594 C 54.09375 313.039062 51.375 312.5625 48.53125 312.5625 C 34.992188 312.5625 24.027344 323.535156 24.027344 337.085938 C 24.027344 346.113281 28.90625 353.996094 36.15625 358.253906 C 35.03125 361.515625 34.417969 365.023438 34.417969 368.664062 C 34.417969 376.769531 37.433594 384.175781 42.394531 389.832031 C 35.3125 394.871094 30.707031 403.160156 30.707031 412.515625 Z M 30.707031 412.515625 " fill-opacity="1" fill-rule="nonzero"/><g clip-path="url(#2db503de1c)"><path fill="#000000" d="M 109.785156 476.285156 C 88.050781 476.285156 68.609375 462.894531 60.78125 442.769531 C 60.046875 442.820312 59.3125 442.84375 58.550781 442.84375 C 41.84375 442.84375 28.253906 429.242188 28.253906 412.515625 C 28.253906 403.601562 32.199219 395.152344 38.914062 389.4375 C 34.417969 383.464844 31.96875 376.179688 31.96875 368.664062 C 31.96875 365.476562 32.398438 362.335938 33.253906 359.308594 C 26.015625 354.304688 21.578125 345.964844 21.578125 337.085938 C 21.578125 322.210938 33.671875 310.109375 48.53125 310.109375 C 50.808594 310.109375 53.039062 310.390625 55.207031 310.941406 C 60.621094 298.542969 71.195312 288.96875 84.058594 284.847656 C 85.480469 264.699219 101.992188 249.160156 122.402344 249.160156 C 137.226562 249.160156 150.445312 257.488281 156.890625 270.621094 C 160.675781 268.265625 165.0625 266.992188 169.558594 266.992188 C 171.984375 266.992188 174.359375 267.347656 176.652344 268.058594 C 186.15625 256.199219 200.710938 249.160156 215.953125 249.160156 C 243.710938 249.160156 266.289062 271.761719 266.289062 299.550781 C 266.289062 304.984375 265.433594 310.304688 263.742188 315.40625 C 284.765625 324.972656 298.226562 345.769531 298.226562 369.042969 C 298.226562 385.023438 291.722656 400.304688 280.304688 411.386719 C 287.007812 417.914062 290.792969 426.851562 290.792969 436.292969 C 290.792969 455.472656 275.207031 471.085938 256.046875 471.085938 C 245.90625 471.085938 236.203125 466.570312 229.648438 458.894531 C 222.003906 463.960938 213.144531 466.621094 203.898438 466.621094 C 194.046875 466.621094 184.722656 463.640625 176.785156 457.964844 C 171.285156 463.492188 163.8125 466.621094 155.957031 466.621094 C 151.683594 466.621094 147.457031 465.6875 143.632812 463.921875 C 134.164062 471.90625 122.207031 476.285156 109.785156 476.285156 Z M 62.421875 437.667969 C 63.453125 437.667969 64.394531 438.316406 64.738281 439.3125 C 71.378906 458.492188 89.484375 471.378906 109.785156 471.378906 C 121.558594 471.378906 132.867188 467.039062 141.625 459.164062 C 142.398438 458.476562 143.511719 458.34375 144.429688 458.832031 C 147.921875 460.722656 151.917969 461.714844 155.957031 461.714844 C 163.148438 461.714844 169.949219 458.5625 174.617188 453.082031 C 175.472656 452.078125 176.96875 451.929688 178 452.75 C 185.445312 458.613281 194.402344 461.714844 203.898438 461.714844 C 212.886719 461.714844 221.453125 458.90625 228.679688 453.597656 C 229.769531 452.789062 231.289062 453.035156 232.097656 454.113281 C 237.78125 461.777344 246.515625 466.179688 256.046875 466.179688 C 272.5 466.179688 285.890625 452.777344 285.890625 436.292969 C 285.890625 427.378906 281.960938 418.992188 275.097656 413.300781 C 274.546875 412.847656 274.230469 412.171875 274.214844 411.449219 C 274.203125 410.738281 274.511719 410.050781 275.050781 409.574219 C 286.664062 399.296875 293.328125 384.53125 293.328125 369.042969 C 293.328125 346.984375 280.144531 327.351562 259.734375 319.011719 C 258.5 318.507812 257.898438 317.109375 258.375 315.859375 C 260.371094 310.648438 261.390625 305.167969 261.390625 299.550781 C 261.390625 274.472656 241.003906 254.066406 215.953125 254.066406 C 201.640625 254.066406 188.007812 260.933594 179.480469 272.425781 C 178.820312 273.320312 177.644531 273.652344 176.601562 273.246094 C 174.359375 272.351562 171.984375 271.898438 169.558594 271.898438 C 165.148438 271.898438 160.835938 273.441406 157.429688 276.25 C 156.828125 276.753906 156.019531 276.925781 155.261719 276.730469 C 154.5 276.53125 153.875 275.980469 153.59375 275.257812 C 148.5 262.394531 136.246094 254.066406 122.402344 254.066406 C 104.078125 254.066406 89.351562 268.425781 88.875 286.761719 C 88.847656 287.839844 88.113281 288.769531 87.085938 289.066406 C 74.207031 292.660156 63.683594 302.285156 58.917969 314.804688 C 58.441406 316.054688 57.070312 316.695312 55.820312 316.253906 C 53.503906 315.429688 51.054688 315.015625 48.53125 315.015625 C 36.367188 315.015625 26.480469 324.910156 26.480469 337.085938 C 26.480469 344.886719 30.65625 352.183594 37.394531 356.132812 C 38.398438 356.71875 38.851562 357.945312 38.472656 359.050781 C 37.40625 362.128906 36.867188 365.367188 36.867188 368.664062 C 36.867188 375.863281 39.488281 382.804688 44.230469 388.210938 C 44.683594 388.738281 44.90625 389.425781 44.820312 390.113281 C 44.734375 390.800781 44.367188 391.425781 43.800781 391.828125 C 37.125 396.574219 33.144531 404.3125 33.144531 412.515625 C 33.144531 426.535156 44.539062 437.9375 58.539062 437.9375 C 59.765625 437.9375 60.953125 437.851562 62.054688 437.691406 C 62.191406 437.679688 62.3125 437.667969 62.421875 437.667969 Z M 62.421875 437.667969 " fill-opacity="1" fill-rule="nonzero"/></g><path fill="#ffffff" d="M 246.492188 489.808594 C 246.492188 490.484375 246.460938 491.15625 246.394531 491.828125 C 246.328125 492.5 246.230469 493.164062 246.097656 493.828125 C 245.964844 494.488281 245.800781 495.140625 245.605469 495.785156 C 245.410156 496.433594 245.183594 497.066406 244.925781 497.6875 C 244.667969 498.3125 244.382812 498.921875 244.0625 499.515625 C 243.746094 500.109375 243.402344 500.6875 243.027344 501.25 C 242.652344 501.808594 242.25 502.351562 241.824219 502.871094 C 241.394531 503.394531 240.945312 503.890625 240.46875 504.367188 C 239.992188 504.847656 239.492188 505.296875 238.972656 505.726562 C 238.453125 506.152344 237.910156 506.554688 237.351562 506.929688 C 236.792969 507.304688 236.214844 507.652344 235.621094 507.96875 C 235.027344 508.285156 234.417969 508.574219 233.796875 508.832031 C 233.171875 509.089844 232.539062 509.316406 231.894531 509.511719 C 231.25 509.707031 230.597656 509.871094 229.9375 510.003906 C 229.277344 510.136719 228.609375 510.234375 227.941406 510.300781 C 227.269531 510.367188 226.597656 510.398438 225.921875 510.398438 C 225.25 510.398438 224.578125 510.367188 223.90625 510.300781 C 223.238281 510.234375 222.570312 510.136719 221.910156 510.003906 C 221.25 509.871094 220.597656 509.707031 219.953125 509.511719 C 219.308594 509.316406 218.675781 509.089844 218.050781 508.832031 C 217.429688 508.574219 216.820312 508.285156 216.226562 507.96875 C 215.632812 507.652344 215.054688 507.304688 214.496094 506.929688 C 213.9375 506.554688 213.394531 506.152344 212.875 505.726562 C 212.355469 505.296875 211.855469 504.847656 211.378906 504.367188 C 210.902344 503.890625 210.449219 503.394531 210.023438 502.871094 C 209.597656 502.351562 209.195312 501.808594 208.820312 501.25 C 208.445312 500.6875 208.101562 500.109375 207.78125 499.515625 C 207.464844 498.921875 207.179688 498.3125 206.921875 497.6875 C 206.664062 497.066406 206.4375 496.433594 206.238281 495.785156 C 206.042969 495.140625 205.882812 494.488281 205.75 493.828125 C 205.617188 493.164062 205.519531 492.5 205.453125 491.828125 C 205.386719 491.15625 205.355469 490.484375 205.355469 489.808594 C 205.355469 489.136719 205.386719 488.464844 205.453125 487.792969 C 205.519531 487.121094 205.617188 486.453125 205.75 485.792969 C 205.882812 485.132812 206.042969 484.480469 206.238281 483.832031 C 206.4375 483.1875 206.664062 482.554688 206.921875 481.929688 C 207.179688 481.308594 207.464844 480.699219 207.78125 480.105469 C 208.101562 479.507812 208.445312 478.933594 208.820312 478.371094 C 209.195312 477.808594 209.597656 477.269531 210.023438 476.75 C 210.449219 476.226562 210.902344 475.726562 211.378906 475.25 C 211.855469 474.773438 212.355469 474.320312 212.875 473.894531 C 213.394531 473.464844 213.9375 473.066406 214.496094 472.691406 C 215.054688 472.316406 215.632812 471.96875 216.226562 471.652344 C 216.820312 471.332031 217.429688 471.046875 218.050781 470.789062 C 218.675781 470.53125 219.308594 470.304688 219.953125 470.105469 C 220.597656 469.910156 221.25 469.746094 221.910156 469.617188 C 222.570312 469.484375 223.238281 469.386719 223.90625 469.320312 C 224.578125 469.253906 225.25 469.21875 225.921875 469.21875 C 226.597656 469.21875 227.269531 469.253906 227.941406 469.320312 C 228.609375 469.386719 229.277344 469.484375 229.9375 469.617188 C 230.597656 469.746094 231.25 469.910156 231.894531 470.105469 C 232.539062 470.304688 233.171875 470.53125 233.796875 470.789062 C 234.417969 471.046875 235.027344 471.332031 235.621094 471.652344 C 236.214844 471.96875 236.792969 472.316406 237.351562 472.691406 C 237.910156 473.066406 238.453125 473.464844 238.972656 473.894531 C 239.492188 474.320312 239.992188 474.773438 240.46875 475.25 C 240.945312 475.726562 241.394531 476.226562 241.824219 476.75 C 242.25 477.269531 242.652344 477.808594 243.027344 478.371094 C 243.402344 478.933594 243.746094 479.507812 244.0625 480.105469 C 244.382812 480.699219 244.667969 481.308594 244.925781 481.929688 C 245.183594 482.554688 245.410156 483.1875 245.605469 483.832031 C 245.800781 484.480469 245.964844 485.132812 246.097656 485.792969 C 246.230469 486.453125 246.328125 487.121094 246.394531 487.792969 C 246.460938 488.464844 246.492188 489.136719 246.492188 489.808594 Z M 246.492188 489.808594 " fill-opacity="1" fill-rule="nonzero"/><path fill="#000000" d="M 225.921875 512.851562 C 213.230469 512.851562 202.902344 502.515625 202.902344 489.808594 C 202.902344 477.105469 213.230469 466.769531 225.921875 466.769531 C 238.617188 466.769531 248.941406 477.105469 248.941406 489.808594 C 248.941406 502.515625 238.617188 512.851562 225.921875 512.851562 Z M 225.921875 471.671875 C 215.9375 471.671875 207.804688 479.804688 207.804688 489.808594 C 207.804688 499.816406 215.925781 507.945312 225.921875 507.945312 C 235.921875 507.945312 244.042969 499.816406 244.042969 489.808594 C 244.042969 479.804688 235.90625 471.671875 225.921875 471.671875 Z M 225.921875 471.671875 " fill-opacity="1" fill-rule="nonzero"/><path fill="#ffffff" d="M 273.222656 518.738281 C 273.222656 519.617188 273.136719 520.488281 272.96875 521.347656 C 272.796875 522.210938 272.542969 523.046875 272.207031 523.859375 C 271.871094 524.667969 271.460938 525.441406 270.972656 526.171875 C 270.484375 526.902344 269.929688 527.578125 269.308594 528.199219 C 268.6875 528.820312 268.015625 529.375 267.285156 529.863281 C 266.554688 530.351562 265.785156 530.761719 264.972656 531.097656 C 264.164062 531.433594 263.328125 531.6875 262.464844 531.859375 C 261.605469 532.03125 260.734375 532.117188 259.859375 532.117188 C 258.980469 532.117188 258.113281 532.03125 257.25 531.859375 C 256.390625 531.6875 255.554688 531.433594 254.742188 531.097656 C 253.933594 530.761719 253.164062 530.351562 252.433594 529.863281 C 251.703125 529.375 251.027344 528.820312 250.40625 528.199219 C 249.785156 527.578125 249.234375 526.902344 248.746094 526.171875 C 248.257812 525.441406 247.847656 524.667969 247.511719 523.859375 C 247.175781 523.046875 246.921875 522.210938 246.75 521.347656 C 246.578125 520.488281 246.492188 519.617188 246.492188 518.738281 C 246.492188 517.859375 246.578125 516.988281 246.75 516.128906 C 246.921875 515.265625 247.175781 514.429688 247.511719 513.617188 C 247.847656 512.808594 248.257812 512.035156 248.746094 511.304688 C 249.234375 510.574219 249.785156 509.898438 250.40625 509.277344 C 251.027344 508.65625 251.703125 508.101562 252.433594 507.613281 C 253.164062 507.125 253.933594 506.714844 254.742188 506.378906 C 255.554688 506.042969 256.390625 505.789062 257.25 505.617188 C 258.113281 505.445312 258.980469 505.359375 259.859375 505.359375 C 260.734375 505.359375 261.605469 505.445312 262.464844 505.617188 C 263.328125 505.789062 264.164062 506.042969 264.972656 506.378906 C 265.785156 506.714844 266.554688 507.125 267.285156 507.613281 C 268.015625 508.101562 268.6875 508.65625 269.308594 509.277344 C 269.929688 509.898438 270.484375 510.574219 270.972656 511.304688 C 271.460938 512.035156 271.871094 512.808594 272.207031 513.617188 C 272.542969 514.429688 272.796875 515.265625 272.96875 516.128906 C 273.136719 516.988281 273.222656 517.859375 273.222656 518.738281 Z M 273.222656 518.738281 " fill-opacity="1" fill-rule="nonzero"/><path fill="#000000" d="M 259.859375 534.582031 C 251.136719 534.582031 244.042969 527.480469 244.042969 518.75 C 244.042969 510.019531 251.136719 502.917969 259.859375 502.917969 C 268.582031 502.917969 275.675781 510.019531 275.675781 518.75 C 275.675781 527.480469 268.582031 534.582031 259.859375 534.582031 Z M 259.859375 507.8125 C 253.832031 507.8125 248.941406 512.71875 248.941406 518.738281 C 248.941406 524.757812 253.84375 529.664062 259.859375 529.664062 C 265.875 529.664062 270.773438 524.757812 270.773438 518.738281 C 270.773438 512.71875 265.886719 507.8125 259.859375 507.8125 Z M 259.859375 507.8125 " fill-opacity="1" fill-rule="nonzero"/><path fill="#ffffff" d="M 292.800781 531.480469 C 292.800781 531.886719 292.761719 532.289062 292.683594 532.6875 C 292.601562 533.085938 292.484375 533.472656 292.332031 533.847656 C 292.175781 534.226562 291.984375 534.582031 291.757812 534.921875 C 291.53125 535.257812 291.277344 535.570312 290.988281 535.859375 C 290.703125 536.144531 290.390625 536.402344 290.050781 536.628906 C 289.714844 536.855469 289.355469 537.046875 288.980469 537.199219 C 288.605469 537.355469 288.21875 537.472656 287.820312 537.554688 C 287.421875 537.632812 287.019531 537.671875 286.613281 537.671875 C 286.207031 537.671875 285.804688 537.632812 285.40625 537.554688 C 285.007812 537.472656 284.621094 537.355469 284.246094 537.199219 C 283.871094 537.046875 283.515625 536.855469 283.175781 536.628906 C 282.839844 536.402344 282.527344 536.144531 282.238281 535.859375 C 281.953125 535.570312 281.695312 535.257812 281.46875 534.921875 C 281.246094 534.582031 281.054688 534.226562 280.898438 533.847656 C 280.742188 533.472656 280.625 533.085938 280.546875 532.6875 C 280.46875 532.289062 280.425781 531.886719 280.425781 531.480469 C 280.425781 531.074219 280.46875 530.671875 280.546875 530.269531 C 280.625 529.871094 280.742188 529.484375 280.898438 529.109375 C 281.054688 528.734375 281.246094 528.378906 281.46875 528.039062 C 281.695312 527.699219 281.953125 527.386719 282.238281 527.101562 C 282.527344 526.8125 282.839844 526.554688 283.175781 526.332031 C 283.515625 526.105469 283.871094 525.914062 284.246094 525.757812 C 284.621094 525.601562 285.007812 525.484375 285.40625 525.40625 C 285.804688 525.328125 286.207031 525.285156 286.613281 525.285156 C 287.019531 525.285156 287.421875 525.328125 287.820312 525.40625 C 288.21875 525.484375 288.605469 525.601562 288.980469 525.757812 C 289.355469 525.914062 289.714844 526.105469 290.050781 526.332031 C 290.390625 526.554688 290.703125 526.8125 290.988281 527.101562 C 291.277344 527.386719 291.53125 527.699219 291.757812 528.039062 C 291.984375 528.378906 292.175781 528.734375 292.332031 529.109375 C 292.484375 529.484375 292.601562 529.871094 292.683594 530.269531 C 292.761719 530.671875 292.800781 531.074219 292.800781 531.480469 Z M 292.800781 531.480469 " fill-opacity="1" fill-rule="nonzero"/><g clip-path="url(#693a937004)"><path fill="#000000" d="M 286.613281 540.125 C 281.847656 540.125 277.976562 536.25 277.976562 531.480469 C 277.976562 526.710938 281.847656 522.835938 286.613281 522.835938 C 291.378906 522.835938 295.25 526.710938 295.25 531.480469 C 295.25 536.25 291.367188 540.125 286.613281 540.125 Z M 286.613281 527.75 C 284.554688 527.75 282.878906 529.433594 282.878906 531.492188 C 282.878906 533.550781 284.554688 535.230469 286.613281 535.230469 C 288.671875 535.230469 290.351562 533.550781 290.351562 531.492188 C 290.339844 529.417969 288.671875 527.75 286.613281 527.75 Z M 286.613281 527.75 " fill-opacity="1" fill-rule="nonzero"/></g><g fill="#000000" fill-opacity="1"><g transform="translate(59.249008, 361.371859)"><g><path d="M 10.5 -4.914062 C 8.996094 -4.914062 8.359375 -5.585938 8.359375 -6.734375 L 1.109375 -6.734375 L 1.109375 -6.539062 C 1.109375 -2.179688 4.320312 0.554688 10.5 0.554688 C 16.800781 0.554688 19.890625 -2.179688 19.890625 -6.777344 L 19.890625 -7.171875 C 19.890625 -11.769531 16.085938 -12.71875 10.816406 -13.15625 C 9.035156 -13.3125 8.519531 -13.667969 8.519531 -14.660156 C 8.519531 -15.492188 9.191406 -16.085938 10.5 -16.085938 C 11.808594 -16.085938 12.480469 -15.332031 12.480469 -14.066406 L 19.613281 -14.066406 L 19.613281 -14.265625 C 19.613281 -18.898438 16.800781 -21.554688 10.5 -21.554688 C 5.507812 -21.554688 1.386719 -19.613281 1.386719 -14.421875 L 1.386719 -14.027344 C 1.386719 -9.828125 4.199219 -8.519531 10.222656 -8.042969 C 12.203125 -7.886719 12.601562 -7.332031 12.601562 -6.457031 C 12.601562 -5.625 12.085938 -4.914062 10.5 -4.914062 Z M 10.5 -4.914062 "/></g></g></g><g fill="#000000" fill-opacity="1"><g transform="translate(80.248172, 361.371859)"><g><path d="M 11.054688 -21 L 11.054688 -26.941406 L 3.765625 -26.941406 L 3.765625 -21 L 0.59375 -21 L 0.59375 -14.660156 L 3.765625 -14.660156 L 3.765625 -7.726562 C 3.765625 -1.585938 7.132812 0.554688 12.164062 0.554688 C 14.144531 0.554688 15.332031 0.199219 15.691406 0 L 15.691406 -5.945312 C 15.492188 -5.863281 14.5 -5.707031 13.867188 -5.707031 C 12.203125 -5.707031 11.054688 -6.140625 11.054688 -8.519531 L 11.054688 -14.660156 L 16.085938 -14.660156 L 16.085938 -21 Z M 11.054688 -21 "/></g></g></g><g fill="#000000" fill-opacity="1"><g transform="translate(97.681437, 361.371859)"><g><path d="M 14.105469 -21.554688 C 11.726562 -21.554688 9.867188 -20.40625 8.597656 -18.664062 L 8.164062 -21 L 1.585938 -21 L 1.980469 -15.054688 L 1.980469 0 L 9.273438 0 L 9.273438 -12.679688 C 9.746094 -13.273438 11.132812 -14.066406 13.511719 -14.066406 L 14.699219 -14.066406 L 14.699219 -21.515625 C 14.5 -21.554688 14.304688 -21.554688 14.105469 -21.554688 Z M 14.105469 -21.554688 "/></g></g></g><g fill="#000000" fill-opacity="1"><g transform="translate(113.529855, 361.371859)"><g><path d="M 1.742188 -21 L 1.742188 -6.933594 C 1.742188 -3.167969 3.328125 0.554688 8.28125 0.554688 C 11.410156 0.554688 13.550781 -0.714844 14.898438 -2.574219 L 15.414062 0 L 21.992188 0 L 21.59375 -5.945312 L 21.59375 -21 L 14.304688 -21 L 14.304688 -7.332031 C 13.90625 -6.734375 12.835938 -5.707031 11.253906 -5.707031 C 9.273438 -5.707031 9.035156 -7.132812 9.035156 -8.121094 L 9.035156 -21 Z M 1.742188 -21 "/></g></g></g><g fill="#000000" fill-opacity="1"><g transform="translate(137.104386, 361.371859)"><g><path d="M 8.242188 -9.707031 L 8.242188 -11.292969 C 8.242188 -13.867188 8.914062 -15.292969 10.855469 -15.292969 C 12.28125 -15.292969 13.15625 -14.5 13.15625 -12.679688 L 20.007812 -12.679688 L 20.007812 -13.628906 C 20.007812 -18.621094 16.800781 -21.554688 10.699219 -21.554688 C 3.921875 -21.554688 0.992188 -17.433594 0.992188 -11.292969 L 0.992188 -9.707031 C 0.992188 -3.566406 3.921875 0.554688 10.699219 0.554688 C 16.800781 0.554688 20.007812 -2.378906 20.007812 -6.972656 L 20.007812 -7.925781 L 13.15625 -7.925781 C 13.15625 -6.539062 12.28125 -5.707031 10.855469 -5.707031 C 8.914062 -5.707031 8.242188 -7.132812 8.242188 -9.707031 Z M 8.242188 -9.707031 "/></g></g></g><g fill="#000000" fill-opacity="1"><g transform="translate(158.0243, 361.371859)"><g><path d="M 11.054688 -21 L 11.054688 -26.941406 L 3.765625 -26.941406 L 3.765625 -21 L 0.59375 -21 L 0.59375 -14.660156 L 3.765625 -14.660156 L 3.765625 -7.726562 C 3.765625 -1.585938 7.132812 0.554688 12.164062 0.554688 C 14.144531 0.554688 15.332031 0.199219 15.691406 0 L 15.691406 -5.945312 C 15.492188 -5.863281 14.5 -5.707031 13.867188 -5.707031 C 12.203125 -5.707031 11.054688 -6.140625 11.054688 -8.519531 L 11.054688 -14.660156 L 16.085938 -14.660156 L 16.085938 -21 Z M 11.054688 -21 "/></g></g></g><g fill="#000000" fill-opacity="1"><g transform="translate(175.457564, 361.371859)"><g><path d="M 1.742188 -21 L 1.742188 -6.933594 C 1.742188 -3.167969 3.328125 0.554688 8.28125 0.554688 C 11.410156 0.554688 13.550781 -0.714844 14.898438 -2.574219 L 15.414062 0 L 21.992188 0 L 21.59375 -5.945312 L 21.59375 -21 L 14.304688 -21 L 14.304688 -7.332031 C 13.90625 -6.734375 12.835938 -5.707031 11.253906 -5.707031 C 9.273438 -5.707031 9.035156 -7.132812 9.035156 -8.121094 L 9.035156 -21 Z M 1.742188 -21 "/></g></g></g><g fill="#000000" fill-opacity="1"><g transform="translate(199.032095, 361.371859)"><g><path d="M 14.105469 -21.554688 C 11.726562 -21.554688 9.867188 -20.40625 8.597656 -18.664062 L 8.164062 -21 L 1.585938 -21 L 1.980469 -15.054688 L 1.980469 0 L 9.273438 0 L 9.273438 -12.679688 C 9.746094 -13.273438 11.132812 -14.066406 13.511719 -14.066406 L 14.699219 -14.066406 L 14.699219 -21.515625 C 14.5 -21.554688 14.304688 -21.554688 14.105469 -21.554688 Z M 14.105469 -21.554688 "/></g></g></g><g fill="#000000" fill-opacity="1"><g transform="translate(214.880514, 361.371859)"><g><path d="M 21.199219 -7.925781 L 21.199219 -11.09375 C 21.199219 -17.234375 18.027344 -21.554688 11.253906 -21.554688 C 4.476562 -21.554688 0.992188 -17.234375 0.992188 -11.09375 L 0.992188 -9.90625 C 0.992188 -3.765625 4.320312 0.554688 11.492188 0.554688 C 17.59375 0.554688 21.199219 -2.378906 21.199219 -6.578125 L 21.199219 -6.734375 L 14.34375 -6.734375 C 14.34375 -5.746094 13.113281 -4.914062 11.53125 -4.914062 C 9.707031 -4.914062 8.519531 -5.546875 8.28125 -7.925781 Z M 11.09375 -16.085938 C 12.796875 -16.085938 13.710938 -15.292969 13.90625 -13.074219 L 8.28125 -13.074219 C 8.480469 -15.292969 9.390625 -16.085938 11.09375 -16.085938 Z M 11.09375 -16.085938 "/></g></g></g><g fill="#000000" fill-opacity="1"><g transform="translate(237.068307, 361.371859)"><g><path d="M 9.074219 -21.554688 C 3.328125 -21.554688 1.347656 -17.433594 1.347656 -11.292969 L 1.347656 -9.707031 C 1.347656 -3.566406 3.328125 0.554688 9.074219 0.554688 C 11.925781 0.554688 13.75 -0.671875 14.9375 -2.417969 L 15.414062 0 L 21.992188 0 L 21.59375 -5.945312 L 21.59375 -31.699219 L 14.304688 -31.699219 L 14.304688 -19.414062 C 13.113281 -20.683594 11.410156 -21.554688 9.074219 -21.554688 Z M 14.304688 -7.332031 C 13.90625 -6.734375 12.835938 -5.707031 11.253906 -5.707031 C 9.273438 -5.707031 8.597656 -7.132812 8.597656 -9.707031 L 8.597656 -11.292969 C 8.597656 -13.867188 9.273438 -15.292969 11.253906 -15.292969 C 12.835938 -15.292969 13.90625 -14.265625 14.304688 -13.667969 Z M 14.304688 -7.332031 "/></g></g></g><g fill="#000000" fill-opacity="1"><g transform="translate(102.795885, 416.121857)"><g><path d="M 11.054688 -21 L 11.054688 -26.941406 L 3.765625 -26.941406 L 3.765625 -21 L 0.59375 -21 L 0.59375 -14.660156 L 3.765625 -14.660156 L 3.765625 -7.726562 C 3.765625 -1.585938 7.132812 0.554688 12.164062 0.554688 C 14.144531 0.554688 15.332031 0.199219 15.691406 0 L 15.691406 -5.945312 C 15.492188 -5.863281 14.5 -5.707031 13.867188 -5.707031 C 12.203125 -5.707031 11.054688 -6.140625 11.054688 -8.519531 L 11.054688 -14.660156 L 16.085938 -14.660156 L 16.085938 -21 Z M 11.054688 -21 "/></g></g></g><g fill="#000000" fill-opacity="1"><g transform="translate(120.22915, 416.121857)"><g><path d="M 11.292969 -8.71875 L 7.925781 -21 L 0 -21 L 7.332031 -1.1875 L 3.921875 7.925781 L 12.640625 7.925781 L 15.253906 -1.1875 L 22.585938 -21 L 14.660156 -21 Z M 11.292969 -8.71875 "/></g></g></g><g fill="#000000" fill-opacity="1"><g transform="translate(142.813149, 416.121857)"><g><path d="M 14.460938 0.554688 C 20.207031 0.554688 22.1875 -3.566406 22.1875 -9.707031 L 22.1875 -11.292969 C 22.1875 -17.433594 20.207031 -21.554688 14.460938 -21.554688 C 11.609375 -21.554688 9.746094 -20.328125 8.558594 -18.542969 L 8.121094 -21 L 1.546875 -21 L 1.941406 -15.054688 L 1.941406 7.925781 L 9.230469 7.925781 L 9.230469 -1.585938 C 10.421875 -0.277344 12.085938 0.554688 14.460938 0.554688 Z M 9.230469 -13.667969 C 9.628906 -14.265625 10.699219 -15.292969 12.28125 -15.292969 C 14.265625 -15.292969 14.9375 -13.867188 14.9375 -11.292969 L 14.9375 -9.707031 C 14.9375 -7.132812 14.265625 -5.707031 12.28125 -5.707031 C 10.699219 -5.707031 9.628906 -6.734375 9.230469 -7.332031 Z M 9.230469 -13.667969 "/></g></g></g><g fill="#000000" fill-opacity="1"><g transform="translate(165.991462, 416.121857)"><g><path d="M 21.199219 -7.925781 L 21.199219 -11.09375 C 21.199219 -17.234375 18.027344 -21.554688 11.253906 -21.554688 C 4.476562 -21.554688 0.992188 -17.234375 0.992188 -11.09375 L 0.992188 -9.90625 C 0.992188 -3.765625 4.320312 0.554688 11.492188 0.554688 C 17.59375 0.554688 21.199219 -2.378906 21.199219 -6.578125 L 21.199219 -6.734375 L 14.34375 -6.734375 C 14.34375 -5.746094 13.113281 -4.914062 11.53125 -4.914062 C 9.707031 -4.914062 8.519531 -5.546875 8.28125 -7.925781 Z M 11.09375 -16.085938 C 12.796875 -16.085938 13.710938 -15.292969 13.90625 -13.074219 L 8.28125 -13.074219 C 8.480469 -15.292969 9.390625 -16.085938 11.09375 -16.085938 Z M 11.09375 -16.085938 "/></g></g></g><g fill="#000000" fill-opacity="1"><g transform="translate(188.179255, 416.121857)"><g><path d="M 10.5 -4.914062 C 8.996094 -4.914062 8.359375 -5.585938 8.359375 -6.734375 L 1.109375 -6.734375 L 1.109375 -6.539062 C 1.109375 -2.179688 4.320312 0.554688 10.5 0.554688 C 16.800781 0.554688 19.890625 -2.179688 19.890625 -6.777344 L 19.890625 -7.171875 C 19.890625 -11.769531 16.085938 -12.71875 10.816406 -13.15625 C 9.035156 -13.3125 8.519531 -13.667969 8.519531 -14.660156 C 8.519531 -15.492188 9.191406 -16.085938 10.5 -16.085938 C 11.808594 -16.085938 12.480469 -15.332031 12.480469 -14.066406 L 19.613281 -14.066406 L 19.613281 -14.265625 C 19.613281 -18.898438 16.800781 -21.554688 10.5 -21.554688 C 5.507812 -21.554688 1.386719 -19.613281 1.386719 -14.421875 L 1.386719 -14.027344 C 1.386719 -9.828125 4.199219 -8.519531 10.222656 -8.042969 C 12.203125 -7.886719 12.601562 -7.332031 12.601562 -6.457031 C 12.601562 -5.625 12.085938 -4.914062 10.5 -4.914062 Z M 10.5 -4.914062 "/></g></g></g><g fill="#000000" fill-opacity="1"><g transform="translate(209.166971, 416.121857)"><g/></g></g><g clip-path="url(#a3abdfd6b8)"><g clip-path="url(#cb0dae0efd)"><g clip-path="url(#ab6909e8dc)"><g clip-path="url(#8d06b83869)"><path fill="#ffffff" d="M 327.234375 240.152344 L 303.792969 220.585938 L 287.101562 206.640625 C 263.554688 220.660156 233.390625 227.058594 201.785156 222.652344 C 136.621094 213.558594 89.96875 161.933594 97.585938 107.34375 C 105.203125 52.742188 164.203125 15.855469 229.367188 24.945312 C 294.539062 34.039062 341.191406 85.667969 333.574219 140.265625 C 330.734375 160.601562 320.765625 178.488281 305.992188 192.445312 L 314.8125 212.269531 Z M 327.234375 240.152344 " fill-opacity="1" fill-rule="nonzero"/></g></g></g></g><g clip-path="url(#9f41ca9408)"><g clip-path="url(#f4edb3061b)"><g clip-path="url(#c32ce44e98)"><g clip-path="url(#d9de99ffd6)"><path fill="#000000" d="M 326.929688 242.328125 C 326.539062 242.273438 326.148438 242.109375 325.820312 241.839844 L 286.871094 209.3125 C 262.199219 223.5625 231.933594 229.074219 201.46875 224.824219 C 135.21875 215.582031 87.636719 162.75 95.410156 107.039062 C 103.183594 51.332031 163.410156 13.527344 229.667969 22.769531 C 295.929688 32.015625 343.519531 84.859375 335.746094 140.570312 C 333 160.261719 323.632812 178.355469 308.625 192.957031 L 329.242188 239.257812 C 329.65625 240.191406 329.382812 241.285156 328.5625 241.902344 C 328.078125 242.265625 327.496094 242.40625 326.929688 242.328125 Z M 229.0625 27.121094 C 165.207031 18.210938 107.199219 54.332031 99.761719 107.648438 C 92.324219 160.953125 138.230469 211.566406 202.085938 220.476562 C 232.117188 224.664062 261.914062 219.078125 285.976562 204.753906 C 286.777344 204.277344 287.796875 204.351562 288.511719 204.953125 L 321.382812 232.398438 L 303.992188 193.332031 C 303.613281 192.480469 303.820312 191.476562 304.496094 190.839844 C 319.425781 176.738281 328.734375 159.136719 331.410156 139.953125 C 338.835938 86.644531 292.929688 36.03125 229.0625 27.121094 Z M 229.0625 27.121094 " fill-opacity="1" fill-rule="nonzero"/></g></g></g></g><g fill="#000000" fill-opacity="1"><g transform="translate(150.455937, 140.66967)"><g><path d="M 2.589844 0 L 12.527344 0 L 12.527344 -43.191406 L 2.589844 -43.191406 Z M 2.589844 0 "/></g></g></g><g fill="#000000" fill-opacity="1"><g transform="translate(165.57345, 140.66967)"><g><path d="M 15.117188 0.757812 C 24.566406 0.757812 28.886719 -4.859375 28.886719 -13.226562 L 28.886719 -15.386719 C 28.886719 -23.757812 24.566406 -29.371094 15.117188 -29.371094 C 5.667969 -29.371094 1.351562 -23.757812 1.351562 -15.386719 L 1.351562 -13.226562 C 1.351562 -4.859375 5.667969 0.757812 15.117188 0.757812 Z M 15.117188 -7.773438 C 12.417969 -7.773438 11.230469 -9.71875 11.230469 -13.226562 L 11.230469 -15.386719 C 11.230469 -18.898438 12.417969 -20.839844 15.117188 -20.839844 C 17.816406 -20.839844 19.003906 -18.898438 19.003906 -15.386719 L 19.003906 -13.226562 C 19.003906 -9.71875 17.816406 -7.773438 15.117188 -7.773438 Z M 15.117188 -7.773438 "/></g></g></g><g fill="#000000" fill-opacity="1"><g transform="translate(195.808476, 140.66967)"><g><path d="M 15.117188 0.757812 C 24.566406 0.757812 28.886719 -4.859375 28.886719 -13.226562 L 28.886719 -15.386719 C 28.886719 -23.757812 24.566406 -29.371094 15.117188 -29.371094 C 5.667969 -29.371094 1.351562 -23.757812 1.351562 -15.386719 L 1.351562 -13.226562 C 1.351562 -4.859375 5.667969 0.757812 15.117188 0.757812 Z M 15.117188 -7.773438 C 12.417969 -7.773438 11.230469 -9.71875 11.230469 -13.226562 L 11.230469 -15.386719 C 11.230469 -18.898438 12.417969 -20.839844 15.117188 -20.839844 C 17.816406 -20.839844 19.003906 -18.898438 19.003906 -15.386719 L 19.003906 -13.226562 C 19.003906 -9.71875 17.816406 -7.773438 15.117188 -7.773438 Z M 15.117188 -7.773438 "/></g></g></g><g fill="#000000" fill-opacity="1"><g transform="translate(226.043503, 140.66967)"><g><path d="M 19.707031 0.757812 C 27.535156 0.757812 30.234375 -4.859375 30.234375 -13.226562 L 30.234375 -15.386719 C 30.234375 -23.757812 27.535156 -29.371094 19.707031 -29.371094 C 15.820312 -29.371094 13.28125 -27.699219 11.660156 -25.269531 L 11.066406 -28.617188 L 2.105469 -28.617188 L 2.644531 -20.515625 L 2.644531 10.796875 L 12.578125 10.796875 L 12.578125 -2.160156 C 14.199219 -0.378906 16.46875 0.757812 19.707031 0.757812 Z M 12.578125 -18.628906 C 13.121094 -19.4375 14.578125 -20.839844 16.738281 -20.839844 C 19.4375 -20.839844 20.355469 -18.898438 20.355469 -15.386719 L 20.355469 -13.226562 C 20.355469 -9.71875 19.4375 -7.773438 16.738281 -7.773438 C 14.578125 -7.773438 13.121094 -9.179688 12.578125 -9.988281 Z M 12.578125 -18.628906 "/></g></g></g><g fill="#000000" fill-opacity="1"><g transform="translate(257.628315, 140.66967)"><g><path d="M 14.308594 -6.695312 C 12.257812 -6.695312 11.390625 -7.613281 11.390625 -9.179688 L 1.511719 -9.179688 L 1.511719 -8.910156 C 1.511719 -2.96875 5.886719 0.757812 14.308594 0.757812 C 22.890625 0.757812 27.105469 -2.96875 27.105469 -9.234375 L 27.105469 -9.773438 C 27.105469 -16.035156 21.921875 -17.332031 14.738281 -17.925781 C 12.308594 -18.140625 11.609375 -18.628906 11.609375 -19.976562 C 11.609375 -21.109375 12.527344 -21.921875 14.308594 -21.921875 C 16.089844 -21.921875 17.007812 -20.894531 17.007812 -19.167969 L 26.726562 -19.167969 L 26.726562 -19.4375 C 26.726562 -25.753906 22.890625 -29.371094 14.308594 -29.371094 C 7.503906 -29.371094 1.890625 -26.726562 1.890625 -19.652344 L 1.890625 -19.113281 C 1.890625 -13.390625 5.722656 -11.609375 13.929688 -10.960938 C 16.628906 -10.746094 17.167969 -9.988281 17.167969 -8.800781 C 17.167969 -7.667969 16.46875 -6.695312 14.308594 -6.695312 Z M 14.308594 -6.695312 "/></g></g></g></svg>