<svg xmlns="http://www.w3.org/2000/svg" xmlns:xlink="http://www.w3.org/1999/xlink" width="1000" zoomAndPan="magnify" viewBox="0 0 750 599.999999" height="800" preserveAspectRatio="xMidYMid meet" version="1.0"><defs><g/><clipPath id="fa57677fd3"><path d="M 375 35.164062 L 727 35.164062 L 727 321.664062 L 375 321.664062 Z M 375 35.164062 " clip-rule="nonzero"/></clipPath><clipPath id="09d684ce9e"><path d="M 700 112 L 737.25 112 L 737.25 208 L 700 208 Z M 700 112 " clip-rule="nonzero"/></clipPath><clipPath id="d13c356fbe"><path d="M 21.140625 249.160156 L 298 249.160156 L 298 477 L 21.140625 477 Z M 21.140625 249.160156 " clip-rule="nonzero"/></clipPath><clipPath id="ce1728b1b4"><path d="M 96 23 L 335 23 L 335 241 L 96 241 Z M 96 23 " clip-rule="nonzero"/></clipPath><clipPath id="3a1e3ac551"><path d="M 109.449219 6 L 357.546875 40.613281 L 329.359375 242.65625 L 81.261719 208.042969 Z M 109.449219 6 " clip-rule="nonzero"/></clipPath><clipPath id="d65029ba87"><path d="M 109.449219 6 L 357.546875 40.613281 L 329.359375 242.65625 L 81.261719 208.042969 Z M 109.449219 6 " clip-rule="nonzero"/></clipPath><clipPath id="2f31c3fb78"><path d="M 109.449219 6 L 357.546875 40.613281 L 329.359375 242.65625 L 81.261719 208.042969 Z M 109.449219 6 " clip-rule="nonzero"/></clipPath><clipPath id="7e7c390e39"><path d="M 94 21 L 337 21 L 337 243 L 94 243 Z M 94 21 " clip-rule="nonzero"/></clipPath><clipPath id="117003f27e"><path d="M 109.449219 6 L 357.546875 40.613281 L 329.359375 242.65625 L 81.261719 208.042969 Z M 109.449219 6 " clip-rule="nonzero"/></clipPath><clipPath id="e17b5470b9"><path d="M 109.449219 6 L 357.546875 40.613281 L 329.359375 242.65625 L 81.261719 208.042969 Z M 109.449219 6 " clip-rule="nonzero"/></clipPath><clipPath id="431525c0f2"><path d="M 109.449219 6 L 357.546875 40.613281 L 329.359375 242.65625 L 81.261719 208.042969 Z M 109.449219 6 " clip-rule="nonzero"/></clipPath></defs><g fill="#f57c00" fill-opacity="1"><g transform="translate(311.625847, 567.963038)"><g><path d="M 14.121094 -4.519531 C 14.121094 -1.695312 15.816406 0 18.640625 0 L 48.011719 0 C 51.117188 0 52.53125 -1.695312 52.53125 -4.519531 L 52.53125 -75.6875 L 86.417969 -75.6875 C 112.964844 -75.6875 127.085938 -90.089844 127.085938 -116.355469 L 127.085938 -185.265625 C 127.085938 -211.8125 112.964844 -225.933594 86.417969 -225.933594 L 18.640625 -225.933594 C 15.816406 -225.933594 14.121094 -224.238281 14.121094 -221.414062 Z M 52.53125 -112.964844 L 52.53125 -188.652344 L 77.382812 -188.652344 C 85.007812 -188.652344 88.679688 -184.699219 88.679688 -177.355469 L 88.679688 -124.261719 C 88.679688 -117.203125 85.007812 -112.964844 77.382812 -112.964844 Z M 52.53125 -112.964844 "/></g></g></g><g fill="#f57c00" fill-opacity="1"><g transform="translate(452.833568, 567.963038)"><g><path d="M 130.195312 -185.265625 C 130.195312 -211.8125 116.074219 -225.933594 89.527344 -225.933594 L 18.640625 -225.933594 C 15.816406 -225.933594 14.121094 -224.238281 14.121094 -221.414062 L 14.121094 -4.519531 C 14.121094 -1.695312 15.816406 0 18.640625 0 L 48.011719 0 C 50.835938 0 52.53125 -1.695312 52.53125 -4.519531 L 52.53125 -75.6875 L 72.015625 -75.6875 L 90.9375 -3.953125 C 91.503906 -1.410156 92.914062 0 95.738281 0 L 125.109375 0 C 128.214844 0 129.910156 -1.695312 129.0625 -5.082031 L 109.578125 -79.078125 C 123.132812 -85.007812 130.195312 -97.433594 130.195312 -116.355469 Z M 52.53125 -112.964844 L 52.53125 -188.652344 L 80.488281 -188.652344 C 87.832031 -188.652344 91.785156 -184.699219 91.785156 -177.355469 L 91.785156 -124.261719 C 91.785156 -116.921875 87.832031 -112.964844 80.488281 -112.964844 Z M 52.53125 -112.964844 "/></g></g></g><g fill="#f57c00" fill-opacity="1"><g transform="translate(597.147865, 567.963038)"><g><path d="M 14.121094 -40.667969 C 14.121094 -14.121094 28.242188 0 54.789062 0 L 86.417969 0 C 112.964844 0 127.085938 -14.121094 127.085938 -40.667969 L 127.085938 -185.265625 C 127.085938 -211.8125 112.964844 -225.933594 86.417969 -225.933594 L 54.789062 -225.933594 C 28.242188 -225.933594 14.121094 -211.8125 14.121094 -185.265625 Z M 62.980469 -36.429688 C 55.636719 -36.429688 51.683594 -40.101562 51.683594 -47.726562 L 51.683594 -178.203125 C 51.683594 -185.546875 55.636719 -189.5 62.980469 -189.5 L 79.359375 -189.5 C 86.703125 -189.5 90.65625 -185.546875 90.65625 -178.203125 L 90.65625 -47.726562 C 90.65625 -40.101562 86.703125 -36.429688 79.359375 -36.429688 Z M 62.980469 -36.429688 "/></g></g></g><g clip-path="url(#fa57677fd3)"><path fill="#000000" d="M 721.222656 142.335938 C 716.117188 130.878906 707.921875 122.445312 698.054688 116.78125 C 689.523438 111.882812 679.730469 109.066406 669.628906 108.195312 L 670.382812 102.230469 C 670.382812 98.820312 669.421875 95.445312 667.847656 92.355469 C 666.34375 89.414062 664.289062 86.734375 662.070312 84.558594 C 659.417969 81.957031 656.460938 79.792969 653.242188 78.222656 C 649.902344 76.59375 646.292969 75.597656 642.453125 75.417969 C 641.519531 75.371094 637.007812 76.195312 634.820312 76.617188 L 629.796875 62.867188 C 626.035156 57.53125 621.257812 53.179688 615.925781 49.621094 C 610.695312 46.132812 604.9375 43.410156 599.121094 41.273438 C 586.984375 36.8125 572.878906 35.148438 559.019531 36.320312 C 545.144531 37.492188 531.53125 41.507812 520.375 48.304688 C 516.429688 50.707031 512.507812 53.210938 508.863281 56.085938 C 506.363281 58.058594 503.996094 60.203125 501.839844 62.605469 C 501.277344 63.230469 499.324219 66.070312 498.070312 67.921875 C 496.179688 66.558594 493.136719 64.410156 492.273438 63.992188 C 488.992188 62.410156 485.417969 61.191406 481.761719 60.539062 C 477.980469 59.863281 474.113281 59.789062 470.378906 60.503906 C 465.4375 61.449219 460.839844 63.636719 456.882812 66.710938 C 453.015625 69.710938 449.761719 73.5625 447.394531 77.910156 L 444.890625 85.234375 C 442.085938 84.539062 438.085938 83.519531 437.328125 83.484375 C 433.695312 83.328125 429.898438 83.925781 426.246094 85.085938 C 422.710938 86.210938 419.320312 87.855469 416.367188 89.816406 C 410.914062 93.433594 406.132812 98.234375 402.378906 103.765625 C 398.660156 109.246094 395.945312 115.4375 394.558594 121.898438 L 394.210938 133.917969 C 392.941406 136.367188 387.570312 138.945312 383.605469 142.734375 C 381.707031 144.546875 380.046875 146.5625 378.925781 148.785156 C 375.222656 156.109375 375.144531 161.566406 376.808594 166.0625 C 379.03125 172.050781 385.003906 176.34375 390.867188 181.492188 L 390.722656 181.726562 L 386.539062 190.867188 C 385.042969 195.1875 384.046875 199.570312 383.539062 204.011719 C 383.03125 208.433594 383.011719 212.917969 383.460938 217.46875 C 385.574219 238.742188 396.542969 254.03125 411.476562 262.421875 C 425.890625 270.519531 444.082031 272.175781 461.71875 266.355469 C 463.003906 271.210938 463.890625 276.128906 464.425781 281.089844 C 465.0625 286.988281 465.203125 292.949219 464.910156 298.9375 L 463.453125 310.652344 C 463.074219 312.453125 461.226562 316.453125 461.292969 317.445312 C 461.402344 319.054688 462.242188 319.980469 463.148438 320.519531 C 463.894531 320.96875 465.371094 321.636719 467.414062 320.355469 C 474.082031 316.175781 480.027344 310.210938 484.929688 303.410156 C 489.726562 296.761719 493.523438 289.320312 496.042969 282.039062 L 499.167969 269.757812 L 509.070312 275.460938 C 514.21875 277.542969 520.121094 278.820312 526.039062 279.054688 C 532.0625 279.289062 538.097656 278.441406 543.402344 276.316406 C 548.097656 274.433594 552.738281 272.054688 557.078125 269.210938 C 561.441406 266.351562 565.5 263.015625 569.015625 259.238281 L 574.125 252.855469 C 574.789062 253.835938 575.5625 254.84375 576.167969 255.265625 C 578.109375 256.632812 580.335938 257.582031 582.660156 258.160156 C 584.878906 258.714844 587.1875 258.933594 589.398438 258.875 C 592.722656 258.789062 595.347656 258.050781 597.597656 256.957031 C 601.964844 254.835938 604.613281 251 609.046875 248.285156 C 611.59375 249.730469 615.910156 252.304688 616.78125 252.613281 C 621.328125 254.214844 625.917969 255.242188 630.5625 255.738281 C 635.1875 256.234375 639.871094 256.203125 644.628906 255.691406 C 653.640625 254.722656 661.917969 252.121094 669.140625 247.761719 C 676.347656 243.414062 682.519531 237.320312 687.308594 229.308594 L 693.054688 214.210938 C 695.375 211.726562 701.011719 211.253906 705.078125 209.347656 C 706.5625 208.652344 707.898438 207.835938 708.996094 206.859375 C 717.707031 199.15625 723.128906 188.144531 725.148438 176.421875 C 727.136719 164.878906 725.824219 152.664062 721.222656 142.335938 Z M 717.9375 175.179688 C 716.199219 185.25 711.628906 194.757812 704.144531 201.378906 C 701.15625 204.027344 695.582031 204.703125 691.847656 206.40625 C 690.15625 207.175781 688.738281 208.109375 687.703125 209.21875 C 686.792969 210.191406 685.976562 211.5625 685.285156 213.207031 C 683.699219 216.976562 682.789062 222.605469 681.027344 225.550781 C 676.890625 232.46875 671.582031 237.742188 665.359375 241.496094 C 659.023438 245.320312 651.753906 247.566406 643.847656 248.414062 C 639.617188 248.867188 635.453125 248.898438 631.339844 248.457031 C 627.253906 248.023438 623.214844 247.117188 619.214844 245.710938 C 618.347656 245.402344 613.65625 242.453125 611.675781 241.363281 C 609.425781 240.121094 607.566406 240.746094 607.347656 240.855469 C 602.570312 243.238281 599.785156 246.917969 595.964844 249.46875 C 594.199219 250.648438 592.125 251.484375 589.210938 251.558594 C 587.644531 251.597656 586.007812 251.449219 584.433594 251.058594 C 582.984375 250.699219 581.585938 250.125 580.375 249.277344 C 579.175781 248.4375 578.488281 245.863281 577.492188 245.015625 C 575.816406 243.585938 573.996094 243.265625 571.914062 244.566406 C 570.722656 245.308594 569.554688 246.445312 568.449219 247.796875 C 566.746094 249.894531 565.183594 252.613281 563.65625 254.253906 C 560.539062 257.605469 556.9375 260.554688 553.066406 263.089844 C 549.136719 265.664062 544.929688 267.816406 540.679688 269.519531 C 536.296875 271.277344 531.304688 271.9375 526.324219 271.742188 C 521.265625 271.542969 516.21875 270.457031 511.8125 268.675781 L 503.515625 263.886719 C 502.484375 263.097656 501.277344 260.757812 500.355469 260.058594 C 499.316406 259.269531 498.269531 259.058594 497.375 259.121094 C 496.183594 259.203125 494.875 259.6875 493.949219 261.429688 C 493.035156 263.152344 492.351562 265.226562 491.808594 267.457031 C 490.824219 271.507812 490.332031 276.164062 489.125 279.648438 C 486.828125 286.285156 483.363281 293.070312 478.992188 299.132812 C 476.621094 302.421875 473.980469 305.503906 471.105469 308.21875 L 472.21875 299.296875 C 472.53125 292.925781 472.382812 286.582031 471.703125 280.304688 C 471.023438 273.988281 469.804688 267.738281 467.988281 261.589844 C 467.625 260.351562 466.660156 259.453125 465.507812 259.117188 C 464.535156 258.324219 463.175781 258.058594 461.917969 258.53125 C 445.578125 264.671875 428.46875 263.574219 415.058594 256.042969 C 402.035156 248.722656 392.589844 235.308594 390.746094 216.746094 C 390.347656 212.722656 390.363281 208.753906 390.8125 204.839844 C 391.257812 200.929688 392.136719 197.070312 393.453125 193.261719 L 397.085938 185.347656 C 397.214844 185.117188 398.191406 183.578125 398.566406 182.9375 C 400.066406 180.390625 398.167969 178.226562 398.0625 178.125 C 392.460938 172.894531 385.824219 169.316406 383.671875 163.519531 C 382.5625 160.527344 382.996094 156.953125 385.457031 152.085938 C 386.214844 150.585938 387.378906 149.253906 388.660156 148.027344 C 393.304688 143.589844 399.226562 140.148438 400.710938 137.277344 C 401.207031 136.320312 401.546875 134.957031 401.664062 133.332031 C 401.890625 130.242188 401.222656 125.730469 401.714844 123.4375 C 402.90625 117.890625 405.242188 112.578125 408.433594 107.878906 C 411.652344 103.136719 415.742188 99.015625 420.414062 95.914062 C 422.820312 94.320312 425.582031 92.976562 428.464844 92.0625 C 431.28125 91.167969 434.210938 90.675781 437.011719 90.796875 C 437.820312 90.832031 442.875 92.296875 444.964844 92.792969 C 447.398438 93.371094 448.984375 92.332031 449.128906 92.210938 C 449.839844 91.617188 450.617188 90.527344 451.242188 89.054688 C 452.230469 86.71875 453.011719 82.90625 453.824219 81.40625 C 455.707031 77.949219 458.292969 74.882812 461.371094 72.492188 C 464.417969 70.125 467.949219 68.421875 471.757812 67.691406 C 474.617188 67.144531 477.578125 67.226562 480.472656 67.742188 C 483.472656 68.28125 486.402344 69.285156 489.097656 70.585938 C 490.355469 71.191406 494.335938 74.566406 496.332031 75.578125 C 497.65625 76.25 498.792969 76.3125 499.457031 76.214844 C 500.105469 76.117188 501.253906 75.699219 502.351562 74.5 C 503.820312 72.902344 506.421875 68.453125 507.28125 67.5 C 509.15625 65.410156 511.222656 63.546875 513.398438 61.832031 C 516.808594 59.140625 520.492188 56.804688 524.183594 54.554688 C 534.414062 48.320312 546.914062 44.6875 559.636719 43.613281 C 572.410156 42.535156 585.414062 44.03125 596.597656 48.144531 C 601.875 50.085938 607.113281 52.539062 611.863281 55.710938 C 616.449219 58.769531 620.578125 62.496094 623.816406 67.085938 C 625.382812 69.308594 627.1875 77.367188 628.785156 80.660156 C 629.472656 82.078125 630.289062 82.984375 630.917969 83.425781 C 631.378906 83.75 632.535156 84.285156 634.269531 84.128906 C 636.289062 83.949219 641.003906 82.675781 642.105469 82.726562 C 644.925781 82.863281 647.578125 83.601562 650.03125 84.800781 C 652.550781 86.03125 654.863281 87.742188 656.945312 89.78125 C 658.625 91.433594 660.191406 93.453125 661.328125 95.679688 C 662.371094 97.734375 663.0625 99.960938 663.0625 102.226562 L 662.429688 107.496094 C 662.214844 108.234375 661.253906 109.449219 661.066406 110.117188 C 660.753906 111.226562 660.914062 112.160156 661.207031 112.847656 C 661.703125 114.035156 662.644531 115.183594 664.78125 115.246094 C 675.285156 115.539062 685.601562 118.074219 694.410156 123.128906 C 702.976562 128.046875 710.105469 135.363281 714.535156 145.3125 C 718.566406 154.359375 719.675781 165.066406 717.9375 175.179688 Z M 717.9375 175.179688 " fill-opacity="1" fill-rule="evenodd"/></g><path fill="#000000" d="M 404.570312 146.269531 C 404.914062 146.230469 404.933594 145.910156 404.796875 145.464844 C 404.710938 145.472656 404.679688 145.730469 404.65625 145.820312 C 404.628906 145.941406 404.390625 146.289062 404.570312 146.269531 Z M 404.570312 146.269531 " fill-opacity="1" fill-rule="evenodd"/><path fill="#000000" d="M 403.515625 131.859375 C 403.246094 133.542969 403.058594 135.292969 403.019531 137.042969 C 402.980469 138.820312 403.09375 140.597656 403.339844 142.316406 C 403.445312 142.921875 404.5 144.492188 404.796875 145.464844 C 404.8125 145.460938 404.828125 145.464844 404.84375 145.480469 C 406.269531 146.675781 400.09375 148.570312 399.054688 149.324219 C 394.859375 152.554688 391.1875 157.199219 390.890625 161.886719 C 390.699219 164.914062 391.808594 167.921875 395.179688 170.40625 C 392.671875 167.609375 392.128906 164.824219 392.800781 162.1875 C 393.773438 158.351562 397.445312 155.035156 401.382812 152.941406 C 402.492188 152.3125 405.828125 151.085938 407.660156 149.8125 C 408.8125 149.011719 409.445312 148.027344 409.707031 147.246094 C 409.875 146.738281 409.898438 145.976562 409.757812 145.070312 C 409.578125 143.945312 408.949219 142.3125 408.867188 141.546875 C 408.675781 140.109375 408.621094 138.625 408.640625 137.144531 C 408.660156 135.632812 408.757812 134.125 408.953125 132.667969 C 409.777344 124.703125 412.914062 117.152344 417.769531 111.058594 C 422.796875 104.75 429.566406 99.96875 437.863281 98.050781 C 429.007812 98.902344 421.273438 102.910156 415.328125 108.886719 C 409.25 115 405.210938 123.160156 403.515625 131.859375 Z M 403.515625 131.859375 " fill-opacity="1" fill-rule="evenodd"/><path fill="#000000" d="M 417.335938 242.824219 C 415.628906 241.320312 414.0625 239.660156 412.550781 237.921875 C 411.054688 236.203125 409.628906 234.414062 408.339844 232.507812 C 405.730469 228.660156 403.617188 224.46875 402.246094 220.023438 C 400.105469 213.074219 399.578125 205.746094 401.523438 198.757812 C 398.28125 205.636719 397.417969 213.34375 398.613281 220.867188 C 399.425781 225.957031 401.191406 230.910156 403.765625 235.371094 C 405.074219 237.636719 406.605469 239.777344 408.363281 241.683594 C 410.148438 243.613281 412.15625 245.320312 414.328125 246.753906 C 417.605469 248.917969 421.175781 250.527344 425 251.390625 C 428.644531 252.207031 432.386719 252.328125 436.292969 251.742188 C 432.542969 251.316406 429.171875 250.1875 425.945312 248.652344 C 422.78125 247.144531 419.964844 245.144531 417.335938 242.824219 Z M 417.335938 242.824219 " fill-opacity="1" fill-rule="evenodd"/><path fill="#000000" d="M 480.273438 269.964844 C 479.59375 267.195312 478.632812 264.542969 477.371094 261.996094 C 475.515625 258.242188 473.125 254.914062 470.144531 251.808594 C 471.980469 255.511719 473.027344 259.273438 473.847656 263.210938 C 474.402344 265.886719 474.671875 268.5625 474.996094 271.289062 C 475.210938 273.074219 475.40625 274.867188 475.671875 276.65625 C 475.941406 278.496094 476.3125 280.269531 476.636719 282.105469 C 477.148438 285.007812 477.730469 287.679688 478.066406 290.59375 C 478.785156 288.570312 479.445312 286.695312 479.953125 284.59375 C 480.457031 282.519531 480.785156 280.488281 480.957031 278.363281 C 481.074219 276.953125 481.089844 275.546875 480.980469 274.140625 C 480.871094 272.730469 480.609375 271.332031 480.273438 269.964844 Z M 480.273438 269.964844 " fill-opacity="1" fill-rule="evenodd"/><path fill="#000000" d="M 643.050781 68.019531 L 642.914062 67.738281 C 642.84375 67.621094 642.855469 67.632812 642.761719 67.535156 L 642.742188 67.527344 L 643.015625 68.011719 Z M 643.050781 68.019531 " fill-opacity="1" fill-rule="evenodd"/><path fill="#000000" d="M 631.945312 52.65625 C 634.867188 58.054688 636.273438 63.960938 638.910156 70.375 C 639.148438 70.929688 639.792969 71.570312 640.804688 72.050781 C 641.917969 72.585938 643.886719 72.984375 644.507812 73.171875 L 655.179688 76.980469 C 659.859375 78.640625 663.953125 81.019531 667.503906 84.039062 C 671.203125 87.1875 674.320312 90.878906 676.515625 95.648438 C 675.4375 90.210938 673.296875 85.519531 670.0625 81.539062 C 666.765625 77.472656 662.359375 74.382812 657.394531 71.839844 C 655.503906 71.035156 653.609375 70.285156 651.667969 69.671875 C 649.726562 69.054688 647.746094 68.570312 645.734375 68.148438 C 645.367188 68.078125 643.832031 68.183594 643.050781 68.019531 C 643.09375 68.121094 643.136719 68.21875 643.167969 68.273438 L 643.015625 68.011719 C 642.683594 67.9375 642.496094 67.808594 642.617188 67.589844 C 642.65625 67.519531 642.695312 67.503906 642.742188 67.527344 C 639.457031 61.742188 637.3125 56.253906 633.726562 51.511719 C 631.304688 48.3125 628.292969 45.484375 623.910156 43.128906 C 627.707031 46.070312 630.101562 49.25 631.945312 52.65625 Z M 631.945312 52.65625 " fill-opacity="1" fill-rule="evenodd"/><g clip-path="url(#09d684ce9e)"><path fill="#000000" d="M 737.015625 166.613281 C 736.867188 162.769531 736.296875 158.914062 735.398438 155.132812 C 733.617188 147.644531 730.546875 140.417969 726.414062 133.996094 C 720.132812 124.234375 711.410156 116.375 700.980469 112.113281 C 710.570312 117.339844 718.003906 125.878906 723.191406 135.867188 C 726.492188 142.222656 728.785156 149.164062 730.121094 156.257812 C 730.785156 159.785156 731.1875 163.34375 731.398438 166.890625 C 731.613281 170.484375 731.628906 174.054688 731.339844 177.582031 C 730.902344 183.03125 729.832031 188.320312 727.917969 193.316406 C 725.957031 198.441406 723.28125 203.226562 719.535156 207.46875 C 724.089844 203.820312 727.757812 199.480469 730.535156 194.550781 C 733.363281 189.535156 735.242188 184 736.25 178.207031 C 736.910156 174.417969 737.171875 170.523438 737.015625 166.613281 Z M 737.015625 166.613281 " fill-opacity="1" fill-rule="evenodd"/></g><g fill="#000000" fill-opacity="1"><g transform="translate(465.035137, 148.603372)"><g><path d="M 2.304688 0 L 11.136719 0 L 11.136719 -25.441406 L 2.304688 -25.441406 Z M 11.28125 -37.441406 L 2.160156 -37.441406 L 2.160156 -28.320312 L 11.28125 -28.320312 Z M 11.28125 -37.441406 "/></g></g></g><g fill="#000000" fill-opacity="1"><g transform="translate(478.475112, 148.603372)"><g><path d="M 26.449219 0 L 26.449219 -17.039062 C 26.449219 -21.601562 24.527344 -26.113281 18.527344 -26.113281 C 14.734375 -26.113281 12.144531 -24.527344 10.464844 -22.273438 L 9.886719 -25.441406 L 1.921875 -25.441406 L 2.398438 -18.238281 L 2.398438 0 L 11.230469 0 L 11.230469 -16.558594 C 11.710938 -17.28125 13.007812 -18.527344 14.929688 -18.527344 C 17.328125 -18.527344 17.617188 -16.800781 17.617188 -15.601562 L 17.617188 0 Z M 26.449219 0 "/></g></g></g><g fill="#000000" fill-opacity="1"><g transform="translate(507.035067, 148.603372)"><g><path d="M 17.519531 0.671875 C 24.480469 0.671875 26.878906 -4.320312 26.878906 -11.761719 L 26.878906 -13.679688 C 26.878906 -21.121094 24.480469 -26.113281 17.519531 -26.113281 C 14.0625 -26.113281 11.808594 -24.625 10.367188 -22.464844 L 9.839844 -25.441406 L 1.871094 -25.441406 L 2.351562 -18.238281 L 2.351562 9.601562 L 11.183594 9.601562 L 11.183594 -1.921875 C 12.625 -0.335938 14.640625 0.671875 17.519531 0.671875 Z M 11.183594 -16.558594 C 11.664062 -17.28125 12.960938 -18.527344 14.878906 -18.527344 C 17.28125 -18.527344 18.097656 -16.800781 18.097656 -13.679688 L 18.097656 -11.761719 C 18.097656 -8.640625 17.28125 -6.910156 14.878906 -6.910156 C 12.960938 -6.910156 11.664062 -8.160156 11.183594 -8.878906 Z M 11.183594 -16.558594 "/></g></g></g><g fill="#000000" fill-opacity="1"><g transform="translate(535.115021, 148.603372)"><g><path d="M 2.113281 -25.441406 L 2.113281 -8.398438 C 2.113281 -3.839844 4.03125 0.671875 10.03125 0.671875 C 13.824219 0.671875 16.414062 -0.863281 18.046875 -3.121094 L 18.671875 0 L 26.640625 0 L 26.160156 -7.199219 L 26.160156 -25.441406 L 17.328125 -25.441406 L 17.328125 -8.878906 C 16.847656 -8.160156 15.550781 -6.910156 13.632812 -6.910156 C 11.230469 -6.910156 10.945312 -8.640625 10.945312 -9.839844 L 10.945312 -25.441406 Z M 2.113281 -25.441406 "/></g></g></g><g fill="#000000" fill-opacity="1"><g transform="translate(563.674976, 148.603372)"><g><path d="M 13.390625 -25.441406 L 13.390625 -32.640625 L 4.558594 -32.640625 L 4.558594 -25.441406 L 0.71875 -25.441406 L 0.71875 -17.761719 L 4.558594 -17.761719 L 4.558594 -9.359375 C 4.558594 -1.921875 8.640625 0.671875 14.734375 0.671875 C 17.136719 0.671875 18.574219 0.238281 19.007812 0 L 19.007812 -7.199219 C 18.769531 -7.105469 17.566406 -6.910156 16.800781 -6.910156 C 14.785156 -6.910156 13.390625 -7.441406 13.390625 -10.320312 L 13.390625 -17.761719 L 19.488281 -17.761719 L 19.488281 -25.441406 Z M 13.390625 -25.441406 "/></g></g></g><g fill="#000000" fill-opacity="1"><g transform="translate(584.789038, 148.603372)"><g/></g></g><g fill="#000000" fill-opacity="1"><g transform="translate(594.389017, 148.603372)"><g/></g></g><g fill="#000000" fill-opacity="1"><g transform="translate(603.98435, 148.603372)"><g><path d="M 11.808594 0.671875 C 15.503906 0.671875 18.625 -0.0976562 21.3125 -1.34375 L 22.414062 0 L 33.023438 0 L 27.839844 -6.335938 C 31.152344 -10.273438 32.6875 -15.023438 32.6875 -18.71875 L 32.6875 -18.960938 L 23.328125 -18.960938 L 23.328125 -18.863281 C 23.328125 -17.089844 22.945312 -15.070312 22.175781 -13.246094 L 17.566406 -18.910156 C 21.167969 -20.832031 24.671875 -23.28125 24.671875 -28.703125 L 24.671875 -29.230469 C 24.671875 -33.9375 21.695312 -38.113281 13.871094 -38.113281 C 6.046875 -38.113281 3.070312 -33.9375 3.070312 -29.230469 L 3.070312 -28.703125 C 3.070312 -25.152344 3.984375 -22.992188 5.664062 -20.640625 C 2.878906 -18.625 0.574219 -15.695312 0.574219 -10.753906 L 0.574219 -10.222656 C 0.574219 -3.792969 4.609375 0.671875 11.808594 0.671875 Z M 13.34375 -6.910156 C 10.945312 -6.910156 9.648438 -8.398438 9.648438 -11.089844 L 9.648438 -11.328125 C 9.648438 -12.574219 10.03125 -13.535156 10.65625 -14.398438 L 16.414062 -7.34375 C 15.550781 -7.054688 14.59375 -6.910156 13.585938 -6.910156 Z M 12 -28.894531 C 12 -30.097656 12.671875 -30.863281 13.726562 -30.863281 L 14.015625 -30.863281 C 15.070312 -30.863281 15.742188 -30.097656 15.742188 -28.894531 L 15.742188 -28.65625 C 15.742188 -27.023438 14.640625 -25.921875 13.007812 -24.863281 C 12.382812 -26.0625 12 -27.359375 12 -28.65625 Z M 12 -28.894531 "/></g></g></g><g fill="#000000" fill-opacity="1"><g transform="translate(637.582008, 148.603372)"><g/></g></g><g fill="#000000" fill-opacity="1"><g transform="translate(474.152324, 215.353369)"><g><path d="M 13.441406 0.671875 C 21.839844 0.671875 25.679688 -4.320312 25.679688 -11.761719 L 25.679688 -13.679688 C 25.679688 -21.121094 21.839844 -26.113281 13.441406 -26.113281 C 5.039062 -26.113281 1.199219 -21.121094 1.199219 -13.679688 L 1.199219 -11.761719 C 1.199219 -4.320312 5.039062 0.671875 13.441406 0.671875 Z M 13.441406 -6.910156 C 11.039062 -6.910156 9.984375 -8.640625 9.984375 -11.761719 L 9.984375 -13.679688 C 9.984375 -16.800781 11.039062 -18.527344 13.441406 -18.527344 C 15.839844 -18.527344 16.894531 -16.800781 16.894531 -13.679688 L 16.894531 -11.761719 C 16.894531 -8.640625 15.839844 -6.910156 13.441406 -6.910156 Z M 13.441406 -6.910156 "/></g></g></g><g fill="#000000" fill-opacity="1"><g transform="translate(501.032274, 215.353369)"><g><path d="M 2.113281 -25.441406 L 2.113281 -8.398438 C 2.113281 -3.839844 4.03125 0.671875 10.03125 0.671875 C 13.824219 0.671875 16.414062 -0.863281 18.046875 -3.121094 L 18.671875 0 L 26.640625 0 L 26.160156 -7.199219 L 26.160156 -25.441406 L 17.328125 -25.441406 L 17.328125 -8.878906 C 16.847656 -8.160156 15.550781 -6.910156 13.632812 -6.910156 C 11.230469 -6.910156 10.945312 -8.640625 10.945312 -9.839844 L 10.945312 -25.441406 Z M 2.113281 -25.441406 "/></g></g></g><g fill="#000000" fill-opacity="1"><g transform="translate(529.592229, 215.353369)"><g><path d="M 13.390625 -25.441406 L 13.390625 -32.640625 L 4.558594 -32.640625 L 4.558594 -25.441406 L 0.71875 -25.441406 L 0.71875 -17.761719 L 4.558594 -17.761719 L 4.558594 -9.359375 C 4.558594 -1.921875 8.640625 0.671875 14.734375 0.671875 C 17.136719 0.671875 18.574219 0.238281 19.007812 0 L 19.007812 -7.199219 C 18.769531 -7.105469 17.566406 -6.910156 16.800781 -6.910156 C 14.785156 -6.910156 13.390625 -7.441406 13.390625 -10.320312 L 13.390625 -17.761719 L 19.488281 -17.761719 L 19.488281 -25.441406 Z M 13.390625 -25.441406 "/></g></g></g><g fill="#000000" fill-opacity="1"><g transform="translate(550.712196, 215.353369)"><g><path d="M 17.519531 0.671875 C 24.480469 0.671875 26.878906 -4.320312 26.878906 -11.761719 L 26.878906 -13.679688 C 26.878906 -21.121094 24.480469 -26.113281 17.519531 -26.113281 C 14.0625 -26.113281 11.808594 -24.625 10.367188 -22.464844 L 9.839844 -25.441406 L 1.871094 -25.441406 L 2.351562 -18.238281 L 2.351562 9.601562 L 11.183594 9.601562 L 11.183594 -1.921875 C 12.625 -0.335938 14.640625 0.671875 17.519531 0.671875 Z M 11.183594 -16.558594 C 11.664062 -17.28125 12.960938 -18.527344 14.878906 -18.527344 C 17.28125 -18.527344 18.097656 -16.800781 18.097656 -13.679688 L 18.097656 -11.761719 C 18.097656 -8.640625 17.28125 -6.910156 14.878906 -6.910156 C 12.960938 -6.910156 11.664062 -8.160156 11.183594 -8.878906 Z M 11.183594 -16.558594 "/></g></g></g><g fill="#000000" fill-opacity="1"><g transform="translate(578.792151, 215.353369)"><g><path d="M 2.113281 -25.441406 L 2.113281 -8.398438 C 2.113281 -3.839844 4.03125 0.671875 10.03125 0.671875 C 13.824219 0.671875 16.414062 -0.863281 18.046875 -3.121094 L 18.671875 0 L 26.640625 0 L 26.160156 -7.199219 L 26.160156 -25.441406 L 17.328125 -25.441406 L 17.328125 -8.878906 C 16.847656 -8.160156 15.550781 -6.910156 13.632812 -6.910156 C 11.230469 -6.910156 10.945312 -8.640625 10.945312 -9.839844 L 10.945312 -25.441406 Z M 2.113281 -25.441406 "/></g></g></g><g fill="#000000" fill-opacity="1"><g transform="translate(607.352105, 215.353369)"><g><path d="M 13.390625 -25.441406 L 13.390625 -32.640625 L 4.558594 -32.640625 L 4.558594 -25.441406 L 0.71875 -25.441406 L 0.71875 -17.761719 L 4.558594 -17.761719 L 4.558594 -9.359375 C 4.558594 -1.921875 8.640625 0.671875 14.734375 0.671875 C 17.136719 0.671875 18.574219 0.238281 19.007812 0 L 19.007812 -7.199219 C 18.769531 -7.105469 17.566406 -6.910156 16.800781 -6.910156 C 14.785156 -6.910156 13.390625 -7.441406 13.390625 -10.320312 L 13.390625 -17.761719 L 19.488281 -17.761719 L 19.488281 -25.441406 Z M 13.390625 -25.441406 "/></g></g></g><g fill="#000000" fill-opacity="1"><g transform="translate(628.464821, 215.353369)"><g/></g></g><path fill="#ffffff" d="M 30.695312 412.425781 C 30.695312 427.808594 43.152344 440.285156 58.511719 440.285156 C 59.820312 440.285156 61.117188 440.199219 62.378906 440.015625 C 69.171875 459.625 87.785156 473.707031 109.691406 473.707031 C 122.539062 473.707031 134.265625 468.851562 143.136719 460.875 C 146.90625 462.910156 151.226562 464.046875 155.816406 464.046875 C 164.027344 464.046875 171.371094 460.371094 176.3125 454.5625 C 183.851562 460.507812 193.363281 464.046875 203.703125 464.046875 C 213.503906 464.046875 222.5625 460.863281 229.902344 455.457031 C 235.777344 463.386719 245.1875 468.511719 255.800781 468.511719 C 273.617188 468.511719 288.058594 454.035156 288.058594 436.191406 C 288.058594 426.191406 283.519531 417.242188 276.394531 411.324219 C 288.109375 400.964844 295.488281 385.828125 295.488281 368.976562 C 295.488281 345.347656 280.984375 325.113281 260.414062 316.707031 C 262.457031 311.375 263.582031 305.578125 263.582031 299.523438 C 263.582031 273.0625 242.167969 251.613281 215.746094 251.613281 C 200.019531 251.613281 186.054688 259.210938 177.34375 270.953125 C 174.882812 269.972656 172.203125 269.433594 169.398438 269.433594 C 164.199219 269.433594 159.4375 271.285156 155.730469 274.347656 C 150.457031 261.027344 137.472656 251.613281 122.296875 251.613281 C 102.75 251.613281 86.855469 267.226562 86.351562 286.679688 C 72.644531 290.5 61.59375 300.710938 56.589844 313.898438 C 54.058594 313.003906 51.339844 312.527344 48.5 312.527344 C 34.976562 312.527344 24.023438 323.496094 24.023438 337.039062 C 24.023438 346.058594 28.894531 353.941406 36.140625 358.191406 C 35.015625 361.453125 34.402344 364.957031 34.402344 368.597656 C 34.402344 376.699219 37.414062 384.101562 42.371094 389.753906 C 35.296875 394.789062 30.695312 403.074219 30.695312 412.425781 Z M 30.695312 412.425781 " fill-opacity="1" fill-rule="nonzero"/><g clip-path="url(#d13c356fbe)"><path fill="#000000" d="M 109.691406 476.15625 C 87.980469 476.15625 68.558594 462.773438 60.738281 442.660156 C 60.003906 442.710938 59.269531 442.734375 58.511719 442.734375 C 41.820312 442.734375 28.246094 429.144531 28.246094 412.425781 C 28.246094 403.515625 32.1875 395.070312 38.894531 389.359375 C 34.402344 383.390625 31.957031 376.109375 31.957031 368.597656 C 31.957031 365.410156 32.382812 362.273438 33.238281 359.246094 C 26.007812 354.246094 21.578125 345.910156 21.578125 337.039062 C 21.578125 322.171875 33.65625 310.074219 48.5 310.074219 C 50.777344 310.074219 53.003906 310.355469 55.171875 310.910156 C 60.578125 298.515625 71.140625 288.945312 83.992188 284.828125 C 85.410156 264.691406 101.90625 249.160156 122.296875 249.160156 C 137.105469 249.160156 150.308594 257.484375 156.746094 270.609375 C 160.527344 268.257812 164.910156 266.980469 169.398438 266.980469 C 171.824219 266.980469 174.195312 267.335938 176.484375 268.046875 C 185.980469 256.195312 200.519531 249.160156 215.746094 249.160156 C 243.476562 249.160156 266.03125 271.75 266.03125 299.523438 C 266.03125 304.953125 265.175781 310.269531 263.484375 315.371094 C 284.484375 324.929688 297.933594 345.714844 297.933594 368.976562 C 297.933594 384.949219 291.4375 400.21875 280.03125 411.296875 C 286.726562 417.820312 290.507812 426.753906 290.507812 436.191406 C 290.507812 455.359375 274.941406 470.960938 255.800781 470.960938 C 245.667969 470.960938 235.972656 466.449219 229.425781 458.777344 C 221.789062 463.839844 212.941406 466.5 203.703125 466.5 C 193.863281 466.5 184.550781 463.523438 176.621094 457.847656 C 171.125 463.375 163.660156 466.5 155.816406 466.5 C 151.542969 466.5 147.324219 465.570312 143.503906 463.804688 C 134.042969 471.78125 122.101562 476.15625 109.691406 476.15625 Z M 62.378906 437.5625 C 63.40625 437.5625 64.347656 438.210938 64.691406 439.207031 C 71.324219 458.375 89.414062 471.253906 109.691406 471.253906 C 121.453125 471.253906 132.746094 466.917969 141.496094 459.046875 C 142.269531 458.363281 143.382812 458.226562 144.300781 458.71875 C 147.789062 460.605469 151.777344 461.597656 155.816406 461.597656 C 163 461.597656 169.792969 458.449219 174.453125 452.96875 C 175.3125 451.964844 176.804688 451.816406 177.832031 452.636719 C 185.273438 458.496094 194.21875 461.597656 203.703125 461.597656 C 212.683594 461.597656 221.238281 458.789062 228.460938 453.484375 C 229.550781 452.675781 231.066406 452.921875 231.875 454 C 237.554688 461.660156 246.277344 466.058594 255.800781 466.058594 C 272.234375 466.058594 285.613281 452.664062 285.613281 436.191406 C 285.613281 427.28125 281.683594 418.898438 274.828125 413.210938 C 274.277344 412.757812 273.960938 412.082031 273.949219 411.359375 C 273.9375 410.648438 274.242188 409.960938 274.78125 409.484375 C 286.382812 399.214844 293.039062 384.457031 293.039062 368.976562 C 293.039062 346.929688 279.871094 327.308594 259.484375 318.972656 C 258.246094 318.46875 257.648438 317.074219 258.125 315.824219 C 260.121094 310.613281 261.136719 305.136719 261.136719 299.523438 C 261.136719 274.457031 240.773438 254.0625 215.746094 254.0625 C 201.449219 254.0625 187.832031 260.925781 179.3125 272.410156 C 178.652344 273.304688 177.476562 273.636719 176.4375 273.234375 C 174.195312 272.339844 171.824219 271.882812 169.398438 271.882812 C 164.992188 271.882812 160.6875 273.429688 157.285156 276.234375 C 156.683594 276.738281 155.875 276.910156 155.117188 276.714844 C 154.359375 276.515625 153.734375 275.964844 153.453125 275.242188 C 148.363281 262.386719 136.125 254.0625 122.296875 254.0625 C 103.988281 254.0625 89.277344 268.417969 88.800781 286.738281 C 88.777344 287.816406 88.042969 288.75 87.015625 289.042969 C 74.152344 292.632812 63.640625 302.253906 58.878906 314.769531 C 58.402344 316.019531 57.03125 316.65625 55.78125 316.214844 C 53.46875 315.394531 51.023438 314.976562 48.5 314.976562 C 36.347656 314.976562 26.472656 324.867188 26.472656 337.039062 C 26.472656 344.832031 30.644531 352.125 37.375 356.070312 C 38.378906 356.660156 38.832031 357.886719 38.453125 358.988281 C 37.390625 362.066406 36.851562 365.300781 36.851562 368.597656 C 36.851562 375.792969 39.46875 382.730469 44.207031 388.132812 C 44.660156 388.660156 44.878906 389.347656 44.792969 390.035156 C 44.707031 390.71875 44.339844 391.34375 43.777344 391.75 C 37.105469 396.492188 33.128906 404.226562 33.128906 412.425781 C 33.128906 426.433594 44.511719 437.832031 58.5 437.832031 C 59.722656 437.832031 60.910156 437.746094 62.011719 437.585938 C 62.144531 437.574219 62.269531 437.5625 62.378906 437.5625 Z M 62.378906 437.5625 " fill-opacity="1" fill-rule="nonzero"/></g><path fill="#ffffff" d="M 246.253906 489.675781 C 246.253906 490.351562 246.222656 491.023438 246.15625 491.691406 C 246.089844 492.363281 245.992188 493.03125 245.859375 493.691406 C 245.726562 494.351562 245.566406 495.003906 245.371094 495.648438 C 245.175781 496.292969 244.949219 496.929688 244.691406 497.550781 C 244.433594 498.171875 244.144531 498.78125 243.828125 499.375 C 243.511719 499.972656 243.164062 500.546875 242.792969 501.109375 C 242.417969 501.667969 242.015625 502.210938 241.589844 502.730469 C 241.164062 503.25 240.710938 503.75 240.234375 504.226562 C 239.761719 504.703125 239.261719 505.15625 238.742188 505.582031 C 238.222656 506.011719 237.683594 506.410156 237.121094 506.785156 C 236.5625 507.160156 235.984375 507.507812 235.394531 507.824219 C 234.800781 508.140625 234.191406 508.429688 233.570312 508.6875 C 232.949219 508.945312 232.316406 509.171875 231.671875 509.367188 C 231.027344 509.5625 230.375 509.726562 229.714844 509.859375 C 229.054688 509.992188 228.390625 510.089844 227.71875 510.15625 C 227.050781 510.222656 226.378906 510.253906 225.707031 510.253906 C 225.035156 510.253906 224.363281 510.222656 223.691406 510.15625 C 223.023438 510.089844 222.359375 509.992188 221.699219 509.859375 C 221.039062 509.726562 220.386719 509.5625 219.742188 509.367188 C 219.097656 509.171875 218.464844 508.945312 217.84375 508.6875 C 217.222656 508.429688 216.613281 508.140625 216.019531 507.824219 C 215.425781 507.507812 214.851562 507.160156 214.289062 506.785156 C 213.730469 506.410156 213.191406 506.011719 212.671875 505.582031 C 212.152344 505.15625 211.652344 504.703125 211.175781 504.226562 C 210.703125 503.75 210.25 503.25 209.824219 502.730469 C 209.394531 502.210938 208.996094 501.667969 208.621094 501.109375 C 208.25 500.546875 207.902344 499.972656 207.585938 499.375 C 207.269531 498.78125 206.980469 498.171875 206.722656 497.550781 C 206.464844 496.929688 206.238281 496.292969 206.042969 495.648438 C 205.847656 495.003906 205.683594 494.351562 205.554688 493.691406 C 205.421875 493.03125 205.324219 492.363281 205.257812 491.691406 C 205.191406 491.023438 205.160156 490.351562 205.160156 489.675781 C 205.160156 489.003906 205.191406 488.328125 205.257812 487.660156 C 205.324219 486.988281 205.421875 486.324219 205.554688 485.660156 C 205.683594 485 205.847656 484.347656 206.042969 483.703125 C 206.238281 483.058594 206.464844 482.425781 206.722656 481.800781 C 206.980469 481.179688 207.269531 480.570312 207.585938 479.976562 C 207.902344 479.382812 208.25 478.804688 208.621094 478.242188 C 208.996094 477.683594 209.394531 477.144531 209.824219 476.621094 C 210.25 476.101562 210.703125 475.601562 211.175781 475.125 C 211.652344 474.648438 212.152344 474.195312 212.671875 473.769531 C 213.191406 473.339844 213.730469 472.941406 214.289062 472.566406 C 214.851562 472.191406 215.425781 471.847656 216.019531 471.527344 C 216.613281 471.210938 217.222656 470.921875 217.84375 470.664062 C 218.464844 470.40625 219.097656 470.179688 219.742188 469.984375 C 220.386719 469.789062 221.039062 469.625 221.699219 469.492188 C 222.359375 469.363281 223.023438 469.261719 223.691406 469.199219 C 224.363281 469.132812 225.035156 469.097656 225.707031 469.097656 C 226.378906 469.097656 227.050781 469.132812 227.71875 469.199219 C 228.390625 469.261719 229.054688 469.363281 229.714844 469.492188 C 230.375 469.625 231.027344 469.789062 231.671875 469.984375 C 232.316406 470.179688 232.949219 470.40625 233.570312 470.664062 C 234.191406 470.921875 234.800781 471.210938 235.394531 471.527344 C 235.984375 471.847656 236.5625 472.191406 237.121094 472.566406 C 237.683594 472.941406 238.222656 473.339844 238.742188 473.769531 C 239.261719 474.195312 239.761719 474.648438 240.234375 475.125 C 240.710938 475.601562 241.164062 476.101562 241.589844 476.621094 C 242.015625 477.144531 242.417969 477.683594 242.792969 478.242188 C 243.164062 478.804688 243.511719 479.382812 243.828125 479.976562 C 244.144531 480.570312 244.433594 481.179688 244.691406 481.800781 C 244.949219 482.425781 245.175781 483.058594 245.371094 483.703125 C 245.566406 484.347656 245.726562 485 245.859375 485.660156 C 245.992188 486.324219 246.089844 486.988281 246.15625 487.660156 C 246.222656 488.328125 246.253906 489.003906 246.253906 489.675781 Z M 246.253906 489.675781 " fill-opacity="1" fill-rule="nonzero"/><path fill="#000000" d="M 225.707031 512.707031 C 213.027344 512.707031 202.710938 502.375 202.710938 489.675781 C 202.710938 476.980469 213.027344 466.648438 225.707031 466.648438 C 238.386719 466.648438 248.703125 476.980469 248.703125 489.675781 C 248.703125 502.375 238.386719 512.707031 225.707031 512.707031 Z M 225.707031 471.550781 C 215.734375 471.550781 207.605469 479.675781 207.605469 489.675781 C 207.605469 499.675781 215.71875 507.804688 225.707031 507.804688 C 235.691406 507.804688 243.804688 499.675781 243.804688 489.675781 C 243.804688 479.675781 235.679688 471.550781 225.707031 471.550781 Z M 225.707031 471.550781 " fill-opacity="1" fill-rule="nonzero"/><path fill="#ffffff" d="M 272.957031 518.589844 C 272.957031 519.464844 272.871094 520.335938 272.699219 521.195312 C 272.53125 522.058594 272.277344 522.894531 271.941406 523.707031 C 271.605469 524.515625 271.195312 525.289062 270.707031 526.015625 C 270.21875 526.746094 269.667969 527.421875 269.046875 528.042969 C 268.425781 528.664062 267.753906 529.21875 267.023438 529.707031 C 266.292969 530.195312 265.523438 530.605469 264.714844 530.941406 C 263.90625 531.277344 263.070312 531.53125 262.210938 531.703125 C 261.351562 531.875 260.480469 531.960938 259.605469 531.960938 C 258.730469 531.960938 257.859375 531.875 257 531.703125 C 256.140625 531.53125 255.304688 531.277344 254.496094 530.941406 C 253.6875 530.605469 252.917969 530.195312 252.1875 529.707031 C 251.460938 529.21875 250.785156 528.664062 250.164062 528.042969 C 249.542969 527.421875 248.992188 526.746094 248.503906 526.015625 C 248.015625 525.289062 247.605469 524.515625 247.269531 523.707031 C 246.933594 522.894531 246.683594 522.058594 246.511719 521.195312 C 246.339844 520.335938 246.253906 519.464844 246.253906 518.589844 C 246.253906 517.710938 246.339844 516.839844 246.511719 515.980469 C 246.683594 515.117188 246.933594 514.28125 247.269531 513.472656 C 247.605469 512.660156 248.015625 511.890625 248.503906 511.160156 C 248.992188 510.429688 249.542969 509.753906 250.164062 509.132812 C 250.785156 508.511719 251.460938 507.957031 252.1875 507.46875 C 252.917969 506.984375 253.6875 506.570312 254.496094 506.234375 C 255.304688 505.898438 256.140625 505.644531 257 505.472656 C 257.859375 505.300781 258.730469 505.21875 259.605469 505.21875 C 260.480469 505.21875 261.351562 505.300781 262.210938 505.472656 C 263.070312 505.644531 263.90625 505.898438 264.714844 506.234375 C 265.523438 506.570312 266.292969 506.984375 267.023438 507.46875 C 267.753906 507.957031 268.425781 508.511719 269.046875 509.132812 C 269.667969 509.753906 270.21875 510.429688 270.707031 511.160156 C 271.195312 511.890625 271.605469 512.660156 271.941406 513.472656 C 272.277344 514.28125 272.53125 515.117188 272.699219 515.980469 C 272.871094 516.839844 272.957031 517.710938 272.957031 518.589844 Z M 272.957031 518.589844 " fill-opacity="1" fill-rule="nonzero"/><path fill="#000000" d="M 259.605469 534.421875 C 250.890625 534.421875 243.804688 527.328125 243.804688 518.601562 C 243.804688 509.875 250.890625 502.777344 259.605469 502.777344 C 268.320312 502.777344 275.40625 509.875 275.40625 518.601562 C 275.40625 527.328125 268.320312 534.421875 259.605469 534.421875 Z M 259.605469 507.667969 C 253.585938 507.667969 248.703125 512.570312 248.703125 518.589844 C 248.703125 524.605469 253.597656 529.507812 259.605469 529.507812 C 265.613281 529.507812 270.507812 524.605469 270.507812 518.589844 C 270.507812 512.570312 265.625 507.667969 259.605469 507.667969 Z M 259.605469 507.667969 " fill-opacity="1" fill-rule="nonzero"/><path fill="#ffffff" d="M 292.511719 531.324219 C 292.511719 531.730469 292.472656 532.132812 292.394531 532.53125 C 292.316406 532.929688 292.199219 533.316406 292.042969 533.691406 C 291.886719 534.066406 291.699219 534.421875 291.472656 534.761719 C 291.246094 535.097656 290.992188 535.410156 290.703125 535.699219 C 290.417969 535.988281 290.105469 536.242188 289.765625 536.46875 C 289.429688 536.695312 289.074219 536.886719 288.699219 537.039062 C 288.324219 537.195312 287.9375 537.3125 287.539062 537.394531 C 287.140625 537.472656 286.738281 537.511719 286.332031 537.511719 C 285.925781 537.511719 285.527344 537.472656 285.128906 537.394531 C 284.730469 537.3125 284.34375 537.195312 283.96875 537.039062 C 283.59375 536.886719 283.238281 536.695312 282.898438 536.46875 C 282.5625 536.242188 282.25 535.988281 281.964844 535.699219 C 281.675781 535.410156 281.421875 535.097656 281.195312 534.761719 C 280.96875 534.421875 280.777344 534.066406 280.625 533.691406 C 280.46875 533.316406 280.351562 532.929688 280.273438 532.53125 C 280.191406 532.132812 280.152344 531.730469 280.152344 531.324219 C 280.152344 530.917969 280.191406 530.515625 280.273438 530.113281 C 280.351562 529.714844 280.46875 529.328125 280.625 528.953125 C 280.777344 528.578125 280.96875 528.222656 281.195312 527.882812 C 281.421875 527.546875 281.675781 527.234375 281.964844 526.945312 C 282.25 526.660156 282.5625 526.402344 282.898438 526.175781 C 283.238281 525.949219 283.59375 525.761719 283.96875 525.605469 C 284.34375 525.449219 284.730469 525.332031 285.128906 525.253906 C 285.527344 525.171875 285.925781 525.132812 286.332031 525.132812 C 286.738281 525.132812 287.140625 525.171875 287.539062 525.253906 C 287.9375 525.332031 288.324219 525.449219 288.699219 525.605469 C 289.074219 525.761719 289.429688 525.949219 289.765625 526.175781 C 290.105469 526.402344 290.417969 526.660156 290.703125 526.945312 C 290.992188 527.234375 291.246094 527.546875 291.472656 527.882812 C 291.699219 528.222656 291.886719 528.578125 292.042969 528.953125 C 292.199219 529.328125 292.316406 529.714844 292.394531 530.113281 C 292.472656 530.515625 292.511719 530.917969 292.511719 531.324219 Z M 292.511719 531.324219 " fill-opacity="1" fill-rule="nonzero"/><path fill="#000000" d="M 286.332031 539.964844 C 281.574219 539.964844 277.707031 536.089844 277.707031 531.324219 C 277.707031 526.554688 281.574219 522.683594 286.332031 522.683594 C 291.09375 522.683594 294.960938 526.554688 294.960938 531.324219 C 294.960938 536.089844 291.082031 539.964844 286.332031 539.964844 Z M 286.332031 527.597656 C 284.277344 527.597656 282.601562 529.277344 282.601562 531.335938 C 282.601562 533.394531 284.277344 535.074219 286.332031 535.074219 C 288.390625 535.074219 290.066406 533.394531 290.066406 531.335938 C 290.054688 529.261719 288.390625 527.597656 286.332031 527.597656 Z M 286.332031 527.597656 " fill-opacity="1" fill-rule="nonzero"/><g fill="#000000" fill-opacity="1"><g transform="translate(94.131633, 346.216685)"><g><path d="M 12.171875 -25.519531 C 12.171875 -28.136719 13.4375 -28.617188 15.269531 -28.617188 C 15.96875 -28.617188 17.058594 -28.445312 17.277344 -28.355469 L 17.277344 -34.902344 C 16.882812 -35.117188 15.574219 -35.511719 13.394531 -35.511719 C 7.851562 -35.511719 4.144531 -33.15625 4.144531 -26.394531 L 4.144531 -23.121094 L 0.65625 -23.121094 L 0.65625 -16.140625 L 4.144531 -16.140625 L 4.144531 0 L 12.171875 0 L 12.171875 -16.140625 L 16.839844 -16.140625 L 16.839844 -23.121094 L 12.171875 -23.121094 Z M 12.171875 -25.519531 "/></g></g></g><g fill="#000000" fill-opacity="1"><g transform="translate(112.45447, 346.216685)"><g><path d="M 2.09375 0 L 10.121094 0 L 10.121094 -23.121094 L 2.09375 -23.121094 Z M 10.253906 -34.027344 L 1.964844 -34.027344 L 1.964844 -25.738281 L 10.253906 -25.738281 Z M 10.253906 -34.027344 "/></g></g></g><g fill="#000000" fill-opacity="1"><g transform="translate(124.669705, 346.216685)"><g><path d="M 2.09375 0 L 10.121094 0 L 10.121094 -34.902344 L 2.09375 -34.902344 Z M 2.09375 0 "/></g></g></g><g fill="#000000" fill-opacity="1"><g transform="translate(136.884939, 346.216685)"><g><path d="M 23.339844 -8.726562 L 23.339844 -12.214844 C 23.339844 -18.976562 19.851562 -23.730469 12.390625 -23.730469 C 4.929688 -23.730469 1.089844 -18.976562 1.089844 -12.214844 L 1.089844 -10.90625 C 1.089844 -4.144531 4.753906 0.609375 12.652344 0.609375 C 19.371094 0.609375 23.339844 -2.617188 23.339844 -7.242188 L 23.339844 -7.417969 L 15.792969 -7.417969 C 15.792969 -6.324219 14.441406 -5.410156 12.695312 -5.410156 C 10.6875 -5.410156 9.378906 -6.109375 9.117188 -8.726562 Z M 12.214844 -17.710938 C 14.089844 -17.710938 15.09375 -16.839844 15.3125 -14.398438 L 9.117188 -14.398438 C 9.335938 -16.839844 10.339844 -17.710938 12.214844 -17.710938 Z M 12.214844 -17.710938 "/></g></g></g><g fill="#000000" fill-opacity="1"><g transform="translate(161.315393, 346.216685)"><g><path d="M 11.5625 -5.410156 C 9.902344 -5.410156 9.203125 -6.152344 9.203125 -7.417969 L 1.222656 -7.417969 L 1.222656 -7.199219 C 1.222656 -2.398438 4.753906 0.609375 11.5625 0.609375 C 18.496094 0.609375 21.898438 -2.398438 21.898438 -7.460938 L 21.898438 -7.894531 C 21.898438 -12.957031 17.710938 -14.003906 11.910156 -14.484375 C 9.945312 -14.660156 9.378906 -15.050781 9.378906 -16.140625 C 9.378906 -17.058594 10.121094 -17.710938 11.5625 -17.710938 C 13 -17.710938 13.742188 -16.882812 13.742188 -15.488281 L 21.59375 -15.488281 L 21.59375 -15.707031 C 21.59375 -20.808594 18.496094 -23.730469 11.5625 -23.730469 C 6.0625 -23.730469 1.527344 -21.59375 1.527344 -15.878906 L 1.527344 -15.445312 C 1.527344 -10.820312 4.625 -9.378906 11.253906 -8.855469 C 13.4375 -8.679688 13.871094 -8.070312 13.871094 -7.109375 C 13.871094 -6.195312 13.304688 -5.410156 11.5625 -5.410156 Z M 11.5625 -5.410156 "/></g></g></g><g fill="#000000" fill-opacity="1"><g transform="translate(184.436324, 346.216685)"><g/></g></g><g fill="#000000" fill-opacity="1"><g transform="translate(193.161489, 346.216685)"><g/></g></g><g fill="#000000" fill-opacity="1"><g transform="translate(201.875255, 346.216685)"><g><path d="M 10.730469 0.609375 C 14.089844 0.609375 16.925781 -0.0859375 19.371094 -1.222656 L 20.375 0 L 30.015625 0 L 25.304688 -5.757812 C 28.3125 -9.335938 29.710938 -13.65625 29.710938 -17.015625 L 29.710938 -17.230469 L 21.203125 -17.230469 L 21.203125 -17.144531 C 21.203125 -15.53125 20.851562 -13.699219 20.15625 -12.039062 L 15.96875 -17.1875 C 19.238281 -18.933594 22.421875 -21.160156 22.421875 -26.089844 L 22.421875 -26.566406 C 22.421875 -30.84375 19.71875 -34.640625 12.609375 -34.640625 C 5.496094 -34.640625 2.792969 -30.84375 2.792969 -26.566406 L 2.792969 -26.089844 C 2.792969 -22.859375 3.621094 -20.898438 5.148438 -18.757812 C 2.617188 -16.925781 0.523438 -14.265625 0.523438 -9.773438 L 0.523438 -9.292969 C 0.523438 -3.445312 4.1875 0.609375 10.730469 0.609375 Z M 12.128906 -6.28125 C 9.945312 -6.28125 8.769531 -7.632812 8.769531 -10.078125 L 8.769531 -10.296875 C 8.769531 -11.429688 9.117188 -12.300781 9.683594 -13.085938 L 14.921875 -6.675781 C 14.132812 -6.414062 13.261719 -6.28125 12.347656 -6.28125 Z M 10.90625 -26.261719 C 10.90625 -27.351562 11.515625 -28.050781 12.476562 -28.050781 L 12.738281 -28.050781 C 13.699219 -28.050781 14.308594 -27.351562 14.308594 -26.261719 L 14.308594 -26.042969 C 14.308594 -24.5625 13.304688 -23.558594 11.824219 -22.597656 C 11.253906 -23.6875 10.90625 -24.867188 10.90625 -26.042969 Z M 10.90625 -26.261719 "/></g></g></g><g fill="#000000" fill-opacity="1"><g transform="translate(232.407585, 346.216685)"><g/></g></g><g fill="#000000" fill-opacity="1"><g transform="translate(64.167347, 407.110932)"><g><path d="M 12.171875 -25.519531 C 12.171875 -28.136719 13.4375 -28.617188 15.269531 -28.617188 C 15.96875 -28.617188 17.058594 -28.445312 17.277344 -28.355469 L 17.277344 -34.902344 C 16.882812 -35.117188 15.574219 -35.511719 13.394531 -35.511719 C 7.851562 -35.511719 4.144531 -33.15625 4.144531 -26.394531 L 4.144531 -23.121094 L 0.65625 -23.121094 L 0.65625 -16.140625 L 4.144531 -16.140625 L 4.144531 0 L 12.171875 0 L 12.171875 -16.140625 L 16.839844 -16.140625 L 16.839844 -23.121094 L 12.171875 -23.121094 Z M 12.171875 -25.519531 "/></g></g></g><g fill="#000000" fill-opacity="1"><g transform="translate(82.490184, 407.110932)"><g><path d="M 1.917969 -23.121094 L 1.917969 -7.632812 C 1.917969 -3.488281 3.664062 0.609375 9.117188 0.609375 C 12.5625 0.609375 14.921875 -0.785156 16.402344 -2.835938 L 16.96875 0 L 24.210938 0 L 23.777344 -6.542969 L 23.777344 -23.121094 L 15.75 -23.121094 L 15.75 -8.070312 C 15.3125 -7.417969 14.132812 -6.28125 12.390625 -6.28125 C 10.207031 -6.28125 9.945312 -7.851562 9.945312 -8.941406 L 9.945312 -23.121094 Z M 1.917969 -23.121094 "/></g></g></g><g fill="#000000" fill-opacity="1"><g transform="translate(108.447546, 407.110932)"><g><path d="M 24.039062 0 L 24.039062 -15.488281 C 24.039062 -19.632812 22.292969 -23.730469 16.839844 -23.730469 C 13.394531 -23.730469 11.039062 -22.292969 9.511719 -20.242188 L 8.988281 -23.121094 L 1.746094 -23.121094 L 2.179688 -16.578125 L 2.179688 0 L 10.207031 0 L 10.207031 -15.050781 C 10.644531 -15.707031 11.824219 -16.839844 13.566406 -16.839844 C 15.75 -16.839844 16.011719 -15.269531 16.011719 -14.179688 L 16.011719 0 Z M 24.039062 0 "/></g></g></g><g fill="#000000" fill-opacity="1"><g transform="translate(134.404909, 407.110932)"><g><path d="M 9.074219 -10.6875 L 9.074219 -12.433594 C 9.074219 -15.269531 9.816406 -16.839844 11.953125 -16.839844 C 13.523438 -16.839844 14.484375 -15.96875 14.484375 -13.960938 L 22.03125 -13.960938 L 22.03125 -15.007812 C 22.03125 -20.503906 18.496094 -23.730469 11.777344 -23.730469 C 4.320312 -23.730469 1.089844 -19.195312 1.089844 -12.433594 L 1.089844 -10.6875 C 1.089844 -3.925781 4.320312 0.609375 11.777344 0.609375 C 18.496094 0.609375 22.03125 -2.617188 22.03125 -7.679688 L 22.03125 -8.726562 L 14.484375 -8.726562 C 14.484375 -7.199219 13.523438 -6.28125 11.953125 -6.28125 C 9.816406 -6.28125 9.074219 -7.851562 9.074219 -10.6875 Z M 9.074219 -10.6875 "/></g></g></g><g fill="#000000" fill-opacity="1"><g transform="translate(157.439344, 407.110932)"><g><path d="M 12.171875 -23.121094 L 12.171875 -29.664062 L 4.144531 -29.664062 L 4.144531 -23.121094 L 0.65625 -23.121094 L 0.65625 -16.140625 L 4.144531 -16.140625 L 4.144531 -8.507812 C 4.144531 -1.746094 7.851562 0.609375 13.394531 0.609375 C 15.574219 0.609375 16.882812 0.21875 17.277344 0 L 17.277344 -6.542969 C 17.058594 -6.457031 15.96875 -6.28125 15.269531 -6.28125 C 13.4375 -6.28125 12.171875 -6.761719 12.171875 -9.378906 L 12.171875 -16.140625 L 17.710938 -16.140625 L 17.710938 -23.121094 Z M 12.171875 -23.121094 "/></g></g></g><g fill="#000000" fill-opacity="1"><g transform="translate(176.634702, 407.110932)"><g><path d="M 2.09375 0 L 10.121094 0 L 10.121094 -23.121094 L 2.09375 -23.121094 Z M 10.253906 -34.027344 L 1.964844 -34.027344 L 1.964844 -25.738281 L 10.253906 -25.738281 Z M 10.253906 -34.027344 "/></g></g></g><g fill="#000000" fill-opacity="1"><g transform="translate(188.849936, 407.110932)"><g><path d="M 12.214844 0.609375 C 19.851562 0.609375 23.339844 -3.925781 23.339844 -10.6875 L 23.339844 -12.433594 C 23.339844 -19.195312 19.851562 -23.730469 12.214844 -23.730469 C 4.582031 -23.730469 1.089844 -19.195312 1.089844 -12.433594 L 1.089844 -10.6875 C 1.089844 -3.925781 4.582031 0.609375 12.214844 0.609375 Z M 12.214844 -6.28125 C 10.035156 -6.28125 9.074219 -7.851562 9.074219 -10.6875 L 9.074219 -12.433594 C 9.074219 -15.269531 10.035156 -16.839844 12.214844 -16.839844 C 14.398438 -16.839844 15.355469 -15.269531 15.355469 -12.433594 L 15.355469 -10.6875 C 15.355469 -7.851562 14.398438 -6.28125 12.214844 -6.28125 Z M 12.214844 -6.28125 "/></g></g></g><g fill="#000000" fill-opacity="1"><g transform="translate(213.28039, 407.110932)"><g><path d="M 24.039062 0 L 24.039062 -15.488281 C 24.039062 -19.632812 22.292969 -23.730469 16.839844 -23.730469 C 13.394531 -23.730469 11.039062 -22.292969 9.511719 -20.242188 L 8.988281 -23.121094 L 1.746094 -23.121094 L 2.179688 -16.578125 L 2.179688 0 L 10.207031 0 L 10.207031 -15.050781 C 10.644531 -15.707031 11.824219 -16.839844 13.566406 -16.839844 C 15.75 -16.839844 16.011719 -15.269531 16.011719 -14.179688 L 16.011719 0 Z M 24.039062 0 "/></g></g></g><g fill="#000000" fill-opacity="1"><g transform="translate(239.237753, 407.110932)"><g><path d="M 11.5625 -5.410156 C 9.902344 -5.410156 9.203125 -6.152344 9.203125 -7.417969 L 1.222656 -7.417969 L 1.222656 -7.199219 C 1.222656 -2.398438 4.753906 0.609375 11.5625 0.609375 C 18.496094 0.609375 21.898438 -2.398438 21.898438 -7.460938 L 21.898438 -7.894531 C 21.898438 -12.957031 17.710938 -14.003906 11.910156 -14.484375 C 9.945312 -14.660156 9.378906 -15.050781 9.378906 -16.140625 C 9.378906 -17.058594 10.121094 -17.710938 11.5625 -17.710938 C 13 -17.710938 13.742188 -16.882812 13.742188 -15.488281 L 21.59375 -15.488281 L 21.59375 -15.707031 C 21.59375 -20.808594 18.496094 -23.730469 11.5625 -23.730469 C 6.0625 -23.730469 1.527344 -21.59375 1.527344 -15.878906 L 1.527344 -15.445312 C 1.527344 -10.820312 4.625 -9.378906 11.253906 -8.855469 C 13.4375 -8.679688 13.871094 -8.070312 13.871094 -7.109375 C 13.871094 -6.195312 13.304688 -5.410156 11.5625 -5.410156 Z M 11.5625 -5.410156 "/></g></g></g><g fill="#000000" fill-opacity="1"><g transform="translate(262.357675, 407.110932)"><g/></g></g><g clip-path="url(#ce1728b1b4)"><g clip-path="url(#3a1e3ac551)"><g clip-path="url(#d65029ba87)"><g clip-path="url(#2f31c3fb78)"><path fill="#ffffff" d="M 327.234375 240.152344 L 303.792969 220.585938 L 287.101562 206.640625 C 263.554688 220.660156 233.390625 227.058594 201.785156 222.652344 C 136.621094 213.558594 89.96875 161.933594 97.585938 107.34375 C 105.203125 52.742188 164.203125 15.855469 229.367188 24.945312 C 294.539062 34.039062 341.191406 85.667969 333.574219 140.265625 C 330.734375 160.601562 320.765625 178.488281 305.992188 192.445312 L 314.8125 212.269531 Z M 327.234375 240.152344 " fill-opacity="1" fill-rule="nonzero"/></g></g></g></g><g clip-path="url(#7e7c390e39)"><g clip-path="url(#117003f27e)"><g clip-path="url(#e17b5470b9)"><g clip-path="url(#431525c0f2)"><path fill="#000000" d="M 326.929688 242.328125 C 326.539062 242.273438 326.148438 242.109375 325.820312 241.839844 L 286.871094 209.3125 C 262.199219 223.5625 231.933594 229.074219 201.46875 224.824219 C 135.21875 215.582031 87.636719 162.75 95.410156 107.039062 C 103.183594 51.332031 163.410156 13.527344 229.667969 22.769531 C 295.929688 32.015625 343.519531 84.859375 335.746094 140.570312 C 333 160.261719 323.632812 178.355469 308.625 192.957031 L 329.242188 239.257812 C 329.65625 240.191406 329.382812 241.285156 328.5625 241.902344 C 328.078125 242.265625 327.496094 242.40625 326.929688 242.328125 Z M 229.0625 27.121094 C 165.207031 18.210938 107.199219 54.332031 99.761719 107.648438 C 92.324219 160.953125 138.230469 211.566406 202.085938 220.476562 C 232.117188 224.664062 261.914062 219.078125 285.976562 204.753906 C 286.777344 204.277344 287.796875 204.351562 288.511719 204.953125 L 321.382812 232.398438 L 303.992188 193.332031 C 303.613281 192.480469 303.820312 191.476562 304.496094 190.839844 C 319.425781 176.738281 328.734375 159.136719 331.410156 139.953125 C 338.835938 86.644531 292.929688 36.03125 229.0625 27.121094 Z M 229.0625 27.121094 " fill-opacity="1" fill-rule="nonzero"/></g></g></g></g><g fill="#000000" fill-opacity="1"><g transform="translate(158.061633, 140.66967)"><g><path d="M 2.589844 0 L 12.527344 0 L 12.527344 -43.191406 L 2.589844 -43.191406 Z M 2.589844 0 "/></g></g></g><g fill="#000000" fill-opacity="1"><g transform="translate(173.179146, 140.66967)"><g><path d="M 15.117188 0.757812 C 24.566406 0.757812 28.886719 -4.859375 28.886719 -13.226562 L 28.886719 -15.386719 C 28.886719 -23.757812 24.566406 -29.371094 15.117188 -29.371094 C 5.667969 -29.371094 1.351562 -23.757812 1.351562 -15.386719 L 1.351562 -13.226562 C 1.351562 -4.859375 5.667969 0.757812 15.117188 0.757812 Z M 15.117188 -7.773438 C 12.417969 -7.773438 11.230469 -9.71875 11.230469 -13.226562 L 11.230469 -15.386719 C 11.230469 -18.898438 12.417969 -20.839844 15.117188 -20.839844 C 17.816406 -20.839844 19.003906 -18.898438 19.003906 -15.386719 L 19.003906 -13.226562 C 19.003906 -9.71875 17.816406 -7.773438 15.117188 -7.773438 Z M 15.117188 -7.773438 "/></g></g></g><g fill="#000000" fill-opacity="1"><g transform="translate(203.414173, 140.66967)"><g><path d="M 19.003906 -0.808594 C 19.003906 2.699219 17.546875 3.5625 14.902344 3.5625 C 11.878906 3.5625 11.230469 1.890625 11.230469 0 L 1.890625 0 L 1.890625 1.296875 C 1.890625 7.019531 5.183594 11.554688 15.117188 11.554688 C 24.351562 11.554688 28.9375 7.558594 28.9375 -0.808594 L 28.9375 -20.515625 L 29.480469 -28.617188 L 20.515625 -28.617188 L 19.921875 -25.484375 C 18.304688 -27.75 15.765625 -29.371094 11.878906 -29.371094 C 4.320312 -29.371094 1.351562 -23.757812 1.351562 -15.925781 L 1.351562 -14.308594 C 1.351562 -5.9375 4.320312 -0.863281 11.878906 -0.863281 C 15.0625 -0.863281 17.386719 -1.890625 19.003906 -3.5625 Z M 19.003906 -11.609375 C 18.464844 -10.796875 17.007812 -9.394531 14.847656 -9.394531 C 12.417969 -9.394531 11.230469 -10.796875 11.230469 -14.308594 L 11.230469 -15.925781 C 11.230469 -18.898438 12.417969 -20.839844 14.847656 -20.839844 C 17.007812 -20.839844 18.464844 -19.4375 19.003906 -18.628906 Z M 19.003906 -11.609375 "/></g></g></g><g fill="#000000" fill-opacity="1"><g transform="translate(234.998985, 140.66967)"><g><path d="M 2.589844 0 L 12.527344 0 L 12.527344 -28.617188 L 2.589844 -28.617188 Z M 12.6875 -42.113281 L 2.429688 -42.113281 L 2.429688 -31.855469 L 12.6875 -31.855469 Z M 12.6875 -42.113281 "/></g></g></g><g fill="#000000" fill-opacity="1"><g transform="translate(250.116498, 140.66967)"><g><path d="M 11.230469 -13.226562 L 11.230469 -15.386719 C 11.230469 -18.898438 12.148438 -20.839844 14.792969 -20.839844 C 16.738281 -20.839844 17.925781 -19.761719 17.925781 -17.277344 L 27.265625 -17.277344 L 27.265625 -18.574219 C 27.265625 -25.375 22.890625 -29.371094 14.578125 -29.371094 C 5.34375 -29.371094 1.351562 -23.757812 1.351562 -15.386719 L 1.351562 -13.226562 C 1.351562 -4.859375 5.34375 0.757812 14.578125 0.757812 C 22.890625 0.757812 27.265625 -3.238281 27.265625 -9.503906 L 27.265625 -10.796875 L 17.925781 -10.796875 C 17.925781 -8.910156 16.738281 -7.773438 14.792969 -7.773438 C 12.148438 -7.773438 11.230469 -9.71875 11.230469 -13.226562 Z M 11.230469 -13.226562 "/></g></g></g></svg>