<svg xmlns="http://www.w3.org/2000/svg" xmlns:xlink="http://www.w3.org/1999/xlink" width="1000" zoomAndPan="magnify" viewBox="0 0 750 599.999999" height="800" preserveAspectRatio="xMidYMid meet" version="1.0"><defs><g/><clipPath id="id1"><path d="M 21.121094 105 L 58 105 L 58 201 L 21.121094 201 Z M 21.121094 105 " clip-rule="nonzero"/></clipPath><clipPath id="id2"><path d="M 457 239.226562 L 733.523438 239.226562 L 733.523438 467 L 457 467 Z M 457 239.226562 " clip-rule="nonzero"/></clipPath><clipPath id="id3"><path d="M 460 512 L 478 512 L 478 530.0625 L 460 530.0625 Z M 460 512 " clip-rule="nonzero"/></clipPath><clipPath id="id4"><path d="M 414 19 L 655 19 L 655 227 L 414 227 Z M 414 19 " clip-rule="nonzero"/></clipPath><clipPath id="id5"><path d="M 400.148438 25.304688 L 650.21875 10.652344 L 662.152344 214.304688 L 412.082031 228.957031 Z M 400.148438 25.304688 " clip-rule="nonzero"/></clipPath><clipPath id="id6"><path d="M 650.382812 10.644531 L 400.3125 25.292969 L 412.242188 228.945312 L 662.316406 214.292969 Z M 650.382812 10.644531 " clip-rule="nonzero"/></clipPath><clipPath id="id7"><path d="M 650.382812 10.644531 L 400.3125 25.292969 L 412.242188 228.945312 L 662.316406 214.292969 Z M 650.382812 10.644531 " clip-rule="nonzero"/></clipPath><clipPath id="id8"><path d="M 412 17 L 657 17 L 657 229 L 412 229 Z M 412 17 " clip-rule="nonzero"/></clipPath><clipPath id="id9"><path d="M 400.148438 25.304688 L 650.21875 10.652344 L 662.152344 214.304688 L 412.082031 228.957031 Z M 400.148438 25.304688 " clip-rule="nonzero"/></clipPath><clipPath id="id10"><path d="M 650.382812 10.644531 L 400.3125 25.292969 L 412.242188 228.945312 L 662.316406 214.292969 Z M 650.382812 10.644531 " clip-rule="nonzero"/></clipPath><clipPath id="id11"><path d="M 650.382812 10.644531 L 400.3125 25.292969 L 412.242188 228.945312 L 662.316406 214.292969 Z M 650.382812 10.644531 " clip-rule="nonzero"/></clipPath></defs><g fill="#f57c00" fill-opacity="1"><g transform="translate(15.162073, 570.039623)"><g><path d="M 14.121094 -4.519531 C 14.121094 -1.695312 15.816406 0 18.640625 0 L 48.011719 0 C 51.117188 0 52.53125 -1.695312 52.53125 -4.519531 L 52.53125 -75.6875 L 86.417969 -75.6875 C 112.964844 -75.6875 127.085938 -90.089844 127.085938 -116.355469 L 127.085938 -185.265625 C 127.085938 -211.8125 112.964844 -225.933594 86.417969 -225.933594 L 18.640625 -225.933594 C 15.816406 -225.933594 14.121094 -224.238281 14.121094 -221.414062 Z M 52.53125 -112.964844 L 52.53125 -188.652344 L 77.382812 -188.652344 C 85.007812 -188.652344 88.679688 -184.699219 88.679688 -177.355469 L 88.679688 -124.261719 C 88.679688 -117.203125 85.007812 -112.964844 77.382812 -112.964844 Z M 52.53125 -112.964844 "/></g></g></g><g fill="#f57c00" fill-opacity="1"><g transform="translate(156.369794, 570.039623)"><g><path d="M 130.195312 -185.265625 C 130.195312 -211.8125 116.074219 -225.933594 89.527344 -225.933594 L 18.640625 -225.933594 C 15.816406 -225.933594 14.121094 -224.238281 14.121094 -221.414062 L 14.121094 -4.519531 C 14.121094 -1.695312 15.816406 0 18.640625 0 L 48.011719 0 C 50.835938 0 52.53125 -1.695312 52.53125 -4.519531 L 52.53125 -75.6875 L 72.015625 -75.6875 L 90.9375 -3.953125 C 91.503906 -1.410156 92.914062 0 95.738281 0 L 125.109375 0 C 128.214844 0 129.910156 -1.695312 129.0625 -5.082031 L 109.578125 -79.078125 C 123.132812 -85.007812 130.195312 -97.433594 130.195312 -116.355469 Z M 52.53125 -112.964844 L 52.53125 -188.652344 L 80.488281 -188.652344 C 87.832031 -188.652344 91.785156 -184.699219 91.785156 -177.355469 L 91.785156 -124.261719 C 91.785156 -116.921875 87.832031 -112.964844 80.488281 -112.964844 Z M 52.53125 -112.964844 "/></g></g></g><g fill="#f57c00" fill-opacity="1"><g transform="translate(300.684091, 570.039623)"><g><path d="M 14.121094 -40.667969 C 14.121094 -14.121094 28.242188 0 54.789062 0 L 86.417969 0 C 112.964844 0 127.085938 -14.121094 127.085938 -40.667969 L 127.085938 -185.265625 C 127.085938 -211.8125 112.964844 -225.933594 86.417969 -225.933594 L 54.789062 -225.933594 C 28.242188 -225.933594 14.121094 -211.8125 14.121094 -185.265625 Z M 62.980469 -36.429688 C 55.636719 -36.429688 51.683594 -40.101562 51.683594 -47.726562 L 51.683594 -178.203125 C 51.683594 -185.546875 55.636719 -189.5 62.980469 -189.5 L 79.359375 -189.5 C 86.703125 -189.5 90.65625 -185.546875 90.65625 -178.203125 L 90.65625 -47.726562 C 90.65625 -40.101562 86.703125 -36.429688 79.359375 -36.429688 Z M 62.980469 -36.429688 "/></g></g></g><path fill="#000000" d="M 37.113281 135.863281 C 42.214844 124.40625 50.414062 115.972656 60.277344 110.308594 C 68.8125 105.414062 78.605469 102.59375 88.707031 101.722656 L 87.953125 95.761719 C 87.953125 92.347656 88.914062 88.972656 90.488281 85.882812 C 91.988281 82.941406 94.042969 80.265625 96.265625 78.085938 C 98.914062 75.488281 101.875 73.320312 105.089844 71.75 C 108.429688 70.121094 112.042969 69.125 115.878906 68.945312 C 116.8125 68.898438 121.324219 69.726562 123.515625 70.144531 L 128.539062 56.394531 C 132.296875 51.0625 137.078125 46.707031 142.40625 43.148438 C 147.636719 39.660156 153.398438 36.941406 159.210938 34.800781 C 171.347656 30.339844 185.453125 28.679688 199.3125 29.851562 C 213.1875 31.019531 226.804688 35.035156 237.960938 41.832031 C 241.902344 44.238281 245.828125 46.742188 249.46875 49.613281 C 251.972656 51.585938 254.339844 53.734375 256.496094 56.132812 C 257.058594 56.757812 259.011719 59.597656 260.265625 61.449219 C 262.15625 60.085938 265.199219 57.9375 266.0625 57.519531 C 269.34375 55.9375 272.917969 54.722656 276.574219 54.066406 C 280.355469 53.390625 284.21875 53.316406 287.953125 54.03125 C 292.898438 54.980469 297.496094 57.164062 301.453125 60.238281 C 305.320312 63.242188 308.574219 67.09375 310.9375 71.4375 L 313.445312 78.761719 C 316.25 78.070312 320.25 77.046875 321.007812 77.011719 C 324.636719 76.855469 328.4375 77.457031 332.085938 78.617188 C 335.625 79.738281 339.015625 81.386719 341.964844 83.34375 C 347.421875 86.960938 352.203125 91.761719 355.957031 97.296875 C 359.671875 102.773438 362.390625 108.96875 363.773438 115.429688 L 364.125 127.445312 C 365.390625 129.898438 370.761719 132.472656 374.730469 136.261719 C 376.628906 138.078125 378.289062 140.089844 379.410156 142.3125 C 383.109375 149.636719 383.191406 155.097656 381.523438 159.59375 C 379.304688 165.578125 373.332031 169.875 367.464844 175.023438 L 367.609375 175.253906 L 371.792969 184.394531 C 373.292969 188.71875 374.289062 193.097656 374.796875 197.539062 C 375.300781 201.964844 375.324219 206.449219 374.871094 210.996094 C 372.757812 232.269531 361.792969 247.5625 346.859375 255.949219 C 332.445312 264.050781 314.253906 265.703125 296.617188 259.886719 C 295.332031 264.742188 294.445312 269.65625 293.910156 274.617188 C 293.269531 280.519531 293.132812 286.476562 293.425781 292.464844 L 294.878906 304.179688 C 295.261719 305.980469 297.105469 309.980469 297.039062 310.972656 C 296.933594 312.582031 296.089844 313.507812 295.1875 314.046875 C 294.441406 314.496094 292.960938 315.167969 290.917969 313.882812 C 284.25 309.703125 278.308594 303.738281 273.40625 296.941406 C 268.609375 290.292969 264.8125 282.851562 262.292969 275.566406 L 259.167969 263.289062 L 249.265625 268.988281 C 244.113281 271.070312 238.214844 272.351562 232.292969 272.582031 C 226.273438 272.820312 220.234375 271.96875 214.933594 269.84375 C 210.234375 267.960938 205.59375 265.585938 201.257812 262.738281 C 196.890625 259.878906 192.835938 256.546875 189.320312 252.765625 L 184.210938 246.382812 C 183.542969 247.363281 182.769531 248.371094 182.167969 248.792969 C 180.226562 250.160156 178 251.109375 175.671875 251.691406 C 173.453125 252.242188 171.148438 252.460938 168.9375 252.402344 C 165.613281 252.320312 162.988281 251.578125 160.734375 250.484375 C 156.371094 248.363281 153.722656 244.527344 149.289062 241.8125 C 146.738281 243.257812 142.421875 245.832031 141.550781 246.140625 C 137.003906 247.742188 132.417969 248.769531 127.773438 249.265625 C 123.148438 249.761719 118.460938 249.730469 113.707031 249.222656 C 104.691406 248.253906 96.417969 245.652344 89.195312 241.292969 C 81.984375 236.945312 75.816406 230.847656 71.027344 222.835938 L 65.28125 207.742188 C 62.960938 205.253906 57.324219 204.78125 53.253906 202.875 C 51.773438 202.183594 50.4375 201.363281 49.335938 200.390625 C 40.628906 192.683594 35.207031 181.671875 33.1875 169.949219 C 31.195312 158.40625 32.511719 146.191406 37.113281 135.863281 Z M 40.398438 168.707031 C 42.132812 178.78125 46.707031 188.289062 54.1875 194.90625 C 57.175781 197.554688 62.75 198.230469 66.488281 199.933594 C 68.175781 200.703125 69.59375 201.636719 70.632812 202.746094 C 71.542969 203.71875 72.359375 205.09375 73.050781 206.738281 C 74.632812 210.503906 75.546875 216.132812 77.308594 219.082031 C 81.441406 225.996094 86.753906 231.273438 92.976562 235.023438 C 99.3125 238.847656 106.582031 241.09375 114.488281 241.945312 C 118.714844 242.398438 122.882812 242.429688 126.992188 241.988281 C 131.082031 241.550781 135.117188 240.648438 139.117188 239.238281 C 139.988281 238.933594 144.675781 235.980469 146.65625 234.890625 C 148.910156 233.648438 150.765625 234.273438 150.988281 234.382812 C 155.765625 236.769531 158.550781 240.445312 162.371094 242.996094 C 164.136719 244.175781 166.207031 245.011719 169.125 245.085938 C 170.691406 245.128906 172.328125 244.980469 173.902344 244.589844 C 175.351562 244.226562 176.75 243.65625 177.960938 242.804688 C 179.15625 241.964844 179.847656 239.394531 180.84375 238.542969 C 182.515625 237.113281 184.335938 236.796875 186.421875 238.09375 C 187.609375 238.835938 188.78125 239.972656 189.882812 241.328125 C 191.589844 243.421875 193.152344 246.144531 194.679688 247.78125 C 197.796875 251.132812 201.398438 254.082031 205.269531 256.617188 C 209.199219 259.195312 213.402344 261.34375 217.65625 263.046875 C 222.039062 264.804688 227.03125 265.464844 232.007812 265.269531 C 237.066406 265.070312 242.117188 263.984375 246.519531 262.203125 L 254.816406 257.417969 C 255.851562 256.628906 257.054688 254.289062 257.980469 253.589844 C 259.015625 252.800781 260.066406 252.585938 260.957031 252.648438 C 262.148438 252.734375 263.460938 253.21875 264.382812 254.957031 C 265.300781 256.683594 265.984375 258.753906 266.527344 260.984375 C 267.511719 265.039062 268.003906 269.691406 269.207031 273.175781 C 271.507812 279.8125 274.96875 286.597656 279.339844 292.660156 C 281.714844 295.949219 284.355469 299.03125 287.226562 301.746094 L 286.117188 292.824219 C 285.800781 286.453125 285.949219 280.109375 286.628906 273.832031 C 287.3125 267.515625 288.527344 261.269531 290.34375 255.117188 C 290.710938 253.882812 291.671875 252.980469 292.828125 252.644531 C 293.800781 251.855469 295.15625 251.585938 296.414062 252.058594 C 312.757812 258.203125 329.867188 257.105469 343.273438 249.570312 C 356.300781 242.25 365.746094 228.835938 367.589844 210.273438 C 367.988281 206.25 367.972656 202.285156 367.523438 198.371094 C 367.078125 194.457031 366.199219 190.601562 364.878906 186.792969 L 361.246094 178.875 C 361.121094 178.648438 360.144531 177.105469 359.769531 176.46875 C 358.269531 173.917969 360.164062 171.757812 360.273438 171.65625 C 365.871094 166.421875 372.511719 162.84375 374.664062 157.046875 C 375.773438 154.058594 375.335938 150.480469 372.875 145.613281 C 372.117188 144.113281 370.957031 142.78125 369.671875 141.554688 C 365.027344 137.117188 359.105469 133.679688 357.621094 130.804688 C 357.128906 129.847656 356.789062 128.484375 356.671875 126.863281 C 356.445312 123.769531 357.109375 119.257812 356.617188 116.964844 C 355.429688 111.417969 353.089844 106.105469 349.898438 101.40625 C 346.683594 96.664062 342.59375 92.542969 337.917969 89.441406 C 335.515625 87.847656 332.75 86.503906 329.871094 85.589844 C 327.054688 84.695312 324.125 84.207031 321.320312 84.324219 C 320.515625 84.359375 315.457031 85.828125 313.371094 86.320312 C 310.9375 86.898438 309.347656 85.863281 309.207031 85.742188 C 308.496094 85.144531 307.714844 84.058594 307.09375 82.585938 C 306.105469 80.25 305.324219 76.433594 304.511719 74.9375 C 302.628906 71.476562 300.039062 68.410156 296.964844 66.019531 C 293.914062 63.652344 290.382812 61.953125 286.574219 61.222656 C 283.714844 60.671875 280.757812 60.753906 277.863281 61.273438 C 274.863281 61.808594 271.933594 62.816406 269.238281 64.113281 C 267.976562 64.722656 263.996094 68.097656 262.003906 69.105469 C 260.675781 69.777344 259.542969 69.84375 258.878906 69.742188 C 258.226562 69.644531 257.082031 69.226562 255.980469 68.03125 C 254.511719 66.433594 251.910156 61.980469 251.054688 61.027344 C 249.175781 58.9375 247.109375 57.078125 244.9375 55.359375 C 241.527344 52.667969 237.84375 50.335938 234.152344 48.082031 C 223.921875 41.847656 211.421875 38.214844 198.695312 37.140625 C 185.925781 36.0625 172.921875 37.558594 161.738281 41.671875 C 156.457031 43.613281 151.21875 46.070312 146.472656 49.238281 C 141.886719 52.296875 137.753906 56.023438 134.519531 60.613281 C 132.953125 62.835938 131.148438 70.898438 129.550781 74.1875 C 128.859375 75.609375 128.042969 76.515625 127.417969 76.957031 C 126.957031 77.277344 125.796875 77.8125 124.066406 77.65625 C 122.042969 77.480469 117.332031 76.203125 116.226562 76.253906 C 113.40625 76.390625 110.757812 77.128906 108.304688 78.328125 C 105.78125 79.558594 103.46875 81.269531 101.390625 83.3125 C 99.710938 84.960938 98.144531 86.984375 97.007812 89.210938 C 95.960938 91.261719 95.273438 93.488281 95.273438 95.757812 L 95.90625 101.023438 C 96.117188 101.761719 97.078125 102.976562 97.269531 103.644531 C 97.578125 104.757812 97.417969 105.6875 97.128906 106.378906 C 96.628906 107.566406 95.6875 108.714844 93.550781 108.773438 C 83.050781 109.066406 72.734375 111.601562 63.925781 116.65625 C 55.355469 121.574219 48.230469 128.894531 43.800781 138.839844 C 39.769531 147.890625 38.65625 158.59375 40.398438 168.707031 Z M 40.398438 168.707031 " fill-opacity="1" fill-rule="evenodd"/><path fill="#000000" d="M 353.761719 139.800781 C 353.421875 139.757812 353.398438 139.4375 353.539062 138.992188 C 353.621094 139 353.65625 139.257812 353.679688 139.351562 C 353.707031 139.472656 353.941406 139.820312 353.761719 139.800781 Z M 353.761719 139.800781 " fill-opacity="1" fill-rule="evenodd"/><path fill="#000000" d="M 354.816406 125.386719 C 355.089844 127.074219 355.277344 128.820312 355.3125 130.574219 C 355.351562 132.347656 355.238281 134.125 354.996094 135.847656 C 354.890625 136.449219 353.835938 138.023438 353.539062 138.992188 C 353.523438 138.988281 353.507812 138.992188 353.488281 139.007812 C 352.066406 140.203125 358.242188 142.101562 359.28125 142.855469 C 363.476562 146.085938 367.148438 150.726562 367.445312 155.414062 C 367.636719 158.441406 366.527344 161.449219 363.15625 163.9375 C 365.664062 161.136719 366.207031 158.351562 365.535156 155.714844 C 364.558594 151.878906 360.886719 148.5625 356.953125 146.46875 C 355.84375 145.839844 352.507812 144.617188 350.671875 143.339844 C 349.519531 142.542969 348.890625 141.554688 348.628906 140.773438 C 348.460938 140.269531 348.433594 139.503906 348.578125 138.597656 C 348.753906 137.472656 349.382812 135.84375 349.464844 135.074219 C 349.660156 133.640625 349.714844 132.15625 349.695312 130.671875 C 349.675781 129.164062 349.578125 127.652344 349.382812 126.195312 C 348.558594 118.230469 345.417969 110.683594 340.566406 104.585938 C 335.539062 98.277344 328.769531 93.496094 320.472656 91.578125 C 329.328125 92.433594 337.0625 96.441406 343.003906 102.414062 C 349.085938 108.527344 353.125 116.6875 354.816406 125.386719 Z M 354.816406 125.386719 " fill-opacity="1" fill-rule="evenodd"/><path fill="#000000" d="M 341 236.355469 C 342.707031 234.847656 344.269531 233.191406 345.785156 231.453125 C 347.277344 229.730469 348.703125 227.941406 349.996094 226.035156 C 352.605469 222.1875 354.71875 217.996094 356.085938 213.550781 C 358.226562 206.605469 358.757812 199.277344 356.808594 192.285156 C 360.054688 199.164062 360.917969 206.871094 359.71875 214.398438 C 358.910156 219.484375 357.140625 224.441406 354.570312 228.898438 C 353.261719 231.167969 351.730469 233.304688 349.972656 235.210938 C 348.183594 237.144531 346.175781 238.847656 344.007812 240.285156 C 340.730469 242.445312 337.160156 244.058594 333.335938 244.917969 C 329.691406 245.734375 325.949219 245.855469 322.042969 245.269531 C 325.792969 244.847656 329.164062 243.714844 332.390625 242.179688 C 335.550781 240.671875 338.367188 238.671875 341 236.355469 Z M 341 236.355469 " fill-opacity="1" fill-rule="evenodd"/><path fill="#000000" d="M 278.058594 263.492188 C 278.738281 260.722656 279.703125 258.070312 280.960938 255.527344 C 282.820312 251.769531 285.210938 248.445312 288.1875 245.335938 C 286.355469 249.039062 285.304688 252.804688 284.488281 256.738281 C 283.929688 259.414062 283.664062 262.09375 283.335938 264.816406 C 283.125 266.605469 282.925781 268.394531 282.664062 270.1875 C 282.394531 272.027344 282.023438 273.796875 281.695312 275.632812 C 281.1875 278.535156 280.605469 281.207031 280.265625 284.121094 C 279.550781 282.097656 278.886719 280.222656 278.378906 278.125 C 277.878906 276.046875 277.546875 274.015625 277.375 271.890625 C 277.261719 270.480469 277.242188 269.074219 277.351562 267.667969 C 277.464844 266.257812 277.722656 264.863281 278.058594 263.492188 Z M 278.058594 263.492188 " fill-opacity="1" fill-rule="evenodd"/><path fill="#000000" d="M 115.285156 61.546875 L 115.421875 61.265625 C 115.492188 61.152344 115.480469 61.160156 115.574219 61.0625 L 115.59375 61.054688 L 115.316406 61.539062 Z M 115.285156 61.546875 " fill-opacity="1" fill-rule="evenodd"/><path fill="#000000" d="M 126.386719 46.183594 C 123.464844 51.582031 122.058594 57.492188 119.421875 63.90625 C 119.183594 64.460938 118.539062 65.097656 117.527344 65.582031 C 116.417969 66.113281 114.449219 66.515625 113.824219 66.699219 L 103.15625 70.511719 C 98.476562 72.167969 94.382812 74.550781 90.832031 77.566406 C 87.132812 80.714844 84.015625 84.40625 81.816406 89.175781 C 82.898438 83.738281 85.039062 79.046875 88.269531 75.066406 C 91.570312 71 95.976562 67.910156 100.941406 65.367188 C 102.828125 64.5625 104.726562 63.8125 106.667969 63.199219 C 108.609375 62.585938 110.589844 62.101562 112.601562 61.675781 C 112.964844 61.605469 114.5 61.714844 115.285156 61.546875 C 115.238281 61.652344 115.199219 61.746094 115.167969 61.800781 L 115.316406 61.539062 C 115.652344 61.464844 115.839844 61.335938 115.71875 61.117188 C 115.679688 61.050781 115.636719 61.035156 115.59375 61.054688 C 118.878906 55.273438 121.023438 49.78125 124.609375 45.039062 C 127.027344 41.839844 130.042969 39.015625 134.425781 36.65625 C 130.625 39.601562 128.230469 42.777344 126.386719 46.183594 Z M 126.386719 46.183594 " fill-opacity="1" fill-rule="evenodd"/><g clip-path="url(#id1)"><path fill="#000000" d="M 21.316406 160.140625 C 21.46875 156.300781 22.039062 152.441406 22.9375 148.660156 C 24.71875 141.171875 27.785156 133.949219 31.917969 127.527344 C 38.203125 117.761719 46.921875 109.902344 57.355469 105.640625 C 47.765625 110.867188 40.332031 119.410156 35.144531 129.398438 C 31.84375 135.753906 29.550781 142.691406 28.214844 149.785156 C 27.550781 153.3125 27.144531 156.871094 26.933594 160.421875 C 26.722656 164.015625 26.707031 167.585938 26.992188 171.109375 C 27.433594 176.5625 28.503906 181.847656 30.417969 186.84375 C 32.378906 191.96875 35.054688 196.753906 38.800781 201 C 34.242188 197.347656 30.578125 193.007812 27.796875 188.078125 C 24.972656 183.0625 23.09375 177.527344 22.085938 171.734375 C 21.425781 167.949219 21.164062 164.050781 21.316406 160.140625 Z M 21.316406 160.140625 " fill-opacity="1" fill-rule="evenodd"/></g><g fill="#000000" fill-opacity="1"><g transform="translate(126.163336, 134.870258)"><g><path d="M 40.128906 0 L 40.128906 -17.28125 C 40.128906 -22.078125 37.96875 -26.113281 32.449219 -26.113281 C 28.753906 -26.113281 26.207031 -24.527344 24.671875 -22.222656 C 23.519531 -24.527344 21.40625 -26.113281 18 -26.113281 C 14.449219 -26.113281 12 -24.671875 10.414062 -22.511719 L 9.886719 -25.441406 L 1.921875 -25.441406 L 2.398438 -18.238281 L 2.398438 0 L 11.230469 0 L 11.230469 -16.800781 C 11.710938 -17.519531 12.71875 -18.527344 14.398438 -18.527344 C 16.320312 -18.527344 16.847656 -17.28125 16.847656 -15.839844 L 16.847656 0 L 25.679688 0 L 25.679688 -16.800781 C 26.160156 -17.519531 27.167969 -18.527344 28.847656 -18.527344 C 30.769531 -18.527344 31.296875 -17.28125 31.296875 -15.839844 L 31.296875 0 Z M 40.128906 0 "/></g></g></g><g fill="#000000" fill-opacity="1"><g transform="translate(168.40326, 134.870258)"><g><path d="M 13.441406 0.671875 C 21.839844 0.671875 25.679688 -4.320312 25.679688 -11.761719 L 25.679688 -13.679688 C 25.679688 -21.121094 21.839844 -26.113281 13.441406 -26.113281 C 5.039062 -26.113281 1.199219 -21.121094 1.199219 -13.679688 L 1.199219 -11.761719 C 1.199219 -4.320312 5.039062 0.671875 13.441406 0.671875 Z M 13.441406 -6.910156 C 11.039062 -6.910156 9.984375 -8.640625 9.984375 -11.761719 L 9.984375 -13.679688 C 9.984375 -16.800781 11.039062 -18.527344 13.441406 -18.527344 C 15.839844 -18.527344 16.894531 -16.800781 16.894531 -13.679688 L 16.894531 -11.761719 C 16.894531 -8.640625 15.839844 -6.910156 13.441406 -6.910156 Z M 13.441406 -6.910156 "/></g></g></g><g fill="#000000" fill-opacity="1"><g transform="translate(195.28321, 134.870258)"><g><path d="M 10.992188 -26.113281 C 4.03125 -26.113281 1.632812 -21.121094 1.632812 -13.679688 L 1.632812 -11.761719 C 1.632812 -4.320312 4.03125 0.671875 10.992188 0.671875 C 14.449219 0.671875 16.65625 -0.816406 18.097656 -2.929688 L 18.671875 0 L 26.640625 0 L 26.160156 -7.199219 L 26.160156 -38.398438 L 17.328125 -38.398438 L 17.328125 -23.519531 C 15.886719 -25.054688 13.824219 -26.113281 10.992188 -26.113281 Z M 17.328125 -8.878906 C 16.847656 -8.160156 15.550781 -6.910156 13.632812 -6.910156 C 11.230469 -6.910156 10.414062 -8.640625 10.414062 -11.761719 L 10.414062 -13.679688 C 10.414062 -16.800781 11.230469 -18.527344 13.632812 -18.527344 C 15.550781 -18.527344 16.847656 -17.28125 17.328125 -16.558594 Z M 17.328125 -8.878906 "/></g></g></g><g fill="#000000" fill-opacity="1"><g transform="translate(223.843165, 134.870258)"><g><path d="M 2.113281 -25.441406 L 2.113281 -8.398438 C 2.113281 -3.839844 4.03125 0.671875 10.03125 0.671875 C 13.824219 0.671875 16.414062 -0.863281 18.046875 -3.121094 L 18.671875 0 L 26.640625 0 L 26.160156 -7.199219 L 26.160156 -25.441406 L 17.328125 -25.441406 L 17.328125 -8.878906 C 16.847656 -8.160156 15.550781 -6.910156 13.632812 -6.910156 C 11.230469 -6.910156 10.945312 -8.640625 10.945312 -9.839844 L 10.945312 -25.441406 Z M 2.113281 -25.441406 "/></g></g></g><g fill="#000000" fill-opacity="1"><g transform="translate(252.403119, 134.870258)"><g><path d="M 2.304688 0 L 11.136719 0 L 11.136719 -38.398438 L 2.304688 -38.398438 Z M 2.304688 0 "/></g></g></g><g fill="#000000" fill-opacity="1"><g transform="translate(265.843095, 134.870258)"><g><path d="M 17.28125 0 L 25.246094 0 L 24.769531 -7.199219 L 24.769531 -16.320312 C 24.769531 -22.609375 22.128906 -26.113281 13.441406 -26.113281 C 4.800781 -26.113281 2.160156 -22.078125 2.160156 -17.472656 L 2.160156 -17.039062 L 10.464844 -17.039062 C 10.464844 -18.238281 11.039062 -19.488281 13.199219 -19.488281 C 15.121094 -19.488281 15.839844 -18.625 15.9375 -16.800781 L 10.558594 -15.9375 C 4.894531 -15.070312 1.199219 -13.199219 1.199219 -7.679688 L 1.199219 -7.199219 C 1.199219 -3.121094 3.121094 0.671875 9.121094 0.671875 C 12.480469 0.671875 15.023438 -0.527344 16.800781 -2.398438 Z M 12.480469 -6.433594 C 10.65625 -6.433594 9.984375 -7.488281 9.984375 -8.496094 L 9.984375 -8.785156 C 9.984375 -9.9375 10.414062 -10.847656 12.480469 -11.183594 L 15.9375 -11.710938 L 15.9375 -7.824219 C 15.214844 -7.152344 13.96875 -6.433594 12.480469 -6.433594 Z M 12.480469 -6.433594 "/></g></g></g><g fill="#000000" fill-opacity="1"><g transform="translate(292.723045, 134.870258)"><g><path d="M 17.089844 -26.113281 C 14.207031 -26.113281 11.953125 -24.71875 10.414062 -22.609375 L 9.886719 -25.441406 L 1.921875 -25.441406 L 2.398438 -18.238281 L 2.398438 0 L 11.230469 0 L 11.230469 -15.359375 C 11.808594 -16.078125 13.488281 -17.039062 16.367188 -17.039062 L 17.808594 -17.039062 L 17.808594 -26.0625 C 17.566406 -26.113281 17.328125 -26.113281 17.089844 -26.113281 Z M 17.089844 -26.113281 "/></g></g></g><g fill="#000000" fill-opacity="1"><g transform="translate(95.132087, 201.620255)"><g><path d="M 17.28125 0 L 25.246094 0 L 24.769531 -7.199219 L 24.769531 -16.320312 C 24.769531 -22.609375 22.128906 -26.113281 13.441406 -26.113281 C 4.800781 -26.113281 2.160156 -22.078125 2.160156 -17.472656 L 2.160156 -17.039062 L 10.464844 -17.039062 C 10.464844 -18.238281 11.039062 -19.488281 13.199219 -19.488281 C 15.121094 -19.488281 15.839844 -18.625 15.9375 -16.800781 L 10.558594 -15.9375 C 4.894531 -15.070312 1.199219 -13.199219 1.199219 -7.679688 L 1.199219 -7.199219 C 1.199219 -3.121094 3.121094 0.671875 9.121094 0.671875 C 12.480469 0.671875 15.023438 -0.527344 16.800781 -2.398438 Z M 12.480469 -6.433594 C 10.65625 -6.433594 9.984375 -7.488281 9.984375 -8.496094 L 9.984375 -8.785156 C 9.984375 -9.9375 10.414062 -10.847656 12.480469 -11.183594 L 15.9375 -11.710938 L 15.9375 -7.824219 C 15.214844 -7.152344 13.96875 -6.433594 12.480469 -6.433594 Z M 12.480469 -6.433594 "/></g></g></g><g fill="#000000" fill-opacity="1"><g transform="translate(122.012038, 201.620255)"><g><path d="M 17.089844 -26.113281 C 14.207031 -26.113281 11.953125 -24.71875 10.414062 -22.609375 L 9.886719 -25.441406 L 1.921875 -25.441406 L 2.398438 -18.238281 L 2.398438 0 L 11.230469 0 L 11.230469 -15.359375 C 11.808594 -16.078125 13.488281 -17.039062 16.367188 -17.039062 L 17.808594 -17.039062 L 17.808594 -26.0625 C 17.566406 -26.113281 17.328125 -26.113281 17.089844 -26.113281 Z M 17.089844 -26.113281 "/></g></g></g><g fill="#000000" fill-opacity="1"><g transform="translate(141.212007, 201.620255)"><g><path d="M 2.304688 0 L 11.136719 0 L 11.136719 -25.441406 L 2.304688 -25.441406 Z M 11.28125 -37.441406 L 2.160156 -37.441406 L 2.160156 -28.320312 L 11.28125 -28.320312 Z M 11.28125 -37.441406 "/></g></g></g><g fill="#000000" fill-opacity="1"><g transform="translate(154.651982, 201.620255)"><g><path d="M 13.390625 -25.441406 L 13.390625 -32.640625 L 4.558594 -32.640625 L 4.558594 -25.441406 L 0.71875 -25.441406 L 0.71875 -17.761719 L 4.558594 -17.761719 L 4.558594 -9.359375 C 4.558594 -1.921875 8.640625 0.671875 14.734375 0.671875 C 17.136719 0.671875 18.574219 0.238281 19.007812 0 L 19.007812 -7.199219 C 18.769531 -7.105469 17.566406 -6.910156 16.800781 -6.910156 C 14.785156 -6.910156 13.390625 -7.441406 13.390625 -10.320312 L 13.390625 -17.761719 L 19.488281 -17.761719 L 19.488281 -25.441406 Z M 13.390625 -25.441406 "/></g></g></g><g fill="#000000" fill-opacity="1"><g transform="translate(175.77195, 201.620255)"><g><path d="M 11.230469 -38.398438 L 2.398438 -38.398438 L 2.398438 0 L 11.230469 0 L 11.230469 -16.558594 C 11.710938 -17.28125 13.007812 -18.527344 14.929688 -18.527344 C 17.328125 -18.527344 17.617188 -16.800781 17.617188 -15.601562 L 17.617188 0 L 26.449219 0 L 26.449219 -17.039062 C 26.449219 -21.601562 24.527344 -26.113281 18.527344 -26.113281 C 15.265625 -26.113281 12.863281 -24.960938 11.230469 -23.183594 Z M 11.230469 -38.398438 "/></g></g></g><g fill="#000000" fill-opacity="1"><g transform="translate(204.331904, 201.620255)"><g><path d="M 40.128906 0 L 40.128906 -17.28125 C 40.128906 -22.078125 37.96875 -26.113281 32.449219 -26.113281 C 28.753906 -26.113281 26.207031 -24.527344 24.671875 -22.222656 C 23.519531 -24.527344 21.40625 -26.113281 18 -26.113281 C 14.449219 -26.113281 12 -24.671875 10.414062 -22.511719 L 9.886719 -25.441406 L 1.921875 -25.441406 L 2.398438 -18.238281 L 2.398438 0 L 11.230469 0 L 11.230469 -16.800781 C 11.710938 -17.519531 12.71875 -18.527344 14.398438 -18.527344 C 16.320312 -18.527344 16.847656 -17.28125 16.847656 -15.839844 L 16.847656 0 L 25.679688 0 L 25.679688 -16.800781 C 26.160156 -17.519531 27.167969 -18.527344 28.847656 -18.527344 C 30.769531 -18.527344 31.296875 -17.28125 31.296875 -15.839844 L 31.296875 0 Z M 40.128906 0 "/></g></g></g><g fill="#000000" fill-opacity="1"><g transform="translate(246.571828, 201.620255)"><g><path d="M 25.679688 -9.601562 L 25.679688 -13.441406 C 25.679688 -20.878906 21.839844 -26.113281 13.632812 -26.113281 C 5.425781 -26.113281 1.199219 -20.878906 1.199219 -13.441406 L 1.199219 -12 C 1.199219 -4.558594 5.230469 0.671875 13.921875 0.671875 C 21.3125 0.671875 25.679688 -2.878906 25.679688 -7.96875 L 25.679688 -8.160156 L 17.375 -8.160156 C 17.375 -6.960938 15.886719 -5.953125 13.96875 -5.953125 C 11.761719 -5.953125 10.320312 -6.71875 10.03125 -9.601562 Z M 13.441406 -19.488281 C 15.503906 -19.488281 16.609375 -18.527344 16.847656 -15.839844 L 10.03125 -15.839844 C 10.273438 -18.527344 11.375 -19.488281 13.441406 -19.488281 Z M 13.441406 -19.488281 "/></g></g></g><g fill="#000000" fill-opacity="1"><g transform="translate(273.451778, 201.620255)"><g><path d="M 13.390625 -25.441406 L 13.390625 -32.640625 L 4.558594 -32.640625 L 4.558594 -25.441406 L 0.71875 -25.441406 L 0.71875 -17.761719 L 4.558594 -17.761719 L 4.558594 -9.359375 C 4.558594 -1.921875 8.640625 0.671875 14.734375 0.671875 C 17.136719 0.671875 18.574219 0.238281 19.007812 0 L 19.007812 -7.199219 C 18.769531 -7.105469 17.566406 -6.910156 16.800781 -6.910156 C 14.785156 -6.910156 13.390625 -7.441406 13.390625 -10.320312 L 13.390625 -17.761719 L 19.488281 -17.761719 L 19.488281 -25.441406 Z M 13.390625 -25.441406 "/></g></g></g><g fill="#000000" fill-opacity="1"><g transform="translate(294.571746, 201.620255)"><g><path d="M 2.304688 0 L 11.136719 0 L 11.136719 -25.441406 L 2.304688 -25.441406 Z M 11.28125 -37.441406 L 2.160156 -37.441406 L 2.160156 -28.320312 L 11.28125 -28.320312 Z M 11.28125 -37.441406 "/></g></g></g><g fill="#000000" fill-opacity="1"><g transform="translate(308.011733, 201.620255)"><g><path d="M 9.984375 -11.761719 L 9.984375 -13.679688 C 9.984375 -16.800781 10.800781 -18.527344 13.152344 -18.527344 C 14.878906 -18.527344 15.9375 -17.566406 15.9375 -15.359375 L 24.238281 -15.359375 L 24.238281 -16.511719 C 24.238281 -22.558594 20.351562 -26.113281 12.960938 -26.113281 C 4.753906 -26.113281 1.199219 -21.121094 1.199219 -13.679688 L 1.199219 -11.761719 C 1.199219 -4.320312 4.753906 0.671875 12.960938 0.671875 C 20.351562 0.671875 24.238281 -2.878906 24.238281 -8.449219 L 24.238281 -9.601562 L 15.9375 -9.601562 C 15.9375 -7.921875 14.878906 -6.910156 13.152344 -6.910156 C 10.800781 -6.910156 9.984375 -8.640625 9.984375 -11.761719 Z M 9.984375 -11.761719 "/></g></g></g><g fill="#000000" fill-opacity="1"><g transform="translate(333.350831, 201.620255)"><g/></g></g><path fill="#ffffff" d="M 724.382812 402.488281 C 724.382812 417.871094 711.921875 430.347656 696.566406 430.347656 C 695.253906 430.347656 693.957031 430.261719 692.699219 430.078125 C 685.90625 449.6875 667.292969 463.769531 645.386719 463.769531 C 632.535156 463.769531 620.8125 458.914062 611.9375 450.9375 C 608.171875 452.972656 603.851562 454.113281 599.261719 454.113281 C 591.050781 454.113281 583.707031 450.433594 578.761719 444.625 C 571.222656 450.570312 561.714844 454.113281 551.375 454.113281 C 541.570312 454.113281 532.515625 450.925781 525.171875 445.519531 C 519.296875 453.449219 509.886719 458.574219 499.277344 458.574219 C 481.457031 458.574219 467.015625 444.097656 467.015625 426.253906 C 467.015625 416.253906 471.558594 407.304688 478.679688 401.386719 C 466.96875 391.027344 459.589844 375.894531 459.589844 359.039062 C 459.589844 335.410156 474.089844 315.175781 494.664062 306.769531 C 492.617188 301.4375 491.492188 295.640625 491.492188 289.585938 C 491.492188 263.125 512.910156 241.675781 539.332031 241.675781 C 555.058594 241.675781 569.019531 249.273438 577.734375 261.015625 C 580.195312 260.035156 582.875 259.496094 585.675781 259.496094 C 590.878906 259.496094 595.636719 261.347656 599.347656 264.410156 C 604.621094 251.089844 617.605469 241.675781 632.78125 241.675781 C 652.324219 241.675781 668.222656 257.289062 668.722656 276.742188 C 682.429688 280.566406 693.480469 290.773438 698.484375 303.960938 C 701.019531 303.066406 703.734375 302.589844 706.574219 302.589844 C 720.097656 302.589844 731.050781 313.558594 731.050781 327.101562 C 731.050781 336.121094 726.179688 344.003906 718.9375 348.253906 C 720.0625 351.515625 720.671875 355.019531 720.671875 358.660156 C 720.671875 366.761719 717.664062 374.164062 712.707031 379.816406 C 719.78125 384.851562 724.382812 393.136719 724.382812 402.488281 Z M 724.382812 402.488281 " fill-opacity="1" fill-rule="nonzero"/><g clip-path="url(#id2)"><path fill="#000000" d="M 645.386719 466.21875 C 667.09375 466.21875 686.515625 452.835938 694.335938 432.726562 C 695.070312 432.773438 695.804688 432.796875 696.566406 432.796875 C 713.257812 432.796875 726.828125 419.207031 726.828125 402.488281 C 726.828125 393.578125 722.886719 385.132812 716.183594 379.421875 C 720.671875 373.453125 723.121094 366.171875 723.121094 358.660156 C 723.121094 355.472656 722.691406 352.335938 721.835938 349.308594 C 729.070312 344.308594 733.5 335.976562 733.5 327.101562 C 733.5 312.234375 721.421875 300.136719 706.574219 300.136719 C 704.300781 300.136719 702.070312 300.417969 699.90625 300.972656 C 694.496094 288.582031 683.933594 279.007812 671.085938 274.890625 C 669.664062 254.753906 653.167969 239.226562 632.78125 239.226562 C 617.972656 239.226562 604.769531 247.546875 598.332031 260.671875 C 594.550781 258.320312 590.167969 257.046875 585.675781 257.046875 C 583.253906 257.046875 580.878906 257.402344 578.589844 258.113281 C 569.09375 246.257812 554.554688 239.226562 539.332031 239.226562 C 511.601562 239.226562 489.046875 261.8125 489.046875 289.585938 C 489.046875 295.015625 489.902344 300.332031 491.589844 305.433594 C 470.589844 314.992188 457.140625 335.777344 457.140625 359.039062 C 457.140625 375.011719 463.640625 390.28125 475.046875 401.359375 C 468.351562 407.882812 464.570312 416.816406 464.570312 426.253906 C 464.570312 445.421875 480.136719 461.023438 499.277344 461.023438 C 509.410156 461.023438 519.101562 456.515625 525.648438 448.839844 C 533.285156 453.902344 542.132812 456.5625 551.375 456.5625 C 561.214844 456.5625 570.527344 453.585938 578.457031 447.910156 C 583.949219 453.4375 591.417969 456.5625 599.261719 456.5625 C 603.53125 456.5625 607.753906 455.632812 611.570312 453.867188 C 621.03125 461.84375 632.976562 466.21875 645.386719 466.21875 Z M 692.699219 427.625 C 691.667969 427.625 690.726562 428.277344 690.382812 429.269531 C 683.75 448.4375 665.664062 461.316406 645.386719 461.316406 C 633.625 461.316406 622.328125 456.980469 613.578125 449.109375 C 612.808594 448.425781 611.695312 448.289062 610.777344 448.78125 C 607.289062 450.667969 603.300781 451.660156 599.261719 451.660156 C 592.078125 451.660156 585.285156 448.511719 580.621094 443.03125 C 579.765625 442.027344 578.273438 441.878906 577.246094 442.699219 C 569.804688 448.558594 560.859375 451.660156 551.375 451.660156 C 542.390625 451.660156 533.835938 448.855469 526.617188 443.546875 C 525.527344 442.738281 524.007812 442.984375 523.203125 444.0625 C 517.523438 451.722656 508.796875 456.121094 499.277344 456.121094 C 482.839844 456.121094 469.464844 442.726562 469.464844 426.253906 C 469.464844 417.34375 473.394531 408.960938 480.246094 403.273438 C 480.796875 402.820312 481.117188 402.144531 481.128906 401.421875 C 481.140625 400.710938 480.832031 400.023438 480.296875 399.546875 C 468.695312 389.277344 462.035156 374.519531 462.035156 359.039062 C 462.035156 336.992188 475.203125 317.371094 495.59375 309.035156 C 496.828125 308.53125 497.429688 307.136719 496.953125 305.886719 C 494.957031 300.675781 493.941406 295.199219 493.941406 289.585938 C 493.941406 264.519531 514.304688 244.128906 539.332031 244.128906 C 553.625 244.128906 567.246094 250.992188 575.765625 262.472656 C 576.425781 263.371094 577.597656 263.699219 578.640625 263.296875 C 580.878906 262.402344 583.253906 261.949219 585.675781 261.949219 C 590.082031 261.949219 594.390625 263.492188 597.792969 266.296875 C 598.390625 266.800781 599.199219 266.972656 599.957031 266.777344 C 600.71875 266.582031 601.339844 266.027344 601.621094 265.304688 C 606.714844 252.449219 618.953125 244.128906 632.78125 244.128906 C 651.089844 244.128906 665.796875 258.480469 666.277344 276.800781 C 666.300781 277.878906 667.035156 278.8125 668.0625 279.105469 C 680.925781 282.695312 691.4375 292.316406 696.199219 304.832031 C 696.675781 306.082031 698.046875 306.71875 699.292969 306.277344 C 701.605469 305.457031 704.054688 305.039062 706.574219 305.039062 C 718.726562 305.039062 728.605469 314.929688 728.605469 327.101562 C 728.605469 334.894531 724.429688 342.1875 717.699219 346.136719 C 716.695312 346.722656 716.242188 347.949219 716.621094 349.050781 C 717.6875 352.128906 718.226562 355.363281 718.226562 358.660156 C 718.226562 365.855469 715.605469 372.792969 710.871094 378.195312 C 710.417969 378.722656 710.199219 379.410156 710.285156 380.097656 C 710.367188 380.78125 710.734375 381.40625 711.300781 381.8125 C 717.96875 386.554688 721.945312 394.289062 721.945312 402.488281 C 721.945312 416.496094 710.566406 427.894531 696.578125 427.894531 C 695.351562 427.894531 694.167969 427.808594 693.066406 427.652344 C 692.929688 427.636719 692.808594 427.625 692.699219 427.625 Z M 692.699219 427.625 " fill-opacity="1" fill-rule="nonzero"/></g><path fill="#ffffff" d="M 508.820312 479.738281 C 508.820312 480.414062 508.855469 481.085938 508.921875 481.757812 C 508.988281 482.425781 509.085938 483.09375 509.21875 483.753906 C 509.347656 484.414062 509.511719 485.066406 509.707031 485.710938 C 509.902344 486.359375 510.128906 486.992188 510.386719 487.613281 C 510.644531 488.238281 510.929688 488.84375 511.25 489.441406 C 511.566406 490.035156 511.910156 490.613281 512.285156 491.171875 C 512.660156 491.730469 513.058594 492.273438 513.484375 492.792969 C 513.914062 493.316406 514.363281 493.8125 514.839844 494.289062 C 515.316406 494.765625 515.8125 495.21875 516.335938 495.644531 C 516.855469 496.074219 517.394531 496.476562 517.953125 496.847656 C 518.515625 497.222656 519.089844 497.570312 519.683594 497.886719 C 520.277344 498.207031 520.886719 498.492188 521.507812 498.75 C 522.128906 499.007812 522.761719 499.234375 523.40625 499.429688 C 524.050781 499.625 524.699219 499.789062 525.359375 499.921875 C 526.019531 500.054688 526.6875 500.152344 527.355469 500.21875 C 528.027344 500.285156 528.695312 500.316406 529.371094 500.316406 C 530.042969 500.316406 530.714844 500.285156 531.382812 500.21875 C 532.054688 500.152344 532.71875 500.054688 533.378906 499.921875 C 534.039062 499.789062 534.691406 499.625 535.335938 499.429688 C 535.976562 499.234375 536.609375 499.007812 537.234375 498.75 C 537.855469 498.492188 538.460938 498.207031 539.054688 497.886719 C 539.648438 497.570312 540.226562 497.222656 540.785156 496.847656 C 541.34375 496.476562 541.882812 496.074219 542.40625 495.644531 C 542.925781 495.21875 543.421875 494.765625 543.898438 494.289062 C 544.375 493.8125 544.828125 493.316406 545.253906 492.792969 C 545.679688 492.273438 546.082031 491.730469 546.453125 491.171875 C 546.828125 490.613281 547.171875 490.035156 547.492188 489.441406 C 547.808594 488.84375 548.09375 488.238281 548.351562 487.613281 C 548.609375 486.992188 548.835938 486.359375 549.03125 485.710938 C 549.226562 485.066406 549.390625 484.414062 549.523438 483.753906 C 549.652344 483.09375 549.753906 482.425781 549.816406 481.757812 C 549.882812 481.085938 549.917969 480.414062 549.917969 479.738281 C 549.917969 479.066406 549.882812 478.394531 549.816406 477.722656 C 549.753906 477.050781 549.652344 476.386719 549.523438 475.726562 C 549.390625 475.0625 549.226562 474.410156 549.03125 473.765625 C 548.835938 473.121094 548.609375 472.488281 548.351562 471.863281 C 548.09375 471.242188 547.808594 470.632812 547.492188 470.039062 C 547.171875 469.445312 546.828125 468.867188 546.453125 468.304688 C 546.082031 467.746094 545.679688 467.207031 545.253906 466.683594 C 544.828125 466.164062 544.375 465.664062 543.898438 465.1875 C 543.421875 464.710938 542.925781 464.257812 542.40625 463.832031 C 541.882812 463.40625 541.34375 463.003906 540.785156 462.628906 C 540.226562 462.253906 539.648438 461.910156 539.054688 461.589844 C 538.460938 461.273438 537.855469 460.984375 537.234375 460.726562 C 536.609375 460.46875 535.976562 460.242188 535.335938 460.046875 C 534.691406 459.851562 534.039062 459.6875 533.378906 459.554688 C 532.71875 459.425781 532.054688 459.328125 531.382812 459.261719 C 530.714844 459.195312 530.042969 459.160156 529.371094 459.160156 C 528.695312 459.160156 528.027344 459.195312 527.355469 459.261719 C 526.6875 459.328125 526.019531 459.425781 525.359375 459.554688 C 524.699219 459.6875 524.050781 459.851562 523.40625 460.046875 C 522.761719 460.242188 522.128906 460.46875 521.507812 460.726562 C 520.886719 460.984375 520.277344 461.273438 519.683594 461.589844 C 519.089844 461.910156 518.515625 462.253906 517.953125 462.628906 C 517.394531 463.003906 516.855469 463.40625 516.335938 463.832031 C 515.8125 464.257812 515.316406 464.710938 514.839844 465.1875 C 514.363281 465.664062 513.914062 466.164062 513.484375 466.683594 C 513.058594 467.207031 512.660156 467.746094 512.285156 468.304688 C 511.910156 468.867188 511.566406 469.445312 511.25 470.039062 C 510.929688 470.632812 510.644531 471.242188 510.386719 471.863281 C 510.128906 472.488281 509.902344 473.121094 509.707031 473.765625 C 509.511719 474.410156 509.347656 475.0625 509.21875 475.726562 C 509.085938 476.386719 508.988281 477.050781 508.921875 477.722656 C 508.855469 478.394531 508.820312 479.066406 508.820312 479.738281 Z M 508.820312 479.738281 " fill-opacity="1" fill-rule="nonzero"/><path fill="#000000" d="M 529.371094 502.769531 C 542.046875 502.769531 552.363281 492.4375 552.363281 479.738281 C 552.363281 467.042969 542.046875 456.710938 529.371094 456.710938 C 516.691406 456.710938 506.375 467.042969 506.375 479.738281 C 506.375 492.4375 516.691406 502.769531 529.371094 502.769531 Z M 529.371094 461.613281 C 539.34375 461.613281 547.46875 469.738281 547.46875 479.738281 C 547.46875 489.738281 539.355469 497.867188 529.371094 497.867188 C 519.382812 497.867188 511.269531 489.738281 511.269531 479.738281 C 511.269531 469.738281 519.394531 461.613281 529.371094 461.613281 Z M 529.371094 461.613281 " fill-opacity="1" fill-rule="nonzero"/><path fill="#ffffff" d="M 482.117188 508.652344 C 482.117188 509.53125 482.203125 510.398438 482.375 511.261719 C 482.546875 512.121094 482.800781 512.957031 483.136719 513.769531 C 483.472656 514.578125 483.882812 515.351562 484.367188 516.082031 C 484.855469 516.808594 485.410156 517.484375 486.03125 518.105469 C 486.648438 518.726562 487.324219 519.28125 488.054688 519.769531 C 488.78125 520.257812 489.550781 520.667969 490.359375 521.003906 C 491.171875 521.339844 492.007812 521.59375 492.867188 521.765625 C 493.726562 521.9375 494.59375 522.023438 495.46875 522.023438 C 496.347656 522.023438 497.214844 521.9375 498.074219 521.765625 C 498.933594 521.59375 499.769531 521.339844 500.578125 521.003906 C 501.390625 520.667969 502.160156 520.257812 502.886719 519.769531 C 503.617188 519.28125 504.292969 518.726562 504.910156 518.105469 C 505.53125 517.484375 506.085938 516.808594 506.570312 516.082031 C 507.058594 515.351562 507.46875 514.578125 507.804688 513.769531 C 508.140625 512.957031 508.394531 512.121094 508.566406 511.261719 C 508.738281 510.398438 508.820312 509.53125 508.820312 508.652344 C 508.820312 507.773438 508.738281 506.902344 508.566406 506.042969 C 508.394531 505.179688 508.140625 504.34375 507.804688 503.535156 C 507.46875 502.722656 507.058594 501.953125 506.570312 501.222656 C 506.085938 500.492188 505.53125 499.816406 504.910156 499.195312 C 504.292969 498.574219 503.617188 498.019531 502.886719 497.535156 C 502.160156 497.046875 501.390625 496.632812 500.578125 496.296875 C 499.769531 495.960938 498.933594 495.707031 498.074219 495.535156 C 497.214844 495.367188 496.347656 495.28125 495.46875 495.28125 C 494.59375 495.28125 493.726562 495.367188 492.867188 495.535156 C 492.007812 495.707031 491.171875 495.960938 490.359375 496.296875 C 489.550781 496.632812 488.78125 497.046875 488.054688 497.535156 C 487.324219 498.019531 486.648438 498.574219 486.03125 499.195312 C 485.410156 499.816406 484.855469 500.492188 484.367188 501.222656 C 483.882812 501.953125 483.472656 502.722656 483.136719 503.535156 C 482.800781 504.34375 482.546875 505.179688 482.375 506.042969 C 482.203125 506.902344 482.117188 507.773438 482.117188 508.652344 Z M 482.117188 508.652344 " fill-opacity="1" fill-rule="nonzero"/><path fill="#000000" d="M 495.46875 524.488281 C 504.183594 524.488281 511.269531 517.390625 511.269531 508.664062 C 511.269531 499.9375 504.183594 492.839844 495.46875 492.839844 C 486.757812 492.839844 479.671875 499.9375 479.671875 508.664062 C 479.671875 517.390625 486.757812 524.488281 495.46875 524.488281 Z M 495.46875 497.730469 C 501.492188 497.730469 506.375 502.632812 506.375 508.652344 C 506.375 514.667969 501.480469 519.570312 495.46875 519.570312 C 489.460938 519.570312 484.566406 514.667969 484.566406 508.652344 C 484.566406 502.632812 489.449219 497.730469 495.46875 497.730469 Z M 495.46875 497.730469 " fill-opacity="1" fill-rule="nonzero"/><path fill="#ffffff" d="M 462.5625 521.386719 C 462.5625 521.792969 462.601562 522.195312 462.679688 522.59375 C 462.761719 522.992188 462.878906 523.378906 463.03125 523.753906 C 463.1875 524.128906 463.378906 524.484375 463.605469 524.824219 C 463.828125 525.160156 464.085938 525.476562 464.371094 525.761719 C 464.660156 526.050781 464.972656 526.304688 465.308594 526.53125 C 465.648438 526.757812 466.003906 526.949219 466.378906 527.105469 C 466.753906 527.257812 467.140625 527.375 467.539062 527.457031 C 467.933594 527.535156 468.335938 527.574219 468.742188 527.574219 C 469.148438 527.574219 469.550781 527.535156 469.949219 527.457031 C 470.347656 527.375 470.734375 527.257812 471.109375 527.105469 C 471.484375 526.949219 471.839844 526.757812 472.175781 526.53125 C 472.515625 526.304688 472.824219 526.050781 473.113281 525.761719 C 473.398438 525.476562 473.65625 525.160156 473.882812 524.824219 C 474.105469 524.484375 474.296875 524.128906 474.453125 523.753906 C 474.609375 523.378906 474.726562 522.992188 474.804688 522.59375 C 474.882812 522.195312 474.921875 521.792969 474.921875 521.386719 C 474.921875 520.980469 474.882812 520.578125 474.804688 520.179688 C 474.726562 519.78125 474.609375 519.390625 474.453125 519.015625 C 474.296875 518.640625 474.105469 518.285156 473.882812 517.945312 C 473.65625 517.609375 473.398438 517.296875 473.113281 517.007812 C 472.824219 516.722656 472.515625 516.464844 472.175781 516.238281 C 471.839844 516.011719 471.484375 515.824219 471.109375 515.667969 C 470.734375 515.511719 470.347656 515.394531 469.949219 515.316406 C 469.550781 515.234375 469.148438 515.195312 468.742188 515.195312 C 468.335938 515.195312 467.933594 515.234375 467.539062 515.316406 C 467.140625 515.394531 466.753906 515.511719 466.378906 515.667969 C 466.003906 515.824219 465.648438 516.011719 465.308594 516.238281 C 464.972656 516.464844 464.660156 516.722656 464.371094 517.007812 C 464.085938 517.296875 463.828125 517.609375 463.605469 517.945312 C 463.378906 518.285156 463.1875 518.640625 463.03125 519.015625 C 462.878906 519.390625 462.761719 519.78125 462.679688 520.179688 C 462.601562 520.578125 462.5625 520.980469 462.5625 521.386719 Z M 462.5625 521.386719 " fill-opacity="1" fill-rule="nonzero"/><g clip-path="url(#id3)"><path fill="#000000" d="M 468.742188 530.027344 C 473.503906 530.027344 477.371094 526.152344 477.371094 521.386719 C 477.371094 516.617188 473.503906 512.746094 468.742188 512.746094 C 463.980469 512.746094 460.113281 516.617188 460.113281 521.386719 C 460.113281 526.152344 463.996094 530.027344 468.742188 530.027344 Z M 468.742188 517.660156 C 470.800781 517.660156 472.476562 519.339844 472.476562 521.398438 C 472.476562 523.457031 470.800781 525.136719 468.742188 525.136719 C 466.6875 525.136719 465.011719 523.457031 465.011719 521.398438 C 465.023438 519.328125 466.6875 517.660156 468.742188 517.660156 Z M 468.742188 517.660156 " fill-opacity="1" fill-rule="nonzero"/></g><g fill="#000000" fill-opacity="1"><g transform="translate(549.147032, 336.279596)"><g><path d="M 12.171875 -25.519531 C 12.171875 -28.136719 13.4375 -28.617188 15.269531 -28.617188 C 15.96875 -28.617188 17.058594 -28.445312 17.277344 -28.355469 L 17.277344 -34.902344 C 16.882812 -35.117188 15.574219 -35.511719 13.394531 -35.511719 C 7.851562 -35.511719 4.144531 -33.15625 4.144531 -26.394531 L 4.144531 -23.121094 L 0.65625 -23.121094 L 0.65625 -16.140625 L 4.144531 -16.140625 L 4.144531 0 L 12.171875 0 L 12.171875 -16.140625 L 16.839844 -16.140625 L 16.839844 -23.121094 L 12.171875 -23.121094 Z M 12.171875 -25.519531 "/></g></g></g><g fill="#000000" fill-opacity="1"><g transform="translate(567.469869, 336.279596)"><g><path d="M 2.09375 0 L 10.121094 0 L 10.121094 -34.902344 L 2.09375 -34.902344 Z M 2.09375 0 "/></g></g></g><g fill="#000000" fill-opacity="1"><g transform="translate(579.685103, 336.279596)"><g><path d="M 12.214844 0.609375 C 19.851562 0.609375 23.339844 -3.925781 23.339844 -10.6875 L 23.339844 -12.433594 C 23.339844 -19.195312 19.851562 -23.730469 12.214844 -23.730469 C 4.582031 -23.730469 1.089844 -19.195312 1.089844 -12.433594 L 1.089844 -10.6875 C 1.089844 -3.925781 4.582031 0.609375 12.214844 0.609375 Z M 12.214844 -6.28125 C 10.035156 -6.28125 9.074219 -7.851562 9.074219 -10.6875 L 9.074219 -12.433594 C 9.074219 -15.269531 10.035156 -16.839844 12.214844 -16.839844 C 14.398438 -16.839844 15.355469 -15.269531 15.355469 -12.433594 L 15.355469 -10.6875 C 15.355469 -7.851562 14.398438 -6.28125 12.214844 -6.28125 Z M 12.214844 -6.28125 "/></g></g></g><g fill="#000000" fill-opacity="1"><g transform="translate(604.115558, 336.279596)"><g><path d="M 15.707031 0 L 22.945312 0 L 22.511719 -6.542969 L 22.511719 -14.832031 C 22.511719 -20.546875 20.113281 -23.730469 12.214844 -23.730469 C 4.363281 -23.730469 1.964844 -20.066406 1.964844 -15.878906 L 1.964844 -15.488281 L 9.511719 -15.488281 C 9.511719 -16.578125 10.035156 -17.710938 11.996094 -17.710938 C 13.742188 -17.710938 14.398438 -16.925781 14.484375 -15.269531 L 9.597656 -14.484375 C 4.449219 -13.699219 1.089844 -11.996094 1.089844 -6.980469 L 1.089844 -6.542969 C 1.089844 -2.835938 2.835938 0.609375 8.289062 0.609375 C 11.34375 0.609375 13.65625 -0.480469 15.269531 -2.179688 Z M 11.34375 -5.847656 C 9.683594 -5.847656 9.074219 -6.804688 9.074219 -7.722656 L 9.074219 -7.984375 C 9.074219 -9.03125 9.464844 -9.859375 11.34375 -10.164062 L 14.484375 -10.644531 L 14.484375 -7.109375 C 13.828125 -6.5 12.695312 -5.847656 11.34375 -5.847656 Z M 11.34375 -5.847656 "/></g></g></g><g fill="#000000" fill-opacity="1"><g transform="translate(628.546012, 336.279596)"><g><path d="M 12.171875 -23.121094 L 12.171875 -29.664062 L 4.144531 -29.664062 L 4.144531 -23.121094 L 0.65625 -23.121094 L 0.65625 -16.140625 L 4.144531 -16.140625 L 4.144531 -8.507812 C 4.144531 -1.746094 7.851562 0.609375 13.394531 0.609375 C 15.574219 0.609375 16.882812 0.21875 17.277344 0 L 17.277344 -6.542969 C 17.058594 -6.457031 15.96875 -6.28125 15.269531 -6.28125 C 13.4375 -6.28125 12.171875 -6.761719 12.171875 -9.378906 L 12.171875 -16.140625 L 17.710938 -16.140625 L 17.710938 -23.121094 Z M 12.171875 -23.121094 "/></g></g></g><g fill="#000000" fill-opacity="1"><g transform="translate(647.730955, 336.279596)"><g/></g></g><g fill="#000000" fill-opacity="1"><g transform="translate(551.433411, 397.173843)"><g><path d="M 12.171875 -23.121094 L 12.171875 -29.664062 L 4.144531 -29.664062 L 4.144531 -23.121094 L 0.65625 -23.121094 L 0.65625 -16.140625 L 4.144531 -16.140625 L 4.144531 -8.507812 C 4.144531 -1.746094 7.851562 0.609375 13.394531 0.609375 C 15.574219 0.609375 16.882812 0.21875 17.277344 0 L 17.277344 -6.542969 C 17.058594 -6.457031 15.96875 -6.28125 15.269531 -6.28125 C 13.4375 -6.28125 12.171875 -6.761719 12.171875 -9.378906 L 12.171875 -16.140625 L 17.710938 -16.140625 L 17.710938 -23.121094 Z M 12.171875 -23.121094 "/></g></g></g><g fill="#000000" fill-opacity="1"><g transform="translate(570.628769, 397.173843)"><g><path d="M 12.433594 -9.597656 L 8.726562 -23.121094 L 0 -23.121094 L 8.070312 -1.308594 L 4.320312 8.726562 L 13.917969 8.726562 L 16.796875 -1.308594 L 24.867188 -23.121094 L 16.140625 -23.121094 Z M 12.433594 -9.597656 "/></g></g></g><g fill="#000000" fill-opacity="1"><g transform="translate(595.495491, 397.173843)"><g><path d="M 15.921875 0.609375 C 22.25 0.609375 24.429688 -3.925781 24.429688 -10.6875 L 24.429688 -12.433594 C 24.429688 -19.195312 22.25 -23.730469 15.921875 -23.730469 C 12.78125 -23.730469 10.730469 -22.378906 9.421875 -20.417969 L 8.941406 -23.121094 L 1.703125 -23.121094 L 2.136719 -16.578125 L 2.136719 8.726562 L 10.164062 8.726562 L 10.164062 -1.746094 C 11.472656 -0.304688 13.304688 0.609375 15.921875 0.609375 Z M 10.164062 -15.050781 C 10.601562 -15.707031 11.777344 -16.839844 13.523438 -16.839844 C 15.707031 -16.839844 16.445312 -15.269531 16.445312 -12.433594 L 16.445312 -10.6875 C 16.445312 -7.851562 15.707031 -6.28125 13.523438 -6.28125 C 11.777344 -6.28125 10.601562 -7.417969 10.164062 -8.070312 Z M 10.164062 -15.050781 "/></g></g></g><g fill="#000000" fill-opacity="1"><g transform="translate(621.016599, 397.173843)"><g><path d="M 23.339844 -8.726562 L 23.339844 -12.214844 C 23.339844 -18.976562 19.851562 -23.730469 12.390625 -23.730469 C 4.929688 -23.730469 1.089844 -18.976562 1.089844 -12.214844 L 1.089844 -10.90625 C 1.089844 -4.144531 4.753906 0.609375 12.652344 0.609375 C 19.371094 0.609375 23.339844 -2.617188 23.339844 -7.242188 L 23.339844 -7.417969 L 15.792969 -7.417969 C 15.792969 -6.324219 14.441406 -5.410156 12.695312 -5.410156 C 10.6875 -5.410156 9.378906 -6.109375 9.117188 -8.726562 Z M 12.214844 -17.710938 C 14.089844 -17.710938 15.09375 -16.839844 15.3125 -14.398438 L 9.117188 -14.398438 C 9.335938 -16.839844 10.339844 -17.710938 12.214844 -17.710938 Z M 12.214844 -17.710938 "/></g></g></g><g fill="#000000" fill-opacity="1"><g transform="translate(645.444585, 397.173843)"><g/></g></g><g clip-path="url(#id4)"><g clip-path="url(#id5)"><g clip-path="url(#id6)"><g clip-path="url(#id7)"><path fill="#ffffff" d="M 414.5625 226.621094 L 439.492188 208.992188 L 457.246094 196.425781 C 479.59375 212.285156 509.152344 221.078125 541.011719 219.210938 C 606.691406 215.363281 657.324219 167.632812 654.101562 112.613281 C 650.875 57.578125 595.015625 16.085938 529.335938 19.933594 C 463.644531 23.785156 413.011719 71.515625 416.234375 126.546875 C 417.4375 147.042969 425.941406 165.671875 439.554688 180.765625 L 429.175781 199.820312 Z M 414.5625 226.621094 " fill-opacity="1" fill-rule="nonzero"/></g></g></g></g><g clip-path="url(#id8)"><g clip-path="url(#id9)"><g clip-path="url(#id10)"><g clip-path="url(#id11)"><path fill="#000000" d="M 414.691406 228.8125 C 415.085938 228.789062 415.484375 228.65625 415.835938 228.417969 L 457.261719 199.109375 C 480.71875 215.289062 510.441406 223.203125 541.148438 221.402344 C 607.925781 217.492188 659.582031 168.636719 656.292969 112.484375 C 653.003906 56.332031 595.992188 13.828125 529.207031 17.742188 C 462.421875 21.65625 410.753906 70.523438 414.042969 126.675781 C 415.207031 146.527344 423.09375 165.3125 436.886719 181.066406 L 412.632812 225.566406 C 412.144531 226.464844 412.332031 227.578125 413.097656 228.257812 C 413.550781 228.660156 414.121094 228.847656 414.691406 228.8125 Z M 529.464844 22.128906 C 593.828125 18.355469 648.757812 59 651.90625 112.738281 C 655.054688 166.46875 605.246094 213.25 540.882812 217.019531 C 510.613281 218.792969 481.359375 210.839844 458.519531 194.636719 C 457.761719 194.097656 456.738281 194.089844 455.976562 194.632812 L 421.011719 219.359375 L 441.472656 181.808594 C 441.921875 180.992188 441.796875 179.976562 441.171875 179.285156 C 427.417969 164.035156 419.550781 145.742188 418.417969 126.410156 C 415.28125 72.679688 465.089844 25.898438 529.464844 22.128906 Z M 529.464844 22.128906 " fill-opacity="1" fill-rule="nonzero"/></g></g></g></g><g fill="#000000" fill-opacity="1"><g transform="translate(512.340529, 95.423965)"><g><path d="M 2.589844 0 L 12.527344 0 L 12.527344 -28.617188 L 2.589844 -28.617188 Z M 12.6875 -42.113281 L 2.429688 -42.113281 L 2.429688 -31.855469 L 12.6875 -31.855469 Z M 12.6875 -42.113281 "/></g></g></g><g fill="#000000" fill-opacity="1"><g transform="translate(527.458043, 95.423965)"><g><path d="M 15.0625 -31.585938 C 15.0625 -34.824219 16.628906 -35.417969 18.898438 -35.417969 C 19.761719 -35.417969 21.109375 -35.203125 21.378906 -35.09375 L 21.378906 -43.191406 C 20.894531 -43.464844 19.273438 -43.949219 16.574219 -43.949219 C 9.71875 -43.949219 5.128906 -41.035156 5.128906 -32.664062 L 5.128906 -28.617188 L 0.808594 -28.617188 L 0.808594 -19.976562 L 5.128906 -19.976562 L 5.128906 0 L 15.0625 0 L 15.0625 -19.976562 L 20.839844 -19.976562 L 20.839844 -28.617188 L 15.0625 -28.617188 Z M 15.0625 -31.585938 "/></g></g></g><g fill="#000000" fill-opacity="1"><g transform="translate(479.136459, 170.5055)"><g><path d="M 28.886719 -10.796875 L 28.886719 -15.117188 C 28.886719 -23.484375 24.566406 -29.371094 15.332031 -29.371094 C 6.101562 -29.371094 1.351562 -23.484375 1.351562 -15.117188 L 1.351562 -13.496094 C 1.351562 -5.128906 5.886719 0.757812 15.65625 0.757812 C 23.972656 0.757812 28.886719 -3.238281 28.886719 -8.960938 L 28.886719 -9.179688 L 19.542969 -9.179688 C 19.542969 -7.828125 17.871094 -6.695312 15.710938 -6.695312 C 13.226562 -6.695312 11.609375 -7.558594 11.285156 -10.796875 Z M 15.117188 -21.921875 C 17.4375 -21.921875 18.679688 -20.839844 18.949219 -17.816406 L 11.285156 -17.816406 C 11.554688 -20.839844 12.796875 -21.921875 15.117188 -21.921875 Z M 15.117188 -21.921875 "/></g></g></g><g fill="#000000" fill-opacity="1"><g transform="translate(509.371485, 170.5055)"><g><path d="M 2.589844 0 L 12.527344 0 L 12.527344 -43.191406 L 2.589844 -43.191406 Z M 2.589844 0 "/></g></g></g><g fill="#000000" fill-opacity="1"><g transform="translate(524.488999, 170.5055)"><g><path d="M 14.308594 -6.695312 C 12.257812 -6.695312 11.390625 -7.613281 11.390625 -9.179688 L 1.511719 -9.179688 L 1.511719 -8.910156 C 1.511719 -2.96875 5.886719 0.757812 14.308594 0.757812 C 22.890625 0.757812 27.105469 -2.96875 27.105469 -9.234375 L 27.105469 -9.773438 C 27.105469 -16.035156 21.921875 -17.332031 14.738281 -17.925781 C 12.308594 -18.140625 11.609375 -18.628906 11.609375 -19.976562 C 11.609375 -21.109375 12.527344 -21.921875 14.308594 -21.921875 C 16.089844 -21.921875 17.007812 -20.894531 17.007812 -19.167969 L 26.726562 -19.167969 L 26.726562 -19.4375 C 26.726562 -25.753906 22.890625 -29.371094 14.308594 -29.371094 C 7.503906 -29.371094 1.890625 -26.726562 1.890625 -19.652344 L 1.890625 -19.113281 C 1.890625 -13.390625 5.722656 -11.609375 13.929688 -10.960938 C 16.628906 -10.746094 17.167969 -9.988281 17.167969 -8.800781 C 17.167969 -7.667969 16.46875 -6.695312 14.308594 -6.695312 Z M 14.308594 -6.695312 "/></g></g></g><g fill="#000000" fill-opacity="1"><g transform="translate(553.10429, 170.5055)"><g><path d="M 28.886719 -10.796875 L 28.886719 -15.117188 C 28.886719 -23.484375 24.566406 -29.371094 15.332031 -29.371094 C 6.101562 -29.371094 1.351562 -23.484375 1.351562 -15.117188 L 1.351562 -13.496094 C 1.351562 -5.128906 5.886719 0.757812 15.65625 0.757812 C 23.972656 0.757812 28.886719 -3.238281 28.886719 -8.960938 L 28.886719 -9.179688 L 19.542969 -9.179688 C 19.542969 -7.828125 17.871094 -6.695312 15.710938 -6.695312 C 13.226562 -6.695312 11.609375 -7.558594 11.285156 -10.796875 Z M 15.117188 -21.921875 C 17.4375 -21.921875 18.679688 -20.839844 18.949219 -17.816406 L 11.285156 -17.816406 C 11.554688 -20.839844 12.796875 -21.921875 15.117188 -21.921875 Z M 15.117188 -21.921875 "/></g></g></g></svg>