<svg xmlns="http://www.w3.org/2000/svg" xmlns:xlink="http://www.w3.org/1999/xlink" width="1000" zoomAndPan="magnify" viewBox="0 0 750 599.999999" height="800" preserveAspectRatio="xMidYMid meet" version="1.0"><defs><g/><clipPath id="9f28935bca"><path d="M 21.121094 105 L 58 105 L 58 201 L 21.121094 201 Z M 21.121094 105 " clip-rule="nonzero"/></clipPath><clipPath id="7490df2995"><path d="M 456.433594 239.226562 L 733.816406 239.226562 L 733.816406 467 L 456.433594 467 Z M 456.433594 239.226562 " clip-rule="nonzero"/></clipPath><clipPath id="3710909dfd"><path d="M 459 512 L 478 512 L 478 530.226562 L 459 530.226562 Z M 459 512 " clip-rule="nonzero"/></clipPath><clipPath id="f7ea3cf0fe"><path d="M 414 19 L 655 19 L 655 227 L 414 227 Z M 414 19 " clip-rule="nonzero"/></clipPath><clipPath id="cce296cb8d"><path d="M 400.148438 25.304688 L 650.21875 10.652344 L 662.152344 214.304688 L 412.082031 228.957031 Z M 400.148438 25.304688 " clip-rule="nonzero"/></clipPath><clipPath id="20f02933b0"><path d="M 650.382812 10.644531 L 400.3125 25.292969 L 412.242188 228.945312 L 662.316406 214.292969 Z M 650.382812 10.644531 " clip-rule="nonzero"/></clipPath><clipPath id="48413c5bb1"><path d="M 650.382812 10.644531 L 400.3125 25.292969 L 412.242188 228.945312 L 662.316406 214.292969 Z M 650.382812 10.644531 " clip-rule="nonzero"/></clipPath><clipPath id="c81bbd3074"><path d="M 412 17 L 657 17 L 657 229 L 412 229 Z M 412 17 " clip-rule="nonzero"/></clipPath><clipPath id="8112e016f0"><path d="M 400.148438 25.304688 L 650.21875 10.652344 L 662.152344 214.304688 L 412.082031 228.957031 Z M 400.148438 25.304688 " clip-rule="nonzero"/></clipPath><clipPath id="73019ab2c0"><path d="M 650.382812 10.644531 L 400.3125 25.292969 L 412.242188 228.945312 L 662.316406 214.292969 Z M 650.382812 10.644531 " clip-rule="nonzero"/></clipPath><clipPath id="ac392119b6"><path d="M 650.382812 10.644531 L 400.3125 25.292969 L 412.242188 228.945312 L 662.316406 214.292969 Z M 650.382812 10.644531 " clip-rule="nonzero"/></clipPath></defs><g fill="#f57c00" fill-opacity="1"><g transform="translate(15.162073, 567.963038)"><g><path d="M 14.121094 -4.519531 C 14.121094 -1.695312 15.816406 0 18.640625 0 L 48.011719 0 C 51.117188 0 52.53125 -1.695312 52.53125 -4.519531 L 52.53125 -75.6875 L 86.417969 -75.6875 C 112.964844 -75.6875 127.085938 -90.089844 127.085938 -116.355469 L 127.085938 -185.265625 C 127.085938 -211.8125 112.964844 -225.933594 86.417969 -225.933594 L 18.640625 -225.933594 C 15.816406 -225.933594 14.121094 -224.238281 14.121094 -221.414062 Z M 52.53125 -112.964844 L 52.53125 -188.652344 L 77.382812 -188.652344 C 85.007812 -188.652344 88.679688 -184.699219 88.679688 -177.355469 L 88.679688 -124.261719 C 88.679688 -117.203125 85.007812 -112.964844 77.382812 -112.964844 Z M 52.53125 -112.964844 "/></g></g></g><g fill="#f57c00" fill-opacity="1"><g transform="translate(156.369794, 567.963038)"><g><path d="M 130.195312 -185.265625 C 130.195312 -211.8125 116.074219 -225.933594 89.527344 -225.933594 L 18.640625 -225.933594 C 15.816406 -225.933594 14.121094 -224.238281 14.121094 -221.414062 L 14.121094 -4.519531 C 14.121094 -1.695312 15.816406 0 18.640625 0 L 48.011719 0 C 50.835938 0 52.53125 -1.695312 52.53125 -4.519531 L 52.53125 -75.6875 L 72.015625 -75.6875 L 90.9375 -3.953125 C 91.503906 -1.410156 92.914062 0 95.738281 0 L 125.109375 0 C 128.214844 0 129.910156 -1.695312 129.0625 -5.082031 L 109.578125 -79.078125 C 123.132812 -85.007812 130.195312 -97.433594 130.195312 -116.355469 Z M 52.53125 -112.964844 L 52.53125 -188.652344 L 80.488281 -188.652344 C 87.832031 -188.652344 91.785156 -184.699219 91.785156 -177.355469 L 91.785156 -124.261719 C 91.785156 -116.921875 87.832031 -112.964844 80.488281 -112.964844 Z M 52.53125 -112.964844 "/></g></g></g><g fill="#f57c00" fill-opacity="1"><g transform="translate(300.684091, 567.963038)"><g><path d="M 14.121094 -40.667969 C 14.121094 -14.121094 28.242188 0 54.789062 0 L 86.417969 0 C 112.964844 0 127.085938 -14.121094 127.085938 -40.667969 L 127.085938 -185.265625 C 127.085938 -211.8125 112.964844 -225.933594 86.417969 -225.933594 L 54.789062 -225.933594 C 28.242188 -225.933594 14.121094 -211.8125 14.121094 -185.265625 Z M 62.980469 -36.429688 C 55.636719 -36.429688 51.683594 -40.101562 51.683594 -47.726562 L 51.683594 -178.203125 C 51.683594 -185.546875 55.636719 -189.5 62.980469 -189.5 L 79.359375 -189.5 C 86.703125 -189.5 90.65625 -185.546875 90.65625 -178.203125 L 90.65625 -47.726562 C 90.65625 -40.101562 86.703125 -36.429688 79.359375 -36.429688 Z M 62.980469 -36.429688 "/></g></g></g><path fill="#000000" d="M 37.113281 135.863281 C 42.214844 124.40625 50.414062 115.972656 60.277344 110.308594 C 68.8125 105.414062 78.605469 102.59375 88.707031 101.722656 L 87.953125 95.761719 C 87.953125 92.347656 88.914062 88.972656 90.488281 85.882812 C 91.988281 82.941406 94.042969 80.265625 96.265625 78.085938 C 98.914062 75.488281 101.875 73.320312 105.089844 71.75 C 108.429688 70.121094 112.042969 69.125 115.878906 68.945312 C 116.8125 68.898438 121.324219 69.726562 123.515625 70.144531 L 128.539062 56.394531 C 132.296875 51.0625 137.078125 46.707031 142.40625 43.148438 C 147.636719 39.660156 153.398438 36.941406 159.210938 34.800781 C 171.347656 30.339844 185.453125 28.679688 199.3125 29.851562 C 213.1875 31.019531 226.804688 35.035156 237.960938 41.832031 C 241.902344 44.238281 245.828125 46.742188 249.46875 49.613281 C 251.972656 51.585938 254.339844 53.734375 256.496094 56.132812 C 257.058594 56.757812 259.011719 59.597656 260.265625 61.449219 C 262.15625 60.085938 265.199219 57.9375 266.0625 57.519531 C 269.34375 55.9375 272.917969 54.722656 276.574219 54.066406 C 280.355469 53.390625 284.21875 53.316406 287.953125 54.03125 C 292.898438 54.980469 297.496094 57.164062 301.453125 60.238281 C 305.320312 63.242188 308.574219 67.09375 310.9375 71.4375 L 313.445312 78.761719 C 316.25 78.070312 320.25 77.046875 321.007812 77.011719 C 324.636719 76.855469 328.4375 77.457031 332.085938 78.617188 C 335.625 79.738281 339.015625 81.386719 341.964844 83.34375 C 347.421875 86.960938 352.203125 91.761719 355.957031 97.296875 C 359.671875 102.773438 362.390625 108.96875 363.773438 115.429688 L 364.125 127.445312 C 365.390625 129.898438 370.761719 132.472656 374.730469 136.261719 C 376.628906 138.078125 378.289062 140.089844 379.410156 142.3125 C 383.109375 149.636719 383.191406 155.097656 381.523438 159.59375 C 379.304688 165.578125 373.332031 169.875 367.464844 175.023438 L 367.609375 175.253906 L 371.792969 184.394531 C 373.292969 188.71875 374.289062 193.097656 374.796875 197.539062 C 375.300781 201.964844 375.324219 206.449219 374.871094 210.996094 C 372.757812 232.269531 361.792969 247.5625 346.859375 255.949219 C 332.445312 264.050781 314.253906 265.703125 296.617188 259.886719 C 295.332031 264.742188 294.445312 269.65625 293.910156 274.617188 C 293.269531 280.519531 293.132812 286.476562 293.425781 292.464844 L 294.878906 304.179688 C 295.261719 305.980469 297.105469 309.980469 297.039062 310.972656 C 296.933594 312.582031 296.089844 313.507812 295.1875 314.046875 C 294.441406 314.496094 292.960938 315.167969 290.917969 313.882812 C 284.25 309.703125 278.308594 303.738281 273.40625 296.941406 C 268.609375 290.292969 264.8125 282.851562 262.292969 275.566406 L 259.167969 263.289062 L 249.265625 268.988281 C 244.113281 271.070312 238.214844 272.351562 232.292969 272.582031 C 226.273438 272.820312 220.234375 271.96875 214.933594 269.84375 C 210.234375 267.960938 205.59375 265.585938 201.257812 262.738281 C 196.890625 259.878906 192.835938 256.546875 189.320312 252.765625 L 184.210938 246.382812 C 183.542969 247.363281 182.769531 248.371094 182.167969 248.792969 C 180.226562 250.160156 178 251.109375 175.671875 251.691406 C 173.453125 252.242188 171.148438 252.460938 168.9375 252.402344 C 165.613281 252.320312 162.988281 251.578125 160.734375 250.484375 C 156.371094 248.363281 153.722656 244.527344 149.289062 241.8125 C 146.738281 243.257812 142.421875 245.832031 141.550781 246.140625 C 137.003906 247.742188 132.417969 248.769531 127.773438 249.265625 C 123.148438 249.761719 118.460938 249.730469 113.707031 249.222656 C 104.691406 248.253906 96.417969 245.652344 89.195312 241.292969 C 81.984375 236.945312 75.816406 230.847656 71.027344 222.835938 L 65.28125 207.742188 C 62.960938 205.253906 57.324219 204.78125 53.253906 202.875 C 51.773438 202.183594 50.4375 201.363281 49.335938 200.390625 C 40.628906 192.683594 35.207031 181.671875 33.1875 169.949219 C 31.195312 158.40625 32.511719 146.191406 37.113281 135.863281 Z M 40.398438 168.707031 C 42.132812 178.78125 46.707031 188.289062 54.1875 194.90625 C 57.175781 197.554688 62.75 198.230469 66.488281 199.933594 C 68.175781 200.703125 69.59375 201.636719 70.632812 202.746094 C 71.542969 203.71875 72.359375 205.09375 73.050781 206.738281 C 74.632812 210.503906 75.546875 216.132812 77.308594 219.082031 C 81.441406 225.996094 86.753906 231.273438 92.976562 235.023438 C 99.3125 238.847656 106.582031 241.09375 114.488281 241.945312 C 118.714844 242.398438 122.882812 242.429688 126.992188 241.988281 C 131.082031 241.550781 135.117188 240.648438 139.117188 239.238281 C 139.988281 238.933594 144.675781 235.980469 146.65625 234.890625 C 148.910156 233.648438 150.765625 234.273438 150.988281 234.382812 C 155.765625 236.769531 158.550781 240.445312 162.371094 242.996094 C 164.136719 244.175781 166.207031 245.011719 169.125 245.085938 C 170.691406 245.128906 172.328125 244.980469 173.902344 244.589844 C 175.351562 244.226562 176.75 243.65625 177.960938 242.804688 C 179.15625 241.964844 179.847656 239.394531 180.84375 238.542969 C 182.515625 237.113281 184.335938 236.796875 186.421875 238.09375 C 187.609375 238.835938 188.78125 239.972656 189.882812 241.328125 C 191.589844 243.421875 193.152344 246.144531 194.679688 247.78125 C 197.796875 251.132812 201.398438 254.082031 205.269531 256.617188 C 209.199219 259.195312 213.402344 261.34375 217.65625 263.046875 C 222.039062 264.804688 227.03125 265.464844 232.007812 265.269531 C 237.066406 265.070312 242.117188 263.984375 246.519531 262.203125 L 254.816406 257.417969 C 255.851562 256.628906 257.054688 254.289062 257.980469 253.589844 C 259.015625 252.800781 260.066406 252.585938 260.957031 252.648438 C 262.148438 252.734375 263.460938 253.21875 264.382812 254.957031 C 265.300781 256.683594 265.984375 258.753906 266.527344 260.984375 C 267.511719 265.039062 268.003906 269.691406 269.207031 273.175781 C 271.507812 279.8125 274.96875 286.597656 279.339844 292.660156 C 281.714844 295.949219 284.355469 299.03125 287.226562 301.746094 L 286.117188 292.824219 C 285.800781 286.453125 285.949219 280.109375 286.628906 273.832031 C 287.3125 267.515625 288.527344 261.269531 290.34375 255.117188 C 290.710938 253.882812 291.671875 252.980469 292.828125 252.644531 C 293.800781 251.855469 295.15625 251.585938 296.414062 252.058594 C 312.757812 258.203125 329.867188 257.105469 343.273438 249.570312 C 356.300781 242.25 365.746094 228.835938 367.589844 210.273438 C 367.988281 206.25 367.972656 202.285156 367.523438 198.371094 C 367.078125 194.457031 366.199219 190.601562 364.878906 186.792969 L 361.246094 178.875 C 361.121094 178.648438 360.144531 177.105469 359.769531 176.46875 C 358.269531 173.917969 360.164062 171.757812 360.273438 171.65625 C 365.871094 166.421875 372.511719 162.84375 374.664062 157.046875 C 375.773438 154.058594 375.335938 150.480469 372.875 145.613281 C 372.117188 144.113281 370.957031 142.78125 369.671875 141.554688 C 365.027344 137.117188 359.105469 133.679688 357.621094 130.804688 C 357.128906 129.847656 356.789062 128.484375 356.671875 126.863281 C 356.445312 123.769531 357.109375 119.257812 356.617188 116.964844 C 355.429688 111.417969 353.089844 106.105469 349.898438 101.40625 C 346.683594 96.664062 342.59375 92.542969 337.917969 89.441406 C 335.515625 87.847656 332.75 86.503906 329.871094 85.589844 C 327.054688 84.695312 324.125 84.207031 321.320312 84.324219 C 320.515625 84.359375 315.457031 85.828125 313.371094 86.320312 C 310.9375 86.898438 309.347656 85.863281 309.207031 85.742188 C 308.496094 85.144531 307.714844 84.058594 307.09375 82.585938 C 306.105469 80.25 305.324219 76.433594 304.511719 74.9375 C 302.628906 71.476562 300.039062 68.410156 296.964844 66.019531 C 293.914062 63.652344 290.382812 61.953125 286.574219 61.222656 C 283.714844 60.671875 280.757812 60.753906 277.863281 61.273438 C 274.863281 61.808594 271.933594 62.816406 269.238281 64.113281 C 267.976562 64.722656 263.996094 68.097656 262.003906 69.105469 C 260.675781 69.777344 259.542969 69.84375 258.878906 69.742188 C 258.226562 69.644531 257.082031 69.226562 255.980469 68.03125 C 254.511719 66.433594 251.910156 61.980469 251.054688 61.027344 C 249.175781 58.9375 247.109375 57.078125 244.9375 55.359375 C 241.527344 52.667969 237.84375 50.335938 234.152344 48.082031 C 223.921875 41.847656 211.421875 38.214844 198.695312 37.140625 C 185.925781 36.0625 172.921875 37.558594 161.738281 41.671875 C 156.457031 43.613281 151.21875 46.070312 146.472656 49.238281 C 141.886719 52.296875 137.753906 56.023438 134.519531 60.613281 C 132.953125 62.835938 131.148438 70.898438 129.550781 74.1875 C 128.859375 75.609375 128.042969 76.515625 127.417969 76.957031 C 126.957031 77.277344 125.796875 77.8125 124.066406 77.65625 C 122.042969 77.480469 117.332031 76.203125 116.226562 76.253906 C 113.40625 76.390625 110.757812 77.128906 108.304688 78.328125 C 105.78125 79.558594 103.46875 81.269531 101.390625 83.3125 C 99.710938 84.960938 98.144531 86.984375 97.007812 89.210938 C 95.960938 91.261719 95.273438 93.488281 95.273438 95.757812 L 95.90625 101.023438 C 96.117188 101.761719 97.078125 102.976562 97.269531 103.644531 C 97.578125 104.757812 97.417969 105.6875 97.128906 106.378906 C 96.628906 107.566406 95.6875 108.714844 93.550781 108.773438 C 83.050781 109.066406 72.734375 111.601562 63.925781 116.65625 C 55.355469 121.574219 48.230469 128.894531 43.800781 138.839844 C 39.769531 147.890625 38.65625 158.59375 40.398438 168.707031 Z M 40.398438 168.707031 " fill-opacity="1" fill-rule="evenodd"/><path fill="#000000" d="M 353.761719 139.800781 C 353.421875 139.757812 353.398438 139.4375 353.539062 138.992188 C 353.621094 139 353.65625 139.257812 353.679688 139.351562 C 353.707031 139.472656 353.941406 139.820312 353.761719 139.800781 Z M 353.761719 139.800781 " fill-opacity="1" fill-rule="evenodd"/><path fill="#000000" d="M 354.816406 125.386719 C 355.089844 127.074219 355.277344 128.820312 355.3125 130.574219 C 355.351562 132.347656 355.238281 134.125 354.996094 135.847656 C 354.890625 136.449219 353.835938 138.023438 353.539062 138.992188 C 353.523438 138.988281 353.507812 138.992188 353.488281 139.007812 C 352.066406 140.203125 358.242188 142.101562 359.28125 142.855469 C 363.476562 146.085938 367.148438 150.726562 367.445312 155.414062 C 367.636719 158.441406 366.527344 161.449219 363.15625 163.9375 C 365.664062 161.136719 366.207031 158.351562 365.535156 155.714844 C 364.558594 151.878906 360.886719 148.5625 356.953125 146.46875 C 355.84375 145.839844 352.507812 144.617188 350.671875 143.339844 C 349.519531 142.542969 348.890625 141.554688 348.628906 140.773438 C 348.460938 140.269531 348.433594 139.503906 348.578125 138.597656 C 348.753906 137.472656 349.382812 135.84375 349.464844 135.074219 C 349.660156 133.640625 349.714844 132.15625 349.695312 130.671875 C 349.675781 129.164062 349.578125 127.652344 349.382812 126.195312 C 348.558594 118.230469 345.417969 110.683594 340.566406 104.585938 C 335.539062 98.277344 328.769531 93.496094 320.472656 91.578125 C 329.328125 92.433594 337.0625 96.441406 343.003906 102.414062 C 349.085938 108.527344 353.125 116.6875 354.816406 125.386719 Z M 354.816406 125.386719 " fill-opacity="1" fill-rule="evenodd"/><path fill="#000000" d="M 341 236.355469 C 342.707031 234.847656 344.269531 233.191406 345.785156 231.453125 C 347.277344 229.730469 348.703125 227.941406 349.996094 226.035156 C 352.605469 222.1875 354.71875 217.996094 356.085938 213.550781 C 358.226562 206.605469 358.757812 199.277344 356.808594 192.285156 C 360.054688 199.164062 360.917969 206.871094 359.71875 214.398438 C 358.910156 219.484375 357.140625 224.441406 354.570312 228.898438 C 353.261719 231.167969 351.730469 233.304688 349.972656 235.210938 C 348.183594 237.144531 346.175781 238.847656 344.007812 240.285156 C 340.730469 242.445312 337.160156 244.058594 333.335938 244.917969 C 329.691406 245.734375 325.949219 245.855469 322.042969 245.269531 C 325.792969 244.847656 329.164062 243.714844 332.390625 242.179688 C 335.550781 240.671875 338.367188 238.671875 341 236.355469 Z M 341 236.355469 " fill-opacity="1" fill-rule="evenodd"/><path fill="#000000" d="M 278.058594 263.492188 C 278.738281 260.722656 279.703125 258.070312 280.960938 255.527344 C 282.820312 251.769531 285.210938 248.445312 288.1875 245.335938 C 286.355469 249.039062 285.304688 252.804688 284.488281 256.738281 C 283.929688 259.414062 283.664062 262.09375 283.335938 264.816406 C 283.125 266.605469 282.925781 268.394531 282.664062 270.1875 C 282.394531 272.027344 282.023438 273.796875 281.695312 275.632812 C 281.1875 278.535156 280.605469 281.207031 280.265625 284.121094 C 279.550781 282.097656 278.886719 280.222656 278.378906 278.125 C 277.878906 276.046875 277.546875 274.015625 277.375 271.890625 C 277.261719 270.480469 277.242188 269.074219 277.351562 267.667969 C 277.464844 266.257812 277.722656 264.863281 278.058594 263.492188 Z M 278.058594 263.492188 " fill-opacity="1" fill-rule="evenodd"/><path fill="#000000" d="M 115.285156 61.546875 L 115.421875 61.265625 C 115.492188 61.152344 115.480469 61.160156 115.574219 61.0625 L 115.59375 61.054688 L 115.316406 61.539062 Z M 115.285156 61.546875 " fill-opacity="1" fill-rule="evenodd"/><path fill="#000000" d="M 126.386719 46.183594 C 123.464844 51.582031 122.058594 57.492188 119.421875 63.90625 C 119.183594 64.460938 118.539062 65.097656 117.527344 65.582031 C 116.417969 66.113281 114.449219 66.515625 113.824219 66.699219 L 103.15625 70.511719 C 98.476562 72.167969 94.382812 74.550781 90.832031 77.566406 C 87.132812 80.714844 84.015625 84.40625 81.816406 89.175781 C 82.898438 83.738281 85.039062 79.046875 88.269531 75.066406 C 91.570312 71 95.976562 67.910156 100.941406 65.367188 C 102.828125 64.5625 104.726562 63.8125 106.667969 63.199219 C 108.609375 62.585938 110.589844 62.101562 112.601562 61.675781 C 112.964844 61.605469 114.5 61.714844 115.285156 61.546875 C 115.238281 61.652344 115.199219 61.746094 115.167969 61.800781 L 115.316406 61.539062 C 115.652344 61.464844 115.839844 61.335938 115.71875 61.117188 C 115.679688 61.050781 115.636719 61.035156 115.59375 61.054688 C 118.878906 55.273438 121.023438 49.78125 124.609375 45.039062 C 127.027344 41.839844 130.042969 39.015625 134.425781 36.65625 C 130.625 39.601562 128.230469 42.777344 126.386719 46.183594 Z M 126.386719 46.183594 " fill-opacity="1" fill-rule="evenodd"/><g clip-path="url(#9f28935bca)"><path fill="#000000" d="M 21.316406 160.140625 C 21.46875 156.300781 22.039062 152.441406 22.9375 148.660156 C 24.71875 141.171875 27.785156 133.949219 31.917969 127.527344 C 38.203125 117.761719 46.921875 109.902344 57.355469 105.640625 C 47.765625 110.867188 40.332031 119.410156 35.144531 129.398438 C 31.84375 135.753906 29.550781 142.691406 28.214844 149.785156 C 27.550781 153.3125 27.144531 156.871094 26.933594 160.421875 C 26.722656 164.015625 26.707031 167.585938 26.992188 171.109375 C 27.433594 176.5625 28.503906 181.847656 30.417969 186.84375 C 32.378906 191.96875 35.054688 196.753906 38.800781 201 C 34.242188 197.347656 30.578125 193.007812 27.796875 188.078125 C 24.972656 183.0625 23.09375 177.527344 22.085938 171.734375 C 21.425781 167.949219 21.164062 164.050781 21.316406 160.140625 Z M 21.316406 160.140625 " fill-opacity="1" fill-rule="evenodd"/></g><g fill="#000000" fill-opacity="1"><g transform="translate(121.971206, 138.029069)"><g><path d="M 11.160156 -23.398438 C 11.160156 -25.796875 12.320312 -26.238281 14 -26.238281 C 14.640625 -26.238281 15.640625 -26.078125 15.839844 -26 L 15.839844 -31.996094 C 15.480469 -32.199219 14.277344 -32.558594 12.277344 -32.558594 C 7.199219 -32.558594 3.800781 -30.398438 3.800781 -24.199219 L 3.800781 -21.199219 L 0.601562 -21.199219 L 0.601562 -14.800781 L 3.800781 -14.800781 L 3.800781 0 L 11.160156 0 L 11.160156 -14.800781 L 15.4375 -14.800781 L 15.4375 -21.199219 L 11.160156 -21.199219 Z M 11.160156 -23.398438 "/></g></g></g><g fill="#000000" fill-opacity="1"><g transform="translate(138.769541, 138.029069)"><g><path d="M 1.761719 -21.199219 L 1.761719 -7 C 1.761719 -3.199219 3.359375 0.558594 8.359375 0.558594 C 11.519531 0.558594 13.679688 -0.71875 15.039062 -2.601562 L 15.558594 0 L 22.199219 0 L 21.796875 -6 L 21.796875 -21.199219 L 14.4375 -21.199219 L 14.4375 -7.398438 C 14.039062 -6.800781 12.960938 -5.757812 11.359375 -5.757812 C 9.359375 -5.757812 9.121094 -7.199219 9.121094 -8.199219 L 9.121094 -21.199219 Z M 1.761719 -21.199219 "/></g></g></g><g fill="#000000" fill-opacity="1"><g transform="translate(162.567174, 138.029069)"><g><path d="M 22.039062 0 L 22.039062 -14.199219 C 22.039062 -18 20.4375 -21.757812 15.4375 -21.757812 C 12.277344 -21.757812 10.121094 -20.4375 8.71875 -18.558594 L 8.238281 -21.199219 L 1.601562 -21.199219 L 2 -15.199219 L 2 0 L 9.359375 0 L 9.359375 -13.800781 C 9.757812 -14.398438 10.839844 -15.4375 12.4375 -15.4375 C 14.4375 -15.4375 14.679688 -14 14.679688 -13 L 14.679688 0 Z M 22.039062 0 "/></g></g></g><g fill="#000000" fill-opacity="1"><g transform="translate(186.364808, 138.029069)"><g><path d="M 8.320312 -9.800781 L 8.320312 -11.398438 C 8.320312 -14 9 -15.4375 10.960938 -15.4375 C 12.398438 -15.4375 13.277344 -14.640625 13.277344 -12.800781 L 20.199219 -12.800781 L 20.199219 -13.757812 C 20.199219 -18.796875 16.957031 -21.757812 10.800781 -21.757812 C 3.960938 -21.757812 1 -17.597656 1 -11.398438 L 1 -9.800781 C 1 -3.601562 3.960938 0.558594 10.800781 0.558594 C 16.957031 0.558594 20.199219 -2.398438 20.199219 -7.039062 L 20.199219 -8 L 13.277344 -8 C 13.277344 -6.597656 12.398438 -5.757812 10.960938 -5.757812 C 9 -5.757812 8.320312 -7.199219 8.320312 -9.800781 Z M 8.320312 -9.800781 "/></g></g></g><g fill="#000000" fill-opacity="1"><g transform="translate(207.482715, 138.029069)"><g><path d="M 11.160156 -21.199219 L 11.160156 -27.199219 L 3.800781 -27.199219 L 3.800781 -21.199219 L 0.601562 -21.199219 L 0.601562 -14.800781 L 3.800781 -14.800781 L 3.800781 -7.800781 C 3.800781 -1.601562 7.199219 0.558594 12.277344 0.558594 C 14.277344 0.558594 15.480469 0.199219 15.839844 0 L 15.839844 -6 C 15.640625 -5.917969 14.640625 -5.757812 14 -5.757812 C 12.320312 -5.757812 11.160156 -6.199219 11.160156 -8.597656 L 11.160156 -14.800781 L 16.238281 -14.800781 L 16.238281 -21.199219 Z M 11.160156 -21.199219 "/></g></g></g><g fill="#000000" fill-opacity="1"><g transform="translate(225.080969, 138.029069)"><g><path d="M 1.917969 0 L 9.28125 0 L 9.28125 -21.199219 L 1.917969 -21.199219 Z M 9.398438 -31.199219 L 1.800781 -31.199219 L 1.800781 -23.597656 L 9.398438 -23.597656 Z M 9.398438 -31.199219 "/></g></g></g><g fill="#000000" fill-opacity="1"><g transform="translate(236.279859, 138.029069)"><g><path d="M 11.199219 0.558594 C 18.199219 0.558594 21.398438 -3.601562 21.398438 -9.800781 L 21.398438 -11.398438 C 21.398438 -17.597656 18.199219 -21.757812 11.199219 -21.757812 C 4.199219 -21.757812 1 -17.597656 1 -11.398438 L 1 -9.800781 C 1 -3.601562 4.199219 0.558594 11.199219 0.558594 Z M 11.199219 -5.757812 C 9.199219 -5.757812 8.320312 -7.199219 8.320312 -9.800781 L 8.320312 -11.398438 C 8.320312 -14 9.199219 -15.4375 11.199219 -15.4375 C 13.199219 -15.4375 14.078125 -14 14.078125 -11.398438 L 14.078125 -9.800781 C 14.078125 -7.199219 13.199219 -5.757812 11.199219 -5.757812 Z M 11.199219 -5.757812 "/></g></g></g><g fill="#000000" fill-opacity="1"><g transform="translate(258.677639, 138.029069)"><g><path d="M 22.039062 0 L 22.039062 -14.199219 C 22.039062 -18 20.4375 -21.757812 15.4375 -21.757812 C 12.277344 -21.757812 10.121094 -20.4375 8.71875 -18.558594 L 8.238281 -21.199219 L 1.601562 -21.199219 L 2 -15.199219 L 2 0 L 9.359375 0 L 9.359375 -13.800781 C 9.757812 -14.398438 10.839844 -15.4375 12.4375 -15.4375 C 14.4375 -15.4375 14.679688 -14 14.679688 -13 L 14.679688 0 Z M 22.039062 0 "/></g></g></g><g fill="#000000" fill-opacity="1"><g transform="translate(102.939957, 193.529066)"><g><path d="M 9.160156 -21.757812 C 3.359375 -21.757812 1.359375 -17.597656 1.359375 -11.398438 L 1.359375 -9.800781 C 1.359375 -3.601562 3.359375 0.558594 9.160156 0.558594 C 12.039062 0.558594 13.878906 -0.679688 15.078125 -2.441406 L 15.558594 0 L 22.199219 0 L 21.796875 -6 L 21.796875 -31.996094 L 14.4375 -31.996094 L 14.4375 -19.597656 C 13.238281 -20.878906 11.519531 -21.757812 9.160156 -21.757812 Z M 14.4375 -7.398438 C 14.039062 -6.800781 12.960938 -5.757812 11.359375 -5.757812 C 9.359375 -5.757812 8.679688 -7.199219 8.679688 -9.800781 L 8.679688 -11.398438 C 8.679688 -14 9.359375 -15.4375 11.359375 -15.4375 C 12.960938 -15.4375 14.039062 -14.398438 14.4375 -13.800781 Z M 14.4375 -7.398438 "/></g></g></g><g fill="#000000" fill-opacity="1"><g transform="translate(126.73759, 193.529066)"><g><path d="M 21.398438 -8 L 21.398438 -11.199219 C 21.398438 -17.398438 18.199219 -21.757812 11.359375 -21.757812 C 4.519531 -21.757812 1 -17.398438 1 -11.199219 L 1 -10 C 1 -3.800781 4.359375 0.558594 11.597656 0.558594 C 17.757812 0.558594 21.398438 -2.398438 21.398438 -6.640625 L 21.398438 -6.800781 L 14.480469 -6.800781 C 14.480469 -5.800781 13.238281 -4.960938 11.640625 -4.960938 C 9.800781 -4.960938 8.597656 -5.601562 8.359375 -8 Z M 11.199219 -16.238281 C 12.917969 -16.238281 13.839844 -15.4375 14.039062 -13.199219 L 8.359375 -13.199219 C 8.558594 -15.4375 9.480469 -16.238281 11.199219 -16.238281 Z M 11.199219 -16.238281 "/></g></g></g><g fill="#000000" fill-opacity="1"><g transform="translate(149.13537, 193.529066)"><g><path d="M 9.320312 -31.996094 L 1.960938 -31.996094 L 1.960938 -6 L 1.558594 0 L 8.199219 0 L 8.640625 -2.441406 C 9.839844 -0.679688 11.71875 0.558594 14.597656 0.558594 C 20.398438 0.558594 22.398438 -3.601562 22.398438 -9.800781 L 22.398438 -11.398438 C 22.398438 -17.597656 20.398438 -21.757812 14.597656 -21.757812 C 12.199219 -21.757812 10.519531 -20.878906 9.320312 -19.597656 Z M 9.320312 -13.800781 C 9.71875 -14.398438 10.800781 -15.4375 12.398438 -15.4375 C 14.398438 -15.4375 15.078125 -14 15.078125 -11.398438 L 15.078125 -9.800781 C 15.078125 -7.199219 14.398438 -5.757812 12.398438 -5.757812 C 10.800781 -5.757812 9.71875 -6.800781 9.320312 -7.398438 Z M 9.320312 -13.800781 "/></g></g></g><g fill="#000000" fill-opacity="1"><g transform="translate(172.533043, 193.529066)"><g><path d="M 1.761719 -21.199219 L 1.761719 -7 C 1.761719 -3.199219 3.359375 0.558594 8.359375 0.558594 C 11.519531 0.558594 13.679688 -0.71875 15.039062 -2.601562 L 15.558594 0 L 22.199219 0 L 21.796875 -6 L 21.796875 -21.199219 L 14.4375 -21.199219 L 14.4375 -7.398438 C 14.039062 -6.800781 12.960938 -5.757812 11.359375 -5.757812 C 9.359375 -5.757812 9.121094 -7.199219 9.121094 -8.199219 L 9.121094 -21.199219 Z M 1.761719 -21.199219 "/></g></g></g><g fill="#000000" fill-opacity="1"><g transform="translate(196.330677, 193.529066)"><g><path d="M 14.078125 -0.601562 C 14.078125 2 13 2.640625 11.039062 2.640625 C 8.800781 2.640625 8.320312 1.398438 8.320312 0 L 1.398438 0 L 1.398438 0.960938 C 1.398438 5.199219 3.839844 8.558594 11.199219 8.558594 C 18.039062 8.558594 21.4375 5.601562 21.4375 -0.601562 L 21.4375 -15.199219 L 21.839844 -21.199219 L 15.199219 -21.199219 L 14.757812 -18.878906 C 13.558594 -20.558594 11.679688 -21.757812 8.800781 -21.757812 C 3.199219 -21.757812 1 -17.597656 1 -11.800781 L 1 -10.597656 C 1 -4.398438 3.199219 -0.640625 8.800781 -0.640625 C 11.160156 -0.640625 12.878906 -1.398438 14.078125 -2.640625 Z M 14.078125 -8.597656 C 13.679688 -8 12.597656 -6.960938 11 -6.960938 C 9.199219 -6.960938 8.320312 -8 8.320312 -10.597656 L 8.320312 -11.800781 C 8.320312 -14 9.199219 -15.4375 11 -15.4375 C 12.597656 -15.4375 13.679688 -14.398438 14.078125 -13.800781 Z M 14.078125 -8.597656 "/></g></g></g><g fill="#000000" fill-opacity="1"><g transform="translate(219.72835, 193.529066)"><g><path d="M 14.078125 -0.601562 C 14.078125 2 13 2.640625 11.039062 2.640625 C 8.800781 2.640625 8.320312 1.398438 8.320312 0 L 1.398438 0 L 1.398438 0.960938 C 1.398438 5.199219 3.839844 8.558594 11.199219 8.558594 C 18.039062 8.558594 21.4375 5.601562 21.4375 -0.601562 L 21.4375 -15.199219 L 21.839844 -21.199219 L 15.199219 -21.199219 L 14.757812 -18.878906 C 13.558594 -20.558594 11.679688 -21.757812 8.800781 -21.757812 C 3.199219 -21.757812 1 -17.597656 1 -11.800781 L 1 -10.597656 C 1 -4.398438 3.199219 -0.640625 8.800781 -0.640625 C 11.160156 -0.640625 12.878906 -1.398438 14.078125 -2.640625 Z M 14.078125 -8.597656 C 13.679688 -8 12.597656 -6.960938 11 -6.960938 C 9.199219 -6.960938 8.320312 -8 8.320312 -10.597656 L 8.320312 -11.800781 C 8.320312 -14 9.199219 -15.4375 11 -15.4375 C 12.597656 -15.4375 13.679688 -14.398438 14.078125 -13.800781 Z M 14.078125 -8.597656 "/></g></g></g><g fill="#000000" fill-opacity="1"><g transform="translate(243.126023, 193.529066)"><g><path d="M 1.917969 0 L 9.28125 0 L 9.28125 -21.199219 L 1.917969 -21.199219 Z M 9.398438 -31.199219 L 1.800781 -31.199219 L 1.800781 -23.597656 L 9.398438 -23.597656 Z M 9.398438 -31.199219 "/></g></g></g><g fill="#000000" fill-opacity="1"><g transform="translate(254.324913, 193.529066)"><g><path d="M 22.039062 0 L 22.039062 -14.199219 C 22.039062 -18 20.4375 -21.757812 15.4375 -21.757812 C 12.277344 -21.757812 10.121094 -20.4375 8.71875 -18.558594 L 8.238281 -21.199219 L 1.601562 -21.199219 L 2 -15.199219 L 2 0 L 9.359375 0 L 9.359375 -13.800781 C 9.757812 -14.398438 10.839844 -15.4375 12.4375 -15.4375 C 14.4375 -15.4375 14.679688 -14 14.679688 -13 L 14.679688 0 Z M 22.039062 0 "/></g></g></g><g fill="#000000" fill-opacity="1"><g transform="translate(278.122547, 193.529066)"><g><path d="M 14.078125 -0.601562 C 14.078125 2 13 2.640625 11.039062 2.640625 C 8.800781 2.640625 8.320312 1.398438 8.320312 0 L 1.398438 0 L 1.398438 0.960938 C 1.398438 5.199219 3.839844 8.558594 11.199219 8.558594 C 18.039062 8.558594 21.4375 5.601562 21.4375 -0.601562 L 21.4375 -15.199219 L 21.839844 -21.199219 L 15.199219 -21.199219 L 14.757812 -18.878906 C 13.558594 -20.558594 11.679688 -21.757812 8.800781 -21.757812 C 3.199219 -21.757812 1 -17.597656 1 -11.800781 L 1 -10.597656 C 1 -4.398438 3.199219 -0.640625 8.800781 -0.640625 C 11.160156 -0.640625 12.878906 -1.398438 14.078125 -2.640625 Z M 14.078125 -8.597656 C 13.679688 -8 12.597656 -6.960938 11 -6.960938 C 9.199219 -6.960938 8.320312 -8 8.320312 -10.597656 L 8.320312 -11.800781 C 8.320312 -14 9.199219 -15.4375 11 -15.4375 C 12.597656 -15.4375 13.679688 -14.398438 14.078125 -13.800781 Z M 14.078125 -8.597656 "/></g></g></g><path fill="#ffffff" d="M 724.371094 402.578125 C 724.371094 417.96875 711.898438 430.453125 696.523438 430.453125 C 695.214844 430.453125 693.914062 430.367188 692.652344 430.183594 C 685.855469 449.804688 667.21875 463.894531 645.292969 463.894531 C 632.429688 463.894531 620.691406 459.039062 611.808594 451.054688 C 608.035156 453.089844 603.710938 454.230469 599.117188 454.230469 C 590.898438 454.230469 583.546875 450.550781 578.597656 444.738281 C 571.050781 450.6875 561.53125 454.230469 551.179688 454.230469 C 541.367188 454.230469 532.300781 451.042969 524.949219 445.636719 C 519.070312 453.570312 509.648438 458.695312 499.027344 458.695312 C 481.191406 458.695312 466.734375 444.210938 466.734375 426.359375 C 466.734375 416.351562 471.28125 407.398438 478.410156 401.476562 C 466.6875 391.113281 459.296875 375.96875 459.296875 359.105469 C 459.296875 335.464844 473.816406 315.21875 494.410156 306.804688 C 492.363281 301.472656 491.238281 295.671875 491.238281 289.613281 C 491.238281 263.136719 512.675781 241.675781 539.125 241.675781 C 554.867188 241.675781 568.847656 249.28125 577.570312 261.027344 C 580.03125 260.046875 582.714844 259.507812 585.519531 259.507812 C 590.726562 259.507812 595.492188 261.359375 599.203125 264.425781 C 604.484375 251.09375 617.480469 241.675781 632.671875 241.675781 C 652.238281 241.675781 668.152344 257.300781 668.652344 276.761719 C 682.375 280.585938 693.4375 290.800781 698.449219 303.996094 C 700.984375 303.101562 703.703125 302.625 706.546875 302.625 C 720.082031 302.625 731.046875 313.597656 731.046875 327.148438 C 731.046875 336.175781 726.171875 344.0625 718.917969 348.316406 C 720.046875 351.578125 720.660156 355.085938 720.660156 358.726562 C 720.660156 366.832031 717.644531 374.238281 712.683594 379.894531 C 719.765625 384.933594 724.371094 393.222656 724.371094 402.578125 Z M 724.371094 402.578125 " fill-opacity="1" fill-rule="nonzero"/><g clip-path="url(#7490df2995)"><path fill="#000000" d="M 645.292969 466.347656 C 667.023438 466.347656 686.464844 452.957031 694.292969 432.832031 C 695.03125 432.882812 695.765625 432.90625 696.523438 432.90625 C 713.234375 432.90625 726.820312 419.304688 726.820312 402.578125 C 726.820312 393.664062 722.875 385.214844 716.164062 379.5 C 720.660156 373.527344 723.109375 366.246094 723.109375 358.726562 C 723.109375 355.539062 722.679688 352.398438 721.824219 349.371094 C 729.0625 344.367188 733.496094 336.027344 733.496094 327.148438 C 733.496094 312.273438 721.40625 300.171875 706.546875 300.171875 C 704.265625 300.171875 702.039062 300.453125 699.867188 301.003906 C 694.453125 288.609375 683.882812 279.03125 671.019531 274.910156 C 669.597656 254.761719 653.082031 239.226562 632.671875 239.226562 C 617.847656 239.226562 604.628906 247.550781 598.1875 260.683594 C 594.402344 258.332031 590.015625 257.054688 585.519531 257.054688 C 583.09375 257.054688 580.71875 257.410156 578.425781 258.121094 C 568.917969 246.261719 554.363281 239.226562 539.125 239.226562 C 511.363281 239.226562 488.785156 261.824219 488.785156 289.613281 C 488.785156 295.046875 489.644531 300.367188 491.335938 305.46875 C 470.3125 315.035156 456.847656 335.832031 456.847656 359.105469 C 456.847656 375.085938 463.355469 390.367188 474.769531 401.453125 C 468.070312 407.976562 464.285156 416.914062 464.285156 426.359375 C 464.285156 445.535156 479.867188 461.148438 499.027344 461.148438 C 509.171875 461.148438 518.875 456.632812 525.429688 448.957031 C 533.074219 454.023438 541.929688 456.683594 551.179688 456.683594 C 561.03125 456.683594 570.351562 453.703125 578.292969 448.027344 C 583.792969 453.558594 591.265625 456.683594 599.117188 456.683594 C 603.394531 456.683594 607.621094 455.75 611.441406 453.984375 C 620.910156 461.96875 632.867188 466.347656 645.292969 466.347656 Z M 692.652344 427.730469 C 691.625 427.730469 690.679688 428.378906 690.335938 429.375 C 683.699219 448.554688 665.589844 461.441406 645.292969 461.441406 C 633.519531 461.441406 622.210938 457.101562 613.453125 449.226562 C 612.679688 448.542969 611.566406 448.40625 610.644531 448.898438 C 607.152344 450.785156 603.160156 451.777344 599.117188 451.777344 C 591.925781 451.777344 585.128906 448.625 580.460938 443.144531 C 579.601562 442.140625 578.105469 441.992188 577.078125 442.8125 C 569.628906 448.675781 560.675781 451.777344 551.179688 451.777344 C 542.1875 451.777344 533.625 448.96875 526.398438 443.660156 C 525.304688 442.851562 523.785156 443.097656 522.976562 444.175781 C 517.292969 451.839844 508.558594 456.242188 499.027344 456.242188 C 482.574219 456.242188 469.183594 442.839844 469.183594 426.359375 C 469.183594 417.441406 473.117188 409.054688 479.976562 403.363281 C 480.527344 402.910156 480.847656 402.234375 480.859375 401.511719 C 480.871094 400.800781 480.566406 400.113281 480.027344 399.636719 C 468.414062 389.359375 461.75 374.59375 461.75 359.105469 C 461.75 337.046875 474.929688 317.414062 495.339844 309.074219 C 496.578125 308.570312 497.179688 307.171875 496.699219 305.921875 C 494.703125 300.710938 493.6875 295.230469 493.6875 289.613281 C 493.6875 264.535156 514.070312 244.128906 539.125 244.128906 C 553.433594 244.128906 567.070312 250.996094 575.597656 262.488281 C 576.257812 263.382812 577.433594 263.714844 578.476562 263.308594 C 580.71875 262.414062 583.09375 261.960938 585.519531 261.960938 C 589.929688 261.960938 594.242188 263.503906 597.648438 266.3125 C 598.246094 266.816406 599.054688 266.988281 599.816406 266.792969 C 600.574219 266.59375 601.199219 266.042969 601.480469 265.320312 C 606.578125 252.457031 618.828125 244.128906 632.671875 244.128906 C 651 244.128906 665.726562 258.488281 666.203125 276.824219 C 666.226562 277.902344 666.964844 278.835938 667.992188 279.128906 C 680.867188 282.722656 691.390625 292.347656 696.15625 304.867188 C 696.632812 306.121094 698.007812 306.757812 699.257812 306.316406 C 701.570312 305.492188 704.023438 305.078125 706.546875 305.078125 C 718.710938 305.078125 728.597656 314.972656 728.597656 327.148438 C 728.597656 334.949219 724.417969 342.246094 717.679688 346.195312 C 716.675781 346.78125 716.222656 348.007812 716.601562 349.113281 C 717.667969 352.191406 718.207031 355.429688 718.207031 358.726562 C 718.207031 365.925781 715.585938 372.867188 710.84375 378.273438 C 710.390625 378.800781 710.171875 379.488281 710.257812 380.175781 C 710.34375 380.863281 710.710938 381.488281 711.273438 381.890625 C 717.949219 386.636719 721.933594 394.375 721.933594 402.578125 C 721.933594 416.597656 710.539062 428 696.535156 428 C 695.3125 428 694.125 427.914062 693.019531 427.753906 C 692.886719 427.742188 692.761719 427.730469 692.652344 427.730469 Z M 692.652344 427.730469 " fill-opacity="1" fill-rule="nonzero"/></g><path fill="#ffffff" d="M 508.582031 479.871094 C 508.582031 480.546875 508.617188 481.21875 508.683594 481.890625 C 508.75 482.5625 508.847656 483.226562 508.980469 483.890625 C 509.109375 484.550781 509.273438 485.203125 509.46875 485.851562 C 509.664062 486.496094 509.890625 487.128906 510.148438 487.753906 C 510.40625 488.375 510.695312 488.984375 511.011719 489.578125 C 511.328125 490.171875 511.675781 490.75 512.050781 491.3125 C 512.425781 491.871094 512.824219 492.414062 513.253906 492.933594 C 513.679688 493.457031 514.132812 493.957031 514.609375 494.433594 C 515.085938 494.910156 515.582031 495.359375 516.105469 495.789062 C 516.625 496.214844 517.164062 496.617188 517.726562 496.992188 C 518.285156 497.367188 518.863281 497.714844 519.457031 498.03125 C 520.050781 498.347656 520.660156 498.636719 521.28125 498.894531 C 521.902344 499.152344 522.539062 499.378906 523.183594 499.574219 C 523.828125 499.773438 524.480469 499.933594 525.140625 500.066406 C 525.800781 500.199219 526.464844 500.296875 527.136719 500.363281 C 527.808594 500.429688 528.480469 500.460938 529.152344 500.460938 C 529.828125 500.460938 530.5 500.429688 531.167969 500.363281 C 531.839844 500.296875 532.503906 500.199219 533.164062 500.066406 C 533.828125 499.933594 534.480469 499.773438 535.125 499.574219 C 535.769531 499.378906 536.402344 499.152344 537.023438 498.894531 C 537.648438 498.636719 538.253906 498.347656 538.847656 498.03125 C 539.441406 497.714844 540.019531 497.367188 540.582031 496.992188 C 541.140625 496.617188 541.679688 496.214844 542.203125 495.789062 C 542.722656 495.359375 543.222656 494.910156 543.699219 494.433594 C 544.175781 493.957031 544.625 493.457031 545.054688 492.933594 C 545.480469 492.414062 545.882812 491.871094 546.253906 491.3125 C 546.628906 490.75 546.976562 490.171875 547.292969 489.578125 C 547.609375 488.984375 547.898438 488.375 548.15625 487.753906 C 548.414062 487.128906 548.640625 486.496094 548.835938 485.851562 C 549.03125 485.203125 549.195312 484.550781 549.328125 483.890625 C 549.457031 483.226562 549.558594 482.5625 549.625 481.890625 C 549.6875 481.21875 549.722656 480.546875 549.722656 479.871094 C 549.722656 479.199219 549.6875 478.527344 549.625 477.855469 C 549.558594 477.183594 549.457031 476.519531 549.328125 475.855469 C 549.195312 475.195312 549.03125 474.542969 548.835938 473.894531 C 548.640625 473.25 548.414062 472.617188 548.15625 471.992188 C 547.898438 471.371094 547.609375 470.761719 547.292969 470.167969 C 546.976562 469.574219 546.628906 468.996094 546.253906 468.433594 C 545.882812 467.875 545.480469 467.332031 545.054688 466.8125 C 544.625 466.289062 544.175781 465.789062 543.699219 465.3125 C 543.222656 464.835938 542.722656 464.386719 542.203125 463.957031 C 541.679688 463.53125 541.140625 463.128906 540.582031 462.753906 C 540.019531 462.378906 539.441406 462.03125 538.847656 461.714844 C 538.253906 461.398438 537.648438 461.109375 537.023438 460.851562 C 536.402344 460.59375 535.769531 460.367188 535.125 460.171875 C 534.480469 459.972656 533.828125 459.8125 533.164062 459.679688 C 532.503906 459.546875 531.839844 459.449219 531.167969 459.382812 C 530.5 459.316406 529.828125 459.285156 529.152344 459.285156 C 528.480469 459.285156 527.808594 459.316406 527.136719 459.382812 C 526.464844 459.449219 525.800781 459.546875 525.140625 459.679688 C 524.480469 459.8125 523.828125 459.972656 523.183594 460.171875 C 522.539062 460.367188 521.902344 460.59375 521.28125 460.851562 C 520.660156 461.109375 520.050781 461.398438 519.457031 461.714844 C 518.863281 462.03125 518.285156 462.378906 517.726562 462.753906 C 517.164062 463.128906 516.625 463.53125 516.105469 463.957031 C 515.582031 464.386719 515.085938 464.835938 514.609375 465.3125 C 514.132812 465.789062 513.679688 466.289062 513.253906 466.8125 C 512.824219 467.332031 512.425781 467.875 512.050781 468.433594 C 511.675781 468.996094 511.328125 469.574219 511.011719 470.167969 C 510.695312 470.761719 510.40625 471.371094 510.148438 471.992188 C 509.890625 472.617188 509.664062 473.25 509.46875 473.894531 C 509.273438 474.542969 509.109375 475.195312 508.980469 475.855469 C 508.847656 476.519531 508.75 477.183594 508.683594 477.855469 C 508.617188 478.527344 508.582031 479.199219 508.582031 479.871094 Z M 508.582031 479.871094 " fill-opacity="1" fill-rule="nonzero"/><path fill="#000000" d="M 529.152344 502.914062 C 541.84375 502.914062 552.171875 492.578125 552.171875 479.871094 C 552.171875 467.167969 541.84375 456.832031 529.152344 456.832031 C 516.460938 456.832031 506.132812 467.167969 506.132812 479.871094 C 506.132812 492.578125 516.460938 502.914062 529.152344 502.914062 Z M 529.152344 461.734375 C 539.136719 461.734375 547.273438 469.867188 547.273438 479.871094 C 547.273438 489.878906 539.148438 498.011719 529.152344 498.011719 C 519.15625 498.011719 511.035156 489.878906 511.035156 479.871094 C 511.035156 469.867188 519.167969 461.734375 529.152344 461.734375 Z M 529.152344 461.734375 " fill-opacity="1" fill-rule="nonzero"/><path fill="#ffffff" d="M 481.851562 508.800781 C 481.851562 509.679688 481.9375 510.550781 482.109375 511.410156 C 482.28125 512.273438 482.535156 513.109375 482.871094 513.921875 C 483.207031 514.734375 483.617188 515.503906 484.105469 516.234375 C 484.59375 516.964844 485.148438 517.640625 485.765625 518.261719 C 486.386719 518.882812 487.0625 519.4375 487.792969 519.925781 C 488.523438 520.414062 489.292969 520.824219 490.101562 521.160156 C 490.914062 521.496094 491.75 521.75 492.609375 521.921875 C 493.472656 522.09375 494.339844 522.179688 495.21875 522.179688 C 496.09375 522.179688 496.964844 522.09375 497.824219 521.921875 C 498.6875 521.75 499.523438 521.496094 500.332031 521.160156 C 501.144531 520.824219 501.914062 520.414062 502.644531 519.925781 C 503.375 519.4375 504.046875 518.882812 504.667969 518.261719 C 505.289062 517.640625 505.84375 516.964844 506.332031 516.234375 C 506.820312 515.503906 507.230469 514.734375 507.566406 513.921875 C 507.902344 513.109375 508.15625 512.273438 508.328125 511.410156 C 508.5 510.550781 508.582031 509.679688 508.582031 508.800781 C 508.582031 507.921875 508.5 507.054688 508.328125 506.191406 C 508.15625 505.328125 507.902344 504.492188 507.566406 503.679688 C 507.230469 502.871094 506.820312 502.097656 506.332031 501.367188 C 505.84375 500.636719 505.289062 499.960938 504.667969 499.339844 C 504.046875 498.71875 503.375 498.164062 502.644531 497.675781 C 501.914062 497.1875 501.144531 496.777344 500.332031 496.441406 C 499.523438 496.105469 498.6875 495.851562 497.824219 495.679688 C 496.964844 495.507812 496.09375 495.421875 495.21875 495.421875 C 494.339844 495.421875 493.472656 495.507812 492.609375 495.679688 C 491.75 495.851562 490.914062 496.105469 490.101562 496.441406 C 489.292969 496.777344 488.523438 497.1875 487.792969 497.675781 C 487.0625 498.164062 486.386719 498.71875 485.765625 499.339844 C 485.148438 499.960938 484.59375 500.636719 484.105469 501.367188 C 483.617188 502.097656 483.207031 502.871094 482.871094 503.679688 C 482.535156 504.492188 482.28125 505.328125 482.109375 506.191406 C 481.9375 507.054688 481.851562 507.921875 481.851562 508.800781 Z M 481.851562 508.800781 " fill-opacity="1" fill-rule="nonzero"/><path fill="#000000" d="M 495.21875 524.644531 C 503.941406 524.644531 511.035156 517.542969 511.035156 508.8125 C 511.035156 500.082031 503.941406 492.980469 495.21875 492.980469 C 486.496094 492.980469 479.402344 500.082031 479.402344 508.8125 C 479.402344 517.542969 486.496094 524.644531 495.21875 524.644531 Z M 495.21875 497.875 C 501.246094 497.875 506.132812 502.78125 506.132812 508.800781 C 506.132812 514.824219 501.234375 519.726562 495.21875 519.726562 C 489.203125 519.726562 484.300781 514.824219 484.300781 508.800781 C 484.300781 502.78125 489.191406 497.875 495.21875 497.875 Z M 495.21875 497.875 " fill-opacity="1" fill-rule="nonzero"/><path fill="#ffffff" d="M 462.277344 521.542969 C 462.277344 521.949219 462.316406 522.351562 462.394531 522.75 C 462.472656 523.148438 462.589844 523.535156 462.746094 523.914062 C 462.902344 524.289062 463.09375 524.644531 463.316406 524.984375 C 463.542969 525.320312 463.800781 525.632812 464.085938 525.921875 C 464.375 526.207031 464.6875 526.464844 465.023438 526.691406 C 465.363281 526.917969 465.71875 527.109375 466.09375 527.265625 C 466.46875 527.417969 466.855469 527.535156 467.253906 527.617188 C 467.652344 527.695312 468.054688 527.734375 468.460938 527.734375 C 468.867188 527.734375 469.269531 527.695312 469.667969 527.617188 C 470.066406 527.535156 470.453125 527.417969 470.828125 527.265625 C 471.203125 527.109375 471.5625 526.917969 471.898438 526.691406 C 472.238281 526.464844 472.550781 526.207031 472.835938 525.921875 C 473.125 525.632812 473.378906 525.320312 473.605469 524.984375 C 473.832031 524.644531 474.023438 524.289062 474.179688 523.914062 C 474.332031 523.535156 474.449219 523.148438 474.53125 522.75 C 474.609375 522.351562 474.648438 521.949219 474.648438 521.542969 C 474.648438 521.136719 474.609375 520.734375 474.53125 520.335938 C 474.449219 519.933594 474.332031 519.546875 474.179688 519.171875 C 474.023438 518.796875 473.832031 518.441406 473.605469 518.101562 C 473.378906 517.765625 473.125 517.449219 472.835938 517.164062 C 472.550781 516.875 472.238281 516.621094 471.898438 516.394531 C 471.5625 516.167969 471.203125 515.976562 470.828125 515.820312 C 470.453125 515.664062 470.066406 515.546875 469.667969 515.46875 C 469.269531 515.390625 468.867188 515.351562 468.460938 515.351562 C 468.054688 515.351562 467.652344 515.390625 467.253906 515.46875 C 466.855469 515.546875 466.46875 515.664062 466.09375 515.820312 C 465.71875 515.976562 465.363281 516.167969 465.023438 516.394531 C 464.6875 516.621094 464.375 516.875 464.085938 517.164062 C 463.800781 517.449219 463.542969 517.765625 463.316406 518.101562 C 463.09375 518.441406 462.902344 518.796875 462.746094 519.171875 C 462.589844 519.546875 462.472656 519.933594 462.394531 520.335938 C 462.316406 520.734375 462.277344 521.136719 462.277344 521.542969 Z M 462.277344 521.542969 " fill-opacity="1" fill-rule="nonzero"/><g clip-path="url(#3710909dfd)"><path fill="#000000" d="M 468.460938 530.1875 C 473.226562 530.1875 477.097656 526.3125 477.097656 521.542969 C 477.097656 516.773438 473.226562 512.898438 468.460938 512.898438 C 463.695312 512.898438 459.824219 516.773438 459.824219 521.542969 C 459.824219 526.3125 463.707031 530.1875 468.460938 530.1875 Z M 468.460938 517.816406 C 470.519531 517.816406 472.199219 519.496094 472.199219 521.554688 C 472.199219 523.613281 470.519531 525.296875 468.460938 525.296875 C 466.402344 525.296875 464.726562 523.613281 464.726562 521.554688 C 464.738281 519.480469 466.402344 517.816406 468.460938 517.816406 Z M 468.460938 517.816406 " fill-opacity="1" fill-rule="nonzero"/></g><g clip-path="url(#f7ea3cf0fe)"><g clip-path="url(#cce296cb8d)"><g clip-path="url(#20f02933b0)"><g clip-path="url(#48413c5bb1)"><path fill="#ffffff" d="M 414.5625 226.621094 L 439.492188 208.992188 L 457.246094 196.425781 C 479.59375 212.285156 509.152344 221.078125 541.011719 219.210938 C 606.691406 215.363281 657.324219 167.632812 654.101562 112.613281 C 650.875 57.578125 595.015625 16.085938 529.335938 19.933594 C 463.644531 23.785156 413.011719 71.515625 416.234375 126.546875 C 417.4375 147.042969 425.941406 165.671875 439.554688 180.765625 L 429.175781 199.820312 Z M 414.5625 226.621094 " fill-opacity="1" fill-rule="nonzero"/></g></g></g></g><g clip-path="url(#c81bbd3074)"><g clip-path="url(#8112e016f0)"><g clip-path="url(#73019ab2c0)"><g clip-path="url(#ac392119b6)"><path fill="#000000" d="M 414.691406 228.8125 C 415.085938 228.789062 415.484375 228.65625 415.835938 228.417969 L 457.261719 199.109375 C 480.71875 215.289062 510.441406 223.203125 541.148438 221.402344 C 607.925781 217.492188 659.582031 168.636719 656.292969 112.484375 C 653.003906 56.332031 595.992188 13.828125 529.207031 17.742188 C 462.421875 21.65625 410.753906 70.523438 414.042969 126.675781 C 415.207031 146.527344 423.09375 165.3125 436.886719 181.066406 L 412.632812 225.566406 C 412.144531 226.464844 412.332031 227.578125 413.097656 228.257812 C 413.550781 228.660156 414.121094 228.847656 414.691406 228.8125 Z M 529.464844 22.128906 C 593.828125 18.355469 648.757812 59 651.90625 112.738281 C 655.054688 166.46875 605.246094 213.25 540.882812 217.019531 C 510.613281 218.792969 481.359375 210.839844 458.519531 194.636719 C 457.761719 194.097656 456.738281 194.089844 455.976562 194.632812 L 421.011719 219.359375 L 441.472656 181.808594 C 441.921875 180.992188 441.796875 179.976562 441.171875 179.285156 C 427.417969 164.035156 419.550781 145.742188 418.417969 126.410156 C 415.28125 72.679688 465.089844 25.898438 529.464844 22.128906 Z M 529.464844 22.128906 " fill-opacity="1" fill-rule="nonzero"/></g></g></g></g><g fill="#000000" fill-opacity="1"><g transform="translate(446.796515, 138.041623)"><g><path d="M 14.679688 -27.886719 L 14.679688 -35.78125 L 5 -35.78125 L 5 -27.886719 L 0.789062 -27.886719 L 0.789062 -19.46875 L 5 -19.46875 L 5 -10.261719 C 5 -2.105469 9.472656 0.738281 16.15625 0.738281 C 18.785156 0.738281 20.363281 0.261719 20.835938 0 L 20.835938 -7.894531 C 20.574219 -7.789062 19.257812 -7.578125 18.417969 -7.578125 C 16.207031 -7.578125 14.679688 -8.15625 14.679688 -11.3125 L 14.679688 -19.46875 L 21.363281 -19.46875 L 21.363281 -27.886719 Z M 14.679688 -27.886719 "/></g></g></g><g fill="#000000" fill-opacity="1"><g transform="translate(469.948106, 138.041623)"><g><path d="M 28.152344 -10.523438 L 28.152344 -14.734375 C 28.152344 -22.890625 23.941406 -28.625 14.945312 -28.625 C 5.945312 -28.625 1.316406 -22.890625 1.316406 -14.734375 L 1.316406 -13.15625 C 1.316406 -5 5.734375 0.738281 15.261719 0.738281 C 23.363281 0.738281 28.152344 -3.15625 28.152344 -8.734375 L 28.152344 -8.945312 L 19.046875 -8.945312 C 19.046875 -7.628906 17.417969 -6.523438 15.3125 -6.523438 C 12.890625 -6.523438 11.3125 -7.367188 10.996094 -10.523438 Z M 14.734375 -21.363281 C 16.996094 -21.363281 18.207031 -20.3125 18.46875 -17.363281 L 10.996094 -17.363281 C 11.261719 -20.3125 12.472656 -21.363281 14.734375 -21.363281 Z M 14.734375 -21.363281 "/></g></g></g><g fill="#000000" fill-opacity="1"><g transform="translate(499.413769, 138.041623)"><g><path d="M 13.945312 -6.523438 C 11.945312 -6.523438 11.101562 -7.417969 11.101562 -8.945312 L 1.472656 -8.945312 L 1.472656 -8.683594 C 1.472656 -2.894531 5.734375 0.738281 13.945312 0.738281 C 22.3125 0.738281 26.414062 -2.894531 26.414062 -8.996094 L 26.414062 -9.523438 C 26.414062 -15.628906 21.363281 -16.890625 14.367188 -17.46875 C 11.996094 -17.679688 11.3125 -18.152344 11.3125 -19.46875 C 11.3125 -20.574219 12.207031 -21.363281 13.945312 -21.363281 C 15.679688 -21.363281 16.574219 -20.363281 16.574219 -18.679688 L 26.046875 -18.679688 L 26.046875 -18.941406 C 26.046875 -25.101562 22.3125 -28.625 13.945312 -28.625 C 7.3125 -28.625 1.839844 -26.046875 1.839844 -19.152344 L 1.839844 -18.628906 C 1.839844 -13.050781 5.578125 -11.3125 13.574219 -10.683594 C 16.207031 -10.472656 16.734375 -9.734375 16.734375 -8.578125 C 16.734375 -7.472656 16.050781 -6.523438 13.945312 -6.523438 Z M 13.945312 -6.523438 "/></g></g></g><g fill="#000000" fill-opacity="1"><g transform="translate(527.300914, 138.041623)"><g><path d="M 14.679688 -27.886719 L 14.679688 -35.78125 L 5 -35.78125 L 5 -27.886719 L 0.789062 -27.886719 L 0.789062 -19.46875 L 5 -19.46875 L 5 -10.261719 C 5 -2.105469 9.472656 0.738281 16.15625 0.738281 C 18.785156 0.738281 20.363281 0.261719 20.835938 0 L 20.835938 -7.894531 C 20.574219 -7.789062 19.257812 -7.578125 18.417969 -7.578125 C 16.207031 -7.578125 14.679688 -8.15625 14.679688 -11.3125 L 14.679688 -19.46875 L 21.363281 -19.46875 L 21.363281 -27.886719 Z M 14.679688 -27.886719 "/></g></g></g><g fill="#000000" fill-opacity="1"><g transform="translate(550.452505, 138.041623)"><g><path d="M 2.527344 0 L 12.207031 0 L 12.207031 -27.886719 L 2.527344 -27.886719 Z M 12.367188 -41.042969 L 2.367188 -41.042969 L 2.367188 -31.046875 L 12.367188 -31.046875 Z M 12.367188 -41.042969 "/></g></g></g><g fill="#000000" fill-opacity="1"><g transform="translate(565.18533, 138.041623)"><g><path d="M 28.992188 0 L 28.992188 -18.679688 C 28.992188 -23.679688 26.890625 -28.625 20.3125 -28.625 C 16.15625 -28.625 13.3125 -26.890625 11.472656 -24.414062 L 10.839844 -27.886719 L 2.105469 -27.886719 L 2.632812 -19.996094 L 2.632812 0 L 12.3125 0 L 12.3125 -18.152344 C 12.839844 -18.941406 14.261719 -20.3125 16.363281 -20.3125 C 18.996094 -20.3125 19.3125 -18.417969 19.3125 -17.101562 L 19.3125 0 Z M 28.992188 0 "/></g></g></g><g fill="#000000" fill-opacity="1"><g transform="translate(596.492599, 138.041623)"><g><path d="M 18.523438 -0.789062 C 18.523438 2.632812 17.101562 3.472656 14.523438 3.472656 C 11.578125 3.472656 10.945312 1.839844 10.945312 0 L 1.839844 0 L 1.839844 1.261719 C 1.839844 6.839844 5.050781 11.261719 14.734375 11.261719 C 23.730469 11.261719 28.203125 7.367188 28.203125 -0.789062 L 28.203125 -19.996094 L 28.730469 -27.886719 L 19.996094 -27.886719 L 19.417969 -24.835938 C 17.839844 -27.046875 15.363281 -28.625 11.578125 -28.625 C 4.210938 -28.625 1.316406 -23.152344 1.316406 -15.523438 L 1.316406 -13.945312 C 1.316406 -5.789062 4.210938 -0.84375 11.578125 -0.84375 C 14.679688 -0.84375 16.945312 -1.839844 18.523438 -3.472656 Z M 18.523438 -11.3125 C 17.996094 -10.523438 16.574219 -9.15625 14.46875 -9.15625 C 12.101562 -9.15625 10.945312 -10.523438 10.945312 -13.945312 L 10.945312 -15.523438 C 10.945312 -18.417969 12.101562 -20.3125 14.46875 -20.3125 C 16.574219 -20.3125 17.996094 -18.941406 18.523438 -18.152344 Z M 18.523438 -11.3125 "/></g></g></g><g fill="#000000" fill-opacity="1"><g transform="translate(507.375794, 337.401598)"><g/></g></g><g fill="#000000" fill-opacity="1"><g transform="translate(514.571106, 337.401598)"><g><path d="M 19.828125 0 L 19.828125 -12.773438 C 19.828125 -16.191406 18.386719 -19.574219 13.890625 -19.574219 C 11.046875 -19.574219 9.105469 -18.386719 7.84375 -16.695312 L 7.414062 -19.070312 L 1.4375 -19.070312 L 1.800781 -13.675781 L 1.800781 0 L 8.421875 0 L 8.421875 -12.414062 C 8.78125 -12.953125 9.75 -13.890625 11.191406 -13.890625 C 12.992188 -13.890625 13.207031 -12.59375 13.207031 -11.695312 L 13.207031 0 Z M 19.828125 0 "/></g></g></g><g fill="#000000" fill-opacity="1"><g transform="translate(535.97721, 337.401598)"><g><path d="M 1.582031 -19.070312 L 1.582031 -6.296875 C 1.582031 -2.878906 3.023438 0.503906 7.519531 0.503906 C 10.363281 0.503906 12.308594 -0.648438 13.53125 -2.339844 L 14 0 L 19.972656 0 L 19.613281 -5.398438 L 19.613281 -19.070312 L 12.992188 -19.070312 L 12.992188 -6.65625 C 12.628906 -6.117188 11.660156 -5.183594 10.21875 -5.183594 C 8.421875 -5.183594 8.203125 -6.476562 8.203125 -7.375 L 8.203125 -19.070312 Z M 1.582031 -19.070312 "/></g></g></g><g fill="#000000" fill-opacity="1"><g transform="translate(557.383314, 337.401598)"><g><path d="M 30.082031 0 L 30.082031 -12.953125 C 30.082031 -16.554688 28.464844 -19.574219 24.324219 -19.574219 C 21.554688 -19.574219 19.648438 -18.386719 18.496094 -16.660156 C 17.632812 -18.386719 16.050781 -19.574219 13.496094 -19.574219 C 10.832031 -19.574219 8.996094 -18.496094 7.808594 -16.878906 L 7.414062 -19.070312 L 1.4375 -19.070312 L 1.800781 -13.675781 L 1.800781 0 L 8.421875 0 L 8.421875 -12.59375 C 8.78125 -13.132812 9.535156 -13.890625 10.796875 -13.890625 C 12.234375 -13.890625 12.628906 -12.953125 12.628906 -11.875 L 12.628906 0 L 19.253906 0 L 19.253906 -12.59375 C 19.613281 -13.132812 20.367188 -13.890625 21.628906 -13.890625 C 23.066406 -13.890625 23.460938 -12.953125 23.460938 -11.875 L 23.460938 0 Z M 30.082031 0 "/></g></g></g><g fill="#000000" fill-opacity="1"><g transform="translate(589.042763, 337.401598)"><g><path d="M 19.253906 -7.195312 L 19.253906 -10.074219 C 19.253906 -15.652344 16.375 -19.574219 10.21875 -19.574219 C 4.066406 -19.574219 0.898438 -15.652344 0.898438 -10.074219 L 0.898438 -8.996094 C 0.898438 -3.417969 3.921875 0.503906 10.4375 0.503906 C 15.976562 0.503906 19.253906 -2.160156 19.253906 -5.972656 L 19.253906 -6.117188 L 13.027344 -6.117188 C 13.027344 -5.21875 11.910156 -4.460938 10.472656 -4.460938 C 8.816406 -4.460938 7.738281 -5.039062 7.519531 -7.195312 Z M 10.074219 -14.609375 C 11.625 -14.609375 12.449219 -13.890625 12.628906 -11.875 L 7.519531 -11.875 C 7.699219 -13.890625 8.527344 -14.609375 10.074219 -14.609375 Z M 10.074219 -14.609375 "/></g></g></g><g fill="#000000" fill-opacity="1"><g transform="translate(609.189685, 337.401598)"><g><path d="M 12.8125 -19.574219 C 10.652344 -19.574219 8.960938 -18.53125 7.808594 -16.949219 L 7.414062 -19.070312 L 1.4375 -19.070312 L 1.800781 -13.675781 L 1.800781 0 L 8.421875 0 L 8.421875 -11.515625 C 8.851562 -12.054688 10.113281 -12.773438 12.269531 -12.773438 L 13.351562 -12.773438 L 13.351562 -19.539062 C 13.171875 -19.574219 12.992188 -19.574219 12.8125 -19.574219 Z M 12.8125 -19.574219 "/></g></g></g><g fill="#000000" fill-opacity="1"><g transform="translate(623.580344, 337.401598)"><g><path d="M 1.726562 0 L 8.347656 0 L 8.347656 -19.070312 L 1.726562 -19.070312 Z M 8.457031 -28.066406 L 1.621094 -28.066406 L 1.621094 -21.230469 L 8.457031 -21.230469 Z M 8.457031 -28.066406 "/></g></g></g><g fill="#000000" fill-opacity="1"><g transform="translate(633.653811, 337.401598)"><g><path d="M 7.484375 -8.816406 L 7.484375 -10.253906 C 7.484375 -12.59375 8.097656 -13.890625 9.859375 -13.890625 C 11.15625 -13.890625 11.945312 -13.171875 11.945312 -11.515625 L 18.171875 -11.515625 L 18.171875 -12.378906 C 18.171875 -16.914062 15.257812 -19.574219 9.714844 -19.574219 C 3.5625 -19.574219 0.898438 -15.832031 0.898438 -10.253906 L 0.898438 -8.816406 C 0.898438 -3.238281 3.5625 0.503906 9.714844 0.503906 C 15.257812 0.503906 18.171875 -2.160156 18.171875 -6.332031 L 18.171875 -7.195312 L 11.945312 -7.195312 C 11.945312 -5.9375 11.15625 -5.183594 9.859375 -5.183594 C 8.097656 -5.183594 7.484375 -6.476562 7.484375 -8.816406 Z M 7.484375 -8.816406 "/></g></g></g><g fill="#000000" fill-opacity="1"><g transform="translate(652.64948, 337.401598)"><g><path d="M 12.953125 0 L 18.929688 0 L 18.566406 -5.398438 L 18.566406 -12.234375 C 18.566406 -16.949219 16.589844 -19.574219 10.074219 -19.574219 C 3.597656 -19.574219 1.621094 -16.554688 1.621094 -13.097656 L 1.621094 -12.773438 L 7.84375 -12.773438 C 7.84375 -13.675781 8.277344 -14.609375 9.894531 -14.609375 C 11.335938 -14.609375 11.875 -13.960938 11.945312 -12.59375 L 7.917969 -11.945312 C 3.671875 -11.300781 0.898438 -9.894531 0.898438 -5.757812 L 0.898438 -5.398438 C 0.898438 -2.339844 2.339844 0.503906 6.835938 0.503906 C 9.355469 0.503906 11.261719 -0.394531 12.59375 -1.800781 Z M 9.355469 -4.820312 C 7.988281 -4.820312 7.484375 -5.613281 7.484375 -6.371094 L 7.484375 -6.585938 C 7.484375 -7.449219 7.808594 -8.132812 9.355469 -8.382812 L 11.945312 -8.78125 L 11.945312 -5.867188 C 11.40625 -5.363281 10.472656 -4.820312 9.355469 -4.820312 Z M 9.355469 -4.820312 "/></g></g></g><g fill="#000000" fill-opacity="1"><g transform="translate(672.796402, 337.401598)"><g><path d="M 1.726562 0 L 8.347656 0 L 8.347656 -28.789062 L 1.726562 -28.789062 Z M 1.726562 0 "/></g></g></g><g fill="#000000" fill-opacity="1"><g transform="translate(486.785951, 387.651596)"><g><path d="M 7.484375 -8.816406 L 7.484375 -10.253906 C 7.484375 -12.59375 8.097656 -13.890625 9.859375 -13.890625 C 11.15625 -13.890625 11.945312 -13.171875 11.945312 -11.515625 L 18.171875 -11.515625 L 18.171875 -12.378906 C 18.171875 -16.914062 15.257812 -19.574219 9.714844 -19.574219 C 3.5625 -19.574219 0.898438 -15.832031 0.898438 -10.253906 L 0.898438 -8.816406 C 0.898438 -3.238281 3.5625 0.503906 9.714844 0.503906 C 15.257812 0.503906 18.171875 -2.160156 18.171875 -6.332031 L 18.171875 -7.195312 L 11.945312 -7.195312 C 11.945312 -5.9375 11.15625 -5.183594 9.859375 -5.183594 C 8.097656 -5.183594 7.484375 -6.476562 7.484375 -8.816406 Z M 7.484375 -8.816406 "/></g></g></g><g fill="#000000" fill-opacity="1"><g transform="translate(505.78162, 387.651596)"><g><path d="M 10.074219 0.503906 C 16.375 0.503906 19.253906 -3.238281 19.253906 -8.816406 L 19.253906 -10.253906 C 19.253906 -15.832031 16.375 -19.574219 10.074219 -19.574219 C 3.777344 -19.574219 0.898438 -15.832031 0.898438 -10.253906 L 0.898438 -8.816406 C 0.898438 -3.238281 3.777344 0.503906 10.074219 0.503906 Z M 10.074219 -5.183594 C 8.277344 -5.183594 7.484375 -6.476562 7.484375 -8.816406 L 7.484375 -10.253906 C 7.484375 -12.59375 8.277344 -13.890625 10.074219 -13.890625 C 11.875 -13.890625 12.667969 -12.59375 12.667969 -10.253906 L 12.667969 -8.816406 C 12.667969 -6.476562 11.875 -5.183594 10.074219 -5.183594 Z M 10.074219 -5.183594 "/></g></g></g><g fill="#000000" fill-opacity="1"><g transform="translate(525.928542, 387.651596)"><g><path d="M 30.082031 0 L 30.082031 -12.953125 C 30.082031 -16.554688 28.464844 -19.574219 24.324219 -19.574219 C 21.554688 -19.574219 19.648438 -18.386719 18.496094 -16.660156 C 17.632812 -18.386719 16.050781 -19.574219 13.496094 -19.574219 C 10.832031 -19.574219 8.996094 -18.496094 7.808594 -16.878906 L 7.414062 -19.070312 L 1.4375 -19.070312 L 1.800781 -13.675781 L 1.800781 0 L 8.421875 0 L 8.421875 -12.59375 C 8.78125 -13.132812 9.535156 -13.890625 10.796875 -13.890625 C 12.234375 -13.890625 12.628906 -12.953125 12.628906 -11.875 L 12.628906 0 L 19.253906 0 L 19.253906 -12.59375 C 19.613281 -13.132812 20.367188 -13.890625 21.628906 -13.890625 C 23.066406 -13.890625 23.460938 -12.953125 23.460938 -11.875 L 23.460938 0 Z M 30.082031 0 "/></g></g></g><g fill="#000000" fill-opacity="1"><g transform="translate(557.587992, 387.651596)"><g><path d="M 13.132812 0.503906 C 18.351562 0.503906 20.152344 -3.238281 20.152344 -8.816406 L 20.152344 -10.253906 C 20.152344 -15.832031 18.351562 -19.574219 13.132812 -19.574219 C 10.542969 -19.574219 8.851562 -18.460938 7.773438 -16.839844 L 7.375 -19.070312 L 1.402344 -19.070312 L 1.761719 -13.675781 L 1.761719 7.195312 L 8.382812 7.195312 L 8.382812 -1.4375 C 9.464844 -0.25 10.976562 0.503906 13.132812 0.503906 Z M 8.382812 -12.414062 C 8.746094 -12.953125 9.714844 -13.890625 11.15625 -13.890625 C 12.953125 -13.890625 13.566406 -12.59375 13.566406 -10.253906 L 13.566406 -8.816406 C 13.566406 -6.476562 12.953125 -5.183594 11.15625 -5.183594 C 9.714844 -5.183594 8.746094 -6.117188 8.382812 -6.65625 Z M 8.382812 -12.414062 "/></g></g></g><g fill="#000000" fill-opacity="1"><g transform="translate(578.634328, 387.651596)"><g><path d="M 1.582031 -19.070312 L 1.582031 -6.296875 C 1.582031 -2.878906 3.023438 0.503906 7.519531 0.503906 C 10.363281 0.503906 12.308594 -0.648438 13.53125 -2.339844 L 14 0 L 19.972656 0 L 19.613281 -5.398438 L 19.613281 -19.070312 L 12.992188 -19.070312 L 12.992188 -6.65625 C 12.628906 -6.117188 11.660156 -5.183594 10.21875 -5.183594 C 8.421875 -5.183594 8.203125 -6.476562 8.203125 -7.375 L 8.203125 -19.070312 Z M 1.582031 -19.070312 "/></g></g></g><g fill="#000000" fill-opacity="1"><g transform="translate(600.040432, 387.651596)"><g><path d="M 10.039062 -19.070312 L 10.039062 -24.46875 L 3.417969 -24.46875 L 3.417969 -19.070312 L 0.539062 -19.070312 L 0.539062 -13.3125 L 3.417969 -13.3125 L 3.417969 -7.015625 C 3.417969 -1.4375 6.476562 0.503906 11.046875 0.503906 C 12.847656 0.503906 13.925781 0.179688 14.25 0 L 14.25 -5.398438 C 14.070312 -5.324219 13.171875 -5.183594 12.59375 -5.183594 C 11.082031 -5.183594 10.039062 -5.578125 10.039062 -7.738281 L 10.039062 -13.3125 L 14.609375 -13.3125 L 14.609375 -19.070312 Z M 10.039062 -19.070312 "/></g></g></g><g fill="#000000" fill-opacity="1"><g transform="translate(615.870162, 387.651596)"><g><path d="M 12.953125 0 L 18.929688 0 L 18.566406 -5.398438 L 18.566406 -12.234375 C 18.566406 -16.949219 16.589844 -19.574219 10.074219 -19.574219 C 3.597656 -19.574219 1.621094 -16.554688 1.621094 -13.097656 L 1.621094 -12.773438 L 7.84375 -12.773438 C 7.84375 -13.675781 8.277344 -14.609375 9.894531 -14.609375 C 11.335938 -14.609375 11.875 -13.960938 11.945312 -12.59375 L 7.917969 -11.945312 C 3.671875 -11.300781 0.898438 -9.894531 0.898438 -5.757812 L 0.898438 -5.398438 C 0.898438 -2.339844 2.339844 0.503906 6.835938 0.503906 C 9.355469 0.503906 11.261719 -0.394531 12.59375 -1.800781 Z M 9.355469 -4.820312 C 7.988281 -4.820312 7.484375 -5.613281 7.484375 -6.371094 L 7.484375 -6.585938 C 7.484375 -7.449219 7.808594 -8.132812 9.355469 -8.382812 L 11.945312 -8.78125 L 11.945312 -5.867188 C 11.40625 -5.363281 10.472656 -4.820312 9.355469 -4.820312 Z M 9.355469 -4.820312 "/></g></g></g><g fill="#000000" fill-opacity="1"><g transform="translate(636.017084, 387.651596)"><g><path d="M 10.039062 -19.070312 L 10.039062 -24.46875 L 3.417969 -24.46875 L 3.417969 -19.070312 L 0.539062 -19.070312 L 0.539062 -13.3125 L 3.417969 -13.3125 L 3.417969 -7.015625 C 3.417969 -1.4375 6.476562 0.503906 11.046875 0.503906 C 12.847656 0.503906 13.925781 0.179688 14.25 0 L 14.25 -5.398438 C 14.070312 -5.324219 13.171875 -5.183594 12.59375 -5.183594 C 11.082031 -5.183594 10.039062 -5.578125 10.039062 -7.738281 L 10.039062 -13.3125 L 14.609375 -13.3125 L 14.609375 -19.070312 Z M 10.039062 -19.070312 "/></g></g></g><g fill="#000000" fill-opacity="1"><g transform="translate(651.846815, 387.651596)"><g><path d="M 1.726562 0 L 8.347656 0 L 8.347656 -19.070312 L 1.726562 -19.070312 Z M 8.457031 -28.066406 L 1.621094 -28.066406 L 1.621094 -21.230469 L 8.457031 -21.230469 Z M 8.457031 -28.066406 "/></g></g></g><g fill="#000000" fill-opacity="1"><g transform="translate(661.920282, 387.651596)"><g><path d="M 10.074219 0.503906 C 16.375 0.503906 19.253906 -3.238281 19.253906 -8.816406 L 19.253906 -10.253906 C 19.253906 -15.832031 16.375 -19.574219 10.074219 -19.574219 C 3.777344 -19.574219 0.898438 -15.832031 0.898438 -10.253906 L 0.898438 -8.816406 C 0.898438 -3.238281 3.777344 0.503906 10.074219 0.503906 Z M 10.074219 -5.183594 C 8.277344 -5.183594 7.484375 -6.476562 7.484375 -8.816406 L 7.484375 -10.253906 C 7.484375 -12.59375 8.277344 -13.890625 10.074219 -13.890625 C 11.875 -13.890625 12.667969 -12.59375 12.667969 -10.253906 L 12.667969 -8.816406 C 12.667969 -6.476562 11.875 -5.183594 10.074219 -5.183594 Z M 10.074219 -5.183594 "/></g></g></g><g fill="#000000" fill-opacity="1"><g transform="translate(682.067193, 387.651596)"><g><path d="M 19.828125 0 L 19.828125 -12.773438 C 19.828125 -16.191406 18.386719 -19.574219 13.890625 -19.574219 C 11.046875 -19.574219 9.105469 -18.386719 7.84375 -16.695312 L 7.414062 -19.070312 L 1.4375 -19.070312 L 1.800781 -13.675781 L 1.800781 0 L 8.421875 0 L 8.421875 -12.414062 C 8.78125 -12.953125 9.75 -13.890625 11.191406 -13.890625 C 12.992188 -13.890625 13.207031 -12.59375 13.207031 -11.695312 L 13.207031 0 Z M 19.828125 0 "/></g></g></g></svg>