<svg xmlns="http://www.w3.org/2000/svg" xmlns:xlink="http://www.w3.org/1999/xlink" width="1000" zoomAndPan="magnify" viewBox="0 0 750 262.499992" height="350" preserveAspectRatio="xMidYMid meet" version="1.0"><defs><g/><clipPath id="id1"><path d="M 17.578125 90 L 43 90 L 43 99 L 17.578125 99 Z M 17.578125 90 " clip-rule="nonzero"/></clipPath><clipPath id="id2"><path d="M 119 229 L 129 229 L 129 253.890625 L 119 253.890625 Z M 119 229 " clip-rule="nonzero"/></clipPath><clipPath id="id3"><path d="M 152 245 L 161 245 L 161 253.890625 L 152 253.890625 Z M 152 245 " clip-rule="nonzero"/></clipPath><clipPath id="id4"><path d="M 103 8.355469 L 178 8.355469 L 178 173 L 103 173 Z M 103 8.355469 " clip-rule="nonzero"/></clipPath></defs><path fill="#000000" d="M 238.390625 82.300781 C 229.378906 82.300781 222.050781 74.972656 222.050781 65.960938 C 222.050781 56.949219 229.378906 49.621094 238.390625 49.621094 C 247.40625 49.621094 254.734375 56.949219 254.734375 65.960938 C 254.734375 74.972656 247.40625 82.300781 238.390625 82.300781 Z M 238.390625 57.789062 C 233.886719 57.789062 230.222656 61.453125 230.222656 65.960938 C 230.222656 70.46875 233.886719 74.132812 238.390625 74.132812 C 242.898438 74.132812 246.5625 70.46875 246.5625 65.960938 C 246.5625 61.453125 242.898438 57.789062 238.390625 57.789062 Z M 238.390625 57.789062 " fill-opacity="1" fill-rule="nonzero"/><path fill="#000000" d="M 209.792969 241.632812 C 203.035156 241.632812 197.539062 236.132812 197.539062 229.375 C 197.539062 222.621094 203.035156 217.121094 209.792969 217.121094 C 216.550781 217.121094 222.050781 222.621094 222.050781 229.375 C 222.050781 236.132812 216.550781 241.632812 209.792969 241.632812 Z M 209.792969 225.292969 C 207.542969 225.292969 205.707031 227.121094 205.707031 229.375 C 205.707031 231.632812 207.542969 233.460938 209.792969 233.460938 C 212.046875 233.460938 213.878906 231.632812 213.878906 229.375 C 213.878906 227.121094 212.046875 225.292969 209.792969 225.292969 Z M 209.792969 225.292969 " fill-opacity="1" fill-rule="nonzero"/><path fill="#000000" d="M 50.464844 45.535156 C 43.707031 45.535156 38.207031 40.035156 38.207031 33.277344 C 38.207031 26.519531 43.707031 21.019531 50.464844 21.019531 C 57.222656 21.019531 62.71875 26.519531 62.71875 33.277344 C 62.71875 40.035156 57.222656 45.535156 50.464844 45.535156 Z M 50.464844 29.191406 C 48.210938 29.191406 46.378906 31.023438 46.378906 33.277344 C 46.378906 35.53125 48.210938 37.363281 50.464844 37.363281 C 52.714844 37.363281 54.550781 35.53125 54.550781 33.277344 C 54.550781 31.023438 52.714844 29.191406 50.464844 29.191406 Z M 50.464844 29.191406 " fill-opacity="1" fill-rule="nonzero"/><path fill="#000000" d="M 58.632812 221.207031 C 49.621094 221.207031 42.292969 213.875 42.292969 204.863281 C 42.292969 195.851562 49.621094 188.523438 58.632812 188.523438 C 67.648438 188.523438 74.976562 195.851562 74.976562 204.863281 C 74.976562 213.875 67.648438 221.207031 58.632812 221.207031 Z M 58.632812 196.695312 C 54.128906 196.695312 50.464844 200.359375 50.464844 204.863281 C 50.464844 209.371094 54.128906 213.035156 58.632812 213.035156 C 63.140625 213.035156 66.804688 209.371094 66.804688 204.863281 C 66.804688 200.359375 63.140625 196.695312 58.632812 196.695312 Z M 58.632812 196.695312 " fill-opacity="1" fill-rule="nonzero"/><path fill="#000000" d="M 30.035156 106.816406 C 27.78125 106.816406 25.953125 104.988281 25.953125 102.730469 L 25.953125 86.386719 C 25.953125 84.128906 27.78125 82.300781 30.035156 82.300781 C 32.292969 82.300781 34.121094 84.128906 34.121094 86.386719 L 34.121094 102.730469 C 34.121094 104.988281 32.292969 106.816406 30.035156 106.816406 Z M 30.035156 106.816406 " fill-opacity="1" fill-rule="nonzero"/><g clip-path="url(#id1)"><path fill="#000000" d="M 38.207031 98.644531 L 21.867188 98.644531 C 19.609375 98.644531 17.78125 96.816406 17.78125 94.558594 C 17.78125 92.300781 19.609375 90.472656 21.867188 90.472656 L 38.207031 90.472656 C 40.460938 90.472656 42.292969 92.300781 42.292969 94.558594 C 42.292969 96.816406 40.460938 98.644531 38.207031 98.644531 Z M 38.207031 98.644531 " fill-opacity="1" fill-rule="nonzero"/></g><path fill="#000000" d="M 250.648438 172.179688 C 248.394531 172.179688 246.5625 170.355469 246.5625 168.09375 L 246.5625 151.753906 C 246.5625 149.496094 248.394531 147.667969 250.648438 147.667969 C 252.902344 147.667969 254.734375 149.496094 254.734375 151.753906 L 254.734375 168.09375 C 254.734375 170.355469 252.902344 172.179688 250.648438 172.179688 Z M 250.648438 172.179688 " fill-opacity="1" fill-rule="nonzero"/><path fill="#000000" d="M 258.820312 164.011719 L 242.476562 164.011719 C 240.222656 164.011719 238.390625 162.183594 238.390625 159.925781 C 238.390625 157.664062 240.222656 155.839844 242.476562 155.839844 L 258.820312 155.839844 C 261.074219 155.839844 262.90625 157.664062 262.90625 159.925781 C 262.90625 162.183594 261.074219 164.011719 258.820312 164.011719 Z M 258.820312 164.011719 " fill-opacity="1" fill-rule="nonzero"/><g clip-path="url(#id2)"><path fill="#000000" d="M 119.914062 229.375 L 128.085938 229.375 L 128.085938 253.890625 L 119.914062 253.890625 Z M 119.914062 229.375 " fill-opacity="1" fill-rule="nonzero"/></g><path fill="#000000" d="M 119.914062 213.035156 L 128.085938 213.035156 L 128.085938 221.203125 L 119.914062 221.203125 Z M 119.914062 213.035156 " fill-opacity="1" fill-rule="nonzero"/><path fill="#000000" d="M 119.914062 180.351562 L 128.085938 180.351562 L 128.085938 204.863281 L 119.914062 204.863281 Z M 119.914062 180.351562 " fill-opacity="1" fill-rule="nonzero"/><g clip-path="url(#id3)"><path fill="#000000" d="M 152.597656 245.71875 L 160.769531 245.71875 L 160.769531 253.890625 L 152.597656 253.890625 Z M 152.597656 245.71875 " fill-opacity="1" fill-rule="nonzero"/></g><path fill="#000000" d="M 152.597656 229.375 L 160.769531 229.375 L 160.769531 237.546875 L 152.597656 237.546875 Z M 152.597656 229.375 " fill-opacity="1" fill-rule="nonzero"/><path fill="#000000" d="M 152.597656 180.351562 L 160.769531 180.351562 L 160.769531 221.207031 L 152.597656 221.207031 Z M 152.597656 180.351562 " fill-opacity="1" fill-rule="nonzero"/><path fill="#000000" d="M 136.257812 188.523438 L 144.429688 188.523438 L 144.429688 196.695312 L 136.257812 196.695312 Z M 136.257812 188.523438 " fill-opacity="1" fill-rule="nonzero"/><path fill="#000000" d="M 136.257812 237.546875 L 144.429688 237.546875 L 144.429688 245.71875 L 136.257812 245.71875 Z M 136.257812 237.546875 " fill-opacity="1" fill-rule="nonzero"/><path fill="#000000" d="M 136.257812 221.207031 L 144.429688 221.207031 L 144.429688 229.375 L 136.257812 229.375 Z M 136.257812 221.207031 " fill-opacity="1" fill-rule="nonzero"/><path fill="#000000" d="M 136.257812 204.863281 L 144.429688 204.863281 L 144.429688 213.035156 L 136.257812 213.035156 Z M 136.257812 204.863281 " fill-opacity="1" fill-rule="nonzero"/><path fill="#000000" d="M 217.964844 110.898438 L 226.136719 110.898438 L 226.136719 119.070312 L 217.964844 119.070312 Z M 217.964844 110.898438 " fill-opacity="1" fill-rule="nonzero"/><path fill="#000000" d="M 66.804688 70.046875 L 74.976562 70.046875 L 74.976562 78.21875 L 66.804688 78.21875 Z M 66.804688 70.046875 " fill-opacity="1" fill-rule="nonzero"/><path fill="#4d4d4d" d="M 111.746094 151.753906 L 91.316406 176.265625 L 91.316406 162.375 C 91.316406 147.726562 97.136719 133.675781 107.496094 123.320312 L 107.660156 123.15625 Z M 111.746094 151.753906 " fill-opacity="1" fill-rule="nonzero"/><path fill="#000000" d="M 91.316406 180.351562 C 90.851562 180.351562 90.382812 180.269531 89.929688 180.105469 C 88.3125 179.523438 87.234375 177.988281 87.234375 176.265625 L 87.234375 162.378906 C 87.234375 146.53125 93.402344 131.636719 104.609375 120.429688 C 105.703125 119.335938 107.402344 118.875 108.867188 119.359375 C 110.335938 119.851562 111.484375 121.042969 111.699219 122.578125 L 115.785156 151.175781 C 115.949219 152.316406 115.617188 153.476562 114.878906 154.367188 L 94.453125 178.882812 C 93.667969 179.832031 92.507812 180.351562 91.316406 180.351562 Z M 104.898438 132.703125 C 98.699219 141.375 95.402344 151.625 95.402344 162.378906 L 95.402344 164.988281 L 107.441406 150.535156 Z M 104.898438 132.703125 " fill-opacity="1" fill-rule="nonzero"/><path fill="#4d4d4d" d="M 173.1875 123.320312 L 168.941406 151.753906 L 189.367188 176.265625 L 189.367188 162.375 C 189.367188 147.726562 183.550781 133.679688 173.1875 123.320312 L 173.027344 123.15625 " fill-opacity="1" fill-rule="nonzero"/><path fill="#000000" d="M 189.367188 180.351562 C 188.179688 180.351562 187.023438 179.832031 186.230469 178.886719 L 165.804688 154.371094 C 165.054688 153.472656 164.726562 152.304688 164.898438 151.152344 L 169.148438 122.71875 L 172.914062 123.28125 L 173.027344 123.15625 L 175.914062 120.269531 C 187.285156 131.632812 193.453125 146.53125 193.453125 162.378906 L 193.453125 176.265625 C 193.453125 177.988281 192.375 179.523438 190.757812 180.105469 C 190.304688 180.269531 189.832031 180.351562 189.367188 180.351562 Z M 173.25 150.542969 L 185.28125 164.984375 L 185.28125 162.375 C 185.28125 151.636719 181.996094 141.402344 175.902344 132.828125 Z M 173.25 150.542969 " fill-opacity="1" fill-rule="nonzero"/><path fill="#ffffff" d="M 173.027344 90.472656 C 173.027344 36.320312 140.34375 12.851562 140.34375 12.851562 C 140.34375 12.851562 107.660156 36.320312 107.660156 90.472656 C 107.660156 116.804688 111.125 145.519531 116.753906 168.09375 L 163.925781 168.09375 C 169.5625 145.519531 173.027344 116.804688 173.027344 90.472656 Z M 173.027344 90.472656 " fill-opacity="1" fill-rule="nonzero"/><path fill="#f57c00" d="M 173.027344 90.472656 C 173.027344 74.101562 170.015625 60.582031 165.847656 49.621094 L 114.835938 49.621094 C 110.671875 60.582031 107.660156 74.101562 107.660156 90.472656 C 107.660156 110.792969 109.738281 132.507812 113.273438 151.753906 L 167.417969 151.753906 C 170.945312 132.507812 173.027344 110.792969 173.027344 90.472656 Z M 173.027344 90.472656 " fill-opacity="1" fill-rule="nonzero"/><g clip-path="url(#id4)"><path fill="#000000" d="M 163.925781 172.179688 L 116.757812 172.179688 C 114.882812 172.179688 113.25 170.902344 112.792969 169.085938 C 107.019531 145.9375 103.574219 116.550781 103.574219 90.472656 C 103.574219 34.867188 136.554688 10.542969 137.960938 9.527344 C 139.386719 8.507812 141.300781 8.507812 142.726562 9.527344 C 144.128906 10.542969 177.109375 34.867188 177.109375 90.472656 C 177.109375 116.550781 173.667969 145.9375 167.894531 169.085938 C 167.441406 170.90625 165.804688 172.179688 163.925781 172.179688 Z M 119.972656 164.011719 L 160.714844 164.011719 C 165.878906 141.980469 168.941406 114.765625 168.941406 90.472656 C 168.941406 47.574219 147.621094 24.710938 140.351562 18.167969 C 133.101562 24.738281 111.746094 47.738281 111.746094 90.472656 C 111.746094 114.765625 114.804688 141.980469 119.972656 164.011719 Z M 119.972656 164.011719 " fill-opacity="1" fill-rule="nonzero"/></g><path fill="#000000" d="M 115.832031 45.535156 L 164.855469 45.535156 L 164.855469 53.703125 L 115.832031 53.703125 Z M 115.832031 45.535156 " fill-opacity="1" fill-rule="nonzero"/><path fill="#000000" d="M 111.746094 147.667969 L 168.941406 147.667969 L 168.941406 155.839844 L 111.746094 155.839844 Z M 111.746094 147.667969 " fill-opacity="1" fill-rule="nonzero"/><path fill="#ffffff" d="M 156.683594 82.300781 C 156.683594 82.835938 156.65625 83.371094 156.605469 83.902344 C 156.554688 84.4375 156.472656 84.964844 156.371094 85.492188 C 156.265625 86.015625 156.136719 86.535156 155.980469 87.046875 C 155.824219 87.558594 155.644531 88.0625 155.441406 88.554688 C 155.234375 89.050781 155.007812 89.535156 154.753906 90.003906 C 154.503906 90.476562 154.226562 90.9375 153.929688 91.382812 C 153.632812 91.828125 153.3125 92.253906 152.976562 92.667969 C 152.636719 93.082031 152.277344 93.480469 151.898438 93.859375 C 151.519531 94.234375 151.125 94.59375 150.710938 94.933594 C 150.296875 95.273438 149.867188 95.59375 149.421875 95.890625 C 148.976562 96.1875 148.519531 96.460938 148.046875 96.714844 C 147.574219 96.964844 147.089844 97.195312 146.597656 97.398438 C 146.101562 97.605469 145.597656 97.785156 145.085938 97.941406 C 144.574219 98.09375 144.054688 98.226562 143.53125 98.328125 C 143.003906 98.433594 142.476562 98.511719 141.945312 98.566406 C 141.410156 98.617188 140.878906 98.644531 140.34375 98.644531 C 139.808594 98.644531 139.273438 98.617188 138.742188 98.566406 C 138.207031 98.511719 137.679688 98.433594 137.15625 98.328125 C 136.628906 98.226562 136.109375 98.09375 135.597656 97.941406 C 135.085938 97.785156 134.582031 97.605469 134.089844 97.398438 C 133.59375 97.195312 133.109375 96.964844 132.640625 96.714844 C 132.167969 96.460938 131.707031 96.1875 131.265625 95.890625 C 130.820312 95.59375 130.390625 95.273438 129.976562 94.933594 C 129.5625 94.59375 129.164062 94.234375 128.789062 93.859375 C 128.410156 93.480469 128.050781 93.082031 127.710938 92.667969 C 127.371094 92.253906 127.050781 91.828125 126.753906 91.382812 C 126.457031 90.9375 126.183594 90.476562 125.929688 90.003906 C 125.679688 89.535156 125.449219 89.050781 125.246094 88.554688 C 125.039062 88.0625 124.859375 87.558594 124.703125 87.046875 C 124.550781 86.535156 124.417969 86.015625 124.316406 85.492188 C 124.210938 84.964844 124.132812 84.4375 124.078125 83.902344 C 124.027344 83.371094 124 82.835938 124 82.300781 C 124 81.765625 124.027344 81.234375 124.078125 80.699219 C 124.132812 80.167969 124.210938 79.640625 124.316406 79.113281 C 124.417969 78.589844 124.550781 78.070312 124.703125 77.558594 C 124.859375 77.046875 125.039062 76.542969 125.246094 76.046875 C 125.449219 75.554688 125.679688 75.070312 125.929688 74.597656 C 126.183594 74.128906 126.457031 73.667969 126.753906 73.222656 C 127.050781 72.777344 127.371094 72.347656 127.710938 71.933594 C 128.050781 71.523438 128.410156 71.125 128.789062 70.746094 C 129.164062 70.367188 129.5625 70.007812 129.976562 69.671875 C 130.390625 69.332031 130.820312 69.011719 131.265625 68.714844 C 131.707031 68.417969 132.167969 68.144531 132.640625 67.890625 C 133.109375 67.636719 133.59375 67.410156 134.089844 67.203125 C 134.582031 67 135.085938 66.820312 135.597656 66.664062 C 136.109375 66.507812 136.628906 66.378906 137.15625 66.273438 C 137.679688 66.171875 138.207031 66.09375 138.742188 66.039062 C 139.273438 65.988281 139.808594 65.960938 140.34375 65.960938 C 140.878906 65.960938 141.410156 65.988281 141.945312 66.039062 C 142.476562 66.09375 143.003906 66.171875 143.53125 66.273438 C 144.054688 66.378906 144.574219 66.507812 145.085938 66.664062 C 145.597656 66.820312 146.101562 67 146.597656 67.203125 C 147.089844 67.410156 147.574219 67.636719 148.046875 67.890625 C 148.519531 68.144531 148.976562 68.417969 149.421875 68.714844 C 149.867188 69.011719 150.296875 69.332031 150.710938 69.671875 C 151.125 70.007812 151.519531 70.367188 151.898438 70.746094 C 152.277344 71.125 152.636719 71.523438 152.976562 71.933594 C 153.3125 72.347656 153.632812 72.777344 153.929688 73.222656 C 154.226562 73.667969 154.503906 74.128906 154.753906 74.597656 C 155.007812 75.070312 155.234375 75.554688 155.441406 76.046875 C 155.644531 76.542969 155.824219 77.046875 155.980469 77.558594 C 156.136719 78.070312 156.265625 78.589844 156.371094 79.113281 C 156.472656 79.640625 156.554688 80.167969 156.605469 80.699219 C 156.65625 81.234375 156.683594 81.765625 156.683594 82.300781 Z M 156.683594 82.300781 " fill-opacity="1" fill-rule="nonzero"/><path fill="#000000" d="M 140.34375 102.730469 C 129.078125 102.730469 119.914062 93.566406 119.914062 82.300781 C 119.914062 71.039062 129.078125 61.875 140.34375 61.875 C 151.605469 61.875 160.769531 71.039062 160.769531 82.300781 C 160.769531 93.566406 151.605469 102.730469 140.34375 102.730469 Z M 140.34375 70.046875 C 133.585938 70.046875 128.085938 75.546875 128.085938 82.300781 C 128.085938 89.058594 133.585938 94.558594 140.34375 94.558594 C 147.101562 94.558594 152.597656 89.058594 152.597656 82.300781 C 152.597656 75.546875 147.101562 70.046875 140.34375 70.046875 Z M 140.34375 70.046875 " fill-opacity="1" fill-rule="nonzero"/><path fill="#000000" d="M 136.257812 78.21875 L 144.429688 78.21875 L 144.429688 86.386719 L 136.257812 86.386719 Z M 136.257812 78.21875 " fill-opacity="1" fill-rule="nonzero"/><path fill="#000000" d="M 136.257812 110.898438 L 144.429688 110.898438 L 144.429688 119.070312 L 136.257812 119.070312 Z M 136.257812 110.898438 " fill-opacity="1" fill-rule="nonzero"/><path fill="#000000" d="M 140.34375 180.351562 C 138.085938 180.351562 136.257812 178.527344 136.257812 176.265625 L 136.257812 131.328125 C 136.257812 129.066406 138.085938 127.242188 140.34375 127.242188 C 142.597656 127.242188 144.429688 129.066406 144.429688 131.328125 L 144.429688 176.265625 C 144.429688 178.527344 142.597656 180.351562 140.34375 180.351562 Z M 140.34375 180.351562 " fill-opacity="1" fill-rule="nonzero"/><path fill="#000000" d="M 197.539062 21.019531 L 205.707031 21.019531 L 205.707031 29.191406 L 197.539062 29.191406 Z M 197.539062 21.019531 " fill-opacity="1" fill-rule="nonzero"/><path fill="#000000" d="M 226.136719 192.609375 L 234.308594 192.609375 L 234.308594 200.777344 L 226.136719 200.777344 Z M 226.136719 192.609375 " fill-opacity="1" fill-rule="nonzero"/><path fill="#000000" d="M 46.378906 139.496094 L 54.550781 139.496094 L 54.550781 147.667969 L 46.378906 147.667969 Z M 46.378906 139.496094 " fill-opacity="1" fill-rule="nonzero"/><g fill="#f57c00" fill-opacity="1"><g transform="translate(276.290386, 188.571762)"><g><path d="M 7.277344 -2.328125 C 7.277344 -0.875 8.148438 0 9.605469 0 L 24.742188 0 C 26.339844 0 27.070312 -0.875 27.070312 -2.328125 L 27.070312 -39.003906 L 44.535156 -39.003906 C 58.214844 -39.003906 65.488281 -46.425781 65.488281 -59.960938 L 65.488281 -95.46875 C 65.488281 -109.148438 58.214844 -116.425781 44.535156 -116.425781 L 9.605469 -116.425781 C 8.148438 -116.425781 7.277344 -115.554688 7.277344 -114.097656 Z M 27.070312 -58.214844 L 27.070312 -97.214844 L 39.875 -97.214844 C 43.804688 -97.214844 45.699219 -95.179688 45.699219 -91.394531 L 45.699219 -64.035156 C 45.699219 -60.394531 43.804688 -58.214844 39.875 -58.214844 Z M 27.070312 -58.214844 "/></g></g></g><g fill="#f57c00" fill-opacity="1"><g transform="translate(349.057028, 188.571762)"><g><path d="M 67.089844 -95.46875 C 67.089844 -109.148438 59.8125 -116.425781 46.132812 -116.425781 L 9.605469 -116.425781 C 8.148438 -116.425781 7.277344 -115.554688 7.277344 -114.097656 L 7.277344 -2.328125 C 7.277344 -0.875 8.148438 0 9.605469 0 L 24.742188 0 C 26.195312 0 27.070312 -0.875 27.070312 -2.328125 L 27.070312 -39.003906 L 37.109375 -39.003906 L 46.863281 -2.039062 C 47.152344 -0.726562 47.878906 0 49.335938 0 L 64.472656 0 C 66.070312 0 66.945312 -0.875 66.507812 -2.621094 L 56.46875 -40.75 C 63.453125 -43.804688 67.089844 -50.210938 67.089844 -59.960938 Z M 27.070312 -58.214844 L 27.070312 -97.214844 L 41.476562 -97.214844 C 45.261719 -97.214844 47.296875 -95.179688 47.296875 -91.394531 L 47.296875 -64.035156 C 47.296875 -60.25 45.261719 -58.214844 41.476562 -58.214844 Z M 27.070312 -58.214844 "/></g></g></g><g fill="#f57c00" fill-opacity="1"><g transform="translate(423.42454, 188.571762)"><g><path d="M 7.277344 -20.957031 C 7.277344 -7.277344 14.554688 0 28.234375 0 L 44.535156 0 C 58.214844 0 65.488281 -7.277344 65.488281 -20.957031 L 65.488281 -95.46875 C 65.488281 -109.148438 58.214844 -116.425781 44.535156 -116.425781 L 28.234375 -116.425781 C 14.554688 -116.425781 7.277344 -109.148438 7.277344 -95.46875 Z M 32.453125 -18.773438 C 28.671875 -18.773438 26.632812 -20.664062 26.632812 -24.59375 L 26.632812 -91.832031 C 26.632812 -95.617188 28.671875 -97.652344 32.453125 -97.652344 L 40.894531 -97.652344 C 44.679688 -97.652344 46.714844 -95.617188 46.714844 -91.832031 L 46.714844 -24.59375 C 46.714844 -20.664062 44.679688 -18.773438 40.894531 -18.773438 Z M 32.453125 -18.773438 "/></g></g></g><g fill="#000000" fill-opacity="1"><g transform="translate(497.70613, 135.618385)"><g><path d="M 45.289062 0 C 46.332031 0 46.765625 -0.519531 46.503906 -1.476562 L 32.101562 -59.519531 C 31.929688 -60.386719 31.410156 -60.734375 30.628906 -60.734375 L 18.566406 -60.734375 C 17.785156 -60.734375 17.265625 -60.386719 17.09375 -59.519531 L 2.691406 -1.476562 C 2.429688 -0.519531 2.863281 0 3.816406 0 L 12.320312 0 C 13.101562 0 13.535156 -0.433594 13.707031 -1.214844 L 16.398438 -12.148438 L 32.710938 -12.148438 L 35.488281 -1.214844 C 35.660156 -0.433594 36.09375 0 36.875 0 Z M 30.019531 -22.210938 L 19.089844 -22.210938 L 24.554688 -45.8125 Z M 30.019531 -22.210938 "/></g></g></g><g fill="#000000" fill-opacity="1"><g transform="translate(546.89774, 135.618385)"><g><path d="M 39.128906 -48.242188 C 39.128906 -56.394531 34.707031 -60.734375 26.636719 -60.734375 L 16.917969 -60.734375 C 8.761719 -60.734375 4.339844 -56.394531 4.339844 -48.242188 L 4.339844 -12.492188 C 4.339844 -4.339844 8.761719 0 16.917969 0 L 26.636719 0 C 34.707031 0 39.128906 -4.339844 39.128906 -12.492188 L 39.128906 -21.863281 C 39.128906 -22.730469 38.609375 -23.253906 37.742188 -23.253906 L 29.585938 -23.253906 C 28.632812 -23.253906 28.199219 -22.730469 28.199219 -21.863281 L 28.199219 -14.488281 C 28.199219 -12.148438 26.984375 -11.019531 24.726562 -11.019531 L 19.175781 -11.019531 C 16.917969 -11.019531 15.703125 -12.148438 15.703125 -14.488281 L 15.703125 -45.984375 C 15.703125 -48.242188 16.832031 -49.457031 19.175781 -49.457031 L 24.726562 -49.457031 C 26.984375 -49.457031 28.199219 -48.242188 28.199219 -45.984375 L 28.199219 -38.871094 C 28.199219 -38.003906 28.632812 -37.480469 29.585938 -37.480469 L 37.742188 -37.480469 C 38.609375 -37.480469 39.128906 -38.003906 39.128906 -38.871094 Z M 39.128906 -48.242188 "/></g></g></g><g fill="#000000" fill-opacity="1"><g transform="translate(590.363351, 135.618385)"><g><path d="M 35.921875 -60.734375 C 36.875 -60.734375 37.308594 -60.214844 37.308594 -59.347656 L 37.308594 -50.671875 C 37.308594 -49.800781 36.875 -49.28125 35.921875 -49.28125 L 25.855469 -49.28125 L 25.855469 -1.386719 C 25.855469 -0.433594 25.421875 0 24.46875 0 L 15.445312 0 C 14.578125 0 14.054688 -0.433594 14.054688 -1.386719 L 14.054688 -49.28125 L 3.992188 -49.28125 C 3.125 -49.28125 2.601562 -49.800781 2.601562 -50.671875 L 2.601562 -59.347656 C 2.601562 -60.214844 3.125 -60.734375 3.992188 -60.734375 Z M 35.921875 -60.734375 "/></g></g></g><g fill="#000000" fill-opacity="1"><g transform="translate(630.271887, 135.618385)"><g><path d="M 5.726562 0 C 4.773438 0 4.339844 -0.519531 4.339844 -1.386719 L 4.339844 -59.347656 C 4.339844 -60.214844 4.773438 -60.734375 5.726562 -60.734375 L 14.75 -60.734375 C 15.617188 -60.734375 16.136719 -60.214844 16.136719 -59.347656 L 16.136719 -1.386719 C 16.136719 -0.519531 15.617188 0 14.75 0 Z M 5.726562 0 "/></g></g></g><g fill="#000000" fill-opacity="1"><g transform="translate(650.746707, 135.618385)"><g><path d="M 33.230469 -60.734375 C 32.1875 -60.734375 31.582031 -60.214844 31.320312 -59.171875 L 22.644531 -19.957031 L 14.054688 -59.171875 C 13.796875 -60.214844 13.1875 -60.734375 12.148438 -60.734375 L 4.25 -60.734375 C 2.949219 -60.734375 2.429688 -60.039062 2.691406 -58.824219 L 16.398438 -1.5625 C 16.660156 -0.519531 17.265625 0 18.308594 0 L 26.984375 0 C 28.023438 0 28.632812 -0.519531 28.890625 -1.5625 L 42.6875 -58.824219 C 42.949219 -60.039062 42.425781 -60.734375 41.125 -60.734375 Z M 33.230469 -60.734375 "/></g></g></g><g fill="#000000" fill-opacity="1"><g transform="translate(696.120974, 135.618385)"><g><path d="M 38.957031 -59.347656 C 38.957031 -60.214844 38.609375 -60.734375 37.570312 -60.734375 L 5.640625 -60.734375 C 4.859375 -60.734375 4.339844 -60.214844 4.339844 -59.347656 L 4.339844 -1.386719 C 4.339844 -0.519531 4.859375 0 5.640625 0 L 37.570312 0 C 38.609375 0 38.957031 -0.519531 38.957031 -1.386719 L 38.957031 -10.066406 C 38.957031 -11.019531 38.609375 -11.453125 37.570312 -11.453125 L 16.136719 -11.453125 L 16.136719 -24.292969 L 32.449219 -24.292969 C 33.316406 -24.292969 33.835938 -24.8125 33.835938 -25.769531 L 33.835938 -34.359375 C 33.835938 -35.3125 33.316406 -35.832031 32.449219 -35.832031 L 16.136719 -35.832031 L 16.136719 -49.195312 L 37.570312 -49.195312 C 38.609375 -49.195312 38.957031 -49.800781 38.957031 -50.671875 Z M 38.957031 -59.347656 "/></g></g></g><g fill="#000000" fill-opacity="1"><g transform="translate(497.70613, 182.991272)"><g><path d="M 2.746094 -7.90625 C 2.746094 -2.746094 5.488281 0 10.652344 0 L 16.800781 0 C 21.90625 0 24.707031 -2.746094 24.707031 -7.90625 L 24.707031 -20.421875 C 24.707031 -21.027344 24.375 -21.300781 23.828125 -21.300781 L 14.933594 -21.300781 C 14.328125 -21.300781 14.054688 -21.027344 14.054688 -20.421875 L 14.054688 -14.933594 C 14.054688 -14.382812 14.328125 -14.054688 14.933594 -14.054688 L 17.789062 -14.054688 L 17.789062 -9.277344 C 17.789062 -7.796875 17.019531 -7.082031 15.59375 -7.082031 L 12.078125 -7.082031 C 10.652344 -7.082031 9.882812 -7.796875 9.882812 -9.277344 L 9.882812 -29.152344 C 9.882812 -30.578125 10.597656 -31.347656 12.078125 -31.347656 L 15.59375 -31.347656 C 17.019531 -31.347656 17.789062 -30.578125 17.789062 -29.152344 L 17.789062 -26.460938 C 17.789062 -25.914062 18.0625 -25.582031 18.667969 -25.582031 L 23.828125 -25.582031 C 24.375 -25.582031 24.707031 -25.914062 24.707031 -26.460938 L 24.707031 -30.523438 C 24.707031 -35.683594 21.90625 -38.429688 16.800781 -38.429688 L 10.652344 -38.429688 C 5.488281 -38.429688 2.746094 -35.683594 2.746094 -30.523438 Z M 2.746094 -7.90625 "/></g></g></g><g fill="#000000" fill-opacity="1"><g transform="translate(525.149931, 182.991272)"><g><path d="M 24.707031 -30.523438 C 24.707031 -35.683594 21.960938 -38.429688 16.800781 -38.429688 L 3.625 -38.429688 C 3.074219 -38.429688 2.746094 -38.101562 2.746094 -37.550781 L 2.746094 -0.878906 C 2.746094 -0.328125 3.074219 0 3.625 0 L 9.003906 0 C 9.550781 0 9.882812 -0.328125 9.882812 -0.878906 L 9.882812 -11.585938 L 14.769531 -11.585938 L 17.402344 -0.769531 C 17.511719 -0.273438 17.789062 0 18.335938 0 L 23.71875 0 C 24.320312 0 24.652344 -0.328125 24.484375 -0.988281 L 21.632812 -12.792969 C 23.664062 -14.054688 24.707031 -16.304688 24.707031 -19.488281 Z M 9.882812 -18.667969 L 9.882812 -31.347656 L 15.371094 -31.347656 C 16.800781 -31.347656 17.566406 -30.578125 17.566406 -29.152344 L 17.566406 -20.863281 C 17.566406 -19.433594 16.800781 -18.667969 15.371094 -18.667969 Z M 9.882812 -18.667969 "/></g></g></g><g fill="#000000" fill-opacity="1"><g transform="translate(552.593732, 182.991272)"><g><path d="M 28.65625 0 C 29.316406 0 29.589844 -0.328125 29.425781 -0.933594 L 20.3125 -37.660156 C 20.203125 -38.210938 19.875 -38.429688 19.378906 -38.429688 L 11.75 -38.429688 C 11.253906 -38.429688 10.925781 -38.210938 10.816406 -37.660156 L 1.703125 -0.933594 C 1.539062 -0.328125 1.8125 0 2.414062 0 L 7.796875 0 C 8.289062 0 8.566406 -0.273438 8.675781 -0.769531 L 10.375 -7.6875 L 20.699219 -7.6875 L 22.453125 -0.769531 C 22.5625 -0.273438 22.839844 0 23.332031 0 Z M 18.996094 -14.054688 L 12.078125 -14.054688 L 15.535156 -28.988281 Z M 18.996094 -14.054688 "/></g></g></g><g fill="#000000" fill-opacity="1"><g transform="translate(583.715012, 182.991272)"><g><path d="M 25.695312 -38.429688 C 25.035156 -38.429688 24.652344 -38.101562 24.484375 -37.496094 L 18.390625 -13.011719 L 12.296875 -37.496094 C 12.132812 -38.101562 11.75 -38.429688 11.089844 -38.429688 L 3.84375 -38.429688 C 3.128906 -38.429688 2.746094 -38.046875 2.746094 -37.332031 L 2.746094 -1.097656 C 2.746094 -0.382812 3.128906 0 3.84375 0 L 8.894531 0 C 9.609375 0 9.992188 -0.382812 9.992188 -1.097656 L 9.992188 -22.675781 L 10.375 -22.675781 L 15.535156 -0.933594 C 15.703125 -0.328125 16.085938 0 16.746094 0 L 19.984375 0 C 20.644531 0 21.027344 -0.328125 21.191406 -0.933594 L 26.351562 -22.675781 L 26.738281 -22.675781 L 26.738281 -1.097656 C 26.738281 -0.382812 27.121094 0 27.835938 0 L 32.941406 0 C 33.652344 0 34.039062 -0.382812 34.039062 -1.097656 L 34.039062 -37.332031 C 34.039062 -38.046875 33.652344 -38.429688 32.941406 -38.429688 Z M 25.695312 -38.429688 "/></g></g></g><g fill="#000000" fill-opacity="1"><g transform="translate(620.489715, 182.991272)"><g><path d="M 25.695312 -38.429688 C 25.035156 -38.429688 24.652344 -38.101562 24.484375 -37.496094 L 18.390625 -13.011719 L 12.296875 -37.496094 C 12.132812 -38.101562 11.75 -38.429688 11.089844 -38.429688 L 3.84375 -38.429688 C 3.128906 -38.429688 2.746094 -38.046875 2.746094 -37.332031 L 2.746094 -1.097656 C 2.746094 -0.382812 3.128906 0 3.84375 0 L 8.894531 0 C 9.609375 0 9.992188 -0.382812 9.992188 -1.097656 L 9.992188 -22.675781 L 10.375 -22.675781 L 15.535156 -0.933594 C 15.703125 -0.328125 16.085938 0 16.746094 0 L 19.984375 0 C 20.644531 0 21.027344 -0.328125 21.191406 -0.933594 L 26.351562 -22.675781 L 26.738281 -22.675781 L 26.738281 -1.097656 C 26.738281 -0.382812 27.121094 0 27.835938 0 L 32.941406 0 C 33.652344 0 34.039062 -0.382812 34.039062 -1.097656 L 34.039062 -37.332031 C 34.039062 -38.046875 33.652344 -38.429688 32.941406 -38.429688 Z M 25.695312 -38.429688 "/></g></g></g><g fill="#000000" fill-opacity="1"><g transform="translate(657.264417, 182.991272)"><g><path d="M 24.652344 -37.550781 C 24.652344 -38.101562 24.429688 -38.429688 23.773438 -38.429688 L 3.570312 -38.429688 C 3.074219 -38.429688 2.746094 -38.101562 2.746094 -37.550781 L 2.746094 -0.878906 C 2.746094 -0.328125 3.074219 0 3.570312 0 L 23.773438 0 C 24.429688 0 24.652344 -0.328125 24.652344 -0.878906 L 24.652344 -6.367188 C 24.652344 -6.972656 24.429688 -7.246094 23.773438 -7.246094 L 10.210938 -7.246094 L 10.210938 -15.371094 L 20.53125 -15.371094 C 21.082031 -15.371094 21.410156 -15.703125 21.410156 -16.304688 L 21.410156 -21.742188 C 21.410156 -22.34375 21.082031 -22.675781 20.53125 -22.675781 L 10.210938 -22.675781 L 10.210938 -31.128906 L 23.773438 -31.128906 C 24.429688 -31.128906 24.652344 -31.511719 24.652344 -32.0625 Z M 24.652344 -37.550781 "/></g></g></g><g fill="#000000" fill-opacity="1"><g transform="translate(684.653342, 182.991272)"><g><path d="M 24.707031 -30.523438 C 24.707031 -35.683594 21.960938 -38.429688 16.800781 -38.429688 L 3.625 -38.429688 C 3.074219 -38.429688 2.746094 -38.101562 2.746094 -37.550781 L 2.746094 -0.878906 C 2.746094 -0.328125 3.074219 0 3.625 0 L 9.003906 0 C 9.550781 0 9.882812 -0.328125 9.882812 -0.878906 L 9.882812 -11.585938 L 14.769531 -11.585938 L 17.402344 -0.769531 C 17.511719 -0.273438 17.789062 0 18.335938 0 L 23.71875 0 C 24.320312 0 24.652344 -0.328125 24.484375 -0.988281 L 21.632812 -12.792969 C 23.664062 -14.054688 24.707031 -16.304688 24.707031 -19.488281 Z M 9.882812 -18.667969 L 9.882812 -31.347656 L 15.371094 -31.347656 C 16.800781 -31.347656 17.566406 -30.578125 17.566406 -29.152344 L 17.566406 -20.863281 C 17.566406 -19.433594 16.800781 -18.667969 15.371094 -18.667969 Z M 9.882812 -18.667969 "/></g></g></g><g fill="#000000" fill-opacity="1"><g transform="translate(712.097143, 182.991272)"><g><path d="M 10.652344 -38.429688 C 5.546875 -38.429688 2.746094 -35.683594 2.746094 -30.523438 L 2.746094 -21.027344 C 2.746094 -19.984375 3.238281 -19.324219 4.226562 -18.996094 L 17.402344 -14.714844 L 17.402344 -9.167969 C 17.402344 -7.6875 16.636719 -6.972656 15.207031 -6.972656 L 12.242188 -6.972656 C 10.871094 -6.972656 10.046875 -7.6875 10.046875 -9.167969 L 10.046875 -11.472656 C 10.046875 -12.078125 9.773438 -12.351562 9.167969 -12.351562 L 3.625 -12.351562 C 3.074219 -12.351562 2.746094 -12.078125 2.746094 -11.472656 L 2.746094 -7.90625 C 2.746094 -2.746094 5.546875 0 10.652344 0 L 16.800781 0 C 21.960938 0 24.707031 -2.746094 24.707031 -7.90625 L 24.707031 -18.226562 C 24.707031 -19.269531 24.210938 -19.929688 23.277344 -20.257812 L 9.992188 -24.539062 L 9.992188 -29.207031 C 9.992188 -30.632812 10.816406 -31.402344 12.1875 -31.402344 L 15.207031 -31.402344 C 16.691406 -31.402344 17.402344 -30.632812 17.402344 -29.207031 L 17.402344 -26.902344 C 17.402344 -26.351562 17.734375 -26.023438 18.28125 -26.023438 L 23.828125 -26.023438 C 24.429688 -26.023438 24.707031 -26.351562 24.707031 -26.902344 L 24.707031 -30.523438 C 24.707031 -35.683594 21.960938 -38.429688 16.800781 -38.429688 Z M 10.652344 -38.429688 "/></g></g></g></svg>